<svg width="78" height="80" viewBox="0 0 78 80" fill="none" xmlns="http://www.w3.org/2000/svg">
<path d="M30.9603 36.7206V54.3413V57.2391V57.2451V57.2511V67.05V68.3752V76.0242C30.9603 76.6892 31.2336 77.2942 31.6742 77.7336C32.1149 78.1729 32.7218 78.4454 33.3888 78.4454C34.0558 78.4454 34.6627 78.1729 35.1034 77.7336C35.544 77.2942 35.8173 76.6892 35.8173 76.0242V68.3752V57.2523V57.2391V55.8166H42.3083V57.2391V57.2523V68.3752V76.0242C42.3083 76.6892 42.5816 77.2942 43.0223 77.7336C43.463 78.1729 44.0698 78.4454 44.7369 78.4454C45.4039 78.4454 46.0107 78.1729 46.4514 77.7336C46.8921 77.2942 47.1654 76.6892 47.1654 76.0242V68.3752V57.2523V57.2415V55.1852C47.0871 54.9187 47.045 54.6366 47.045 54.3449V36.2752H48.6066V36.7242V38.2811V45.6456V54.3461C48.6066 54.741 48.7692 55.1 49.0305 55.3604C49.2917 55.6209 49.6517 55.783 50.0479 55.783C50.444 55.783 50.804 55.6209 51.0653 55.3604C51.3266 55.1 51.4891 54.741 51.4891 54.3461V38.2823V35.4734V33.8456V31.1015C51.4891 30.7066 51.3266 30.3477 51.0653 30.0872C50.804 29.8267 50.444 29.6646 50.0479 29.6646H47.4158H30.5942H27.9622C27.5661 29.6646 27.2061 29.8267 26.9448 30.0872C26.6835 30.3477 26.521 30.7066 26.521 31.1015V33.8456V35.4734V38.2823V54.3461C26.521 54.741 26.6835 55.1 26.9448 55.3604C27.2061 55.6209 27.5661 55.783 27.9622 55.783C28.3583 55.783 28.7183 55.6209 28.9796 55.3604C29.2409 55.1 29.4034 54.741 29.4034 54.3461V38.2823V36.7254V36.2764H30.9651V36.7254L30.9603 36.7206ZM54.3198 31.0151H75.1665C75.9467 31.0151 76.6547 31.3332 77.1688 31.8446C77.6817 32.3559 78.0008 33.063 78.0008 33.8408V55.7818C78.0008 56.5596 77.6817 57.2667 77.1688 57.7781C76.6559 58.2894 75.9467 58.6075 75.1665 58.6075C74.7174 58.6075 74.2924 58.5019 73.9143 58.3146C73.9191 58.3867 73.9215 58.4575 73.9215 58.5271V76.2463C73.9215 77.2798 73.4977 78.2185 72.8162 78.8979C72.1348 79.5774 71.1932 79.9999 70.1565 79.9999C69.1198 79.9999 68.1783 79.5774 67.4968 78.8979C66.8153 78.2185 66.3915 77.2798 66.3915 76.2463V58.6411H63.2116V76.2463C63.2116 77.2798 62.7878 78.2185 62.1063 78.8979C61.4236 79.5774 60.4833 79.9999 59.4466 79.9999C58.4099 79.9999 57.4684 79.5774 56.7869 78.8979C56.1054 78.2185 55.6816 77.2798 55.6816 76.2463V58.5271C55.6816 58.4371 55.6852 58.3458 55.6924 58.2522C55.2854 58.4779 54.8183 58.6063 54.321 58.6063C53.5408 58.6063 52.8328 58.2882 52.3187 57.7769C52.0526 57.5116 51.8383 57.1935 51.695 56.8405C51.2218 57.1526 50.6547 57.3351 50.0467 57.3351C49.5711 57.3351 49.1196 57.2235 48.7198 57.0254C48.7246 57.101 48.727 57.1767 48.727 57.2499V76.023C48.727 77.1177 48.2779 78.1117 47.5555 78.8319C46.8331 79.5522 45.8349 79.9999 44.7381 79.9999C43.64 79.9999 42.643 79.5522 41.9206 78.8319C41.1982 78.1117 40.7491 77.1165 40.7491 76.023V57.3711H37.3802V76.023C37.3802 77.1177 36.9311 78.1117 36.2087 78.8319C35.4862 79.5522 34.4881 79.9999 33.3912 79.9999C32.2931 79.9999 31.2962 79.5522 30.5738 78.8319C29.8513 78.1117 29.4022 77.1165 29.4022 76.023V57.2499C29.4022 57.155 29.4058 57.0578 29.4143 56.9594C28.9832 57.1983 28.4872 57.3351 27.961 57.3351C27.353 57.3351 26.7859 57.1526 26.3127 56.8405C26.1682 57.1935 25.9551 57.5116 25.689 57.7769C25.1761 58.2882 24.4669 58.6063 23.6867 58.6063C23.2376 58.6063 22.8125 58.5007 22.4345 58.3134C22.4393 58.3855 22.4417 58.4563 22.4417 58.5259V76.245C22.4417 77.2786 22.0179 78.2173 21.3364 78.8967C20.6549 79.5762 19.7133 79.9987 18.6767 79.9987C17.64 79.9987 16.6984 79.5762 16.0169 78.8967C15.3354 78.2173 14.9116 77.2786 14.9116 76.245V58.6399H11.7318V76.245C11.7318 77.2786 11.3079 78.2173 10.6265 78.8967C9.94376 79.5762 9.00341 79.9987 7.96673 79.9987C6.93006 79.9987 5.9885 79.5762 5.30701 78.8967C4.62553 78.2173 4.20171 77.2786 4.20171 76.245V58.5259C4.20171 58.4359 4.20532 58.3446 4.21254 58.251C3.80558 58.4767 3.33841 58.6051 2.84114 58.6051C2.06093 58.6051 1.35295 58.287 0.838826 57.7757C0.325906 57.2643 0.00683594 56.5572 0.00683594 55.7794V33.8384C0.00683594 33.0606 0.325906 32.3535 0.838826 31.8422C1.35175 31.3308 2.06093 31.0127 2.84114 31.0127H23.6879C24.1454 31.0127 24.5776 31.1219 24.9605 31.3152V31.0943C24.9605 30.2708 25.2977 29.5218 25.8419 28.9792C26.3861 28.4366 27.1362 28.1005 27.9634 28.1005H50.0503C50.8762 28.1005 51.6276 28.4366 52.1718 28.9792C52.716 29.5218 53.0532 30.2696 53.0532 31.0943V31.3152C53.436 31.1219 53.8683 31.0127 54.3258 31.0127L54.3198 31.0151ZM72.6826 32.4844H56.8037H54.3198C53.9465 32.4844 53.607 32.6368 53.3602 32.8829C53.2241 33.0185 53.117 33.1818 53.0471 33.3631V54.3413C53.0471 54.5886 53.017 54.8287 52.9592 55.0591V55.7806C52.9592 56.1527 53.1121 56.4924 53.359 56.7385C53.6058 56.9846 53.9453 57.137 54.3186 57.137C54.6918 57.137 55.0314 56.9846 55.2782 56.7385C55.525 56.4924 55.678 56.1539 55.678 55.7806V40.6171V39.1478V38.7241H57.1517V39.1478V55.7806V58.5151V58.5199V58.5259V67.775V69.0258V76.2463C57.1517 76.8741 57.4094 77.4443 57.8248 77.8596C58.2401 78.2737 58.8133 78.5318 59.443 78.5318C60.0727 78.5318 60.6446 78.2749 61.0612 77.8596C61.4766 77.4455 61.7355 76.8741 61.7355 76.2463V69.0258V58.5271V58.5139V57.1719H67.8628V58.5139V58.5271V69.0258V76.2463C67.8628 76.8741 68.1205 77.4443 68.5359 77.8596C68.9513 78.2737 69.5244 78.5318 70.1541 78.5318C70.7838 78.5318 71.3557 78.2749 71.7723 77.8596C72.1877 77.4455 72.4466 76.8741 72.4466 76.2463V69.0258V58.5271V58.5163V56.5752C72.3719 56.3232 72.3322 56.0567 72.3322 55.7818V38.7265H73.806V39.1502V40.6195V47.5698V55.7818C73.806 56.1539 73.9589 56.4936 74.2057 56.7397C74.4525 56.9858 74.7921 57.1382 75.1653 57.1382C75.5386 57.1382 75.8781 56.9858 76.1249 56.7397C76.3718 56.4936 76.5247 56.1551 76.5247 55.7818V40.6183V37.9666V33.8408C76.5247 33.4687 76.3718 33.1302 76.1249 32.8829C75.8781 32.6368 75.5386 32.4844 75.1653 32.4844H72.6814H72.6826ZM64.8009 13.2371C66.7479 13.2371 68.5106 14.0246 69.7857 15.2958C71.0608 16.5682 71.8506 18.3256 71.8506 20.2655C71.8506 22.2065 71.062 23.9639 69.7857 25.2351C68.5094 26.5076 66.7467 27.2938 64.8009 27.2938C62.854 27.2938 61.0913 26.5076 59.8162 25.2351C58.54 23.9639 57.7513 22.2065 57.7513 20.2655C57.7513 18.3244 58.54 16.567 59.8162 15.2958C61.0913 14.0234 62.854 13.2371 64.8009 13.2371ZM68.6828 16.3966C67.6894 15.4062 66.3168 14.794 64.8009 14.794C63.2851 14.794 61.9125 15.4062 60.9203 16.3966C59.927 17.3869 59.3129 18.7554 59.3129 20.2667C59.3129 21.778 59.927 23.1464 60.9203 24.1356C61.9137 25.1259 63.2863 25.7381 64.8009 25.7381C66.3168 25.7381 67.6894 25.1259 68.6828 24.1356C69.6761 23.1452 70.2902 21.7768 70.2902 20.2667C70.2902 18.7554 69.6761 17.3869 68.6828 16.3966ZM21.1991 32.4844H5.32026H2.83633C2.46307 32.4844 2.12354 32.6368 1.87671 32.8829C1.62988 33.129 1.47697 33.4675 1.47697 33.8408V37.9666V40.6183V55.7818C1.47697 56.1539 1.62988 56.4936 1.87671 56.7397C2.12354 56.9858 2.46307 57.1382 2.83633 57.1382C3.20958 57.1382 3.54912 56.9858 3.79594 56.7397C4.04277 56.4936 4.19569 56.1551 4.19569 55.7818V40.6183V39.149V38.7253H5.66943V39.149V55.7818V58.5163V58.5211V58.5271V67.7762V69.027V76.2475C5.66943 76.8753 5.92709 77.4455 6.34248 77.8608C6.75788 78.2749 7.331 78.533 7.96071 78.533C8.59042 78.533 9.16234 78.2761 9.57894 77.8608C9.99433 77.4467 10.2532 76.8753 10.2532 76.2475V69.027V58.5283V58.5151V57.1731H16.3806V58.5151V58.5283V69.027V76.2475C16.3806 76.8753 16.6382 77.4455 17.0536 77.8608C17.469 78.2749 18.0421 78.533 18.6718 78.533C19.3015 78.533 19.8735 78.2761 20.2901 77.8608C20.7055 77.4467 20.9643 76.8753 20.9643 76.2475V69.027V58.5283V58.5175V56.5765C20.8897 56.3244 20.8499 56.0579 20.8499 55.783V38.7277H22.3237V39.1514V40.6207V47.571V55.783C22.3237 56.1551 22.4766 56.4948 22.7234 56.7409C22.9703 56.987 23.3098 57.1394 23.683 57.1394C24.0563 57.1394 24.3958 56.987 24.6427 56.7409C24.8895 56.4948 25.0424 56.1563 25.0424 55.783V55.0615C24.9858 54.8311 24.9545 54.591 24.9545 54.3437V33.3655C24.8847 33.1842 24.7775 33.0197 24.6415 32.8853C24.3946 32.6392 24.0551 32.4868 23.6818 32.4868H21.1979L21.1991 32.4844ZM13.3175 13.2371C15.2644 13.2371 17.0271 14.0246 18.3022 15.2958C19.5773 16.5682 20.3671 18.3256 20.3671 20.2655C20.3671 22.2065 19.5785 23.9639 18.3022 25.2351C17.0259 26.5076 15.2632 27.2938 13.3175 27.2938C11.3705 27.2938 9.60784 26.5076 8.33276 25.2351C7.05648 23.9639 6.26783 22.2065 6.26783 20.2655C6.26783 18.3244 7.05648 16.567 8.33276 15.2958C9.60784 14.0234 11.3705 13.2371 13.3175 13.2371ZM17.1993 16.3966C16.206 15.4062 14.8334 14.794 13.3175 14.794C11.8016 14.794 10.429 15.4062 9.43686 16.3966C8.44353 17.3869 7.82947 18.7554 7.82947 20.2667C7.82947 21.778 8.44353 23.1464 9.43686 24.1356C10.4302 25.1259 11.8028 25.7381 13.3175 25.7381C14.8334 25.7381 16.206 25.1259 17.1993 24.1356C18.1926 23.1452 18.8067 21.7768 18.8067 20.2667C18.8067 18.7554 18.1926 17.3869 17.1993 16.3966ZM39.7353 5.21962C39.7353 5.64936 39.3861 5.99748 38.9551 5.99748C38.524 5.99748 38.1749 5.64936 38.1749 5.21962V0.779326C38.1749 0.349582 38.524 0.00146484 38.9551 0.00146484C39.3861 0.00146484 39.7353 0.349582 39.7353 0.779326V5.21962ZM34.5784 6.86177C34.7927 7.23269 34.6639 7.70685 34.2918 7.91932C33.9198 8.13299 33.4442 8.00455 33.2311 7.63363L31.0048 3.78874C30.7905 3.41781 30.9193 2.94365 31.2914 2.73118C31.6634 2.51751 32.139 2.64595 32.3521 3.01688L34.5784 6.86177ZM44.9343 7.63363C44.72 8.00455 44.2456 8.13299 43.8736 7.91932C43.5015 7.70565 43.3727 7.23269 43.587 6.86177L45.8133 3.01688C46.0276 2.64595 46.502 2.51751 46.874 2.73118C47.2461 2.94485 47.3749 3.41781 47.1606 3.78874L44.9343 7.63363ZM39.0646 9.31539C41.1139 9.31539 42.9705 10.1437 44.313 11.4833C45.6567 12.823 46.4875 14.6728 46.4875 16.7159C46.4875 18.759 45.6567 20.61 44.313 21.9484C42.9693 23.2881 41.1139 24.1164 39.0646 24.1164C37.0154 24.1164 35.1587 23.2881 33.8162 21.9484C32.4725 20.6088 31.6417 18.759 31.6417 16.7159C31.6417 14.6728 32.4725 12.8218 33.8162 11.4833C35.1599 10.1437 37.0154 9.31539 39.0646 9.31539ZM43.2089 12.5829C42.1482 11.5253 40.6829 10.8711 39.0646 10.8711C37.4464 10.8711 35.9799 11.5253 34.9203 12.5829C33.8596 13.6404 33.2034 15.1013 33.2034 16.7147C33.2034 18.328 33.8596 19.7901 34.9203 20.8465C35.9811 21.904 37.4464 22.5582 39.0646 22.5582C40.6829 22.5582 42.1494 21.904 43.2089 20.8465C44.2697 19.7889 44.9259 18.328 44.9259 16.7147C44.9259 15.1013 44.2697 13.6392 43.2089 12.5829Z" fill="white"/>
</svg>
