<svg width="335" height="358" viewBox="0 0 335 358" fill="none" xmlns="http://www.w3.org/2000/svg">
<rect y="0.641602" width="335" height="357" fill="#E73C3C"/>
<mask id="mask0_999_9" style="mask-type:alpha" maskUnits="userSpaceOnUse" x="0" y="0" width="335" height="358">
<rect y="0.641602" width="335" height="357" fill="#E73C3C"/>
</mask>
<g mask="url(#mask0_999_9)">
<g clip-path="url(#clip0_999_9)">
<path d="M48.16 308.014C46.7116 308.759 44.8003 310.907 43.7946 314.022C43.7398 314.191 43.7207 314.371 43.7383 314.548C43.7559 314.726 43.8099 314.898 43.8969 315.054C43.9838 315.21 44.1019 315.347 44.2439 315.455C44.386 315.563 44.5489 315.641 44.7224 315.684C47.5259 316.376 50.2338 316.351 51.9648 315.644L52.0627 315.599C52.5996 315.339 53.0738 314.965 53.4529 314.504C53.8319 314.043 54.1069 313.506 54.2588 312.929C54.504 311.897 54.3665 310.811 53.8717 309.872C52.9016 307.987 50.6276 306.744 48.16 308.014ZM51.7334 312.297C51.6747 312.506 51.5718 312.701 51.4317 312.867C51.2916 313.033 51.1176 313.167 50.9213 313.261C50.1692 313.554 48.7296 313.732 46.8183 313.45C47.6483 311.714 48.743 310.64 49.3504 310.335C50.7255 309.627 51.4308 310.824 51.5576 311.071C51.7594 311.446 51.8217 311.881 51.7334 312.297Z" fill="white" fill-opacity="0.06"/>
<path d="M38.588 289.418C37.1395 290.163 35.2282 292.31 34.2225 295.425C34.1676 295.595 34.1484 295.775 34.166 295.952C34.1836 296.13 34.2377 296.302 34.3249 296.458C34.4117 296.614 34.5298 296.75 34.6719 296.859C34.8139 296.967 34.9768 297.045 35.1503 297.087C37.9538 297.779 40.6617 297.766 42.3927 297.047L42.4928 297.003C43.0294 296.742 43.5033 296.369 43.8819 295.908C44.2606 295.447 44.5352 294.91 44.6867 294.333C44.9317 293.301 44.7942 292.214 44.2996 291.276C43.3295 289.391 41.0555 288.147 38.588 289.418ZM42.1613 293.703C42.1023 293.912 41.9993 294.106 41.8592 294.272C41.7192 294.437 41.5453 294.571 41.3492 294.664C40.5972 294.958 39.1576 295.136 37.2463 294.854C38.0762 293.118 39.1709 292.043 39.7784 291.739C41.1534 291.029 41.8587 292.226 41.9855 292.473C42.1876 292.849 42.2499 293.285 42.1613 293.703Z" fill="white" fill-opacity="0.06"/>
<path d="M59.1671 329.399C57.7186 330.144 55.8073 332.291 54.8016 335.406C54.7467 335.576 54.7275 335.756 54.7451 335.933C54.7627 336.111 54.8168 336.283 54.904 336.439C54.9908 336.595 55.1089 336.732 55.2509 336.841C55.3929 336.949 55.5558 337.028 55.7295 337.071C58.533 337.76 61.2408 337.738 62.9718 337.028C63.0064 337.016 63.0399 337.001 63.072 336.984C63.6085 336.723 64.0824 336.35 64.4611 335.889C64.8397 335.428 65.1143 334.891 65.2658 334.314C65.5108 333.282 65.3733 332.195 64.8787 331.257C63.9086 329.372 61.6324 328.128 59.1671 329.399ZM62.7404 333.684C62.6814 333.893 62.5784 334.087 62.4384 334.253C62.2983 334.418 62.1244 334.552 61.9283 334.645C61.1763 334.939 59.7367 335.117 57.8254 334.835C58.6553 333.099 59.75 332.024 60.3575 331.72C61.7325 331.01 62.4378 332.207 62.5646 332.454C62.7682 332.83 62.8321 333.266 62.7449 333.684H62.7404Z" fill="white" fill-opacity="0.06"/>
<path d="M69.6962 349.855C68.2477 350.601 66.3364 352.748 65.3307 355.863C65.276 356.033 65.2568 356.212 65.2744 356.39C65.292 356.567 65.346 356.739 65.4331 356.895C65.5199 357.051 65.638 357.188 65.78 357.296C65.9221 357.405 66.085 357.482 66.2585 357.525C69.062 358.217 71.7699 358.192 73.5009 357.485L73.601 357.44C74.1373 357.179 74.611 356.806 74.9896 356.345C75.3683 355.884 75.6429 355.347 75.7948 354.77C76.041 353.737 75.9035 352.65 75.4077 351.711C74.4376 349.826 72.1637 348.585 69.6962 349.855ZM73.2695 354.138C73.2105 354.348 73.1075 354.542 72.9675 354.708C72.8274 354.874 72.6535 355.008 72.4574 355.102C71.7053 355.393 70.2657 355.571 68.3545 355.291C69.1844 353.556 70.2791 352.481 70.8865 352.176C72.2616 351.468 72.9669 352.666 73.0937 352.91C73.2964 353.286 73.3587 353.721 73.2695 354.138Z" fill="white" fill-opacity="0.06"/>
<path d="M22.8684 295.49C24.0715 295.189 25.236 294.752 26.3394 294.186C27.6744 293.501 28.6912 292.724 29.2319 292.092C29.2614 292.058 29.2889 292.023 29.3142 291.985C30.983 289.596 30.0974 287.117 28.3575 285.902C26.6175 284.687 23.9898 284.712 22.3211 287.099C21.5446 288.212 20.7013 291.229 21.2664 294.442C21.2969 294.618 21.3637 294.786 21.4625 294.935C21.5614 295.084 21.69 295.211 21.8404 295.307C21.9897 295.407 22.1582 295.475 22.3352 295.507C22.5122 295.538 22.6938 295.532 22.8684 295.49ZM24.4615 288.592C24.5947 288.371 24.773 288.181 24.9846 288.033C25.1962 287.886 25.4364 287.784 25.6897 287.736C26.1089 287.685 26.5321 287.793 26.8756 288.038C27.4942 288.472 27.9481 289.355 27.2294 290.439C26.7977 290.902 25.5362 291.827 23.6939 292.517C23.6516 290.584 24.1634 289.015 24.4615 288.59V288.592Z" fill="white" fill-opacity="0.06"/>
<path d="M64.4847 314.144C64.3892 314.193 64.3002 314.253 64.2199 314.324C64.0931 314.436 61.1049 317.086 60.117 320.152C60.0626 320.322 60.0438 320.501 60.0618 320.679C60.0798 320.856 60.1342 321.028 60.2216 321.184C60.3083 321.34 60.4261 321.476 60.5677 321.585C60.7094 321.693 60.8718 321.771 61.0449 321.814C63.5213 322.426 66.2536 322.065 67.4217 321.912L67.7177 321.872C67.9489 321.885 68.1796 321.836 68.3852 321.729C71.4245 320.172 72.032 317.439 71.0552 315.555C70.0784 313.67 67.5219 312.587 64.4847 314.144ZM67.4284 319.291C67.3105 319.291 67.1926 319.315 67.0791 319.331C65.813 319.522 64.531 319.587 63.2521 319.524C63.9663 318.369 64.8304 317.313 65.822 316.385C67.3328 315.664 68.3941 316.058 68.7501 316.745C69.1061 317.433 68.8168 318.483 67.4284 319.291Z" fill="white" fill-opacity="0.06"/>
<path d="M75.0132 334.601C74.9181 334.649 74.8292 334.709 74.7484 334.779C74.6216 334.89 71.6334 337.542 70.6477 340.606C70.5929 340.776 70.5737 340.956 70.5913 341.134C70.6089 341.312 70.663 341.484 70.7501 341.641C70.8371 341.796 70.955 341.932 71.0966 342.041C71.2382 342.149 71.4004 342.227 71.5733 342.27C74.0497 342.88 76.7821 342.52 77.948 342.366L78.2439 342.328C78.4751 342.342 78.7058 342.293 78.9114 342.186C81.9507 340.628 82.5581 337.896 81.5814 336.011C80.6046 334.127 78.0503 333.037 75.0132 334.601ZM77.9591 339.745C77.8367 339.745 77.721 339.772 77.6075 339.787C76.3412 339.976 75.0594 340.04 73.7805 339.979C74.4961 338.824 75.36 337.769 76.3504 336.839C77.8612 336.12 78.9225 336.512 79.2785 337.202C79.6345 337.892 79.3475 338.94 77.9591 339.745Z" fill="white" fill-opacity="0.06"/>
<path d="M53.3132 292.442C53.2177 292.49 53.1287 292.551 53.0484 292.622C52.9238 292.733 49.9334 295.385 48.9477 298.449C48.8935 298.619 48.8745 298.799 48.8921 298.977C48.9097 299.155 48.9635 299.327 49.0501 299.484C49.1373 299.64 49.2556 299.776 49.3976 299.884C49.5396 299.992 49.7022 300.07 49.8755 300.113C52.3497 300.723 55.0821 300.363 56.2502 300.209L56.5461 300.169C56.7773 300.182 57.0079 300.133 57.2136 300.027C60.2507 298.469 60.8581 295.737 59.8836 293.852C58.909 291.968 56.3503 290.877 53.3132 292.442ZM56.2591 297.588C56.139 297.588 56.021 297.615 55.9098 297.628C54.6436 297.818 53.3617 297.883 52.0828 297.822C52.7956 296.665 53.6599 295.609 54.6526 294.682C56.1634 293.961 57.2247 294.355 57.5785 295.043C57.9323 295.73 57.6475 296.789 56.2591 297.588Z" fill="white" fill-opacity="0.06"/>
<path d="M74.7756 422.266C100.926 408.807 118.083 388.125 124.393 362.462C129.973 339.751 126.643 314.796 115.008 292.192C103.374 269.588 85.0017 252.376 63.2768 243.72C43.1628 235.71 21.5402 235.568 0.00222717 243.178V248.713C49.8155 230.055 91.5165 258.058 110.322 294.604C121.38 316.091 124.582 339.749 119.3 361.238C113.548 384.641 98.0825 403.709 74.6199 416.463L74.3818 416.002C94.8518 404.708 107.901 386.966 112.038 364.576C115.82 344.059 111.935 321.095 101.042 299.931C90.1481 278.766 73.7098 262.257 54.8107 253.428C37.0774 245.136 18.3207 244.203 0.00222717 250.518V253.268C42.8468 237.849 80.614 265.986 98.7077 301.139C109.341 321.796 113.146 344.17 109.459 364.122C105.474 385.691 92.8626 402.812 73.1914 413.699L72.8999 413.132C91.8435 402.777 103.814 385.987 107.256 364.574C110.393 345.054 106.311 323.064 95.7974 302.638C77.7749 267.637 40.9378 239.226 0.00222717 253.933V255.319C40.3927 240.519 76.847 268.616 94.6604 303.224C105.047 323.404 109.045 345.129 105.952 364.376C102.577 385.371 91.0448 401.722 72.3036 411.975L0 271.497V282.68L71.2712 421.144C71.4276 421.448 71.6423 421.718 71.9031 421.939C72.1639 422.16 72.4656 422.327 72.7911 422.431C73.1165 422.535 73.4593 422.574 73.7998 422.546C74.1403 422.517 74.4719 422.422 74.7756 422.266Z" fill="white" fill-opacity="0.06"/>
<path d="M54.8973 170.476C55.2088 172.074 56.7396 174.506 59.4541 176.339C59.6026 176.438 59.7697 176.506 59.9453 176.539C60.1209 176.571 60.3013 176.568 60.4754 176.528C60.6495 176.488 60.8133 176.412 60.9569 176.306C61.1004 176.199 61.2205 176.064 61.3098 175.91C62.7538 173.409 63.4925 170.792 63.2833 168.941C63.2803 168.905 63.2752 168.869 63.2678 168.834C63.1668 168.246 62.9399 167.687 62.6027 167.195C62.2655 166.703 61.826 166.29 61.3143 165.984C60.3911 165.461 59.3095 165.291 58.2704 165.506C56.1878 165.913 54.3611 167.751 54.8973 170.476ZM60.0148 168.233C60.1993 168.348 60.3571 168.501 60.4777 168.682C60.5982 168.862 60.6786 169.067 60.7135 169.281C60.7847 170.085 60.5555 171.517 59.7545 173.286C58.3194 172.007 57.5896 170.656 57.4583 169.987C57.1602 168.467 58.5063 168.124 58.78 168.071C59.1949 167.977 59.6298 168.034 60.0059 168.233H60.0148Z" fill="white" fill-opacity="0.06"/>
<path d="M34.3717 174.501C34.6855 176.098 36.2163 178.53 38.9308 180.364C39.0788 180.463 39.2455 180.531 39.4207 180.563C39.596 180.596 39.776 180.592 39.9498 180.553C40.1242 180.512 40.2884 180.437 40.4323 180.33C40.5761 180.224 40.6967 180.089 40.7864 179.934C42.2282 177.433 42.9669 174.828 42.76 172.966C42.7569 172.93 42.7518 172.894 42.7444 172.859C42.6434 172.271 42.4163 171.711 42.0787 171.219C41.7411 170.727 41.301 170.314 40.7887 170.009C39.8656 169.485 38.7839 169.315 37.7448 169.53C35.6644 169.937 33.8377 171.775 34.3717 174.501ZM39.4892 172.258C39.6735 172.373 39.831 172.526 39.9515 172.707C40.072 172.887 40.1526 173.092 40.1879 173.306C40.2591 174.109 40.0299 175.542 39.2289 177.311C37.7916 176.032 37.064 174.681 36.9327 174.011C36.6346 172.492 37.9807 172.149 38.2521 172.096C38.6685 172.002 39.1048 172.059 39.4826 172.258H39.4892Z" fill="white" fill-opacity="0.06"/>
<path d="M78.4982 165.845C78.8119 167.445 80.3427 169.877 83.0572 171.711C83.2051 171.81 83.3719 171.878 83.5472 171.91C83.7226 171.942 83.9027 171.938 84.0763 171.897C84.2505 171.858 84.4147 171.782 84.5586 171.676C84.7025 171.57 84.8231 171.436 84.9128 171.281C86.3546 168.778 87.0934 166.175 86.8864 164.312C86.8836 164.276 86.8784 164.241 86.8708 164.206C86.7696 163.617 86.5424 163.058 86.2049 162.566C85.8673 162.073 85.4273 161.66 84.9151 161.353C83.9918 160.831 82.91 160.661 81.8713 160.877C79.7909 161.286 77.9642 163.122 78.4982 165.845ZM83.6157 163.605C83.8001 163.72 83.9579 163.873 84.0783 164.053C84.1988 164.234 84.2793 164.438 84.3143 164.653C84.3855 165.456 84.1563 166.878 83.3553 168.658C81.918 167.378 81.1904 166.028 81.0592 165.356C80.761 163.838 82.1071 163.494 82.3786 163.44C82.7953 163.347 83.2315 163.405 83.609 163.605H83.6157Z" fill="white" fill-opacity="0.06"/>
<path d="M101.075 161.42C101.389 163.018 102.92 165.45 105.632 167.283C105.781 167.382 105.948 167.45 106.123 167.482C106.299 167.515 106.479 167.51 106.653 167.47C106.828 167.43 106.992 167.355 107.135 167.249C107.279 167.143 107.399 167.008 107.488 166.854C108.932 164.353 109.671 161.747 109.464 159.885C109.464 159.849 109.464 159.812 109.448 159.778C109.347 159.19 109.12 158.63 108.782 158.138C108.444 157.646 108.005 157.232 107.492 156.926C106.568 156.403 105.486 156.234 104.446 156.45C102.368 156.857 100.541 158.695 101.075 161.42ZM106.193 159.177C106.378 159.291 106.536 159.444 106.657 159.625C106.777 159.806 106.857 160.011 106.891 160.225C106.965 161.029 106.736 162.45 105.933 164.219C104.497 162.94 103.77 161.589 103.636 160.92C103.34 159.4 104.684 159.055 104.956 159.004C105.373 158.914 105.808 158.975 106.184 159.177H106.193Z" fill="white" fill-opacity="0.06"/>
<path d="M35.8361 191.286C35.8813 190.048 35.785 188.809 35.5491 187.593C35.2598 186.12 34.7993 184.923 34.3431 184.222C34.319 184.184 34.2922 184.149 34.263 184.115C32.4318 181.848 29.813 182.01 28.1554 183.343C26.4978 184.676 25.7969 187.21 27.6258 189.475C28.4802 190.53 31.1436 192.178 34.3943 192.53C34.5711 192.548 34.7497 192.529 34.9189 192.474C35.0882 192.42 35.2443 192.331 35.3777 192.214C35.5134 192.099 35.6241 191.957 35.7029 191.798C35.7817 191.638 35.8271 191.464 35.8361 191.286ZM29.6506 187.84C29.476 187.65 29.3431 187.426 29.2603 187.182C29.1775 186.938 29.1468 186.679 29.17 186.422C29.2361 186.005 29.4579 185.628 29.7907 185.368C30.3781 184.894 31.3483 184.7 32.1938 185.695C32.5186 186.235 33.0571 187.697 33.2061 189.669C31.3416 189.17 29.9777 188.242 29.6506 187.84Z" fill="white" fill-opacity="0.06"/>
<path d="M114.167 168.545C113.815 169.855 114.051 172.977 115.678 175.814C115.767 175.968 115.887 176.103 116.03 176.209C116.173 176.316 116.336 176.391 116.51 176.432C116.684 176.473 116.864 176.478 117.04 176.446C117.216 176.414 117.383 176.345 117.531 176.245C120.103 174.521 121.839 172.256 122.366 170.883C122.382 170.842 122.396 170.799 122.406 170.756C122.608 170.047 122.645 169.3 122.513 168.574C122.353 167.804 121.98 167.096 121.437 166.528C120.893 165.96 120.202 165.557 119.44 165.363C117.391 164.811 114.923 165.737 114.167 168.545ZM118.764 167.877C119.174 167.982 119.53 168.237 119.761 168.591C119.88 168.806 119.955 169.043 119.981 169.287C120.007 169.531 119.984 169.778 119.912 170.013C119.665 170.596 118.799 171.9 117.293 173.17C116.601 171.368 116.545 169.72 116.681 169.219C117.035 167.908 118.023 167.677 118.764 167.875V167.877Z" fill="white" fill-opacity="0.06"/>
<path d="M65.3241 156.498C65.344 156.603 65.3776 156.705 65.4242 156.801C65.4954 156.955 67.2042 160.559 69.8742 162.363C70.0222 162.464 70.1893 162.532 70.3651 162.565C70.5408 162.597 70.7214 162.593 70.8955 162.553C71.0693 162.512 71.233 162.437 71.3765 162.331C71.52 162.225 71.6402 162.091 71.7298 161.936C73.0048 159.727 73.4164 157.003 73.5944 155.838C73.6122 155.717 73.6278 155.615 73.6389 155.544C73.7175 155.324 73.7352 155.087 73.6901 154.859C73.0226 151.505 70.5751 150.166 68.5014 150.573C66.4277 150.98 64.6677 153.145 65.3241 156.498ZM71.0846 155.099C71.0646 155.217 71.0446 155.335 71.029 155.448C70.8592 156.717 70.5649 157.966 70.1501 159.177C69.2392 158.171 68.4649 157.049 67.8472 155.84C67.5758 154.189 68.2477 153.279 69.0087 153.13C69.7696 152.981 70.6975 153.541 71.0846 155.099Z" fill="white" fill-opacity="0.06"/>
<path d="M87.9009 152.071C87.921 152.175 87.9538 152.277 87.9987 152.373C88.0699 152.527 89.7787 156.131 92.4487 157.936C92.5968 158.036 92.7639 158.104 92.9396 158.137C93.1154 158.169 93.296 158.165 93.47 158.125C93.644 158.085 93.8078 158.01 93.9514 157.903C94.0949 157.797 94.2151 157.663 94.3044 157.508C95.5793 155.301 95.9932 152.576 96.1689 151.412C96.1867 151.29 96.2023 151.189 96.2156 151.116C96.2935 150.896 96.3104 150.659 96.2646 150.431C95.6082 147.08 93.1496 145.738 91.0782 146.145C89.0067 146.553 87.2423 148.718 87.9009 152.071ZM93.6614 150.671C93.6391 150.791 93.6213 150.907 93.6035 151.02C93.4301 152.29 93.132 153.539 92.7135 154.749C91.8036 153.743 91.0301 152.621 90.4129 151.412C90.1414 149.761 90.8134 148.851 91.5743 148.702C92.3353 148.553 93.2742 149.114 93.6725 150.671H93.6614Z" fill="white" fill-opacity="0.06"/>
<path d="M41.3717 161.195C41.3919 161.301 41.4256 161.403 41.4718 161.5C41.543 161.651 43.2518 165.256 45.9218 167.063C46.0699 167.163 46.237 167.231 46.4127 167.264C46.5885 167.296 46.7691 167.292 46.9431 167.252C47.1171 167.212 47.2809 167.136 47.4245 167.03C47.568 166.924 47.6882 166.79 47.7775 166.635C49.0524 164.428 49.4641 161.703 49.6421 160.539C49.6599 160.417 49.6732 160.316 49.6866 160.243C49.7641 160.023 49.7817 159.787 49.7378 159.558C49.0703 156.207 46.6227 154.865 44.549 155.272C42.4753 155.68 40.7176 157.842 41.3717 161.195ZM47.1323 159.796C47.11 159.916 47.0922 160.032 47.0767 160.145C46.9069 161.414 46.6125 162.663 46.1977 163.874C45.2866 162.868 44.5123 161.746 43.8949 160.537C43.6234 158.886 44.2954 157.976 45.0563 157.827C45.8173 157.678 46.7451 158.238 47.1323 159.796Z" fill="white" fill-opacity="0.06"/>
<path d="M172.046 176.67C166.385 147.807 151.3 125.577 128.382 112.383C108.119 100.711 83.2148 96.9727 58.2748 101.865C34.8233 106.465 14.2955 118.108 -0.00683594 134.824V143.181C14.2621 123.773 36.4832 111.509 59.2894 107.036C83.0012 102.386 106.617 105.888 125.792 116.938C146.674 128.966 160.692 149.122 166.419 175.208L165.911 175.308C160.749 152.513 147.337 135.036 126.974 124.841C108.317 115.496 85.1773 112.853 61.8193 117.432C38.4612 122.011 18.0335 133.213 4.28965 148.911C2.76479 150.66 1.33485 152.451 -0.000154419 154.284V158.719C13.5879 138.071 37.7069 124.839 62.3354 120.004C85.1328 115.531 107.683 118.097 125.826 127.184C145.437 137.009 158.375 153.884 163.366 175.804L162.741 175.927C158.068 154.852 145.263 138.687 125.646 129.424C107.768 120.985 85.511 118.793 62.9673 123.214C37.9917 128.109 13.47 141.335 -0.000154419 161.8V164.248C12.9938 143.086 37.8671 129.433 63.2121 124.463C85.4866 120.095 107.465 122.293 125.094 130.615C144.322 139.693 156.825 155.312 161.464 176.169L-0.000154419 207.847V213.062L169.99 179.725C170.667 179.592 171.264 179.196 171.65 178.623C172.035 178.05 172.178 177.348 172.046 176.67Z" fill="white" fill-opacity="0.06"/>
<path d="M237.407 25.784C237.657 24.1753 237.045 21.3674 235.118 18.7196C235.014 18.5757 234.881 18.4548 234.728 18.3645C234.574 18.2741 234.404 18.2163 234.228 18.1945C234.051 18.173 233.871 18.1882 233.7 18.2391C233.529 18.29 233.37 18.3756 233.233 18.4905C231.024 20.3528 229.451 22.5489 229.006 24.3711C229.006 24.4067 228.99 24.4423 228.984 24.4779C228.88 25.0639 228.904 25.6653 229.054 26.2413C229.203 26.8172 229.476 27.3541 229.851 27.8154C230.541 28.6208 231.501 29.1482 232.55 29.2995C234.631 29.6355 236.974 28.5297 237.407 25.784ZM231.845 26.1534C231.71 25.9827 231.614 25.7851 231.562 25.574C231.51 25.3629 231.504 25.1432 231.545 24.9296C231.749 24.1486 232.455 22.8804 233.807 21.5009C234.72 23.1919 234.947 24.7093 234.842 25.3857C234.604 26.9143 233.222 26.7808 232.946 26.7385C232.517 26.6842 232.121 26.4773 231.832 26.1556L231.845 26.1534Z" fill="white" fill-opacity="0.06"/>
<path d="M258.067 28.9905C258.316 27.3796 257.706 24.5716 255.777 21.9239C255.673 21.7802 255.54 21.6596 255.387 21.5696C255.234 21.4796 255.063 21.4222 254.887 21.401C254.71 21.379 254.53 21.3939 254.359 21.4448C254.188 21.4957 254.029 21.5816 253.893 21.6969C251.683 23.557 250.11 25.7553 249.665 27.5776C249.665 27.611 249.649 27.6488 249.643 27.6822C249.539 28.2682 249.563 28.8696 249.713 29.4455C249.863 30.0214 250.135 30.5583 250.511 31.0197C251.2 31.8257 252.159 32.3539 253.209 32.506C255.299 32.8397 257.642 31.7317 258.067 28.9905ZM252.504 29.3576C252.37 29.1869 252.273 28.9894 252.221 28.7783C252.17 28.5672 252.164 28.3475 252.204 28.1339C252.411 27.3551 253.114 26.0846 254.467 24.7051C255.381 26.3984 255.606 27.9158 255.501 28.59C255.263 30.1208 253.881 29.9851 253.608 29.9428C253.18 29.8869 252.787 29.6792 252.5 29.3576H252.504Z" fill="white" fill-opacity="0.06"/>
<path d="M213.631 22.1037C213.88 20.4928 213.269 17.6848 211.342 15.0371C211.237 14.8935 211.104 14.7731 210.951 14.6831C210.798 14.5932 210.628 14.5357 210.452 14.5142C210.274 14.4923 210.095 14.5072 209.923 14.5582C209.752 14.6091 209.594 14.6949 209.457 14.8101C207.25 16.6702 205.675 18.8685 205.23 20.6908C205.221 20.7252 205.214 20.7601 205.21 20.7954C205.106 21.3813 205.129 21.9829 205.279 22.5589C205.429 23.1348 205.701 23.6717 206.077 24.1329C206.767 24.9398 207.728 25.4682 208.778 25.6192C210.863 25.9529 213.206 24.8471 213.631 22.1037ZM208.069 22.4708C207.934 22.3003 207.837 22.1028 207.785 21.8916C207.733 21.6805 207.728 21.4606 207.768 21.247C207.973 20.4683 208.676 19.1978 210.029 17.8183C210.943 19.5115 211.168 21.029 211.064 21.7032C210.828 23.234 209.446 23.0982 209.172 23.056C208.745 23.0007 208.351 22.7929 208.064 22.4708H208.069Z" fill="white" fill-opacity="0.06"/>
<path d="M190.905 18.5795C191.154 16.9708 190.542 14.1629 188.615 11.5151C188.511 11.3714 188.378 11.2506 188.225 11.1603C188.072 11.07 187.902 11.012 187.725 10.99C187.548 10.9691 187.369 10.9845 187.198 11.0354C187.027 11.0863 186.868 11.1715 186.731 11.286C184.521 13.1483 182.948 15.3466 182.503 17.1666C182.493 17.2015 182.485 17.2373 182.481 17.2734C182.377 17.8594 182.401 18.461 182.551 19.0369C182.7 19.6129 182.973 20.1498 183.349 20.6109C184.04 21.4171 184.999 21.9453 186.05 22.0972C188.128 22.4288 190.471 21.3341 190.905 18.5795ZM185.342 18.9489C185.208 18.7784 185.111 18.5809 185.059 18.3697C185.007 18.1585 185.001 17.9387 185.042 17.7251C185.247 16.9441 185.95 15.6759 187.303 14.2964C188.217 15.9896 188.442 17.5048 188.337 18.1812C188.101 19.7098 186.72 19.5763 186.446 19.534C186.015 19.4808 185.618 19.2729 185.329 18.9489H185.342Z" fill="white" fill-opacity="0.06"/>
<path d="M262.408 12.7079C261.943 13.8565 261.611 15.0548 261.42 16.279C261.197 17.7631 261.215 19.0425 261.406 19.8568C261.416 19.9015 261.428 19.9454 261.444 19.9881C262.394 22.7426 264.92 23.4836 266.924 22.7916C268.929 22.0996 270.458 19.9592 269.51 17.2068C269.065 15.923 267.122 13.4666 264.185 12.027C264.025 11.949 263.85 11.9048 263.672 11.8972C263.493 11.8895 263.315 11.9186 263.149 11.9826C262.982 12.0461 262.83 12.1433 262.703 12.2681C262.575 12.3929 262.475 12.5426 262.408 12.7079ZM267.049 18.0479C267.149 18.2858 267.198 18.542 267.192 18.7999C267.187 19.0578 267.127 19.3118 267.018 19.5453C266.812 19.9142 266.475 20.1928 266.074 20.3263C265.362 20.571 264.381 20.4198 263.927 19.1982C263.807 18.5797 263.8 17.0133 264.328 15.1176C265.912 16.2278 266.88 17.5629 267.049 18.0546V18.0479Z" fill="white" fill-opacity="0.06"/>
<path d="M174.1 2.43273C174.07 2.46638 174.042 2.50206 174.017 2.53953C173.585 3.13719 173.297 3.82731 173.176 4.55538C173.064 5.33318 173.173 6.12689 173.49 6.84576C173.808 7.56462 174.321 8.17963 174.972 8.62045C176.71 9.8353 179.342 9.81305 181.011 7.4234C181.743 6.37765 182.53 3.6409 182.152 0.641602H176.443C175.571 1.11046 174.781 1.71507 174.1 2.43273ZM176.102 4.08813C176.534 3.62533 177.798 2.6975 179.64 2.0122C179.678 3.94128 179.168 5.5099 178.872 5.93488C178.096 7.04738 177.092 6.92723 176.456 6.48668C176.106 6.24941 175.858 5.88866 175.762 5.47653C175.723 5.23365 175.734 4.98549 175.794 4.74692C175.853 4.50835 175.961 4.28427 176.109 4.08813H176.102Z" fill="white" fill-opacity="0.06"/>
<path d="M222.836 35.3783C222.849 35.2726 222.849 35.1657 222.836 35.0601C222.823 34.891 222.435 30.9171 220.54 28.3139C220.435 28.1703 220.302 28.0497 220.149 27.9594C219.996 27.8691 219.826 27.811 219.65 27.7888C219.472 27.7673 219.293 27.7824 219.122 27.8333C218.951 27.8843 218.792 27.9698 218.655 28.0847C216.704 29.7268 215.389 32.1476 214.826 33.1822C214.768 33.2912 214.719 33.3802 214.684 33.4447C214.536 33.6253 214.439 33.8419 214.403 34.0722C213.88 37.4475 215.738 39.5435 217.823 39.8683C219.908 40.1932 222.313 38.7536 222.836 35.3783ZM216.942 34.733C217.004 34.6284 217.06 34.5261 217.115 34.4237C217.706 33.2881 218.408 32.214 219.211 31.2175C219.725 32.4747 220.07 33.7945 220.237 35.1424C219.93 36.7889 218.989 37.4141 218.235 37.2962C217.48 37.1783 216.777 36.3283 216.937 34.733H216.942Z" fill="white" fill-opacity="0.06"/>
<path d="M200.101 31.8562C200.114 31.7498 200.114 31.6422 200.101 31.5358C200.088 31.3689 199.701 27.3951 197.805 24.7896C197.7 24.6466 197.567 24.5266 197.414 24.4367C197.261 24.3468 197.091 24.289 196.915 24.2667C196.738 24.2447 196.558 24.2596 196.387 24.3105C196.215 24.3615 196.057 24.4473 195.92 24.5627C193.971 26.2047 192.654 28.6255 192.093 29.6601L191.949 29.9205C191.802 30.1016 191.705 30.3179 191.668 30.5479C191.145 33.9255 193.003 36.0192 195.088 36.344C197.173 36.6689 199.583 35.2315 200.101 31.8562ZM194.207 31.2087C194.269 31.1064 194.327 31.0018 194.381 30.9017C194.972 29.7659 195.674 28.6912 196.477 27.6932C196.99 28.9513 197.335 30.2718 197.502 31.6204C197.195 33.2646 196.254 33.8921 195.489 33.7742C194.723 33.6562 194.042 32.8063 194.207 31.2087Z" fill="white" fill-opacity="0.06"/>
<path d="M246.957 39.1164C246.971 39.0101 246.971 38.9024 246.957 38.796C246.942 38.6292 246.555 34.6553 244.659 32.0521C244.555 31.9083 244.422 31.7876 244.269 31.6972C244.115 31.6069 243.945 31.549 243.769 31.527C243.592 31.5056 243.412 31.5208 243.241 31.5717C243.07 31.6226 242.911 31.7081 242.774 31.8229C240.825 33.4649 239.51 35.8857 238.948 36.9204C238.887 37.0294 238.841 37.1184 238.803 37.1829C238.655 37.3631 238.559 37.5799 238.525 37.8104C238.002 41.1857 239.86 43.2816 241.942 43.5954C244.025 43.9091 246.435 42.4918 246.957 39.1164ZM241.063 38.4712C241.126 38.3666 241.181 38.262 241.237 38.1619C241.828 37.0261 242.529 35.9514 243.331 34.9535C243.845 36.2115 244.191 37.532 244.359 38.8806C244.052 40.5271 243.11 41.1523 242.356 41.0344C241.602 40.9165 240.899 40.0665 241.063 38.4667V38.4712Z" fill="white" fill-opacity="0.06"/>
<path d="M210.859 89.1452C235.979 93.0367 260.699 88.3108 280.502 75.8375C302.856 61.7421 317.054 38.927 321.557 9.86178C321.663 9.17997 321.493 8.48415 321.086 7.92719C320.679 7.37023 320.067 6.99769 319.386 6.89141L279.044 0.641385H245.627L310.025 10.6205C301.53 57.7126 254.54 72.5089 213.918 66.2055C191.49 62.73 171.57 53.1803 157.828 39.3542C146.852 28.3093 140.473 15.1929 138.903 0.63916H137.612C139.192 15.4888 145.691 29.0101 156.903 40.2887C170.84 54.3062 191.021 63.9493 213.723 67.467C254.967 73.8595 302.683 58.7895 311.311 10.8185L311.939 10.9142C302.658 61.0368 254.623 77.1191 213.222 70.7044C190.264 67.1444 169.935 57.0585 155.971 42.3357C144.763 30.5231 138.34 16.3032 136.907 0.63916H134.283C135.712 17.0018 142.387 31.8225 154.086 44.149C168.446 59.279 189.303 69.652 212.826 73.2965C236.349 76.9411 259.369 73.3655 277.636 63.284C297.572 52.2814 310.272 34.2967 314.522 11.3147L315.997 11.5372C305.493 70.7111 254.852 90.6293 211.665 83.9365C187.786 80.2363 166.773 68.9044 152.504 51.9877C140.431 37.6743 133.927 20.1702 133.264 0.641385H128.036C128.681 21.4251 135.601 40.0817 148.519 55.3875C163.598 73.2609 185.737 85.2515 210.859 89.1452Z" fill="white" fill-opacity="0.06"/>
<path d="M58.7006 64.4502C80.6057 49.7407 93.4484 26.2091 96.1918 0.641602H90.6894L90.9363 0.719477C89.3521 14.5723 84.6463 27.7599 76.9633 39.0629L76.2602 38.8604C77.3282 35.0779 78.2071 31.2799 78.8969 27.4351C79.2373 25.5483 78.5164 23.2076 76.2402 22.9851C74.3188 22.8023 72.4116 22.4931 70.5309 22.0595L72.6201 15.7939C73.3744 13.5288 74.656 10.9879 74.0686 8.6872C73.1185 4.96033 67.4737 4.48195 62.997 4.2372L63.887 0.648277H55.9727C55.4521 2.75313 54.9329 4.85872 54.4152 6.96505C53.9368 8.89635 54.9114 11.1325 57.0719 11.4151C59.7107 11.7555 63.0371 11.78 65.8651 12.3295C65.3978 13.6912 64.6858 15.5202 64.4299 16.29C63.5681 18.8695 62.7085 21.4483 61.8511 24.0264C61.1258 26.2002 62.6032 27.8489 64.5078 28.4764C66.4878 29.1198 68.512 29.6188 70.5642 29.9693C69.7833 33.6094 68.8354 37.2162 67.7074 40.8184C67.0399 42.9522 68.4016 44.6966 70.364 45.2684L71.9215 45.7134C69.8991 48.0979 67.7355 50.3588 65.4423 52.4841C65.2064 51.3293 64.4322 50.3125 62.977 49.8809C59.1891 48.7569 55.1745 48.6335 51.3247 49.5226L52.2992 42.9077C52.653 40.498 53.3984 37.9326 52.5039 35.692C51.4315 33.0065 49.1219 32.7684 46.3696 32.4613C44.7565 32.2811 43.1233 32.1854 41.5013 32.0475L39.0827 31.8428C39.1161 31.7916 39.1473 31.7605 39.1829 31.6959C40.0239 29.6623 42.6494 28.3451 43.3614 25.9265C43.9488 23.924 43.6329 21.9215 42.349 20.4241C39.857 17.5049 34.2255 17.2646 29.5797 17.4826C29.8141 12.2741 30.7045 7.11587 32.2298 2.13013C32.3768 1.65546 32.4282 1.15632 32.381 0.661627H9.59261C9.70386 2.42828 11.5573 3.83448 13.3551 3.71878C16.8136 3.47619 20.2888 3.65701 23.7035 4.25723C22.2604 9.96057 21.5655 15.8275 21.6365 21.7101C21.6654 23.6859 23.1384 25.4926 25.3767 25.3213C28.3449 25.0855 31.2463 25.635 34.1432 25.4481C34.3657 25.5527 34.5682 25.6373 34.7529 25.7107L34.279 26.2291C32.1229 27.9379 30.274 30.8148 30.2161 33.4114C30.0715 40.4847 39.3697 39.4434 45.1503 40.0419C45.108 41.9955 44.1602 45.0726 43.9866 46.2519L42.6717 55.2031C42.2089 58.3403 45.9402 59.4128 48.4233 58.2068C52.3237 56.3133 56.1062 56.1264 59.9554 57.1366C58.6071 58.1757 57.2298 59.188 55.7992 60.1492C51.3063 63.1603 46.5123 65.6956 41.4946 67.7142C41.2477 66.1901 40.0907 65.002 37.9346 65.3157C32.45 66.1167 31.4821 60.325 30.6878 56.3578C30.3207 54.52 27.9822 53.1294 25.9931 53.9103L21.1759 55.8083C20.3527 52.0391 19.5309 48.2707 18.7107 44.503C18.2501 42.3937 16.1096 41.6417 14.0159 42.0555C11.3615 42.5829 8.39777 43.4662 5.58092 43.8489C4.8934 41.0988 5.46963 37.6189 5.92798 34.9978C6.22613 33.3002 4.66197 31.8561 3.15787 31.4846C2.11508 31.2266 1.05781 31.0312 -0.00830078 30.8994V50.5617C2.5282 52.651 7.62788 51.4094 11.7642 50.2836C12.623 54.2174 13.4811 58.1519 14.3385 62.0872C14.7368 63.9139 17.0085 65.3246 19.031 64.5347L23.9906 62.5812C25.1387 66.1412 26.9743 69.4787 29.8757 71.3833C22.2812 73.1442 14.4752 73.8185 6.6912 73.3858C5.36262 70.4016 2.97939 68.0129 -0.00161926 66.6774V78.0004C20.3126 80.5391 41.0452 76.305 58.7006 64.4502Z" fill="white" fill-opacity="0.06"/>
<path d="M457.389 77.0593C422.421 41.5928 362.573 43.6976 323.976 81.7518C285.379 119.806 282.428 179.618 317.396 215.085C352.364 250.551 412.212 248.447 450.81 210.392C489.407 172.338 492.357 112.526 457.389 77.0593ZM345.736 228.31L345.803 227.583C349.719 227.928 353.615 228.086 357.52 228.048C359.438 228.03 361.603 226.889 361.393 224.612C361.217 222.689 361.168 220.757 361.247 218.827L367.793 219.717C370.158 220.038 372.895 220.83 375.044 219.82C378.528 218.193 377.95 212.56 377.365 208.112L387.822 208.695C389.947 208.815 391.631 207.42 391.694 205.259L392.021 193.996L400.758 193.082C403.272 192.817 406.483 193.013 408.664 191.787C413.672 188.97 409.142 181.917 409.347 177.102C412.086 176.254 415.846 176.434 418.483 175.912C421.061 175.395 424.354 175.05 426.566 173.673C430.506 171.226 429.236 165.071 428.346 160.25C434.144 159.439 439.856 158.099 445.409 156.245C447.412 155.577 447.701 152.956 446.876 151.154C445.915 149.088 445.313 146.874 445.096 144.606C449.268 144.252 454.327 143.224 456.374 140.218C458.321 137.359 455.989 132.359 453.989 128.361L465.025 123.495C466.734 122.743 467.666 120.224 466.489 118.404L463.597 113.925C466.64 112.214 469.371 109.96 470.774 107.048C473.824 114.809 475.692 122.985 476.317 131.3C472.886 134.791 471.629 140.027 472.979 145.255C472.073 145.758 471.083 146.094 470.058 146.246C468.14 146.573 466.583 148.513 467.228 150.607C468.34 154.267 470.074 159.062 465.926 160.991C464.01 161.881 461.763 161.336 460.003 162.788C458.768 163.805 458.083 165.347 457.965 166.98C457.907 167.934 458.001 168.891 458.246 169.815C458.691 171.651 459.492 171.675 458.007 172.75C456.419 173.902 452.95 172.972 450.972 173.486C449.056 173.978 447.172 175.071 446.202 176.824C444.451 179.977 444.949 184.967 445.272 189.195C439.689 189.339 432.589 189.382 432.318 195.514C432.226 197.516 432.68 199.946 432.985 201.966C433.524 205.551 433.526 203.357 431.755 204.812C428.606 207.398 422.617 206.265 418.894 207.74C416.618 208.644 414.854 210.139 414.818 212.838C414.805 213.897 415.799 215.648 415.076 216.42C414.424 217.114 411.091 216.758 410.181 216.865C404.254 217.532 402.102 221.359 402.22 226.392C398.625 226.896 394.972 226.809 391.404 226.136C390.183 225.914 388.512 226.581 388.016 227.694C386.951 229.982 386.274 232.431 386.013 234.941C372.105 235.929 358.272 233.757 345.736 228.31ZM410.261 229.821C410.255 229.562 410.225 229.303 410.174 229.049C409.327 224.842 412.907 224.757 415.922 224.296C417.655 224.032 419.419 223.451 420.77 222.392C423.7 220.093 422.995 217.835 422.663 214.896C425.053 213.826 428.911 213.868 431.198 213.245C433.544 212.604 436.445 212.023 438.421 210.662C443.049 207.473 439.449 202.118 439.794 197.579C443.049 196.84 447.049 197.002 450.251 196.704C451.882 196.551 453.21 194.973 453.188 193.329C453.148 190.254 452.367 186.08 453.057 183.178C453.88 179.707 457.273 181.176 460.192 180.584C464.4 179.747 467.312 176.486 466.701 171.982C466.634 171.497 465.664 168.925 465.764 168.751C465.864 168.578 467.989 168.629 468.521 168.509C469.698 168.26 470.825 167.818 471.858 167.201C467.123 181.507 458.886 195.149 447.183 206.688C436.731 217.03 424.118 224.929 410.25 229.817L410.261 229.821ZM465.343 95.6024C463.868 96.132 462.847 97.5715 463.588 99.6452C465.457 104.87 459.952 106.999 456.223 108.559C454.494 109.282 453.582 111.867 454.743 113.663C455.68 115.113 456.61 116.571 457.547 118.021L446.963 122.694C444.989 123.562 444.673 125.809 445.494 127.787C446.538 130.288 447.986 133.022 448.916 135.71C446.36 136.932 442.833 137.045 440.183 137.123C438.461 137.168 437.357 138.988 437.29 140.538C437.155 143.765 437.584 146.991 438.559 150.07C433.486 151.515 428.295 152.501 423.046 153.016C421.533 153.168 419.973 154.796 420.154 156.432C420.465 159.264 421.179 162.392 421.121 165.2C421.064 168.124 421.444 167.283 418.451 167.87C414.446 168.649 409.585 168.698 405.769 169.897C399.39 171.9 402.336 179.198 403.023 184.885C402.443 184.996 401.88 185.127 401.708 185.145L396.9 185.648L387.286 186.654C385.584 186.832 384.44 188.423 384.393 190.069C384.289 193.648 384.186 197.228 384.082 200.807L373.101 200.195C371.117 200.084 369.096 201.457 369.23 203.631C369.386 206.301 369.98 209.562 369.964 212.442C368.54 212.237 366.611 211.876 365.808 211.774L357.724 210.677C355.455 210.37 354.111 212.128 353.853 214.115C353.588 216.18 353.474 218.263 353.513 220.345C349.79 220.254 346.068 219.993 342.321 219.555C340.096 219.295 338.638 220.957 338.447 222.993C338.398 223.533 338.347 224.074 338.298 224.615C335.577 223.068 332.951 221.359 330.435 219.497C331.523 219.052 332.379 218.1 332.533 216.589C332.934 212.658 332.309 208.691 330.717 205.075L337.392 204.801C339.827 204.701 342.485 204.957 344.512 203.662C346.96 202.104 346.755 199.795 346.546 197.033C346.421 195.416 346.212 193.792 346.045 192.174L345.798 189.758C345.852 189.785 345.907 189.81 345.963 189.831C348.117 190.276 349.899 192.612 352.416 192.862C354.489 193.069 356.394 192.388 357.635 190.846C360.041 187.853 359.226 182.275 358.149 177.749C363.314 177.012 368.552 176.928 373.738 177.498C375.9 177.732 377.52 176.225 377.676 174.138C377.954 170.224 377.754 166.291 377.08 162.426C380.457 162.301 383.839 162.179 387.203 161.981C390.241 161.792 393.296 161.589 394.611 158.572C395.843 155.74 394.439 151.675 393.943 148.622C393.752 147.435 393.561 146.255 393.371 145.08L393.832 145.046C396.259 145.075 398.64 145.046 401.079 145.213C408.477 145.756 412.56 145.881 412.6 137.326C412.6 135.615 411.029 127.785 411.596 127.073C411.819 126.781 416.578 127.117 417.299 127.108L424.864 127.008C427.042 126.982 428.017 124.543 427.716 122.663L425.574 109.335C429.425 108.559 433.346 108.97 437.366 110.485C439.762 111.389 442.23 109.86 442.283 107.37C442.355 103.922 442.132 100.473 441.616 97.062C445.126 96.7456 448.653 96.6712 452.173 96.8395C454.83 96.9663 456.479 94.995 456.116 92.3895C455.569 88.4268 454.439 84.8734 453.891 80.5236C458.432 85.0937 462.15 90.2468 465.332 95.6024H465.343ZM432.111 68.562C428.195 68.1704 424.296 67.9657 420.385 67.9546C418.467 67.9546 416.284 69.067 416.467 71.3388C416.62 73.2633 416.645 75.1959 416.542 77.1238L410.001 76.1581C407.636 75.8088 404.906 74.99 402.741 75.9668C399.234 77.5488 399.746 83.1847 400.275 87.6325L389.818 86.9227C387.691 86.778 385.986 88.1509 385.897 90.3069C385.749 94.0568 385.595 97.8051 385.435 101.552L376.693 102.349C374.169 102.582 370.959 102.349 368.76 103.548C363.712 106.3 368.162 113.398 367.899 118.206C365.147 119.018 361.385 118.789 358.737 119.283C356.149 119.768 352.849 120.071 350.616 121.421C346.644 123.82 347.83 129.976 348.662 134.805C342.848 135.539 337.113 136.805 331.53 138.587C329.527 139.226 329.193 141.845 330.001 143.653C330.94 145.727 331.518 147.946 331.71 150.215C327.529 150.515 322.452 151.483 320.362 154.46C318.378 157.291 320.652 162.312 322.607 166.328L311.482 171.052C309.762 171.784 308.799 174.287 309.954 176.118L312.797 180.629C309.509 182.409 306.567 184.84 305.243 188.047C302.099 180.913 299.984 173.368 298.962 165.639C303.795 162.301 305.766 156.191 304.2 150.088C305.107 149.587 306.096 149.251 307.121 149.098C309.041 148.771 310.583 146.831 309.947 144.735C308.835 141.075 307.103 136.28 311.249 134.351C313.164 133.461 315.412 134.006 317.174 132.553C318.406 131.534 319.092 129.994 319.21 128.361C319.268 127.407 319.174 126.45 318.929 125.526C318.484 123.691 317.686 123.666 319.167 122.589C320.756 121.439 324.225 122.367 326.203 121.855C328.119 121.363 330.003 120.271 330.973 118.518C332.724 115.365 332.226 110.372 331.906 106.147C337.486 106.002 344.588 105.96 344.857 99.8277C344.949 97.8252 344.497 95.3955 344.19 93.3752C343.651 89.7885 343.651 91.9845 345.422 90.5294C348.571 87.9439 354.558 89.0765 358.281 87.6013C360.557 86.6979 362.321 85.2027 362.357 82.5016C362.37 81.4447 361.376 79.6937 362.099 78.9216C362.751 78.2274 366.084 78.5834 366.994 78.4766C372.921 77.8091 375.073 73.9821 374.955 68.9491C378.55 68.4459 382.203 68.5323 385.771 69.205C386.994 69.4275 388.663 68.76 389.159 67.6475C390.272 65.1533 390.997 62.7214 391.208 60.0691L402.349 59.7821C404.1 59.7376 404.977 58.7408 405.175 57.4859C414.652 58.521 423.877 61.1912 432.442 65.378C432.331 66.4519 432.22 67.5133 432.111 68.562ZM383.554 57.7529C383.563 58.9007 383.432 60.0453 383.165 61.1616C378.712 60.6287 374.199 60.8923 369.837 61.9404C367.804 62.4321 366.56 64.0652 367.012 66.3036C367.859 70.5111 364.279 70.5956 361.264 71.0562C359.531 71.321 357.767 71.9017 356.416 72.9608C353.486 75.2592 354.191 77.5176 354.523 80.4568C352.133 81.527 348.275 81.4848 345.988 82.1078C343.645 82.7464 340.741 83.3271 338.765 84.691C334.137 87.8794 337.737 93.235 337.392 97.774C334.137 98.5105 330.137 98.348 326.935 98.6484C325.304 98.8019 323.976 100.379 323.998 102.024C324.038 105.099 324.819 109.271 324.131 112.174C323.306 115.645 319.904 114.177 316.994 114.766C312.786 115.605 309.874 118.867 310.485 123.37C310.552 123.855 311.522 126.425 311.422 126.601C311.322 126.777 309.197 126.723 308.665 126.844C306.365 127.364 304.409 128.39 303.005 130.266C300.382 133.774 300.558 138.167 301.543 142.481C300.565 142.881 299.632 143.385 298.762 143.985C301.118 122.97 310.799 102.046 327.622 85.4675C343.654 69.6589 363.518 60.3807 383.554 57.7529ZM311.008 198.785C312.459 198.257 313.411 196.898 312.704 194.844C310.895 189.606 316.406 187.571 320.158 186.06C321.895 185.357 322.828 182.8 321.686 180.991L318.925 176.612L329.576 172.087C331.561 171.243 331.903 169.001 331.105 167.02C330.092 164.511 328.673 161.763 327.767 159.066C330.339 157.878 333.872 157.798 336.527 157.762C338.251 157.738 339.377 155.935 339.464 154.387C339.639 151.166 339.248 147.939 338.307 144.853C343.406 143.472 348.618 142.551 353.882 142.1C355.397 141.967 356.979 140.354 356.819 138.723C356.539 135.893 355.862 132.758 355.953 129.956C356.049 127.035 355.657 127.872 358.659 127.326C362.677 126.599 367.543 126.608 371.386 125.457C377.798 123.539 374.946 116.21 374.316 110.523C374.899 110.419 375.464 110.301 375.636 110.281L380.455 109.836L390.094 108.946C391.8 108.788 392.964 107.215 393.033 105.57L393.478 94.8503L404.463 95.5957C406.45 95.7292 408.483 94.3831 408.381 92.2093C408.259 89.5549 407.714 86.2796 407.754 83.4027C409.178 83.6252 411.091 84.0079 411.908 84.1281L419.984 85.3185C422.254 85.6544 423.622 83.9145 423.905 81.9342C424.194 79.8748 424.333 77.7971 424.321 75.7176C428.046 75.8533 431.768 76.1626 435.515 76.641C437.74 76.928 439.22 75.2859 439.435 73.2567C439.564 72.0211 439.695 70.7862 439.827 69.5521C441.996 70.9271 444.103 72.4268 446.15 74.0288C445.107 74.6963 444.508 75.9245 445.022 77.6377C446.149 81.3817 447.065 85.1857 447.766 89.032C443.912 89.019 440.062 89.2613 436.24 89.7573C434.178 90.031 432.945 92.0313 433.388 94.105C433.927 96.6455 434.278 99.2224 434.438 101.815C429.436 100.783 424.249 101.125 419.426 102.805C417.788 103.361 417.248 105.263 417.508 106.89C418.167 110.984 418.824 115.078 419.482 119.172C414.244 118.845 407.286 118.306 404.768 121.748C403.457 123.542 403.724 125.769 404.058 127.958C404.438 130.45 405.693 135.174 404.986 138.029C398.778 138.129 387.05 134.059 385.488 141.237C384.678 144.957 388.016 149.881 387.028 153.334C386.687 154.523 387.268 153.969 385.388 154.285C383.83 154.543 382.03 154.429 380.431 154.507L371.511 154.896C369.475 154.983 368.173 157.317 368.658 159.242C369.539 162.595 370.007 166.043 370.053 169.51C364.181 169.152 358.287 169.561 352.52 170.725C350.582 171.121 349.076 172.906 349.668 175.071C350.451 177.943 350.451 180.896 351.174 183.708C351.112 183.948 351.065 184.153 351.027 184.355L350.438 183.982C348.357 182.182 345.187 180.893 342.623 181.325C335.648 182.498 338.396 191.44 338.885 197.234C336.959 197.554 333.768 197.196 332.569 197.234L323.528 197.605C320.36 197.737 320 201.61 321.646 203.818C324.232 207.297 325.117 210.978 324.843 214.943C323.571 213.812 322.32 212.649 321.11 211.42C317.313 207.57 313.928 203.335 311.008 198.785Z" fill="white" fill-opacity="0.06"/>
<path d="M255.98 489.696C305.706 486.877 343.665 440.557 340.597 386.456C337.528 332.356 294.577 290.61 244.85 293.431C195.124 296.253 157.165 342.568 160.234 396.683C163.302 450.797 206.258 492.511 255.98 489.696ZM216.201 305.956L216.702 306.488C213.856 309.2 211.164 312.019 208.612 314.976C207.359 316.427 206.787 318.805 208.632 320.154C210.19 321.291 211.673 322.53 213.069 323.863L208.08 328.19C206.276 329.748 203.879 331.29 203.212 333.568C202.13 337.257 206.743 340.546 210.468 343.044L203.125 350.5C201.632 352.018 201.568 354.205 203.147 355.678L211.38 363.365L206.293 370.528C204.829 372.59 202.562 374.873 202.044 377.318C200.849 382.939 209.137 384.198 212.617 387.533C211.444 390.15 208.821 392.851 207.475 395.178C206.16 397.457 204.242 400.156 203.815 402.726C203.054 407.302 208.501 410.42 212.715 412.938C209.493 417.827 206.726 423 204.449 428.393C203.623 430.333 205.403 432.287 207.301 432.857C209.489 433.497 211.551 434.507 213.398 435.843C210.908 439.207 208.338 443.683 209.242 447.206C210.103 450.556 215.396 452.101 219.719 453.249C218.501 457.083 217.286 460.918 216.072 464.754C215.507 466.534 216.782 468.899 218.925 469.218L224.2 470.005C223.473 473.421 223.361 476.96 224.621 479.938C216.78 477.099 209.409 473.102 202.753 468.078C202.4 463.183 199.302 458.793 194.488 456.346C194.71 455.333 195.113 454.369 195.676 453.498C196.697 451.84 196.259 449.402 194.265 448.492C190.785 446.907 186.033 445.036 187.33 440.655C187.928 438.633 189.822 437.302 189.895 435.021C189.946 433.422 189.241 431.891 188.093 430.721C187.415 430.048 186.634 429.487 185.779 429.061C184.108 428.171 183.554 428.767 183.734 426.943C183.919 424.989 186.903 422.995 187.828 421.173C188.718 419.413 189.15 417.275 188.48 415.388C187.272 411.991 183.193 409.067 179.803 406.517C183.38 402.232 188.035 396.878 183.616 392.617C182.168 391.22 180.056 389.963 178.341 388.862C175.295 386.897 176.941 388.348 177.019 386.056C177.159 381.984 181.965 378.237 183.316 374.468C184.141 372.163 184.186 369.849 182.183 368.04C181.396 367.33 179.424 366.928 179.324 365.868C179.233 364.921 181.701 362.653 182.217 361.906C185.634 357.011 184.179 352.872 180.323 349.635C182.322 346.603 184.802 343.917 187.666 341.683C188.638 340.913 189.248 339.235 188.743 338.123C187.73 335.812 186.34 333.685 184.629 331.83C193.061 320.712 203.83 311.763 216.201 305.951V305.956ZM172.438 353.384C172.637 353.551 172.851 353.7 173.076 353.829C176.794 355.974 174.492 358.724 172.854 361.283C171.906 362.758 171.178 364.467 171.074 366.178C170.851 369.896 173.023 370.85 175.451 372.55C174.674 375.053 172.093 377.921 171.052 380.048C169.981 382.231 168.502 384.794 168.217 387.168C167.55 392.749 173.953 393.585 177.133 396.843C175.535 399.773 172.772 402.67 170.885 405.264C169.921 406.599 170.217 408.629 171.479 409.701C173.813 411.703 177.462 413.871 179.186 416.307C181.247 419.217 177.909 420.802 176.418 423.376C174.267 427.089 174.79 431.433 178.577 433.947C178.984 434.218 181.556 435.186 181.62 435.377C181.685 435.569 180.239 437.133 179.981 437.602C179.392 438.649 178.981 439.786 178.764 440.967C171.152 427.959 166.355 412.763 165.414 396.355C164.556 381.689 166.955 367.014 172.438 353.384ZM236.807 483.404C237.383 481.947 236.978 480.231 234.931 479.417C229.776 477.368 231.816 471.827 233.105 467.998C233.703 466.218 232.366 463.833 230.25 463.517C228.543 463.261 226.835 462.996 225.133 462.741C226.297 459.068 227.461 455.392 228.626 451.713C229.275 449.66 227.796 447.931 225.771 447.248C223.206 446.378 220.195 445.659 217.563 444.578C218.335 441.852 220.574 439.122 222.273 437.089C223.386 435.767 222.738 433.735 221.619 432.661C219.286 430.429 216.582 428.622 213.627 427.321C215.894 422.559 218.584 418.01 221.664 413.728C222.554 412.493 222.354 410.242 221.012 409.3C218.678 407.665 215.859 406.132 213.787 404.236C211.631 402.258 212.007 403.102 213.551 400.472C215.612 396.952 218.787 393.269 220.413 389.607C223.128 383.497 215.699 380.885 210.975 377.645C211.273 377.136 211.549 376.626 211.642 376.486C212.575 375.17 213.508 373.857 214.441 372.546L220.037 364.663C221.027 363.267 220.589 361.358 219.385 360.235L211.529 352.906L219.243 345.069C220.638 343.652 220.938 341.231 219.221 339.892C217.123 338.254 214.275 336.536 212.121 334.623C213.218 333.688 214.762 332.48 215.374 331.953L221.537 326.613C223.268 325.111 222.836 322.942 221.515 321.435C220.139 319.872 218.652 318.411 217.065 317.063C219.586 314.331 222.248 311.705 225.05 309.184C226.712 307.689 226.43 305.493 225.028 304.007L223.915 302.821C226.872 301.799 229.887 300.955 232.944 300.293C232.56 301.406 232.706 302.676 233.741 303.789C236.426 306.687 239.817 308.839 243.582 310.034C242.18 311.765 240.778 313.497 239.375 315.23C237.842 317.125 235.893 318.952 235.521 321.335C235.076 324.192 236.941 325.563 239.154 327.24C240.449 328.217 241.807 329.131 243.131 330.075L245.109 331.486C245.053 331.512 245.011 331.526 244.946 331.561C243.186 332.883 240.258 332.674 238.414 334.396C236.887 335.818 236.14 337.698 236.478 339.647C237.145 343.429 241.86 346.504 245.967 348.685C243.111 353.05 239.714 357.036 235.859 360.551C234.255 362.021 234.302 364.238 235.779 365.731C238.535 368.523 241.62 370.97 244.966 373.017C242.828 375.638 240.685 378.257 238.62 380.921C236.756 383.326 234.891 385.753 236.286 388.733C237.597 391.529 241.582 393.165 244.192 394.809L247.229 396.72L246.951 397.09C245.324 398.89 243.783 400.705 242.038 402.43C236.743 407.625 233.948 410.604 240.347 416.289C241.626 417.426 248.548 421.407 248.706 422.31C248.771 422.677 245.382 426.019 244.924 426.566L240 432.314C238.58 433.967 239.777 436.319 241.377 437.324L252.798 444.522C250.836 447.926 247.937 450.596 244.147 452.612C241.885 453.814 241.404 456.677 243.235 458.362C245.778 460.693 248.516 462.803 251.419 464.667C249.337 467.511 247.063 470.209 244.612 472.742C242.761 474.653 243.153 477.192 245.351 478.647C248.689 480.854 252.102 482.354 255.724 484.821C249.26 485.169 242.935 484.557 236.814 483.404H236.807ZM279.053 476.329C281.934 473.65 284.668 470.85 287.255 467.929C288.527 466.492 289.132 464.12 287.303 462.752C285.761 461.596 284.296 460.341 282.918 458.994L287.964 454.719C289.789 453.175 292.205 451.667 292.904 449.395C294.034 445.717 289.466 442.38 285.784 439.839L293.222 432.461C294.735 430.961 294.831 428.776 293.271 427.283L285.136 419.495L290.316 412.389C291.807 410.342 294.099 408.083 294.657 405.643C295.925 400.036 287.657 398.685 284.222 395.312C285.43 392.709 288.089 390.036 289.466 387.722C290.801 385.46 292.764 382.781 293.226 380.213C294.05 375.645 288.643 372.47 284.471 369.905C287.758 365.052 290.593 359.909 292.942 354.539C293.792 352.607 292.052 350.634 290.149 350.044C287.972 349.378 285.924 348.346 284.093 346.992C286.629 343.654 289.259 339.204 288.403 335.673C287.586 332.311 282.315 330.702 278.01 329.516L281.808 318.049C282.397 316.269 281.154 313.897 279.015 313.554L273.751 312.709C274.581 309.055 274.699 305.255 273.175 302.138C280.608 304.49 287.668 307.887 294.145 312.226C293.458 318.06 296.742 323.573 302.358 326.43C302.135 327.443 301.732 328.407 301.17 329.278C300.148 330.936 300.587 333.375 302.58 334.282C306.06 335.869 310.813 337.738 309.516 342.119C308.917 344.144 307.024 345.472 306.95 347.755C306.899 349.355 307.604 350.885 308.753 352.053C309.429 352.728 310.21 353.289 311.064 353.716C312.737 354.594 313.289 354.009 313.111 355.834C312.927 357.787 309.943 359.781 309.015 361.601C308.125 363.363 307.693 365.501 308.365 367.386C309.574 370.784 313.652 373.709 317.043 376.259C313.465 380.545 308.81 385.896 313.229 390.157C314.678 391.554 316.789 392.813 318.505 393.915C321.551 395.879 319.904 394.429 319.826 396.72C319.686 400.79 314.88 404.539 313.53 408.308C312.704 410.611 312.66 412.927 314.662 414.736C315.45 415.446 317.421 415.849 317.521 416.908C317.612 417.856 315.145 420.123 314.629 420.87C311.211 425.766 312.666 429.904 316.522 433.141C314.522 436.172 312.042 438.857 309.18 441.091C308.207 441.863 307.598 443.55 308.103 444.651C309.235 447.139 310.586 449.284 312.437 451.197L305.293 459.75C304.18 461.085 304.34 462.42 305.15 463.388C298.111 469.817 290.012 474.979 281.211 478.645L279.053 476.329ZM319.246 447.021C318.379 446.269 317.606 445.414 316.945 444.476C320.287 441.485 323.07 437.924 325.164 433.958C326.139 432.107 325.734 430.093 323.756 428.952C320.038 426.809 322.338 424.057 323.978 421.5C324.924 420.023 325.654 418.314 325.758 416.605C325.967 412.887 323.809 411.933 321.382 410.231C322.158 407.73 324.739 404.862 325.78 402.735C326.851 400.552 328.33 397.989 328.615 395.615C329.283 390.032 322.879 389.198 319.7 385.94C321.295 383.01 324.061 380.113 325.947 377.516C326.911 376.181 326.615 374.152 325.353 373.082C323.019 371.079 319.37 368.91 317.646 366.476C315.583 363.566 318.923 361.979 320.414 359.405C322.565 355.694 322.042 351.348 318.255 348.836C317.848 348.565 315.276 347.595 315.212 347.405C315.147 347.216 316.593 345.65 316.852 345.18C317.98 343.109 318.502 340.953 318.02 338.67C317.13 334.38 313.705 331.612 309.816 329.503C310.163 328.504 310.401 327.47 310.526 326.419C324.744 342.072 334.057 363.163 335.395 386.752C336.676 409.2 330.517 430.244 319.252 447.021H319.246ZM261.302 299.388C260.739 300.825 261.131 302.438 263.14 303.261C268.257 305.368 266.153 310.849 264.811 314.662C264.188 316.442 265.492 318.819 267.603 319.159L272.721 319.98C271.509 323.641 270.296 327.303 269.081 330.965C268.413 333.012 269.862 334.747 271.875 335.459C274.427 336.349 277.438 337.108 280.046 338.214C279.236 340.931 276.964 343.636 275.237 345.652C274.125 346.963 274.726 349.001 275.831 350.087C278.133 352.347 280.813 354.185 283.75 355.518C281.421 360.256 278.67 364.776 275.533 369.024C274.643 370.25 274.797 372.503 276.125 373.46C278.437 375.12 281.243 376.684 283.281 378.602C285.41 380.605 285.041 379.757 283.465 382.371C281.358 385.867 278.125 389.516 276.461 393.16C273.664 399.241 281.058 401.934 285.735 405.227C285.43 405.734 285.147 406.239 285.047 406.377L282.197 410.288L276.494 418.111C275.487 419.495 275.898 421.409 277.089 422.546L284.845 429.962L277.028 437.714C275.613 439.118 275.282 441.534 276.979 442.894C279.055 444.553 281.875 446.302 284.006 448.234C282.894 449.157 281.336 450.35 280.72 450.875L274.49 456.15C272.739 457.634 273.141 459.81 274.441 461.33C275.795 462.908 277.263 464.385 278.833 465.749C276.27 468.457 273.582 471.049 270.743 473.536C269.061 475.014 269.314 477.212 270.696 478.714C271.537 479.629 272.377 480.543 273.217 481.455C270.752 482.176 268.235 482.768 265.679 483.235C265.863 482.007 265.341 480.75 263.716 480.004C260.162 478.376 256.701 476.55 253.35 474.535C255.905 471.654 258.267 468.607 260.419 465.413C261.576 463.684 260.888 461.439 259.039 460.4C256.776 459.125 254.61 457.686 252.558 456.094C256.637 453.022 259.808 448.901 261.734 444.171C262.401 442.573 261.327 440.911 259.932 440.032L249.407 433.399C253.114 429.684 258.114 424.815 257.195 420.652C256.716 418.483 254.867 417.21 253.003 416.016C250.88 414.654 246.506 412.476 244.83 410.059C248.855 405.333 259.66 399.219 255.304 393.303C253.045 390.239 247.142 389.489 245.204 386.468C244.537 385.426 244.568 386.229 245.576 384.607C246.404 383.272 247.683 381.993 248.691 380.745C250.56 378.428 252.427 376.111 254.293 373.794C255.573 372.207 254.687 369.68 252.916 368.781C249.818 367.226 246.92 365.3 244.288 363.045C248.438 358.872 252.028 354.177 254.968 349.079C255.949 347.363 255.604 345.054 253.588 344.066C250.918 342.757 248.693 340.806 246.11 339.491C245.97 339.286 245.841 339.111 245.718 338.953L246.386 338.75C249.114 338.376 252.171 336.848 253.544 334.638C257.27 328.631 248.74 324.786 244.072 321.324C245.104 319.664 247.487 317.499 248.237 316.574L253.931 309.543C255.933 307.077 253.263 304.254 250.511 304.027C246.19 303.669 242.841 301.902 240.053 299.072C241.744 298.865 243.444 298.696 245.171 298.598C250.563 298.303 255.971 298.568 261.309 299.388H261.302Z" fill="white" fill-opacity="0.06"/>
<path d="M248.005 213.031C250.112 213.27 252.408 212.066 252.72 209.309C252.902 207.689 252.175 204.908 250.139 202.345C250.03 202.203 249.891 202.086 249.733 202.002C249.575 201.918 249.401 201.869 249.222 201.858C249.044 201.843 248.865 201.866 248.696 201.924C248.527 201.983 248.372 202.075 248.241 202.196C246.109 204.147 244.621 206.408 244.258 208.246C244.258 208.281 244.245 208.317 244.24 208.352C243.931 211.111 245.9 212.796 248.005 213.031ZM248.939 205.177C249.921 206.83 250.21 208.337 250.132 209.018C249.961 210.555 248.575 210.477 248.296 210.446C248.018 210.415 246.686 210.188 246.821 208.697C246.995 207.91 247.642 206.615 248.939 205.177Z" fill="white" fill-opacity="0.06"/>
<path d="M218.911 209.754C221.018 209.992 223.312 208.788 223.624 206.029C223.806 204.411 223.079 201.63 221.043 199.065C220.934 198.922 220.796 198.805 220.638 198.722C220.479 198.638 220.305 198.589 220.126 198.58C219.948 198.566 219.769 198.588 219.6 198.646C219.432 198.704 219.277 198.796 219.145 198.916C217.015 200.867 215.525 203.13 215.162 204.968C215.155 205.003 215.149 205.039 215.146 205.075C214.835 207.834 216.804 209.516 218.911 209.754ZM219.843 201.899C220.827 203.553 221.114 205.059 221.038 205.738C220.865 207.275 219.481 207.199 219.203 207.168C218.924 207.137 217.589 206.91 217.725 205.419C217.899 204.632 218.548 203.339 219.843 201.899Z" fill="white" fill-opacity="0.06"/>
<path d="M245.676 233.717C247.783 233.955 250.077 232.752 250.388 229.993C250.571 228.375 249.843 225.594 247.81 223.031C247.7 222.889 247.561 222.773 247.403 222.689C247.245 222.605 247.071 222.555 246.893 222.543C246.715 222.529 246.536 222.551 246.367 222.609C246.198 222.667 246.043 222.759 245.912 222.879C243.78 224.831 242.289 227.093 241.929 228.931C241.921 228.966 241.915 229.002 241.911 229.038C241.6 231.797 243.569 233.479 245.676 233.717ZM246.608 225.863C247.591 227.516 247.878 229.02 247.803 229.701C247.629 231.239 246.245 231.163 245.967 231.132C245.689 231.101 244.356 230.874 244.49 229.383C244.663 228.595 245.313 227.298 246.608 225.863Z" fill="white" fill-opacity="0.06"/>
<path d="M216.58 230.437C218.687 230.675 220.983 229.474 221.292 226.715C221.475 225.095 220.747 222.316 218.713 219.751C218.603 219.609 218.464 219.493 218.306 219.409C218.148 219.325 217.973 219.275 217.794 219.263C217.616 219.249 217.437 219.272 217.269 219.33C217.1 219.388 216.945 219.481 216.813 219.602C214.684 221.553 213.195 223.813 212.833 225.651C212.825 225.687 212.819 225.722 212.815 225.758C212.503 228.517 214.475 230.201 216.58 230.437ZM217.512 222.585C218.495 224.236 218.784 225.745 218.707 226.423C218.533 227.961 217.149 227.883 216.871 227.852C216.593 227.821 215.26 227.594 215.394 226.103C215.567 225.315 216.217 224.031 217.512 222.585Z" fill="white" fill-opacity="0.06"/>
<path d="M206.169 220.1C208.276 220.338 210.57 219.134 210.881 216.377C211.064 214.758 210.336 211.979 208.3 209.413C208.193 209.269 208.055 209.151 207.897 209.067C207.738 208.982 207.563 208.934 207.384 208.926C207.206 208.912 207.027 208.935 206.858 208.993C206.689 209.051 206.534 209.143 206.403 209.264C204.273 211.215 202.785 213.476 202.422 215.314C202.414 215.349 202.408 215.385 202.404 215.421C202.093 218.18 204.064 219.864 206.169 220.1ZM207.101 212.246C208.085 213.899 208.372 215.405 208.296 216.086C208.122 217.623 206.738 217.546 206.46 217.514C206.182 217.483 204.849 217.256 204.983 215.766C205.157 214.978 205.813 213.683 207.101 212.239V212.246Z" fill="white" fill-opacity="0.06"/>
<path d="M256.229 224.105C258.336 224.343 260.679 222.806 261.052 219.41C261.066 219.305 261.066 219.198 261.052 219.092C261.03 218.925 260.478 214.969 258.474 212.448C258.363 212.308 258.225 212.192 258.068 212.109C257.91 212.025 257.737 211.974 257.559 211.961C257.381 211.947 257.203 211.97 257.034 212.027C256.865 212.085 256.71 212.177 256.578 212.297C254.698 214.019 253.483 216.493 252.965 217.55C252.909 217.662 252.867 217.753 252.831 217.82C252.692 218.005 252.605 218.225 252.58 218.456C252.408 219.967 252.689 221.311 253.387 222.343C253.706 222.824 254.125 223.231 254.615 223.535C255.106 223.839 255.656 224.033 256.229 224.105ZM255.296 218.692C255.84 217.532 256.497 216.429 257.257 215.399C257.822 216.634 258.222 217.939 258.445 219.279C258.207 220.937 257.292 221.602 256.52 221.515C255.748 221.428 255.038 220.61 255.136 219.005C255.194 218.914 255.245 218.799 255.296 218.692Z" fill="white" fill-opacity="0.06"/>
<path d="M231.315 224.254C233.422 224.492 235.719 223.289 236.028 220.53C236.21 218.912 235.483 216.131 233.449 213.568C233.342 213.423 233.205 213.304 233.046 213.22C232.887 213.136 232.712 213.088 232.532 213.08C232.354 213.066 232.175 213.089 232.006 213.147C231.838 213.205 231.683 213.298 231.551 213.419C229.42 215.368 227.931 217.63 227.568 219.468C227.56 219.504 227.554 219.539 227.551 219.575C227.239 222.323 229.211 224.007 231.315 224.254ZM232.25 216.4C233.231 218.053 233.52 219.56 233.442 220.24C233.269 221.778 231.885 221.7 231.607 221.669C231.329 221.638 229.996 221.411 230.132 219.92C230.303 219.121 230.955 217.824 232.25 216.389V216.4Z" fill="white" fill-opacity="0.06"/>
<path d="M286.088 252.249L244.48 129.698C244.322 129.23 244.033 128.817 243.648 128.507C243.263 128.197 242.798 128.003 242.307 127.947C241.816 127.892 241.32 127.978 240.876 128.195C240.432 128.412 240.059 128.75 239.801 129.171L171.992 239.384C171.667 239.911 171.54 240.537 171.635 241.149C171.73 241.761 172.041 242.318 172.511 242.722C190.075 257.834 208.263 266.45 227.074 268.57C245.856 270.686 265.173 266.285 284.893 255.355C285.424 255.059 285.835 254.586 286.053 254.019C286.271 253.451 286.284 252.825 286.088 252.249ZM182.895 231.597C199.475 243.85 214.082 250.703 229.055 252.389C243.962 254.069 259.261 250.625 277.232 242.344L277.486 243.093C241.134 261.536 214.964 258.557 182.479 232.287L182.895 231.597ZM241.343 136.616L276.812 241.106C240.794 257.767 216.695 255.017 183.584 230.487L241.343 136.616ZM177.588 240.219L181.095 234.52C197.731 247.933 212.765 255.407 228.298 257.158C243.782 258.902 259.775 254.955 278.332 245.588L280.459 251.855C243.971 271.309 210.278 267.499 177.586 240.214L177.588 240.219Z" fill="white" fill-opacity="0.06"/>
</g>
</g>
<defs>
<clipPath id="clip0_999_9">
<rect width="534" height="534" fill="white" transform="translate(0 0.641602)"/>
</clipPath>
</defs>
</svg>
