<svg width="335" height="358" viewBox="0 0 335 358" fill="none" xmlns="http://www.w3.org/2000/svg">
<rect y="1" width="335" height="357" fill="#EBC813"/>
<mask id="mask0_999_7" style="mask-type:alpha" maskUnits="userSpaceOnUse" x="0" y="0" width="335" height="358">
<rect y="0.641602" width="335" height="357" fill="#E0C225"/>
</mask>
<g mask="url(#mask0_999_7)">
<g clip-path="url(#clip0_999_7)">
<path d="M323.73 216.259C318.839 215.382 313.796 216.304 309.531 218.854C305.267 221.405 302.07 225.412 300.53 230.135L296.53 229.416L295.53 234.864L299.53 235.584C299.319 240.545 300.909 245.415 304.008 249.296C307.107 253.177 311.505 255.806 316.39 256.699C321.159 257.566 326.08 256.723 330.288 254.318C334.495 251.913 337.719 248.1 339.39 243.552C340.914 244.246 342.232 245.323 343.217 246.677C344.202 248.031 344.82 249.617 345.01 251.28L350.53 250.86C350.253 248.005 349.172 245.287 347.412 243.02C345.653 240.754 343.288 239.032 340.59 238.053C340.973 232.979 339.462 227.943 336.348 223.918C333.234 219.893 328.739 217.164 323.73 216.259V216.259ZM334.85 239.143C334.502 241.086 333.774 242.941 332.707 244.601C331.64 246.262 330.256 247.696 328.634 248.821C327.012 249.945 325.184 250.739 323.255 251.156C321.325 251.573 319.332 251.605 317.39 251.25C315.449 250.902 313.596 250.175 311.936 249.109C310.277 248.044 308.844 246.663 307.719 245.043C306.594 243.424 305.8 241.598 305.381 239.672C304.963 237.745 304.928 235.754 305.28 233.814C305.629 231.873 306.356 230.019 307.422 228.359C308.489 226.699 309.872 225.266 311.493 224.141C313.114 223.017 314.941 222.223 316.869 221.805C318.797 221.387 320.789 221.354 322.73 221.707C324.672 222.054 326.527 222.781 328.187 223.846C329.848 224.91 331.282 226.292 332.408 227.912C333.534 229.531 334.329 231.357 334.748 233.284C335.167 235.212 335.202 237.203 334.85 239.143V239.143Z" fill="white" fill-opacity="0.1"/>
<path d="M178.19 411.162L177.77 412.332L178.37 413.411C178.49 413.631 181.37 418.7 187.08 419.75C186.403 421.041 185.889 422.411 185.55 423.829L190.94 425.089C191.59 422.329 193.34 420.02 195.19 417.57L196.12 416.321L196.56 416.621L196.79 416.781C198.501 417.91 200.434 418.656 202.46 418.97C203 419.049 203.544 419.095 204.09 419.11C213.53 419.64 220.32 417.321 234.36 408.783C238.146 406.64 242.091 404.792 246.16 403.254C254.57 399.785 264.1 395.866 271.47 387.628C278.39 379.899 281.14 372.061 279.63 364.343C277.52 353.546 267.63 346.208 262.55 343.088C262.95 342.658 263.34 342.219 263.72 341.789L263.9 341.569L259.72 337.94L259.53 338.159L258.53 339.329C254.95 334.73 247.3 326.552 237.26 325.063C228.9 323.823 220.9 327.402 213.47 335.71C205.83 344.248 202.93 353.876 200.38 362.384C199.256 366.525 197.829 370.579 196.11 374.511C189.94 387.578 186.43 396.595 187.84 404.084C180.69 404.384 178.29 410.902 178.19 411.162ZM201.08 376.88C202.925 372.699 204.453 368.384 205.65 363.973C208.15 355.635 210.74 346.977 217.56 339.399C223.67 332.571 230.01 329.592 236.41 330.541C247.66 332.211 255.92 345.238 256 345.368L256.42 346.038L257.14 346.388C257.28 346.467 271.91 353.746 274.14 365.383C275.3 371.312 272.99 377.54 267.29 383.919C260.77 391.207 252.29 394.716 244 398.105C239.663 399.75 235.461 401.729 231.43 404.024C217.11 412.742 211.72 413.971 204.26 413.551C202.662 413.517 201.107 413.024 199.78 412.132L199.67 412.052C199.45 411.912 199.24 411.762 199 411.582C198.76 411.402 198.5 411.192 198.26 410.972C197.528 410.325 196.837 409.634 196.19 408.903C195.768 408.058 195.207 407.291 194.53 406.633C191.22 400.904 193.17 393.636 201.08 376.91V376.88ZM188.23 409.592C189.009 409.601 189.764 409.864 190.38 410.342C190.7 410.822 191.06 411.342 191.38 411.772C191.432 411.917 191.466 412.068 191.48 412.222C191.513 412.478 191.491 412.739 191.413 412.986C191.335 413.233 191.205 413.46 191.03 413.651C190.79 413.9 190.5 414.096 190.18 414.227C189.86 414.358 189.516 414.421 189.17 414.411C188.835 414.415 188.501 414.392 188.17 414.341C186.514 414.033 185.02 413.152 183.95 411.852C184.42 411.15 185.057 410.575 185.804 410.181C186.551 409.787 187.385 409.584 188.23 409.592V409.592Z" fill="white" fill-opacity="0.1"/>
<path d="M239.25 341.759L241.43 336.67C229.08 331.401 220.31 342.669 216.57 347.487L220.94 350.887C226.08 344.278 231.85 338.599 239.25 341.759Z" fill="white" fill-opacity="0.1"/>
<path d="M18.3901 55.0869C14.9001 60.8756 14.1701 67.7139 20.2401 75.722C25.0901 82.1005 35.1202 88.8089 46.4102 93.2278C52.2702 95.5273 66.6902 100.226 73.9302 94.7675C83.9302 87.1693 79.9301 51.0179 69.9901 37.951C63.9101 29.953 57.1201 28.8232 50.6101 30.6228C51.0601 23.2346 44.8501 19.2055 44.6101 19.0256L43.5602 18.3657L42.3601 18.7056C40.831 19.1996 39.3972 19.9501 38.1201 20.9251C36.0469 22.4711 34.5057 24.6232 33.7101 27.0836C30.3517 25.2589 26.4666 24.648 22.7101 25.3541L21.5001 25.624L20.9001 26.7137C19.1564 30.1423 18.6852 34.0779 19.5702 37.8211C16.9939 37.9288 14.5153 38.8375 12.4801 40.4205C11.1944 41.3865 10.0849 42.5668 9.2002 43.9096L8.39014 44.9894L8.74011 46.1791C8.88011 46.469 11.1001 53.5373 18.3901 55.0869ZM38.6201 29.9929C38.7374 29.0732 39.0431 28.1875 39.5179 27.3911C39.9928 26.5947 40.6267 25.9047 41.3801 25.364C41.7628 25.0684 42.1711 24.8074 42.6001 24.5842C43.471 25.3639 44.1425 26.3408 44.5583 27.4331C44.9742 28.5254 45.1222 29.7015 44.9901 30.8627C44.8591 31.8644 44.3426 32.7754 43.5502 33.4021C43.2368 33.6492 42.8773 33.8313 42.4927 33.9377C42.108 34.0442 41.706 34.0728 41.3102 34.022C40.8976 33.9613 40.5021 33.8152 40.1492 33.5932C39.7962 33.3711 39.4934 33.0779 39.2601 32.7323C38.7031 31.9351 38.4739 30.9543 38.6201 29.9929V29.9929ZM65.5201 41.3202C74.7401 53.4573 76.8601 85.5597 70.5201 90.3785C63.0601 96.0372 33.8801 84.6099 24.6001 72.3828C18.7801 64.7146 18.9902 58.3862 36.2902 45.2993C49.8602 34.9917 58.1101 31.5426 65.5201 41.3002V41.3202ZM25.1201 30.6228C26.6753 30.4807 28.2415 30.7269 29.678 31.3394C31.1145 31.9519 32.3762 32.9115 33.3501 34.132C34.1469 35.0784 34.5364 36.3019 34.4333 37.5347C34.3303 38.7675 33.7431 39.9093 32.8002 40.7104C31.7749 41.4027 30.5175 41.6619 29.3019 41.4316C28.0863 41.2012 27.011 40.5 26.3102 39.4807C25.3843 38.2188 24.7902 36.7446 24.5823 35.1935C24.3744 33.6424 24.5593 32.0639 25.1201 30.6028V30.6228ZM15.7101 44.8494C16.4343 44.2709 17.2692 43.8466 18.1635 43.6024C19.0577 43.3583 19.9924 43.2995 20.9102 43.4297C21.8152 43.5038 22.6544 43.9316 23.246 44.6204C23.8375 45.3091 24.1338 46.2033 24.0702 47.1089C24.0151 47.5046 23.8814 47.8853 23.677 48.2287C23.4726 48.572 23.2017 48.8711 22.8801 49.1084C22.0634 49.7086 21.0433 49.9636 20.0402 49.8182C18.8859 49.628 17.7934 49.1662 16.8528 48.4709C15.9122 47.7756 15.1503 46.8667 14.6301 45.8192C14.9623 45.4601 15.3235 45.1291 15.7101 44.8294V44.8494Z" fill="white" fill-opacity="0.1"/>
<path d="M25.5201 66.1644C25.3016 66.5928 25.2047 67.0728 25.24 67.5524C25.2753 68.032 25.4413 68.4927 25.7201 68.8844C25.8369 69.0513 25.9855 69.1935 26.1573 69.3029C26.3291 69.4124 26.5208 69.4868 26.7214 69.5221C26.922 69.5574 27.1276 69.5528 27.3264 69.5086C27.5252 69.4644 27.7134 69.3814 27.8801 69.2644C28.1959 69.0029 28.3961 68.6275 28.4373 68.2196C28.4784 67.8116 28.3573 67.4038 28.1001 67.0844C27.7932 66.7124 27.3914 66.4304 26.9371 66.2684C26.4829 66.1064 25.9932 66.0705 25.5201 66.1644V66.1644Z" fill="white" fill-opacity="0.1"/>
<path d="M34.3897 60.4957C34.169 60.9235 34.0709 61.4039 34.1061 61.8839C34.1414 62.364 34.3088 62.8249 34.5897 63.2157C34.7056 63.3823 34.8533 63.5243 35.0242 63.6336C35.1952 63.7428 35.386 63.8173 35.5858 63.8526C35.7855 63.8879 35.9903 63.8834 36.1883 63.8393C36.3863 63.7952 36.5737 63.7125 36.7397 63.5957C36.8983 63.4678 37.03 63.3096 37.127 63.1304C37.2241 62.9512 37.2847 62.7545 37.3051 62.5517C37.3256 62.3489 37.3056 62.1441 37.2463 61.9491C37.187 61.7541 37.0895 61.5728 36.9597 61.4157C36.6544 61.0445 36.2542 60.7629 35.8017 60.6009C35.3492 60.439 34.8612 60.4026 34.3897 60.4957V60.4957Z" fill="white" fill-opacity="0.1"/>
<path d="M42.9099 53.9875C42.6916 54.4177 42.5949 54.8993 42.6301 55.3804C42.6654 55.8615 42.8312 56.3238 43.1099 56.7175C43.3491 57.0502 43.709 57.2762 44.1126 57.3472C44.5161 57.4182 44.9315 57.3286 45.2699 57.0975C45.5865 56.8361 45.7864 56.4597 45.8258 56.051C45.8652 55.6423 45.7407 55.2346 45.4799 54.9175C45.175 54.5454 44.7753 54.2625 44.3229 54.0988C43.8705 53.9351 43.3823 53.8966 42.9099 53.9875V53.9875Z" fill="white" fill-opacity="0.1"/>
<path d="M51.4698 47.5089C51.2487 47.9361 51.1496 48.4158 51.1831 48.8956C51.2166 49.3754 51.3815 49.8367 51.6598 50.2289C51.7766 50.3958 51.9251 50.538 52.0969 50.6474C52.2687 50.7568 52.4604 50.8313 52.661 50.8666C52.8616 50.9019 53.0672 50.8973 53.266 50.8531C53.4648 50.8089 53.6531 50.7259 53.8199 50.6089C54.138 50.3489 54.3398 49.9732 54.381 49.5645C54.4223 49.1557 54.2996 48.7473 54.0398 48.4289C53.7345 48.0577 53.3344 47.7761 52.8819 47.6141C52.4293 47.4521 51.9413 47.4158 51.4698 47.5089V47.5089Z" fill="white" fill-opacity="0.1"/>
<path d="M61.6498 43.6206C61.8085 43.4927 61.9401 43.3345 62.0372 43.1553C62.1342 42.9761 62.1947 42.7794 62.2152 42.5766C62.2356 42.3738 62.2157 42.169 62.1564 41.974C62.0972 41.779 61.9997 41.5977 61.8698 41.4406C61.5645 41.0694 61.1644 40.7878 60.7119 40.6258C60.2593 40.4639 59.7714 40.4275 59.2999 40.5206C59.0792 40.9484 58.981 41.4288 59.0163 41.9088C59.0516 42.3889 59.2189 42.8498 59.4998 43.2406C59.6157 43.4072 59.7633 43.5492 59.9343 43.6585C60.1052 43.7678 60.2961 43.8422 60.4959 43.8775C60.6957 43.9128 60.9004 43.9083 61.0985 43.8642C61.2965 43.8201 61.4839 43.7374 61.6498 43.6206V43.6206Z" fill="white" fill-opacity="0.1"/>
<path d="M35.9902 68.9837C35.7802 69.4129 35.6916 69.8913 35.7339 70.3672C35.7762 70.8431 35.9478 71.2984 36.2301 71.6837C36.4573 72.0158 36.8062 72.2449 37.2011 72.3217C37.596 72.3984 38.0052 72.3165 38.3401 72.0937C38.4941 71.9639 38.6209 71.805 38.7133 71.6261C38.8057 71.4472 38.8619 71.2518 38.8786 71.0511C38.8953 70.8504 38.8723 70.6484 38.8108 70.4567C38.7493 70.265 38.6505 70.0872 38.5202 69.9337C38.2225 69.563 37.8306 69.2792 37.3854 69.112C36.9403 68.9449 36.4583 68.9006 35.9902 68.9837V68.9837Z" fill="white" fill-opacity="0.1"/>
<path d="M61.5301 54.448C61.8358 54.1846 62.0259 53.8118 62.0595 53.4098C62.0932 53.0077 61.9677 52.6085 61.7101 52.298C61.4167 51.9198 61.0271 51.6275 60.582 51.4516C60.1369 51.2756 59.6528 51.2226 59.1801 51.298C58.9698 51.7265 58.8801 52.2042 58.9206 52.6799C58.9611 53.1555 59.1304 53.6112 59.4101 53.998C59.5196 54.167 59.6612 54.3127 59.8271 54.4268C59.993 54.541 60.1797 54.6212 60.3767 54.663C60.5736 54.7048 60.7769 54.7074 60.9748 54.6705C61.1727 54.6335 61.3615 54.5579 61.5301 54.448V54.448Z" fill="white" fill-opacity="0.1"/>
<path d="M67.6199 49.819C67.9278 49.5571 68.1196 49.184 68.1533 48.7812C68.187 48.3783 68.06 47.9785 67.7999 47.669C67.5057 47.2892 67.1144 46.9959 66.6674 46.8199C66.2203 46.6439 65.7341 46.5918 65.2599 46.669C65.0521 47.0987 64.9647 47.5767 65.007 48.0522C65.0492 48.5276 65.2195 48.9827 65.4999 49.369C65.7227 49.7082 66.0703 49.9458 66.4673 50.0301C66.8643 50.1143 67.2785 50.0385 67.6199 49.819V49.819Z" fill="white" fill-opacity="0.1"/>
<path d="M32.2501 76.6729C32.4037 76.544 32.5304 76.3859 32.6227 76.2078C32.7149 76.0298 32.771 75.8352 32.7877 75.6354C32.8044 75.4355 32.7815 75.2343 32.7201 75.0434C32.6587 74.8525 32.5602 74.6756 32.4302 74.5229C32.1366 74.1423 31.7454 73.8483 31.2982 73.6722C30.851 73.4961 30.3644 73.4445 29.8901 73.5229C29.6821 73.9508 29.5946 74.4273 29.6368 74.9012C29.6791 75.3751 29.8496 75.8286 30.1301 76.2129C30.2388 76.3827 30.3799 76.5294 30.5454 76.6445C30.7109 76.7596 30.8975 76.8408 31.0945 76.8836C31.2915 76.9263 31.495 76.9297 31.6934 76.8935C31.8917 76.8574 32.0809 76.7824 32.2501 76.6729V76.6729Z" fill="white" fill-opacity="0.1"/>
<path d="M43.4498 63.2754C43.272 63.6607 43.1832 64.081 43.1898 64.5054C43.1897 65.034 43.3656 65.5477 43.6898 65.9654C43.7581 66.0499 43.8315 66.13 43.9098 66.2054C44.0684 66.3545 44.2554 66.4701 44.4597 66.5453C44.6804 66.6351 44.9206 66.6666 45.157 66.6368C45.3934 66.6071 45.6182 66.517 45.8098 66.3754V66.3754C46.0364 66.1888 46.2015 65.9382 46.2836 65.6563C46.3656 65.3745 46.3608 65.0744 46.2698 64.7954C46.2056 64.5905 46.1076 64.3978 45.9797 64.2254C45.6813 63.8554 45.2893 63.5722 44.8443 63.4051C44.3994 63.238 43.9179 63.1932 43.4498 63.2754Z" fill="white" fill-opacity="0.1"/>
<path d="M51.7101 56.9869C51.5023 57.4166 51.4149 57.8946 51.4572 58.37C51.4994 58.8455 51.6698 59.3006 51.9502 59.6869C52.1807 60.0179 52.5319 60.2453 52.9283 60.3201C53.3248 60.3949 53.7349 60.3112 54.0702 60.0869V60.0869C54.2238 59.9579 54.3504 59.7999 54.4426 59.6218C54.5349 59.4438 54.5911 59.2492 54.6078 59.0493C54.6245 58.8495 54.6015 58.6483 54.5402 58.4574C54.4788 58.2664 54.3802 58.0895 54.2501 57.9369C53.9509 57.5653 53.5572 57.281 53.1103 57.1139C52.6635 56.9467 52.1797 56.9029 51.7101 56.9869Z" fill="white" fill-opacity="0.1"/>
<path d="M68.0102 57.1973C68.2375 57.5321 68.5882 57.7632 68.9855 57.8401C69.3829 57.9169 69.7944 57.8332 70.1302 57.6073C70.4359 57.3439 70.6259 56.9711 70.6596 56.5691C70.6933 56.167 70.5679 55.7678 70.3102 55.4573C70.0153 55.0783 69.6239 54.7856 69.1771 54.6096C68.7302 54.4337 68.2443 54.3811 67.7702 54.4573C67.5545 54.8919 67.4628 55.3776 67.5052 55.861C67.5475 56.3444 67.7223 56.8067 68.0102 57.1973V57.1973Z" fill="white" fill-opacity="0.1"/>
<path d="M36.7198 78.0718C36.512 78.5015 36.4247 78.9795 36.4669 79.4549C36.5092 79.9304 36.6795 80.3855 36.9598 80.7718C37.1871 81.1066 37.5379 81.3377 37.9352 81.4146C38.3325 81.4914 38.7441 81.4077 39.0798 81.1818C39.3855 80.9184 39.5757 80.5456 39.6094 80.1436C39.643 79.7415 39.5175 79.3423 39.2599 79.0318C38.9604 78.6601 38.567 78.3751 38.1205 78.2063C37.6739 78.0375 37.1904 77.9911 36.7198 78.0718V78.0718Z" fill="white" fill-opacity="0.1"/>
<path d="M43.9799 72.5627C43.7699 72.9918 43.6814 73.4702 43.7237 73.9461C43.766 74.422 43.9375 74.8773 44.2199 75.2627C44.4453 75.5968 44.7943 75.8277 45.19 75.9046C45.5857 75.9815 45.9957 75.8981 46.3299 75.6727V75.6727C46.6364 75.4094 46.8263 75.0355 46.8582 74.6327C46.89 74.2299 46.7612 73.8309 46.4999 73.5227C46.2036 73.1526 45.8137 72.8684 45.3706 72.6997C44.9276 72.5309 44.4474 72.4836 43.9799 72.5627V72.5627Z" fill="white" fill-opacity="0.1"/>
<path d="M52.2499 66.2844C52.1665 66.4497 52.1027 66.6242 52.0599 66.8044C51.9587 67.1763 51.9448 67.5666 52.0194 67.9448C52.094 68.3229 52.255 68.6788 52.4899 68.9844C52.6762 69.2435 52.9356 69.4409 53.235 69.5514C53.5344 69.6619 53.86 69.6803 54.1699 69.6044C54.324 69.559 54.4693 69.488 54.5999 69.3944V69.3944C54.7535 69.2655 54.8802 69.1074 54.9724 68.9293C55.0647 68.7513 55.1207 68.5567 55.1375 68.3569C55.1542 68.157 55.1312 67.9558 55.0698 67.7649C55.0085 67.5739 54.91 67.3971 54.7799 67.2444C54.4827 66.8726 54.0911 66.5875 53.6461 66.4186C53.2011 66.2498 52.7189 66.2034 52.2499 66.2844V66.2844Z" fill="white" fill-opacity="0.1"/>
<path d="M60.52 59.986C60.3097 60.4146 60.2199 60.8923 60.2605 61.3679C60.301 61.8436 60.4702 62.2992 60.75 62.686C60.9773 63.0209 61.328 63.252 61.7253 63.3288C62.1226 63.4057 62.5342 63.322 62.87 63.096V63.096C63.1779 62.8341 63.3697 62.461 63.4034 62.0582C63.4371 61.6553 63.3101 61.2555 63.05 60.946C62.7528 60.5743 62.3612 60.2891 61.9162 60.1203C61.4712 59.9514 60.989 59.9051 60.52 59.986V59.986Z" fill="white" fill-opacity="0.1"/>
<path d="M44.49 81.8207C44.2798 82.248 44.1911 82.7249 44.2334 83.1993C44.2758 83.6736 44.4475 84.1273 44.73 84.5107C44.9555 84.8448 45.3044 85.0757 45.7001 85.1526C46.0958 85.2295 46.5058 85.1461 46.84 84.9207C46.9936 84.7917 47.1203 84.6337 47.2126 84.4556C47.3048 84.2776 47.3609 84.083 47.3776 83.8831C47.3943 83.6833 47.3714 83.4821 47.31 83.2912C47.2486 83.1002 47.1501 82.9233 47.0201 82.7707C46.7224 82.3999 46.3304 82.1161 45.8853 81.9489C45.4402 81.7818 44.9582 81.7375 44.49 81.8207Z" fill="white" fill-opacity="0.1"/>
<path d="M52.7602 75.5423C52.55 75.9697 52.4611 76.4466 52.5034 76.9209C52.5458 77.3953 52.7176 77.8489 53.0002 78.2323C53.2256 78.5665 53.5746 78.7974 53.9702 78.8743C54.3659 78.9512 54.776 78.8678 55.1101 78.6423C55.2638 78.5134 55.3904 78.3554 55.4827 78.1773C55.575 77.9992 55.631 77.8047 55.6477 77.6048C55.6645 77.405 55.6415 77.2038 55.5801 77.0128C55.5187 76.8219 55.4202 76.645 55.2902 76.4923C54.9925 76.1216 54.6006 75.8377 54.1554 75.6706C53.7103 75.5035 53.2283 75.4591 52.7602 75.5423V75.5423Z" fill="white" fill-opacity="0.1"/>
<path d="M61.0201 69.2637C60.8123 69.6934 60.7249 70.1714 60.7672 70.6469C60.8095 71.1223 60.9798 71.5774 61.2601 71.9637C61.489 72.2969 61.8404 72.526 62.2377 72.601C62.6349 72.6759 63.0456 72.5906 63.3801 72.3637C63.6858 72.1004 63.8759 71.7276 63.9095 71.3255C63.9432 70.9234 63.8178 70.5242 63.5602 70.2137C63.2609 69.8421 62.8672 69.5579 62.4203 69.3907C61.9734 69.2236 61.4898 69.1797 61.0201 69.2637V69.2637Z" fill="white" fill-opacity="0.1"/>
<path d="M69.2898 62.9854C69.082 63.4151 68.9945 63.8931 69.0367 64.3685C69.079 64.844 69.2494 65.299 69.5298 65.6854C69.7588 66.018 70.1093 66.2475 70.5058 66.3241C70.9024 66.4008 71.3132 66.3187 71.6498 66.0954C71.9554 65.832 72.1455 65.4592 72.1792 65.0571C72.2128 64.6551 72.0873 64.2559 71.8297 63.9454C71.5302 63.5736 71.1368 63.2886 70.6903 63.1199C70.2437 62.9511 69.7603 62.9046 69.2898 62.9854Z" fill="white" fill-opacity="0.1"/>
<path d="M59.9099 84.9798C59.7021 85.4095 59.6146 85.8876 59.6568 86.363C59.6991 86.8384 59.8695 87.2935 60.1499 87.6798C60.3789 88.0125 60.7294 88.2419 61.126 88.3186C61.5225 88.3953 61.9333 88.3132 62.2699 88.0898C62.577 87.8248 62.7671 87.4492 62.7989 87.0448C62.8308 86.6403 62.7018 86.2397 62.4399 85.9298C62.1422 85.5591 61.7502 85.2752 61.305 85.1081C60.8599 84.941 60.3781 84.8966 59.9099 84.9798V84.9798Z" fill="white" fill-opacity="0.1"/>
<path d="M68.1802 78.6814C67.9702 79.1105 67.8816 79.5889 67.9239 80.0648C67.9662 80.5407 68.1378 80.996 68.4202 81.3814C68.6492 81.7141 68.9997 81.9435 69.3963 82.0202C69.7928 82.0968 70.2037 82.0147 70.5402 81.7914C70.8467 81.5281 71.0365 81.1542 71.0684 80.7514C71.1002 80.3486 70.9714 79.9496 70.7101 79.6414C70.4129 79.2696 70.0213 78.9845 69.5763 78.8156C69.1313 78.6467 68.6492 78.6004 68.1802 78.6814V78.6814Z" fill="white" fill-opacity="0.1"/>
<path d="M52.6701 83.98C52.4627 84.4103 52.3763 84.889 52.4204 85.3647C52.4644 85.8404 52.6372 86.2951 52.9201 86.68C53.1473 87.012 53.4961 87.2412 53.891 87.3179C54.2859 87.3947 54.6952 87.3128 55.0301 87.09C55.3381 86.8281 55.5298 86.455 55.5636 86.0521C55.5973 85.6493 55.4702 85.2494 55.2101 84.94C54.9106 84.5682 54.5172 84.2833 54.0707 84.1145C53.6241 83.9457 53.1406 83.8993 52.6701 83.98Z" fill="white" fill-opacity="0.1"/>
<path d="M60.94 77.7316C60.73 78.1608 60.6413 78.6392 60.6836 79.1151C60.7259 79.591 60.8976 80.0463 61.18 80.4316C61.4073 80.7665 61.758 80.9976 62.1553 81.0744C62.5526 81.1513 62.9642 81.0676 63.3 80.8416C63.6065 80.5783 63.7963 80.2045 63.8282 79.8017C63.86 79.3989 63.7312 78.9998 63.4699 78.6916C63.1726 78.3199 62.7811 78.0347 62.3361 77.8659C61.8911 77.697 61.409 77.6507 60.94 77.7316V77.7316Z" fill="white" fill-opacity="0.1"/>
<path d="M66.7898 85.4396C66.582 85.8693 66.4945 86.3473 66.5367 86.8228C66.579 87.2982 66.7494 87.7533 67.0298 88.1396C67.2603 88.4707 67.6116 88.6981 68.008 88.7729C68.4045 88.8477 68.8144 88.7639 69.1498 88.5396C69.4554 88.2762 69.6455 87.9034 69.6792 87.5014C69.7128 87.0993 69.5873 86.7001 69.3297 86.3896C69.0297 86.0188 68.636 85.7352 68.1893 85.5681C67.7426 85.4011 67.2594 85.3567 66.7898 85.4396V85.4396Z" fill="white" fill-opacity="0.1"/>
<path d="M69.2099 71.4533C68.9999 71.8825 68.9114 72.3609 68.9537 72.8368C68.996 73.3127 69.1676 73.7679 69.45 74.1533C69.6773 74.4881 70.0279 74.7193 70.4252 74.7961C70.8225 74.873 71.2342 74.7893 71.57 74.5633C71.8765 74.3 72.0663 73.9262 72.0982 73.5234C72.13 73.1206 72.0012 72.7215 71.7399 72.4133C71.4427 72.0416 71.0511 71.7564 70.6061 71.5876C70.1611 71.4187 69.6789 71.3724 69.2099 71.4533V71.4533Z" fill="white" fill-opacity="0.1"/>
<path d="M25.8998 57.3465C25.6896 57.7739 25.6008 58.2508 25.6431 58.7251C25.6854 59.1995 25.8573 59.6531 26.1398 60.0365C26.3671 60.3714 26.7178 60.6025 27.1151 60.6793C27.5125 60.7562 27.924 60.6725 28.2598 60.4465C28.5663 60.1832 28.7561 59.8094 28.788 59.4066C28.8198 59.0038 28.6911 58.6047 28.4298 58.2965C28.1321 57.9258 27.7401 57.6419 27.295 57.4748C26.8498 57.3076 26.368 57.2633 25.8998 57.3465V57.3465Z" fill="white" fill-opacity="0.1"/>
<path d="M35.8498 53.2883C36.0034 53.1594 36.1301 53.0014 36.2223 52.8233C36.3146 52.6452 36.3706 52.4507 36.3874 52.2508C36.4041 52.051 36.3811 51.8498 36.3197 51.6588C36.2584 51.4679 36.1599 51.291 36.0298 51.1383C35.7321 50.7676 35.3402 50.4837 34.8951 50.3166C34.4499 50.1494 33.9679 50.1051 33.4998 50.1883C33.2896 50.6157 33.2009 51.0926 33.2432 51.5669C33.2855 52.0413 33.4572 52.4949 33.7398 52.8783C33.9652 53.2125 34.3142 53.4434 34.7099 53.5203C35.1056 53.5972 35.5156 53.5137 35.8498 53.2883V53.2883Z" fill="white" fill-opacity="0.1"/>
<path d="M44.12 46.99C44.2736 46.8611 44.4003 46.703 44.4925 46.525C44.5848 46.3469 44.6408 46.1523 44.6576 45.9525C44.6743 45.7526 44.6513 45.5514 44.5899 45.3605C44.5286 45.1696 44.4301 44.9927 44.3 44.84C44.0023 44.4692 43.6103 44.1854 43.1651 44.0183C42.72 43.8511 42.2381 43.8068 41.77 43.89C41.5597 44.3185 41.4699 44.7963 41.5105 45.2719C41.551 45.7475 41.7202 46.2032 42 46.59C42.2305 46.9211 42.5818 47.1485 42.9782 47.2233C43.3747 47.2981 43.7846 47.2143 44.12 46.99V46.99Z" fill="white" fill-opacity="0.1"/>
<path d="M53.0599 41.6209C53.3656 41.3576 53.5557 40.9848 53.5893 40.5827C53.623 40.1807 53.4975 39.7815 53.2399 39.4709C52.9449 39.092 52.5536 38.7992 52.1068 38.6233C51.66 38.4474 51.1741 38.3948 50.6999 38.4709C50.4921 38.9006 50.4046 39.3787 50.4469 39.8541C50.4891 40.3295 50.6596 40.7846 50.9399 41.1709C51.0494 41.3399 51.1911 41.4857 51.3569 41.5998C51.5228 41.7139 51.7095 41.7942 51.9065 41.836C52.1034 41.8778 52.3067 41.8803 52.5046 41.8434C52.7026 41.8065 52.8913 41.7309 53.0599 41.6209V41.6209Z" fill="white" fill-opacity="0.1"/>
<path d="M189.07 154.413C182.52 161.572 179.63 172.599 180.49 187.196C182.31 217.968 206.81 241.743 235.49 241.093C235.57 241.793 235.63 242.502 235.65 243.212L241.19 243.072C241.19 242.272 241.11 241.463 241.02 240.663C268.7 236.994 289.28 210.99 287.5 180.877C286.64 166.341 282.43 155.783 274.97 149.485C269.55 144.916 262.57 142.676 254.21 142.816L254.75 142.156C261.61 133.159 258.47 119.722 258.33 119.162L257.8 116.982L255.56 117.042H255.16C252.78 117.182 240.59 118.302 234.3 126.52C232.222 129.326 230.85 132.59 230.3 136.038C228.637 132.425 226.723 128.934 224.57 125.59L219.91 128.59C223.673 134.252 226.565 140.446 228.49 146.965C222.658 145.463 216.636 144.837 210.62 145.106C201.47 145.666 194.22 148.785 189.07 154.413ZM238.75 129.899C242.53 124.901 249.75 123.321 253.39 122.811C253.87 126.52 254.19 133.808 250.39 138.807C246.59 143.806 239.39 145.386 235.75 145.896C235.25 142.166 234.94 134.878 238.75 129.899V129.899ZM210.95 150.654C217.79 150.409 224.62 151.38 231.12 153.524L232.22 153.924L233.27 153.404C239.389 150.63 245.943 148.939 252.64 148.405C270.78 147.335 280.64 158.403 282.01 181.187C283.69 209.56 263.52 233.924 237.01 235.484C210.5 237.044 187.66 215.229 186.01 186.856C184.67 163.891 193.05 151.714 210.95 150.654V150.654Z" fill="white" fill-opacity="0.1"/>
<path d="M225.64 224.357C223.853 223.935 222.109 223.349 220.43 222.607L218.19 227.676C220.191 228.559 222.27 229.255 224.4 229.755L225.64 224.357Z" fill="white" fill-opacity="0.1"/>
<path d="M213.53 225.206L216.44 220.498C198.6 209.45 190.85 185.226 199.16 166.51L194.1 164.271C189.46 175.044 188.972 187.152 192.73 198.263C196.264 209.418 203.632 218.962 213.53 225.206V225.206Z" fill="white" fill-opacity="0.1"/>
<path d="M109.63 202.562L93.6301 194.224L92.3501 196.683C81.6838 217.203 79.5932 241.116 86.5369 263.175C93.4806 285.234 108.892 303.64 129.39 314.355C149.92 325.015 173.841 327.097 195.905 320.145C217.969 313.193 236.373 297.775 247.08 277.274L248.36 274.824L234.81 267.766L109.6 202.562H109.63ZM240.88 277.154C230.442 295.584 213.259 309.248 192.947 315.269C172.636 321.29 150.78 319.199 131.98 309.436C113.198 299.635 98.9505 282.933 92.2361 262.843C85.5217 242.753 86.8639 220.842 95.9801 201.722L104.64 206.231C96.7075 223.051 95.5886 242.286 101.517 259.912C107.446 277.538 119.964 292.188 136.45 300.798C152.958 309.368 172.14 311.223 189.985 305.976C207.829 300.729 222.953 288.785 232.19 272.645L240.88 277.154ZM139.04 295.929C123.852 288.001 112.311 274.519 106.823 258.292C101.334 242.065 102.322 224.347 109.58 208.83L227.31 270.145C218.75 284.981 204.794 295.943 188.35 300.746C171.907 305.55 154.243 303.824 139.04 295.929V295.929Z" fill="white" fill-opacity="0.1"/>
<path d="M123.22 266.937C122.994 267.336 122.849 267.776 122.794 268.232C122.739 268.688 122.774 269.15 122.897 269.592C123.021 270.034 123.23 270.447 123.514 270.808C123.798 271.169 124.15 271.471 124.55 271.695C124.964 271.894 125.412 272.009 125.87 272.034C126.329 272.06 126.787 271.994 127.22 271.842C127.653 271.69 128.051 271.453 128.393 271.147C128.734 270.84 129.012 270.47 129.21 270.056C129.669 269.075 129.853 267.988 129.744 266.911C129.635 265.834 129.236 264.806 128.59 263.937C127.506 263.896 126.431 264.154 125.484 264.683C124.537 265.213 123.753 265.992 123.22 266.937V266.937Z" fill="white" fill-opacity="0.1"/>
<path d="M144.81 278.144C144.584 278.543 144.439 278.984 144.384 279.439C144.328 279.895 144.364 280.357 144.487 280.799C144.611 281.241 144.82 281.655 145.104 282.016C145.387 282.377 145.74 282.678 146.14 282.903C146.976 283.301 147.935 283.352 148.809 283.045C149.682 282.738 150.398 282.097 150.8 281.263C151.262 280.282 151.449 279.194 151.342 278.115C151.234 277.035 150.836 276.006 150.19 275.135C149.104 275.096 148.027 275.356 147.079 275.887C146.13 276.417 145.345 277.198 144.81 278.144V278.144Z" fill="white" fill-opacity="0.1"/>
<path d="M166.39 289.381C165.939 290.191 165.825 291.146 166.074 292.039C166.323 292.932 166.914 293.69 167.72 294.15C168.558 294.548 169.52 294.598 170.395 294.289C171.271 293.98 171.988 293.337 172.39 292.5C172.848 291.52 173.033 290.433 172.924 289.356C172.815 288.278 172.416 287.251 171.77 286.382C170.684 286.34 169.608 286.598 168.659 287.127C167.71 287.656 166.925 288.436 166.39 289.381V289.381Z" fill="white" fill-opacity="0.1"/>
<path d="M118.98 229.655C119.394 229.854 119.842 229.969 120.301 229.994C120.759 230.02 121.217 229.954 121.65 229.802C122.083 229.65 122.482 229.413 122.823 229.107C123.164 228.8 123.442 228.43 123.64 228.016C124.099 227.035 124.283 225.948 124.174 224.871C124.065 223.794 123.666 222.766 123.02 221.897C121.936 221.856 120.861 222.114 119.914 222.643C118.967 223.172 118.183 223.952 117.65 224.897C117.197 225.704 117.082 226.659 117.331 227.551C117.581 228.443 118.173 229.2 118.98 229.655V229.655Z" fill="white" fill-opacity="0.1"/>
<path d="M140.57 240.943C141.405 241.341 142.365 241.392 143.238 241.085C144.112 240.778 144.828 240.137 145.23 239.303C145.69 238.321 145.876 237.232 145.767 236.153C145.658 235.074 145.258 234.044 144.61 233.174C143.525 233.132 142.45 233.39 141.503 233.919C140.555 234.448 139.772 235.228 139.24 236.174C139.014 236.574 138.869 237.015 138.813 237.471C138.758 237.928 138.793 238.391 138.916 238.834C139.04 239.277 139.249 239.691 139.533 240.053C139.817 240.414 140.169 240.717 140.57 240.943V240.943Z" fill="white" fill-opacity="0.1"/>
<path d="M162.16 252.15C162.574 252.348 163.023 252.463 163.482 252.487C163.941 252.512 164.399 252.445 164.832 252.292C165.265 252.139 165.664 251.902 166.005 251.594C166.346 251.287 166.623 250.915 166.82 250.5C167.279 249.519 167.463 248.433 167.354 247.355C167.245 246.278 166.846 245.251 166.2 244.382C165.116 244.341 164.041 244.599 163.094 245.128C162.147 245.657 161.363 246.436 160.83 247.381C160.376 248.19 160.261 249.146 160.51 250.04C160.76 250.934 161.353 251.692 162.16 252.15V252.15Z" fill="white" fill-opacity="0.1"/>
<path d="M183.75 263.387C184.587 263.786 185.548 263.838 186.423 263.53C187.298 263.223 188.016 262.582 188.42 261.747C188.877 260.766 189.06 259.679 188.949 258.601C188.838 257.524 188.438 256.497 187.79 255.629C186.705 255.585 185.629 255.841 184.681 256.371C183.734 256.9 182.951 257.681 182.42 258.628C181.967 259.436 181.852 260.39 182.101 261.282C182.351 262.175 182.943 262.931 183.75 263.387V263.387Z" fill="white" fill-opacity="0.1"/>
<path d="M205.39 274.635C206.227 275.037 207.189 275.089 208.065 274.782C208.94 274.474 209.658 273.832 210.06 272.995C210.52 272.013 210.706 270.925 210.597 269.845C210.488 268.766 210.088 267.737 209.44 266.867C208.354 266.825 207.278 267.083 206.329 267.612C205.38 268.141 204.595 268.921 204.06 269.866C203.606 270.675 203.491 271.631 203.74 272.525C203.99 273.419 204.583 274.177 205.39 274.635V274.635Z" fill="white" fill-opacity="0.1"/>
<path d="M120.39 245.941C119.936 246.749 119.822 247.704 120.071 248.596C120.32 249.488 120.913 250.245 121.72 250.7C122.556 251.102 123.519 251.155 124.394 250.847C125.27 250.54 125.988 249.897 126.39 249.061C126.85 248.079 127.036 246.99 126.927 245.911C126.817 244.832 126.418 243.802 125.77 242.932C124.683 242.89 123.605 243.149 122.656 243.68C121.707 244.211 120.923 244.993 120.39 245.941V245.941Z" fill="white" fill-opacity="0.1"/>
<path d="M142.03 257.149C141.801 257.552 141.654 257.996 141.598 258.456C141.542 258.916 141.579 259.383 141.705 259.829C141.832 260.274 142.046 260.69 142.335 261.053C142.625 261.415 142.983 261.716 143.39 261.938C144.226 262.34 145.187 262.395 146.062 262.089C146.938 261.783 147.656 261.143 148.06 260.308C148.523 259.325 148.709 258.234 148.6 257.153C148.491 256.072 148.09 255.041 147.44 254.17C146.351 254.12 145.27 254.372 144.316 254.898C143.361 255.424 142.57 256.203 142.03 257.149V257.149Z" fill="white" fill-opacity="0.1"/>
<path d="M163.61 268.386C163.157 269.195 163.044 270.15 163.296 271.043C163.547 271.935 164.142 272.691 164.95 273.145C165.786 273.543 166.745 273.595 167.619 273.287C168.492 272.98 169.208 272.339 169.61 271.505C170.071 270.523 170.256 269.435 170.147 268.355C170.038 267.276 169.638 266.247 168.99 265.377C167.904 265.338 166.828 265.598 165.879 266.129C164.93 266.66 164.145 267.44 163.61 268.386Z" fill="white" fill-opacity="0.1"/>
<path d="M185.21 279.634C184.757 280.441 184.642 281.396 184.891 282.288C185.141 283.18 185.734 283.937 186.54 284.392C187.376 284.791 188.335 284.842 189.209 284.535C190.082 284.228 190.798 283.587 191.2 282.753C191.661 281.771 191.846 280.682 191.737 279.603C191.628 278.524 191.228 277.494 190.58 276.624C189.495 276.583 188.419 276.842 187.471 277.373C186.524 277.904 185.741 278.686 185.21 279.634V279.634Z" fill="white" fill-opacity="0.1"/>
<path d="M71.04 355.025C97.6 360.854 114.15 339.259 114.84 338.329L115.59 337.33L115.34 336.11C115.11 334.98 109.44 308.487 82.54 302.588C76.6154 301.27 70.4284 301.807 64.82 304.128C66.5393 301.241 67.7661 298.089 68.4501 294.8C71.8101 277.854 58.31 261.338 57.73 260.648L56.29 258.918L54.29 259.968L53.78 260.248C50.57 262.068 34.4099 271.915 31.3299 287.432C28.4599 301.908 37.89 316.065 41.06 320.314C40.74 322.083 40.4499 323.643 40.2099 324.903L41.78 325.213V325.902C42.68 325.832 43.63 325.792 44.61 325.772L45.61 325.962C45.6053 325.896 45.6053 325.829 45.61 325.762C46.51 325.762 47.43 325.762 48.39 325.762C47.23 339.169 56.78 351.916 71.04 355.025ZM49.62 320.264H48.8299L49.8299 319.554C49.7899 319.784 49.7 320.024 49.62 320.264V320.264ZM54.01 326.092C55.56 326.212 57.1701 326.372 58.8201 326.562C59.9048 334.52 63.1138 342.038 68.11 348.327C58.87 344.518 53.03 335.48 54.01 326.092V326.092ZM77.19 350.357C70.03 342.948 66.03 335.69 64.55 327.362C68.18 327.902 71.98 328.572 75.87 329.362C76.87 336.19 80.34 343.868 85.05 350.137C82.4466 350.504 79.81 350.578 77.19 350.357V350.357ZM91 348.677C86.5754 343.439 83.414 337.255 81.76 330.601C85.16 331.381 88.6099 332.241 92.0799 333.171C93.3199 337.29 95.66 341.359 97.77 345.008L98.06 345.508C95.8165 346.793 93.4517 347.855 91 348.677V348.677ZM102.69 342.448C102.65 342.373 102.607 342.3 102.56 342.229C101.25 339.949 99.84 337.5 98.73 335.06C101.73 335.97 104.81 336.93 107.82 337.94C106.222 339.565 104.507 341.072 102.69 342.448V342.448ZM105.69 326.582C106.705 328.421 107.59 330.329 108.34 332.291C105.61 331.391 102.78 330.501 99.87 329.642C101.695 328.509 103.701 327.697 105.8 327.242L105.69 326.582ZM102.93 322.243C99.8868 323.272 96.9971 324.708 94.34 326.512L92.5701 327.592C89.3101 326.712 86 325.892 82.69 325.133C87.1315 321.148 92.5362 318.391 98.37 317.135V317.035C100.063 318.626 101.606 320.37 102.98 322.243H102.93ZM85.98 309.366C88.4627 310.249 90.8378 311.41 93.06 312.826C86.6058 314.98 80.7998 318.728 76.18 323.723C72.95 323.063 69.7399 322.483 66.5899 321.993C71.5599 316.175 76.45 312.156 86.03 309.366H85.98ZM75.66 307.437C68.92 310.866 64.72 315.365 60.15 321.104C58.52 320.914 56.9199 320.744 55.3399 320.614C58.6299 312.726 66.6899 307.577 75.7099 307.437H75.66ZM56.5799 268.746C58.4318 271.703 59.9829 274.838 61.2099 278.104C58.7148 279.792 56.1202 281.327 53.44 282.703C54.54 277.524 55.6 272.695 56.63 268.746H56.5799ZM59.06 285.962C60.33 285.242 61.58 284.482 62.8 283.703C63.5098 286.992 63.5641 290.389 62.9599 293.7C62.7644 294.642 62.5073 295.571 62.19 296.479C58.2716 297.952 54.2635 299.174 50.19 300.139C50.8 296.659 51.45 293.09 52.12 289.561C54.39 288.481 56.78 287.282 59.11 285.932L59.06 285.962ZM50.82 268.886C49.82 272.995 48.76 277.814 47.74 282.943C45.8854 281.009 44.1647 278.952 42.5899 276.784C45.0334 273.853 47.8124 271.219 50.87 268.936L50.82 268.886ZM42.6 311.266C42.54 311.636 42.47 311.996 42.41 312.356C40.033 308.414 38.2536 304.142 37.13 299.679C37.83 300.269 38.5201 300.828 39.2001 301.388C40.7401 302.638 42.2 303.838 43.65 305.207C43.39 307.287 42.99 309.316 42.65 311.266H42.6ZM44.78 298.809L42.7001 297.089C40.4981 295.344 38.3853 293.489 36.37 291.531C36.4213 290.524 36.5415 289.522 36.73 288.531C37.2317 286.12 38.102 283.8 39.31 281.653C41.4709 284.451 43.8734 287.054 46.49 289.431C45.95 292.54 45.3899 295.7 44.8299 298.809H44.78ZM47.7099 314.235C47.8199 313.575 47.94 312.896 48.06 312.236C48.4 310.296 48.75 308.237 49.13 306.087C51.93 305.527 55.3 304.648 58.5 303.658C55.4996 307.727 51.8749 311.297 47.76 314.235H47.7099Z" fill="white" fill-opacity="0.1"/>
<path d="M124.54 184.086C137.296 184.071 149.525 178.995 158.542 169.973C167.558 160.951 172.625 148.721 172.63 135.968C172.617 123.22 167.546 110.998 158.531 101.982C149.515 92.9671 137.291 87.8953 124.54 87.8794C111.789 87.8953 99.5649 92.9671 90.5494 101.982C81.534 110.998 76.4634 123.22 76.4502 135.968C76.4555 148.721 81.5225 160.951 90.5388 169.973C99.5551 178.995 111.784 184.071 124.54 184.086ZM124.54 93.4681C135.815 93.4786 146.625 97.9584 154.602 105.925C162.578 113.892 167.069 124.696 167.09 135.968C167.077 147.245 162.589 158.057 154.612 166.03C146.635 174.003 135.82 178.487 124.54 178.498C113.26 178.487 102.445 174.003 94.468 166.03C86.4909 158.057 82.0033 147.245 81.9901 135.968C82.0113 124.696 86.5023 113.892 94.4785 105.925C102.455 97.9584 113.265 93.4786 124.54 93.4681V93.4681Z" fill="white" fill-opacity="0.1"/>
<path d="M124.54 172.959C129.399 172.959 134.21 172.002 138.699 170.143C143.188 168.284 147.267 165.559 150.703 162.124C154.139 158.689 156.864 154.612 158.724 150.124C160.583 145.636 161.54 140.825 161.54 135.968C161.54 126.157 157.642 116.748 150.703 109.811C143.764 102.874 134.353 98.9766 124.54 98.9766C114.727 98.9766 105.316 102.874 98.3771 109.811C91.4382 116.748 87.54 126.157 87.54 135.968C87.54 140.825 88.497 145.636 90.3564 150.124C92.2159 154.612 94.9413 158.689 98.3771 162.124C105.316 169.062 114.727 172.959 124.54 172.959V172.959ZM149.35 155.273L131.7 137.627H155.96C155.647 144.059 153.352 150.236 149.39 155.313L149.35 155.273ZM155.76 132.089H132.33L148.65 115.773C152.555 120.421 155.025 126.103 155.76 132.129V132.089ZM127.31 104.635C133.721 105.194 139.804 107.714 144.73 111.853L127.31 129.269V104.635ZM127.31 141.076L145.58 159.332C140.524 163.917 134.109 166.726 127.31 167.33V141.076ZM93.12 137.627H118.95L100.39 156.183C96.015 150.967 93.4624 144.466 93.12 137.667V137.627ZM121.77 167.29C115.356 166.726 109.27 164.203 104.34 160.062L121.77 142.646V167.29ZM121.77 104.635V127.7L105.22 111.154C109.993 107.438 115.742 105.187 121.77 104.675V104.635ZM101.16 114.933L118.32 132.089H93.3201C94.1174 125.715 96.8542 119.74 101.16 114.973V114.933Z" fill="white" fill-opacity="0.1"/>
<path d="M114.2 160.462C114.814 160.664 115.483 160.615 116.061 160.324C116.638 160.034 117.077 159.526 117.28 158.912C117.516 158.196 117.553 157.429 117.388 156.693C117.222 155.957 116.86 155.28 116.34 154.733C115.588 154.802 114.869 155.077 114.263 155.526C113.656 155.976 113.185 156.583 112.9 157.283C112.651 157.877 112.648 158.545 112.892 159.141C113.135 159.738 113.606 160.213 114.2 160.462V160.462Z" fill="white" fill-opacity="0.1"/>
<path d="M135.82 157.283C135.533 156.583 135.059 155.976 134.451 155.526C133.843 155.077 133.123 154.803 132.37 154.733C131.853 155.281 131.493 155.959 131.329 156.695C131.166 157.43 131.204 158.197 131.44 158.912C131.54 159.216 131.698 159.497 131.907 159.739C132.115 159.981 132.369 160.18 132.654 160.324C132.939 160.467 133.25 160.554 133.568 160.578C133.887 160.601 134.207 160.562 134.51 160.462C135.104 160.212 135.575 159.738 135.821 159.142C136.066 158.547 136.066 157.878 135.82 157.283V157.283Z" fill="white" fill-opacity="0.1"/>
<path d="M133.95 110.854C133.647 110.754 133.326 110.714 133.008 110.738C132.689 110.762 132.379 110.848 132.094 110.992C131.808 111.136 131.554 111.335 131.346 111.577C131.138 111.819 130.98 112.1 130.88 112.403C130.644 113.12 130.606 113.887 130.772 114.623C130.938 115.359 131.3 116.036 131.82 116.582C132.572 116.513 133.291 116.239 133.897 115.79C134.504 115.34 134.975 114.732 135.26 114.033C135.383 113.738 135.447 113.422 135.447 113.103C135.448 112.783 135.386 112.467 135.264 112.172C135.143 111.876 134.964 111.608 134.738 111.382C134.513 111.156 134.245 110.976 133.95 110.854V110.854Z" fill="white" fill-opacity="0.1"/>
<path d="M114.76 110.854C114.465 110.976 114.197 111.156 113.971 111.382C113.746 111.608 113.567 111.876 113.445 112.172C113.324 112.467 113.261 112.783 113.262 113.103C113.263 113.422 113.327 113.738 113.45 114.033C113.734 114.732 114.206 115.34 114.813 115.79C115.419 116.239 116.138 116.513 116.89 116.582C117.41 116.036 117.772 115.359 117.938 114.623C118.103 113.887 118.066 113.12 117.83 112.403C117.73 112.1 117.572 111.819 117.364 111.577C117.155 111.335 116.901 111.136 116.616 110.992C116.331 110.848 116.02 110.762 115.702 110.738C115.383 110.714 115.063 110.754 114.76 110.854V110.854Z" fill="white" fill-opacity="0.1"/>
<path d="M101.99 123.261C101.696 123.138 101.38 123.074 101.062 123.074C100.743 123.073 100.427 123.135 100.133 123.257C99.8383 123.379 99.5708 123.557 99.3455 123.783C99.1202 124.008 98.9416 124.276 98.8201 124.57C98.6176 125.182 98.666 125.848 98.9547 126.424C99.2435 126.999 99.7489 127.437 100.36 127.64C101.078 127.874 101.847 127.911 102.584 127.746C103.322 127.58 104.001 127.219 104.55 126.7C104.48 125.947 104.204 125.228 103.753 124.621C103.301 124.014 102.691 123.544 101.99 123.261V123.261Z" fill="white" fill-opacity="0.1"/>
<path d="M100.39 142.346C99.7787 142.55 99.2733 142.987 98.9846 143.562C98.6958 144.138 98.6473 144.805 98.8498 145.416C98.9714 145.71 99.1499 145.978 99.3752 146.203C99.6005 146.429 99.8681 146.607 100.163 146.729C100.457 146.851 100.773 146.913 101.092 146.912C101.41 146.912 101.726 146.848 102.02 146.725C102.721 146.442 103.331 145.972 103.783 145.365C104.234 144.758 104.51 144.039 104.58 143.286C104.031 142.767 103.352 142.406 102.614 142.241C101.877 142.075 101.108 142.112 100.39 142.346V142.346Z" fill="white" fill-opacity="0.1"/>
<path d="M145.93 146.635C146.526 146.881 147.194 146.881 147.79 146.636C148.386 146.39 148.86 145.919 149.11 145.326C149.21 145.022 149.249 144.702 149.225 144.384C149.202 144.065 149.115 143.755 148.971 143.47C148.827 143.185 148.629 142.931 148.386 142.722C148.144 142.514 147.863 142.356 147.56 142.256C146.843 142.02 146.076 141.983 145.34 142.148C144.604 142.314 143.926 142.676 143.38 143.196C143.449 143.948 143.723 144.666 144.173 145.273C144.623 145.879 145.23 146.351 145.93 146.635V146.635Z" fill="white" fill-opacity="0.1"/>
<path d="M147.56 128.1C147.863 128 148.144 127.842 148.386 127.633C148.629 127.425 148.827 127.171 148.971 126.886C149.115 126.601 149.202 126.291 149.225 125.972C149.249 125.654 149.21 125.334 149.11 125.03C148.987 124.735 148.808 124.468 148.582 124.242C148.355 124.017 148.087 123.838 147.792 123.716C147.496 123.595 147.18 123.532 146.86 123.533C146.541 123.534 146.225 123.598 145.93 123.721C145.23 124.005 144.623 124.477 144.173 125.083C143.723 125.69 143.449 126.408 143.38 127.16C143.926 127.68 144.604 128.042 145.34 128.207C146.076 128.373 146.843 128.336 147.56 128.1V128.1Z" fill="white" fill-opacity="0.1"/>
<path d="M377.84 179.957C380.952 177.239 382.862 173.401 383.153 169.279C383.443 165.158 382.09 161.09 379.39 157.962C377.344 155.573 374.62 153.862 371.58 153.054C374.712 150.354 376.646 146.524 376.959 142.401C377.272 138.279 375.938 134.2 373.25 131.059C370.63 128.009 366.935 126.088 362.933 125.695C358.932 125.302 354.933 126.468 351.77 128.949C351.271 126.264 350.074 123.758 348.3 121.681C345.601 118.549 341.771 116.613 337.649 116.297C333.526 115.98 329.446 117.308 326.3 119.991C323.572 122.322 321.738 125.527 321.11 129.059C314.78 123.151 314.11 113.763 314.82 106.635L309.3 106.115C308.592 111.925 309.172 117.82 311 123.381C310.4 123.141 309.83 122.951 309.29 122.791C304.82 121.531 299.9 121.951 296.44 123.9L293.67 125.47L295.6 128C298.709 131.63 302.532 134.584 306.83 136.677V136.677C303.696 139.374 301.757 143.202 301.439 147.324C301.12 151.446 302.447 155.526 305.13 158.672C306.903 160.74 309.19 162.306 311.76 163.211C308.743 165.94 306.91 169.736 306.648 173.794C306.387 177.853 307.718 181.853 310.36 184.946C313.059 188.077 316.887 190.013 321.009 190.332C325.131 190.65 329.212 189.325 332.36 186.645L332.54 186.466C332.873 189.6 334.149 192.56 336.2 194.954C338.88 198.072 342.682 200.009 346.781 200.346C350.879 200.683 354.946 199.392 358.1 196.753C358.465 199.799 359.729 202.666 361.73 204.991C364.427 208.124 368.256 210.062 372.379 210.381C376.502 210.699 380.583 209.373 383.73 206.691C386.864 203.994 388.802 200.166 389.121 196.044C389.439 191.922 388.112 187.842 385.43 184.696C383.421 182.405 380.781 180.757 377.84 179.957V179.957ZM354.84 133.648C356.869 131.909 359.506 131.047 362.171 131.252C364.835 131.456 367.31 132.71 369.05 134.738C370.785 136.769 371.644 139.405 371.438 142.069C371.232 144.732 369.977 147.205 367.95 148.945C365.921 150.683 363.284 151.545 360.619 151.341C357.955 151.137 355.48 149.883 353.74 147.855C352.875 146.846 352.217 145.676 351.806 144.413C351.394 143.149 351.236 141.816 351.341 140.492C351.446 139.167 351.812 137.876 352.418 136.693C353.023 135.51 353.857 134.458 354.87 133.598L354.84 133.648ZM329.84 124.27C331.871 122.535 334.508 121.677 337.172 121.883C339.836 122.089 342.31 123.343 344.05 125.37C345.785 127.401 346.644 130.038 346.438 132.701C346.232 135.364 344.977 137.837 342.95 139.577C340.92 141.313 338.283 142.173 335.619 141.969C332.956 141.765 330.482 140.513 328.74 138.487C327.878 137.474 327.224 136.301 326.817 135.036C326.409 133.77 326.255 132.436 326.364 131.111C326.472 129.786 326.841 128.495 327.45 127.312C328.058 126.13 328.894 125.079 329.91 124.22L329.84 124.27ZM320.84 133.348C320.845 133.418 320.845 133.488 320.84 133.558H320.7L320.84 133.348ZM302.95 127.74C304.541 127.609 306.144 127.764 307.68 128.199C310.503 129 312.953 130.77 314.6 133.198C311.83 133.528 306.65 130.669 303.04 127.69L302.95 127.74ZM309.21 155.203C308.351 154.192 307.7 153.021 307.294 151.757C306.888 150.494 306.735 149.162 306.845 147.84C306.955 146.517 307.324 145.23 307.932 144.05C308.541 142.871 309.376 141.823 310.39 140.966C311.394 140.106 312.557 139.451 313.814 139.04C315.071 138.629 316.397 138.47 317.716 138.571C319.034 138.672 320.32 139.032 321.5 139.63C322.679 140.228 323.729 141.052 324.59 142.056C326.329 144.085 327.191 146.721 326.987 149.385C326.782 152.049 325.528 154.523 323.5 156.263C321.469 157.996 318.833 158.853 316.17 158.645C313.508 158.437 311.037 157.181 309.3 155.153L309.21 155.203ZM328.65 182.566C326.621 184.305 323.984 185.167 321.319 184.963C318.655 184.759 316.18 183.505 314.44 181.477C312.706 179.446 311.847 176.811 312.051 174.148C312.255 171.486 313.506 169.013 315.53 167.27C317.559 165.531 320.196 164.669 322.861 164.874C325.525 165.078 328 166.332 329.74 168.36C331.474 170.374 332.342 172.993 332.155 175.644C331.968 178.295 330.74 180.766 328.74 182.516L328.65 182.566ZM334.17 164.571C332.436 162.54 331.577 159.905 331.781 157.242C331.985 154.58 333.236 152.107 335.26 150.364C337.289 148.625 339.926 147.763 342.591 147.968C345.255 148.172 347.73 149.426 349.47 151.454C351.209 153.483 352.071 156.119 351.867 158.783C351.662 161.447 350.408 163.921 348.38 165.661C346.349 167.365 343.729 168.202 341.086 167.989C338.443 167.775 335.99 166.529 334.26 164.521L334.17 164.571ZM337.61 173.249C337.61 173.169 337.61 173.109 337.61 173.039L337.8 173.089L337.61 173.249ZM354.52 192.574C352.49 194.31 349.853 195.171 347.19 194.966C344.526 194.762 342.052 193.51 340.31 191.484C338.573 189.453 337.712 186.816 337.916 184.151C338.12 181.486 339.373 179.011 341.4 177.268C343.431 175.533 346.068 174.674 348.732 174.88C351.396 175.086 353.87 176.341 355.61 178.367C357.344 180.382 358.212 183 358.025 185.652C357.838 188.303 356.61 190.773 354.61 192.524L354.52 192.574ZM359.82 174.768C358.083 172.739 357.223 170.103 357.427 167.44C357.631 164.776 358.884 162.303 360.91 160.562C362.942 158.825 365.58 157.964 368.245 158.169C370.911 158.373 373.386 159.625 375.13 161.651C376.865 163.683 377.724 166.319 377.518 168.982C377.312 171.645 376.057 174.118 374.03 175.858C371.998 177.56 369.378 178.395 366.736 178.182C364.094 177.969 361.642 176.725 359.91 174.718L359.82 174.768ZM380.04 202.612C379.036 203.472 377.872 204.127 376.615 204.538C375.358 204.949 374.033 205.108 372.714 205.007C371.395 204.906 370.11 204.546 368.93 203.948C367.751 203.35 366.701 202.526 365.84 201.522C364.101 199.493 363.239 196.857 363.443 194.193C363.647 191.529 364.902 189.055 366.93 187.315C368.959 185.577 371.596 184.715 374.261 184.919C376.925 185.123 379.4 186.377 381.14 188.405C382.871 190.422 383.735 193.04 383.546 195.691C383.357 198.342 382.129 200.811 380.13 202.562L380.04 202.612Z" fill="white" fill-opacity="0.1"/>
<path d="M250.71 15.5765L252.71 17.4361L254.86 15.2666L255.44 14.6767C259.203 10.668 262.247 6.04149 264.44 1L258.32 1C256.739 4.11099 254.781 7.0155 252.49 9.64793L248.49 5.83884C249.781 4.32246 250.949 2.70425 251.98 1L245.23 1C244.96 1.34992 244.7 1.69983 244.42 1.99976L243.32 1H235.24L240.57 5.99881L250.71 15.5765Z" fill="white" fill-opacity="0.1"/>
<path d="M126.39 59.9859C126.25 62.3853 126.02 64.5948 125.71 66.5843L131.18 67.4641C131.596 64.7676 131.869 62.0512 132 59.3261C145.33 56.2268 154.36 42.75 152.45 28.0635C151.133 17.4381 145.71 7.74961 137.34 1.06998H127.54C128.363 1.5774 129.151 2.13849 129.9 2.74958C129.267 4.80115 128.286 6.72872 127 8.44822C126.49 5.92882 125.94 3.44941 125.38 1.06998H119.69C120.33 3.75934 120.94 6.4587 121.5 9.16805C119.17 7.85836 116.84 6.23875 114.69 4.72911L114.48 4.57914C115.585 3.32363 116.756 2.12884 117.99 1L110.18 1C103.9 7.99833 97.1801 19.4356 99.1801 34.9919C101.06 49.4184 112.92 60.0359 126.39 59.9859ZM132.15 53.5474C132.15 51.9678 132.15 50.3582 132.08 48.7086C138.19 44.7096 143.08 40.8705 147.08 34.452C146.09 43.3799 140.26 50.9881 132.12 53.5075L132.15 53.5474ZM143.15 16.6563C144.374 18.9895 145.326 21.4549 145.99 24.0045C142.38 33.3023 137.99 37.8212 131.73 42.2301C131.51 39.0509 131.21 35.8017 130.84 32.5225C136.215 28.341 140.446 22.8696 143.14 16.6163L143.15 16.6563ZM129.62 14.1968C131.649 11.706 133.331 8.95158 134.62 6.0088C136.388 7.52127 138.012 9.19474 139.47 11.0076H139.36C137.592 16.7148 134.362 21.8605 129.99 25.934C129.52 22.5648 128.99 19.1957 128.4 15.8764C128.79 15.2666 129.19 14.7167 129.61 14.1569L129.62 14.1968ZM126.55 54.4472C117.11 54.6172 108.61 48.0188 105.61 38.451C111.449 43.9658 118.665 47.8092 126.5 49.5784C126.53 51.238 126.55 52.8576 126.54 54.4072L126.55 54.4472ZM111.01 8.90811L111.49 9.23803C114.94 11.6475 118.79 14.3368 122.79 15.9264C123.42 19.4556 123.98 22.9248 124.46 26.4239C117.975 24.1966 112.085 20.5171 107.24 15.6665C108.261 13.2795 109.521 11.0018 111 8.86812L111.01 8.90811ZM105.32 21.4651C110.995 26.6327 117.815 30.3811 125.22 32.4025C125.67 36.3516 126.01 40.1806 126.22 43.8498C118.01 41.6503 111.12 37.0314 104.36 29.2732C104.376 26.6295 104.694 23.9963 105.31 21.4251L105.32 21.4651Z" fill="white" fill-opacity="0.1"/>
<path d="M210.39 12.8773C208.28 17.3463 194.85 46.3193 192.39 64.8649C190.668 64.2508 188.866 63.8937 187.04 63.8052C182.88 63.6452 175.65 65.1548 174.04 77.092C172.5 88.3693 179.91 98.7268 190.56 100.176C191.156 100.264 191.757 100.318 192.36 100.336C202.48 100.726 211.21 93.0082 212.67 82.3407C213.41 76.882 212.54 72.6331 210.08 69.6938C207.93 67.1344 204.61 65.6947 200.48 65.5348C199.623 65.5033 198.765 65.5233 197.91 65.5947C199.8 50.8783 209.54 28.1137 213.74 18.8059C220.18 27.6238 235.74 50.5583 236.51 67.0044C234.739 66.5079 232.917 66.2128 231.08 66.1246C217.99 65.6247 216.08 77.6319 215.92 82.8106C215.41 95.9875 225.11 107.095 237.54 107.575C249.97 108.055 260.54 97.7271 261 84.5802C261.2 79.3714 260.27 67.1944 247.31 66.6945C245.553 66.6376 243.795 66.7818 242.07 67.1244C241.37 48.1289 223.54 22.665 217.37 14.417C218.988 14.2774 220.558 13.7897 221.97 12.9873L219.25 8.15846C215.79 10.158 212.33 8.09848 210.25 5.55908L205.98 9.07824C207.198 10.6109 208.694 11.8998 210.39 12.8773V12.8773ZM200.26 71.1534C202.82 71.2534 204.69 71.9832 205.83 73.3429C207.24 75.0225 207.69 77.8318 207.17 81.6709C206.1 89.459 199.82 95.1277 192.57 94.8478C192.15 94.8478 191.72 94.7878 191.3 94.7378C183.68 93.688 178.39 86.1298 179.52 77.8918C180.6 70.0437 184.22 69.2739 186.85 69.3738C189.155 69.5769 191.393 70.2579 193.42 71.3734L194.42 71.9732L195.54 71.6533C197.071 71.2826 198.645 71.1145 200.22 71.1534H200.26ZM238.85 73.8628L239.94 73.4429C242.236 72.6377 244.657 72.2451 247.09 72.2831C250.88 72.4231 255.86 73.8428 255.46 84.4202C255.06 94.5378 247.12 102.486 237.74 102.116C228.36 101.746 221.05 93.2281 221.44 83.1206C221.85 72.6231 227.01 71.6033 230.85 71.7533C233.236 71.8966 235.58 72.4478 237.78 73.3829L238.85 73.8628Z" fill="white" fill-opacity="0.1"/>
<path d="M298.03 80.9807C302.564 82.6815 307.253 83.9338 312.03 84.7198C311.67 85.9395 311.19 87.1793 310.67 88.4689L310.51 88.8688L315.66 90.8684L315.82 90.4685C316.33 89.1788 316.82 87.8591 317.26 86.4694C321.413 89.0887 325.81 91.2986 330.39 93.0678V93.0678C340.39 96.8569 349.39 97.6168 357.39 95.3273C368.26 92.1881 376.49 83.4501 381.86 69.3335C387.33 54.977 385.05 44.5094 382.86 34.3419C381.52 28.1734 380.26 22.3448 380.72 15.7063L380.98 11.9872C381.26 8.10815 381.52 4.41904 381.74 0.879883H376.18C375.97 4.31906 375.72 7.87821 375.46 11.5973L375.19 15.3164C374.67 22.7547 376.08 29.2431 377.45 35.5216C379.57 45.2793 381.57 54.5171 376.69 67.324C371.98 79.691 364.97 87.3192 355.86 89.9186C349.09 91.9181 341.19 91.1683 332.37 87.8091C327.244 85.8452 322.377 83.2598 317.88 80.1109L317.24 79.6411L316.45 79.5811C310.841 78.9647 305.332 77.648 300.05 75.662C279.17 67.6639 272.79 52.6675 281.05 30.9127C286.14 17.5559 293.44 12.1072 301.17 6.34858C303.48 4.61899 305.83 2.85941 308.17 0.879883H299.26L297.89 1.87964C289.89 7.87821 281.56 14.0467 275.89 28.8732C263.26 62.0753 284.39 75.752 298.03 80.9807Z" fill="white" fill-opacity="0.1"/>
<path d="M290.39 26.6841C286.7 34.6822 278.06 53.3077 292.7 65.3848L296.22 61.1059C286.22 52.8878 289.95 40.8207 295.42 29.0035L290.39 26.6841Z" fill="white" fill-opacity="0.1"/>
<path d="M188.47 11.1176C191.461 8.55332 193.334 4.92344 193.69 1L188.13 1C187.834 3.30984 186.672 5.4214 184.88 6.90859C180.88 10.3278 173.11 10.6977 164.19 1H157.19C157.685 1.79829 158.236 2.56006 158.84 3.27946C170.09 16.5363 181.84 16.7662 188.47 11.1176Z" fill="white" fill-opacity="0.1"/>
<path d="M79.29 1H63.9501C58.3333 1.82212 52.6267 1.82212 47.01 1H28.23C33.4752 3.77219 39.1757 5.58044 45.0601 6.33872C59.5901 8.40823 71.07 6.60866 79.29 1Z" fill="white" fill-opacity="0.1"/>
<path d="M64.7198 204.181C68.5498 187.665 66.6599 171.869 59.2699 158.192C59.1786 157.888 59.058 157.593 58.9099 157.312V157.312L58.4598 156.623L58.3999 156.533L56.6499 153.843L56.2999 153.313L55.1499 151.544C54.4299 150.464 53.7199 149.424 53.0299 148.405C47.5999 140.407 43.3099 134.098 41.9099 123.561C41.5295 120.348 40.8122 117.185 39.7699 114.123C37.9799 109.124 35.3199 105.675 31.8999 104.005C30.3667 103.287 28.7046 102.883 27.0125 102.82C25.3203 102.756 23.6327 103.034 22.0499 103.635C20.9734 103.947 19.9731 104.478 19.1124 105.195C18.2518 105.913 17.5495 106.801 17.0499 107.804C15.4399 111.303 17.0499 115.343 18.4299 118.902C18.6799 119.522 18.9199 120.131 19.1399 120.721C25.6499 138.517 25.2798 155.013 17.9598 172.639C10.3698 190.904 -0.770161 203.961 -16.0402 212.459V218.808C-0.240161 210.7 13.7399 197.163 23.0399 174.818C30.9299 155.823 31.3299 138.047 24.3099 118.832C24.0799 118.192 23.8199 117.542 23.5599 116.832C22.5599 114.423 21.4299 111.433 22.0599 110.074C22.4702 109.439 23.1127 108.991 23.8499 108.824C24.7363 108.469 25.6851 108.294 26.64 108.312C27.595 108.329 28.5368 108.537 29.4099 108.924C31.5099 109.924 33.2299 112.303 34.5099 115.922C35.4255 118.622 36.0556 121.41 36.3899 124.24C37.9599 136.078 42.7999 143.236 48.3899 151.474C49.4899 153.083 50.6299 154.763 51.7899 156.543L52.0699 156.973C60.6599 170.259 63.1499 186.146 59.2599 202.892C54.2599 224.566 38.8598 245.881 20.0798 257.169C10.3698 263.017 -2.14006 267.306 -16.0601 269.726V275.334C-1.06006 272.825 12.4499 268.236 22.9399 261.917C42.9999 249.94 59.3898 227.246 64.7198 204.181Z" fill="white" fill-opacity="0.1"/>
<path d="M36.5997 204.571C42.7397 189.415 44.0397 171.119 40.4797 150.204C40.0997 147.975 39.6598 145.675 39.1698 143.356L33.7498 144.506C34.2298 146.745 34.6598 148.975 35.0198 151.124C38.3998 171.029 37.2097 188.305 31.4697 202.492C25.6197 216.928 13.8897 229.395 -1.53027 237.603C-6.15421 240.049 -10.9783 242.096 -15.9502 243.722V249.541C-10.0775 247.743 -4.38604 245.4 1.0498 242.542C17.6298 233.684 30.2697 220.218 36.5997 204.571Z" fill="white" fill-opacity="0.1"/>
<path d="M38.6298 422.429C57.6298 409.722 59.6298 384.089 43.6298 360.094C22.8098 329.002 4.75974 334.35 -4.14026 340.309C-6.97317 342.222 -9.50444 344.547 -11.6503 347.207C-13.1163 347.616 -14.5528 348.124 -15.9502 348.727V354.856C-13.9086 353.763 -11.7385 352.93 -9.49023 352.376L-8.40027 352.156L-7.77026 351.246C-5.89164 348.787 -3.6253 346.65 -1.06018 344.918C11.5298 336.49 25.3898 342.808 39.0298 363.184C53.2798 384.468 51.8697 406.933 35.5997 417.821C19.3297 428.708 -1.7002 421.54 -15.9502 400.565V409.742C-0.140195 428.568 21.4898 433.897 38.6298 422.429Z" fill="white" fill-opacity="0.1"/>
<path d="M5.05005 316.925L8.21997 317.845L9.77002 312.526L6.59998 311.606C7.17684 307.241 6.17356 302.813 3.77124 299.122C1.36893 295.432 -2.27408 292.721 -6.5 291.481C-9.59449 290.581 -12.872 290.515 -16 291.291V297.069C-13.4315 296.121 -10.6247 296.03 -8 296.81C-6.37255 297.283 -4.8544 298.072 -3.53223 299.133C-2.21006 300.193 -1.10982 301.503 -0.294434 302.989C0.520957 304.474 1.03562 306.106 1.21997 307.79C1.40432 309.475 1.25481 311.179 0.780029 312.806C-0.180627 316.088 -2.40528 318.856 -5.40527 320.5C-8.40527 322.144 -11.9353 322.53 -15.22 321.574C-15.48 321.504 -15.72 321.404 -15.97 321.314V327.082C-11.8319 328.078 -7.47677 327.61 -3.64478 325.758C0.187218 323.906 3.25959 320.785 5.05005 316.925V316.925Z" fill="white" fill-opacity="0.1"/>
<path d="M272.75 274.545L283.14 289.861C284.984 292.461 287.023 294.918 289.24 297.209C278.69 296.319 273.55 296.909 273.24 296.949L256.97 298.949L271.3 306.947C271.58 307.107 276 309.516 286.07 312.585C283.264 313.867 280.556 315.354 277.97 317.034L262.63 327.452L280.81 326.762C286.554 326.664 292.3 326.887 298.02 327.432C296.347 329.466 294.912 331.683 293.74 334.04L286.74 349.117L300.74 340.979C302.768 340.017 304.907 339.312 307.11 338.879C312.913 337.706 318.887 337.655 324.71 338.729C326.341 339.055 328.03 338.95 329.608 338.424C331.187 337.898 332.6 336.97 333.71 335.73C334.12 336.73 334.56 337.669 335.06 338.599C336.892 342.108 339.253 345.315 342.06 348.107C343.046 349.069 344.08 349.98 345.16 350.836C346.994 352.297 348.959 353.586 351.03 354.685C354.408 356.473 358.035 357.747 361.79 358.464L393.87 364.603L394.34 364.683C396.565 365.074 398.82 365.275 401.08 365.283C406.204 365.29 411.277 364.271 416 362.284L416.57 362.034C418.22 361.306 419.817 360.464 421.35 359.514C422.495 358.801 423.603 358.03 424.67 357.205C426.234 355.987 427.702 354.65 429.06 353.206C429.87 352.346 430.65 351.436 431.39 350.496C435.166 345.692 437.735 340.052 438.88 334.05C440.024 328.067 439.719 321.896 437.99 316.055C437.65 314.905 437.26 313.785 436.82 312.675C436.092 310.84 435.219 309.064 434.21 307.367C433.527 306.201 432.783 305.073 431.98 303.988C430.911 302.538 429.738 301.168 428.47 299.888C428.32 299.739 428.18 299.589 428.03 299.449C424.379 295.851 420.044 293.023 415.28 291.131C413.177 290.299 411.005 289.653 408.79 289.201L408.32 289.101L376.25 282.963C372.493 282.249 368.652 282.094 364.85 282.503C362.522 282.763 360.222 283.235 357.98 283.912C356.657 284.311 355.355 284.779 354.08 285.312C350.429 286.865 347.037 288.965 344.02 291.54C343.28 292.17 342.56 292.84 341.87 293.54C341.329 291.925 340.365 290.485 339.077 289.37C337.789 288.254 336.226 287.506 334.55 287.202C319.82 284.122 313.18 276.364 313.12 276.284L303.12 263.997L304.12 280.153C304.335 282.705 304.828 285.226 305.59 287.671C300.108 286.07 294.719 284.164 289.45 281.963L272.75 274.545ZM325.53 333.44C308.53 330.501 298.3 336.26 298.3 336.26C299.843 333.221 301.87 330.452 304.3 328.062C307.3 328.452 310.51 328.942 313.79 329.571C318.633 330.569 323.598 330.832 328.52 330.351C329.317 330.26 330.108 330.124 330.89 329.941C330.789 330.534 330.567 331.099 330.238 331.602C329.908 332.105 329.478 332.534 328.975 332.862C328.472 333.191 327.906 333.412 327.313 333.511C326.72 333.611 326.113 333.587 325.53 333.44V333.44ZM334.15 321.943C334.15 321.993 334.15 322.043 334.15 322.093C333.985 322.523 333.732 322.914 333.406 323.239C333.08 323.565 332.69 323.818 332.26 323.983C331.432 324.372 330.559 324.654 329.66 324.823C326.06 325.572 320.66 325.472 314.84 324.353C313.4 324.073 311.97 323.823 310.56 323.593C309.15 323.363 307.81 323.163 306.48 322.983C305.15 322.803 304 322.663 302.8 322.523C295.474 321.65 288.096 321.279 280.72 321.413C285 318.687 289.589 316.479 294.39 314.835C298.76 315.955 303.82 317.094 309.64 318.214H309.7C311.7 318.584 313.62 318.924 315.52 319.214C320.4 319.994 324.94 320.524 328.72 320.744H329.12C330.63 320.823 331.98 320.843 333.12 320.823H334.05C334.176 321.176 334.211 321.554 334.15 321.923V321.943ZM428.31 345.987C427.942 345.141 427.841 344.203 428.02 343.298C428.199 342.367 428.663 341.514 429.347 340.857C430.031 340.2 430.902 339.771 431.84 339.629C430.898 341.871 429.715 344.003 428.31 345.987V345.987ZM432.21 321.393C432.382 320.492 432.821 319.663 433.47 319.014C434.048 321.374 434.36 323.792 434.4 326.222C433.58 325.743 432.929 325.021 432.537 324.156C432.144 323.291 432.03 322.326 432.21 321.393V321.393ZM339.54 319.574C340.049 321.269 341.012 322.792 342.325 323.978C343.639 325.164 345.252 325.968 346.99 326.302L347.99 321.303C346.795 321.071 345.74 320.374 345.058 319.366C344.376 318.358 344.121 317.12 344.35 315.925C344.463 315.332 344.691 314.768 345.022 314.264C345.353 313.76 345.78 313.327 346.279 312.988C346.777 312.649 347.338 312.412 347.928 312.289C348.519 312.167 349.127 312.162 349.72 312.276L350.72 307.277C349.037 306.961 347.302 307.096 345.688 307.666C344.074 308.237 342.64 309.223 341.53 310.526C341.375 310.316 341.208 310.116 341.03 309.926C341.656 309.026 342.085 308.004 342.29 306.927C342.621 305.187 342.342 303.386 341.5 301.828C342.297 300.636 343.176 299.5 344.13 298.429C344.731 299.933 345.701 301.261 346.951 302.292C348.2 303.322 349.689 304.022 351.28 304.327L352.28 299.329C351.148 299.112 350.139 298.477 349.454 297.551C348.768 296.625 348.456 295.475 348.58 294.33C351.464 292.081 354.697 290.318 358.15 289.111C358.668 290.789 359.634 292.294 360.943 293.465C362.252 294.636 363.854 295.43 365.58 295.759L366.58 290.761C365.793 290.605 365.061 290.246 364.456 289.72C363.851 289.194 363.393 288.519 363.13 287.761C367.184 286.997 371.346 286.997 375.4 287.761L381.93 289.011C381.473 291.523 382.027 294.114 383.47 296.22C384.914 298.327 387.131 299.778 389.64 300.258L390.64 295.26C389.457 295.031 388.412 294.348 387.727 293.358C387.043 292.367 386.775 291.147 386.98 289.961L406.62 293.71C406.162 296.222 406.715 298.813 408.156 300.92C409.598 303.028 411.813 304.482 414.32 304.967L415.32 299.968C414.188 299.752 413.179 299.117 412.494 298.191C411.808 297.265 411.496 296.115 411.62 294.97C415.38 296.191 418.891 298.073 421.99 300.528C420.809 301.225 419.79 302.165 419.001 303.285C418.211 304.405 417.669 305.681 417.41 307.027C416.932 309.548 417.473 312.156 418.914 314.279C420.356 316.402 422.58 317.867 425.1 318.354L426.1 313.355C424.903 313.125 423.846 312.43 423.161 311.421C422.477 310.412 422.221 309.174 422.45 307.977C422.624 307.076 423.064 306.249 423.713 305.6C424.362 304.952 425.189 304.512 426.09 304.337C428.612 307.145 430.641 310.36 432.09 313.845C430.903 314.539 429.879 315.479 429.085 316.602C428.292 317.724 427.748 319.004 427.49 320.354C427.037 322.727 427.489 325.184 428.757 327.241C430.024 329.298 432.016 330.807 434.34 331.471C434.26 331.971 434.18 332.471 434.09 332.971C434 333.47 433.88 333.97 433.77 334.44C431.365 334.204 428.96 334.874 427.023 336.318C425.087 337.762 423.759 339.877 423.3 342.248C423.041 343.6 423.074 344.991 423.397 346.329C423.719 347.667 424.324 348.921 425.17 350.006C422.525 352.704 419.445 354.937 416.06 356.615C415.293 356.116 414.693 355.399 414.336 354.556C413.98 353.714 413.884 352.784 414.06 351.886C414.173 351.294 414.401 350.73 414.732 350.226C415.063 349.722 415.49 349.288 415.989 348.949C416.487 348.61 417.048 348.373 417.638 348.251C418.229 348.129 418.838 348.124 419.43 348.237L420.43 343.238C417.908 342.76 415.3 343.301 413.176 344.742C411.053 346.183 409.587 348.407 409.1 350.926C408.843 352.273 408.876 353.658 409.197 354.991C409.517 356.323 410.118 357.572 410.96 358.654C407.174 359.796 403.215 360.25 399.27 359.994C399.57 358.876 400.282 357.913 401.264 357.299C402.245 356.685 403.423 356.466 404.56 356.685L405.56 351.686C403.05 351.209 400.453 351.742 398.333 353.169C396.214 354.595 394.743 356.8 394.24 359.304L374.61 355.545C374.854 354.366 375.551 353.33 376.552 352.661C377.553 351.991 378.777 351.742 379.96 351.966L380.96 346.967C378.452 346.491 375.858 347.022 373.74 348.447C371.623 349.871 370.153 352.074 369.65 354.575L363.12 353.326C359.066 352.556 355.192 351.034 351.7 348.837C352.225 348.24 352.897 347.79 353.65 347.532C354.402 347.275 355.209 347.218 355.99 347.367L356.99 342.368C355.266 342.042 353.486 342.189 351.839 342.795C350.192 343.4 348.741 344.442 347.64 345.808C344.865 343.415 342.5 340.585 340.64 337.43C340.948 336.318 341.663 335.363 342.643 334.753C343.623 334.144 344.796 333.925 345.93 334.14L346.93 329.141C345.338 328.839 343.695 328.94 342.153 329.436C340.61 329.932 339.217 330.807 338.1 331.981C337.558 330.495 337.127 328.971 336.81 327.422C338.286 326.274 339.295 324.629 339.65 322.793C339.859 321.774 339.859 320.723 339.65 319.704C339.27 319.734 339.39 319.644 339.54 319.574V319.574ZM336.43 315.225C335.217 315.483 333.979 315.604 332.74 315.585C331.03 315.585 328.92 315.505 326.52 315.295C322.04 314.905 316.52 314.125 310.6 312.995C309.13 312.715 307.72 312.425 306.35 312.146C303.883 311.632 301.57 311.122 299.41 310.616C297.583 310.176 295.863 309.746 294.25 309.326C279.65 305.507 273.74 302.218 273.74 302.218C273.74 302.218 280.74 301.368 295.74 303.218C297.43 303.418 299.2 303.658 301.09 303.938C303.35 304.277 305.753 304.671 308.3 305.117L311.98 305.797C317.62 306.877 322.8 308.117 326.98 309.346C329.42 310.066 331.53 310.766 333.21 311.446C334.41 311.889 335.56 312.459 336.64 313.145C337.34 313.625 337.64 314.055 337.64 314.425C337.64 314.795 337.14 315.035 336.39 315.225H336.43ZM333.43 292.3C334.013 292.377 334.575 292.57 335.082 292.869C335.589 293.167 336.03 293.565 336.379 294.039C336.728 294.512 336.978 295.051 337.114 295.623C337.25 296.196 337.269 296.789 337.17 297.369C336.527 296.912 335.859 296.492 335.17 296.109C330.768 293.842 326.048 292.254 321.17 291.401C317.85 290.761 314.66 290.031 311.67 289.261C310.338 286.207 309.501 282.961 309.19 279.643C309.19 279.643 316.55 288.781 333.39 292.3H333.43ZM308.12 293.83C309.28 294.14 310.46 294.45 311.68 294.75C312.9 295.05 314.29 295.38 315.68 295.679C317.07 295.979 318.68 296.329 320.18 296.619C326.11 297.749 331.18 299.679 334.25 301.728C335.01 302.222 335.706 302.81 336.32 303.478C336.668 303.793 336.939 304.185 337.112 304.621C337.285 305.058 337.356 305.529 337.32 305.997C337.232 306.42 337.024 306.809 336.72 307.117C336.48 306.997 336.22 306.887 335.96 306.777C334.86 306.317 333.59 305.837 332.17 305.357L331.79 305.237C328.19 304.047 323.79 302.858 318.94 301.788C317.07 301.368 315.13 300.968 313.16 300.588H313.11C307.43 299.499 302.4 298.709 297.98 298.139C294.02 294.785 290.484 290.961 287.45 286.752C294.162 289.574 301.058 291.938 308.09 293.83H308.12Z" fill="white" fill-opacity="0.1"/>
<path d="M144.39 341.639C139.62 341.639 139.62 349.037 144.39 349.037C149.16 349.037 149.15 341.639 144.39 341.639Z" fill="white" fill-opacity="0.1"/>
<path d="M179.96 339.499C175.18 339.499 175.18 346.897 179.96 346.897C184.74 346.897 184.73 339.499 179.96 339.499Z" fill="white" fill-opacity="0.1"/>
<path d="M154.2 195.403C149.43 195.403 149.43 202.802 154.2 202.802C158.97 202.802 158.97 195.403 154.2 195.403Z" fill="white" fill-opacity="0.1"/>
<path d="M-0.609842 109.844C4.16016 109.844 4.16016 102.446 -0.609842 102.446C-5.37984 102.446 -5.36984 109.844 -0.609842 109.844Z" fill="white" fill-opacity="0.1"/>
<path d="M285.64 98.7466C280.87 98.7466 280.87 106.145 285.64 106.145C290.41 106.145 290.39 98.7466 285.64 98.7466Z" fill="white" fill-opacity="0.1"/>
<path d="M173.99 36.7715C169.22 36.7715 169.22 44.1697 173.99 44.1697C178.76 44.1697 178.76 36.7715 173.99 36.7715Z" fill="white" fill-opacity="0.1"/>
<path d="M316.84 354.266C312.07 354.266 312.07 361.654 316.84 361.654C321.61 361.654 321.61 354.266 316.84 354.266Z" fill="white" fill-opacity="0.1"/>
<path d="M271.99 248.811C267.22 248.811 267.22 256.209 271.99 256.209C276.76 256.209 276.76 248.811 271.99 248.811Z" fill="white" fill-opacity="0.1"/>
<path d="M193.79 119.392C189.01 119.392 189.01 126.78 193.79 126.78C198.57 126.78 198.56 119.392 193.79 119.392Z" fill="white" fill-opacity="0.1"/>
</g>
</g>
<defs>
<clipPath id="clip0_999_7">
<rect width="1500" height="1499.64" fill="white" transform="translate(-16 1)"/>
</clipPath>
</defs>
</svg>
