<svg width="335" height="358" viewBox="0 0 335 358" fill="none" xmlns="http://www.w3.org/2000/svg">
<rect y="0.641602" width="335" height="357" fill="#48952D"/>
<mask id="mask0_999_6" style="mask-type:alpha" maskUnits="userSpaceOnUse" x="0" y="0" width="335" height="358">
<rect y="0.641602" width="335" height="357" fill="#E0C225"/>
</mask>
<g mask="url(#mask0_999_6)">
<path d="M80.7465 163.999C80.9808 163.999 81.2128 163.952 81.4288 163.862C81.6449 163.771 81.8406 163.638 82.0046 163.47C82.7344 162.74 99.7703 145.018 88.7234 97.6139C88.6156 97.1538 88.33 96.7551 87.9292 96.5051C87.5283 96.255 87.0449 96.174 86.5845 96.2796C86.1246 96.3875 85.7261 96.6731 85.4762 97.0742C85.2263 97.4752 85.1451 97.9589 85.2507 98.4195C95.7944 143.734 79.6392 160.777 79.4883 160.953C79.3209 161.117 79.1879 161.313 79.0971 161.529C79.0063 161.745 78.9596 161.977 78.9596 162.212C78.9596 162.446 79.0063 162.678 79.0971 162.894C79.1879 163.111 79.3209 163.306 79.4883 163.47C79.6523 163.638 79.848 163.771 80.0641 163.862C80.2801 163.952 80.5121 163.999 80.7465 163.999ZM340.513 342.008C340.023 339.697 338.956 337.548 337.411 335.761C335.867 333.974 333.895 332.607 331.681 331.787C330.266 331.258 328.748 331.065 327.246 331.222C325.744 331.379 324.299 331.883 323.024 332.694C321.393 333.724 320.085 335.195 319.253 336.936C318.42 338.678 318.096 340.619 318.319 342.537C317.102 342.926 316.036 343.681 315.266 344.699C314.496 345.718 314.059 346.95 314.016 348.226C313.952 348.862 313.952 349.503 314.016 350.14C306.668 348.755 301.434 351.272 299.295 357.264C299.286 357.356 299.286 357.449 299.295 357.541H303.321C303.865 356.361 304.739 355.364 305.837 354.671C308.907 352.707 313.387 353.614 316.834 354.671C317.24 354.808 317.68 354.803 318.082 354.656C318.485 354.51 318.825 354.231 319.048 353.865C319.267 353.5 319.353 353.071 319.293 352.65C319.234 352.228 319.032 351.84 318.721 351.549C318.38 351.137 318.129 350.657 317.986 350.14C317.843 349.624 317.81 349.083 317.891 348.554C318.042 346.867 318.897 345.784 320.407 346.036C320.743 346.113 321.094 346.097 321.421 345.99C321.749 345.884 322.042 345.691 322.269 345.432C322.492 345.173 322.64 344.858 322.698 344.521C322.755 344.184 322.72 343.837 322.596 343.519C322.063 342.122 322.021 340.585 322.479 339.161C322.937 337.738 323.866 336.513 325.113 335.689C325.911 335.184 326.816 334.873 327.755 334.782C328.695 334.69 329.643 334.82 330.523 335.161C332.558 336.008 334.297 337.437 335.523 339.268C336.75 341.1 337.409 343.253 337.418 345.457C337.418 346.162 337.418 346.867 337.418 347.572V348.075C337.376 348.851 337.292 349.624 337.167 350.391C337.098 350.733 337.127 351.087 337.252 351.413C337.377 351.738 337.591 352.021 337.871 352.229C338.149 352.438 338.479 352.567 338.824 352.603C339.17 352.638 339.519 352.579 339.834 352.43C342.866 350.647 346.439 350.012 349.899 350.643V342.31C349.119 341.661 348.222 341.165 347.257 340.85C346.102 340.564 344.9 340.519 343.727 340.718C342.554 340.917 341.434 341.357 340.438 342.008H340.513ZM348.893 346.741H348.591C348.113 346.716 347.634 346.716 347.156 346.741H346.754C346.163 346.771 345.575 346.838 344.992 346.942H344.64L343.206 347.27H342.778C342.224 347.446 341.696 347.597 341.193 347.798C341.193 347.169 341.193 346.514 341.193 345.86L341.797 345.432C342.44 344.969 343.173 344.644 343.948 344.479C344.724 344.315 345.525 344.313 346.301 344.475C347.359 344.943 348.241 345.737 348.817 346.741H348.893ZM70.0266 14.6638C77.3493 24.8595 88.5975 29.5923 96.7506 25.942C97.549 25.5855 98.3081 25.1468 99.0155 24.6329C101.04 23.0441 102.638 20.9769 103.665 18.6172C104.693 16.2575 105.119 13.6792 104.904 11.1142C104.787 7.53987 103.993 4.02021 102.563 0.7423H99.3426C100.899 4.0028 101.756 7.55292 101.859 11.1646C102.052 13.2513 101.728 15.3535 100.916 17.2853C100.104 19.2171 98.8289 20.9193 97.2036 22.2413C96.6545 22.6397 96.064 22.9773 95.4422 23.2483C88.6731 26.2944 78.7334 21.8637 72.3166 12.9519C69.7005 9.3223 67.9371 5.14869 67.1579 0.7423H64.1634C64.1634 1.09474 64.1634 1.44719 64.3396 1.79963C65.2808 6.44938 67.2213 10.8388 70.0266 14.6638ZM32.2808 161.029C32.1552 160.846 31.9944 160.691 31.808 160.572C31.6217 160.453 31.4134 160.372 31.1954 160.335C30.9774 160.297 30.7541 160.304 30.5386 160.354C30.3232 160.404 30.1198 160.496 29.9406 160.626C28.426 161.671 27.1328 163.005 26.1353 164.552C25.1377 166.098 24.4555 167.827 24.1277 169.638C23.4986 173.993 25.1846 178.6 29.1605 183.308C37.6659 193.378 56.111 193.579 71.9391 183.988C82.0046 177.971 113.183 153.627 95.87 92.7552C96.4487 92.9314 96.8262 93.0321 96.801 92.9566C96.9197 92.7992 97.0053 92.6193 97.0526 92.4279C97.6314 89.3315 95.87 85.2784 92.2464 81.3008C87.6917 76.2659 80.218 71.659 73.1721 71.6841C71.9391 68.21 69.5738 61.9164 66.9819 55.4969C65.0191 50.6886 62.9556 45.8299 61.1187 42.1041C59.2817 38.3782 57.3189 35.7852 54.9787 35.03C54.231 34.7925 53.4404 34.7212 52.6624 34.8213C51.8844 34.9213 51.1376 35.1901 50.4742 35.609C50.278 35.7169 50.0927 35.8433 49.9207 35.9866C47.052 38.1516 46.6242 41.8775 48.9141 45.8047C53.5585 52.2004 57.4827 59.0896 60.6153 66.3471C61.798 69.1415 62.8802 72.0114 63.8364 75.0827C53.0411 81.6784 48.7381 92.7049 50.1472 100.257C50.2123 100.622 50.3907 100.957 50.6573 101.215C50.9239 101.473 51.2649 101.64 51.6318 101.692H52.0848L54.0728 99.3509C58.4261 110.831 68.5419 140.385 64.3647 155.918C62.1855 162.965 57.5281 168.984 51.2545 172.861C45.5171 176.259 39.3267 176.964 35.4515 174.447C34.1841 173.795 33.0856 172.858 32.2427 171.709C31.3998 170.56 30.8356 169.23 30.5948 167.826C30.4881 167.011 30.5611 166.184 30.809 165.401C31.0568 164.618 31.4734 163.899 32.0292 163.294C32.3249 163.001 32.5073 162.613 32.5442 162.198C32.581 161.784 32.4698 161.369 32.2304 161.029H32.2808ZM54.0224 93.8125C54.9285 90.3375 56.5489 87.0897 58.7803 84.2766C61.0117 81.4634 63.8051 79.1466 66.9819 77.4743C67.3454 77.281 67.6284 76.9648 67.7805 76.5821C67.9326 76.1994 67.9438 75.775 67.8122 75.3848C66.5123 70.9829 64.8891 66.6831 62.9556 62.5206C59.8919 55.9585 56.2097 49.7037 51.959 43.8411C51.355 42.8089 50.1723 40.2411 52.1351 38.8062L52.3615 38.6551C52.5923 38.5018 52.8544 38.4019 53.1287 38.3627C53.4029 38.3235 53.6824 38.346 53.9469 38.4286C54.7018 38.6803 56.1865 39.6621 57.9228 43.5894C60.0617 47.9697 62.553 53.8857 64.7674 59.4241C67.2838 65.7178 69.3975 71.5079 70.3034 74.1009C70.4359 74.4803 70.6908 74.805 71.0279 75.0237C71.3649 75.2425 71.7653 75.3429 72.1656 75.3093C78.3308 74.7051 85.5527 79.2365 89.6544 83.7176C90.7782 84.9107 91.7502 86.2382 92.5483 87.67C92.4648 87.605 92.3714 87.554 92.2716 87.5189C91.9945 87.3529 91.7089 87.2017 91.4159 87.0658C90.6583 86.6196 89.8675 86.2325 89.0505 85.9077L87.9181 85.4798C87.1438 85.2201 86.3537 85.0098 85.5527 84.8504C85.2004 84.8504 84.8481 84.6742 84.4707 84.6238C83.3235 84.4297 82.1615 84.337 80.998 84.3469C80.7177 84.3508 80.4421 84.4197 80.1929 84.5483C79.9499 84.6806 79.736 84.8604 79.5638 85.077C79.4053 85.3055 79.3023 85.5678 79.2629 85.8432C79.2236 86.1185 79.2491 86.3992 79.3373 86.663C80.1043 89.6679 80.2385 92.7995 79.7317 95.859C79.2249 98.9186 78.0881 101.839 76.3932 104.436C75.2391 99.4184 73.613 94.5211 71.5365 89.8098C70.9321 88.518 69.8886 87.4831 68.5923 86.8895L67.938 86.6126C66.6368 86.3416 65.2935 86.3449 63.9937 86.6223C62.6939 86.8997 61.4661 87.4451 60.3888 88.2238C59.7535 88.6087 59.1403 89.029 58.5519 89.4825L58.3255 89.6587C57.7821 90.0664 57.2611 90.5034 56.7652 90.9678L56.3123 91.421C55.8593 91.8238 55.4317 92.2517 55.029 92.6797L54.5509 93.2084L54.0224 93.8125ZM94.0079 92.0755L92.2464 91.421L94.0079 92.0755ZM33.6145 177.669C38.6473 180.841 46.1964 180.186 53.192 175.957C60.249 171.575 65.4723 164.775 67.8877 156.824C72.6437 139.202 60.7915 106.324 56.8408 96.1789L54.3244 99.2502C56.1613 97.0852 58.4513 94.4419 58.6275 94.2153C61.6974 91.2951 65.1701 89.4322 66.9567 89.9608H67.1831C67.6653 90.3011 68.0127 90.8001 68.1645 91.3706C70.5636 97.0583 72.4255 102.958 73.7258 108.993C73.7966 109.321 73.9558 109.624 74.1865 109.868C74.4172 110.112 74.7104 110.288 75.0342 110.377C75.3229 110.453 75.6263 110.453 75.915 110.377H76.1414C76.2249 110.388 76.3096 110.388 76.3932 110.377C76.5658 110.28 76.7192 110.152 76.8461 110L76.9971 109.798C78.2049 108.313 85.3514 98.9481 83.2628 88.0979C84.1742 88.2073 85.0748 88.3926 85.9554 88.6518L86.8109 88.9539C87.4056 89.1473 87.9859 89.3829 88.5472 89.6587C88.845 89.7846 89.1314 89.9362 89.4028 90.1119C90.4094 91.0685 91.4159 92.0755 92.347 93.1077C109.458 152.117 79.7651 175.353 70.228 181.067C55.9852 189.602 39.1506 189.627 31.8782 181.067C30.4711 179.697 29.3625 178.05 28.622 176.231C27.8815 174.411 27.525 172.458 27.5752 170.494C28.7047 173.477 30.8411 175.97 33.6145 177.543V177.669ZM77.3996 3.25975C80.1173 6.88488 84.2694 8.5464 87.2388 7.21215C87.5762 7.06181 87.8967 6.87616 88.195 6.65831C89.0332 5.94663 89.6613 5.01953 90.0117 3.97699C90.362 2.93446 90.4212 1.81603 90.1829 0.7423H86.5593C86.7678 1.26492 86.8288 1.83481 86.7356 2.38975C86.6424 2.94469 86.3986 3.46336 86.0308 3.88912C84.8984 4.71988 82.2563 3.88912 80.2431 1.19544L79.9664 0.7423H75.915C76.1026 1.19325 76.3213 1.63066 76.5693 2.05138C76.821 2.47095 77.0976 2.87374 77.3996 3.25975ZM314.947 156.824C315.801 150.981 315.801 145.045 314.947 139.202C314.808 138.295 314.624 137.396 314.393 136.509C314.065 134.92 313.413 133.416 312.478 132.09C311.542 130.765 310.344 129.647 308.958 128.805C307.718 128.156 306.354 127.778 304.958 127.696C303.561 127.614 302.162 127.829 300.855 128.327C296.69 130.023 293.167 132.992 290.789 136.811C289.349 138.852 287.658 140.704 285.757 142.324C282.787 144.665 280.195 143.759 276.32 141.946C278.103 139.708 279.552 137.224 280.623 134.57C282.088 131.232 282.668 127.574 282.309 123.946C282.143 122.934 281.856 121.945 281.454 121.001C279.717 117.099 271.388 117.049 267.865 117.225C261.75 117.502 250.955 119.39 249.219 124.576C247.986 128.276 245.192 128.855 240.713 129.485C236.637 130.039 232.007 130.693 229.314 135.476C224.533 143.91 225.59 150.43 226.798 157.328C227.1 159.216 227.402 161.154 227.628 163.219C227.628 163.219 227.628 163.496 227.628 163.521C228.459 166.325 229.751 168.971 231.453 171.35C232.716 173.18 233.732 175.169 234.473 177.266C234.473 177.744 233.718 179.784 233.164 181.344C233.161 181.403 233.161 181.462 233.164 181.521C229.354 178.837 224.814 177.387 220.154 177.367C217.178 177.344 214.228 177.916 211.475 179.049C208.723 180.181 206.224 181.852 204.125 183.963C198.838 189.721 195.964 197.291 196.098 205.109C196.677 211.516 195.233 217.943 191.971 223.487C191.115 224.972 190.335 226.684 189.454 228.521C187.888 232.401 185.75 236.024 183.113 239.271C181.193 241.272 179.087 243.084 176.822 244.684C172.961 247.448 169.439 250.659 166.329 254.25C166.154 254.455 166.035 254.702 165.982 254.966C165.929 255.23 165.945 255.504 166.027 255.76C166.155 256.168 166.437 256.509 166.813 256.712C167.189 256.914 167.63 256.961 168.04 256.843C168.438 256.725 168.778 256.465 168.996 256.113C172.486 252.452 176.417 249.239 180.697 246.546C183.023 245.02 185.243 243.338 187.341 241.512C189.708 239.401 191.928 237.13 193.984 234.714C195.706 232.338 197.826 230.277 200.25 228.622C204.617 226.099 209.575 224.778 214.618 224.796C226.974 225.022 231.529 221.397 236.662 216.261C239.547 213.339 241.584 209.687 242.554 205.697C243.525 201.706 243.393 197.526 242.173 193.604C241.677 191.986 240.993 190.431 240.135 188.972C240.635 188.403 241.231 187.926 241.896 187.562C243.985 186.982 246.207 187.114 248.212 187.94L250.125 188.418L252.641 188.972C256.129 189.946 259.74 190.412 263.361 190.357C272.898 189.828 276.27 183.459 279.164 176.435C280.9 172.156 280.9 172.156 284.196 172.71L286.31 173.037C293.617 173.786 300.949 171.883 306.97 167.675C309.939 165.535 314.116 161.985 314.947 156.824ZM214.669 221.523C209.047 221.498 203.517 222.956 198.639 225.752C195.848 227.584 193.417 229.914 191.468 232.625C191.314 232.846 191.146 233.056 190.964 233.254L192.55 229.831C193.355 228.093 194.11 226.432 194.89 225.123C197.223 221.174 198.681 216.77 199.168 212.208C199.292 212.232 199.421 212.232 199.545 212.208C201.02 211.372 202.674 210.902 204.368 210.836C206.063 210.77 207.748 211.111 209.284 211.831C213.234 214.122 214.543 219.736 214.87 221.649L214.669 221.523ZM234.372 213.971C232.388 216.346 229.905 218.255 227.1 219.56C224.294 220.865 221.235 221.536 218.141 221.523C217.89 219.811 216.506 212.234 210.919 208.936C209.147 208.02 207.189 207.524 205.196 207.485C203.202 207.445 201.226 207.864 199.419 208.709C199.419 207.476 199.419 206.192 199.419 204.908C199.317 197.994 201.876 191.306 206.566 186.228C208.366 184.422 210.509 182.992 212.868 182.024C215.227 181.056 217.756 180.568 220.305 180.589C225.51 180.614 230.493 182.695 234.171 186.379C236.51 188.679 238.24 191.525 239.203 194.662C240.224 198.016 240.313 201.585 239.462 204.986C238.611 208.387 236.852 211.493 234.372 213.971ZM238.952 179.481C238.725 179.784 238.247 180.337 237.668 181.017C237.09 181.697 236.763 182.049 236.335 182.553C236.335 182.553 236.335 182.553 236.209 182.553L236.36 182.15C237.023 180.528 237.512 178.84 237.819 177.115C237.202 174.379 235.982 171.816 234.246 169.613C232.786 167.54 231.649 165.256 230.874 162.841C230.648 160.701 230.321 158.712 230.019 156.774C228.937 149.901 228.056 144.464 232.283 137.012C234.196 133.639 237.492 133.16 241.317 132.632C245.62 132.027 250.502 131.348 252.44 125.558C253.245 123.04 260.442 120.774 268.167 120.523C274.684 120.221 278.233 121.429 278.635 122.386C278.939 123.068 279.15 123.787 279.264 124.525C279.546 127.593 279.026 130.682 277.754 133.488C276.7 136.093 275.239 138.514 273.426 140.662L272.546 140.335H272.143L271.262 140.058L270.759 139.932L269.878 139.756C269.669 139.742 269.459 139.742 269.249 139.756C268.822 139.73 268.393 139.73 267.966 139.756H267.085H266.456C266.129 139.756 265.777 139.756 265.449 139.983L264.896 140.134C264.343 140.322 263.805 140.549 263.285 140.813C255.736 144.715 254.151 151.16 252.566 157.378C251.912 160.399 250.924 163.337 249.621 166.139C248.852 167.476 247.729 168.573 246.375 169.311C245.064 170.117 243.877 171.109 242.852 172.256C241.787 173.611 240.938 175.123 240.336 176.737C239.969 177.697 239.505 178.616 238.952 179.481ZM286.612 169.84L284.599 169.512C279.893 168.732 278.56 169.16 276.094 175.202C272.973 182.754 270.105 186.732 263.109 187.109C259.793 187.162 256.487 186.729 253.295 185.825L250.779 185.246C250.225 185.246 249.621 184.97 249.017 184.818C247.478 184.356 245.891 184.068 244.287 183.963C246.926 182.395 249.686 181.039 252.54 179.909H252.817C259.41 177.392 264.619 175.328 269.954 169.84C270.759 169.034 271.489 168.254 272.193 167.524C276.496 162.967 279.088 160.223 286.159 159.745C295.898 159.09 300.15 154.861 304.629 147.157C304.842 146.786 304.9 146.346 304.792 145.932C304.684 145.517 304.418 145.162 304.051 144.942C303.679 144.73 303.239 144.671 302.825 144.779C302.411 144.888 302.056 145.154 301.836 145.521C297.76 152.469 294.287 155.893 285.958 156.447C277.629 157.001 274.357 160.45 269.853 165.208L267.639 167.524C262.807 172.558 258.127 174.27 251.634 176.763H251.383C247.68 178.237 244.125 180.058 240.764 182.2C241.141 181.772 241.418 181.42 241.594 181.193C242.344 180.02 242.968 178.771 243.456 177.467C243.908 176.165 244.562 174.942 245.394 173.842C246.206 172.92 247.157 172.13 248.212 171.501C250.027 170.464 251.524 168.949 252.54 167.121C253.986 164.107 255.059 160.928 255.736 157.655C257.271 151.638 258.605 146.427 264.82 143.18C265.201 142.988 265.596 142.828 266.003 142.701H266.38L267.11 142.525H267.639H269.048C270.519 142.743 271.946 143.194 273.275 143.859L274.76 144.539C278.711 146.377 283.165 148.466 287.946 144.539C290.021 142.754 291.864 140.716 293.432 138.472C295.408 135.188 298.366 132.608 301.887 131.096C302.769 130.74 303.716 130.576 304.666 130.615C305.617 130.654 306.548 130.895 307.398 131.323C308.394 131.954 309.252 132.782 309.918 133.755C310.585 134.729 311.045 135.829 311.273 136.987C311.449 137.767 311.625 138.573 311.751 139.504C312.549 145.022 312.549 150.627 311.751 156.145C311.273 159.191 309.234 161.91 304.957 164.981C299.618 168.748 293.12 170.505 286.612 169.94V169.84ZM99.8459 173.918C99.5941 174.295 99.495 174.754 99.569 175.202C99.6301 175.526 99.7608 175.834 99.9519 176.103C100.143 176.373 100.39 176.598 100.676 176.763C101.96 177.543 103.746 177.115 106.615 176.234C102.035 190.533 103.52 202.718 110.817 211.68C114.056 215.543 118.057 218.697 122.569 220.944C127.377 223.387 132.585 224.947 137.944 225.551C147.129 226.638 156.428 224.885 164.588 220.528C172.748 216.172 179.38 209.421 183.591 201.182C189.036 190.475 190.009 178.043 186.295 166.619C182.582 155.195 174.486 145.714 163.787 140.26C147.657 132.002 132.207 136.106 119.952 151.286C118.97 149.146 117.612 146.88 114.919 147.51C114.495 147.693 114.129 147.989 113.862 148.366C112.435 151.921 111.791 155.742 111.975 159.568C112.039 161.136 111.878 162.704 111.497 164.226C110.377 165.331 109.127 166.295 107.772 167.096C104.767 168.95 102.088 171.289 99.8459 174.019V173.918ZM162.353 143.079C172.271 148.174 179.765 156.993 183.194 167.606C186.623 178.219 185.707 189.758 180.647 199.697C175.56 209.623 166.744 217.125 156.134 220.557C145.524 223.988 133.986 223.068 124.054 217.999C103.696 207.601 105.86 188.343 110.515 175.202H111.044C109.397 181.12 109.44 187.382 111.17 193.277C111.242 193.568 111.397 193.832 111.616 194.038C111.834 194.243 112.108 194.381 112.403 194.435C112.698 194.497 113.005 194.475 113.29 194.373C113.574 194.271 113.824 194.092 114.013 193.856C115.192 192.426 116.213 190.873 117.058 189.224C117.874 187.611 118.54 185.925 119.046 184.189C119.725 181.999 120.254 180.614 121.738 179.733C123.405 179.212 125.154 178.999 126.897 179.104C130.521 179.104 134.295 178.902 135.629 176.309C135.716 176.111 135.761 175.897 135.761 175.68C135.761 175.463 135.716 175.249 135.629 175.051C134.591 172.496 133.051 170.176 131.099 168.228C129.944 167.074 128.984 165.739 128.256 164.276C133.289 161.23 135.956 157.554 139.63 149.473C139.753 149.241 139.818 148.982 139.818 148.718C139.818 148.455 139.753 148.196 139.63 147.963C139.498 147.738 139.315 147.545 139.097 147.401C138.879 147.257 138.631 147.165 138.372 147.132C133.716 146.654 126.318 150.329 121.789 155.238L121.562 154.861C129.891 143.935 143.656 133.563 162.353 143.18V143.079ZM109.735 169.789C111.482 168.803 113.048 167.526 114.365 166.013C115.258 163.981 115.614 161.753 115.397 159.543C115.35 156.744 115.672 153.951 116.353 151.236C116.731 151.89 117.159 152.872 117.435 153.501C118.367 155.641 119.398 158.083 121.537 158.763C121.856 158.861 122.197 158.86 122.516 158.761C122.835 158.663 123.116 158.47 123.324 158.209C126.508 154.421 130.762 151.683 135.528 150.355C132.207 157.152 129.564 159.543 125.765 161.658C125.52 161.793 125.315 161.989 125.17 162.228C125.024 162.466 124.943 162.738 124.934 163.017C124.783 165.535 126.696 167.775 128.734 170.091C130.111 171.52 131.288 173.129 132.232 174.875C130.459 175.341 128.629 175.553 126.796 175.504C124.485 175.342 122.167 175.722 120.027 176.612C118.758 177.359 117.734 178.461 117.083 179.784C116.619 180.823 116.248 181.901 115.976 183.006C115.376 185.007 114.531 186.927 113.46 188.721C112.689 183.86 113.104 178.886 114.667 174.22C114.749 173.948 114.76 173.659 114.698 173.381C114.637 173.103 114.505 172.846 114.315 172.634C112.78 170.922 109.811 171.879 106.363 172.936L104.904 173.389C106.453 172.14 108.066 170.972 109.735 169.89V169.789ZM163.536 107.986C165.818 108.221 168.111 108.339 170.405 108.338C189.48 108.338 214.04 100.459 234.095 68.059C234.228 67.8573 234.318 67.6308 234.361 67.3932C234.403 67.1556 234.397 66.9118 234.343 66.6766C234.289 66.4413 234.188 66.2195 234.046 66.0244C233.904 65.8293 233.724 65.6651 233.516 65.5415C233.315 65.4089 233.088 65.3186 232.851 65.2759C232.613 65.2332 232.37 65.2391 232.135 65.2932C231.899 65.3474 231.678 65.4485 231.483 65.5907C231.288 65.7329 231.124 65.9132 231 66.1206C213.637 94.2153 191.04 107.105 163.812 104.461C163.34 104.419 162.869 104.564 162.502 104.865C162.135 105.167 161.9 105.6 161.85 106.073C161.829 106.31 161.857 106.549 161.931 106.776C162.006 107.002 162.126 107.211 162.283 107.39C162.441 107.569 162.633 107.714 162.848 107.817C163.064 107.919 163.298 107.976 163.536 107.986ZM121.336 80.2938H121.663C122.082 80.2843 122.485 80.1319 122.805 79.8617C123.126 79.5916 123.344 79.22 123.424 78.8085C123.424 77.9526 127.274 58.0395 148.06 60.6829C148.291 60.7146 148.527 60.6999 148.753 60.6396C148.979 60.5793 149.19 60.4747 149.375 60.3317C149.561 60.1888 149.715 60.0105 149.831 59.8071C149.946 59.6037 150.02 59.3794 150.048 59.1472C150.079 58.9155 150.065 58.6798 150.005 58.4538C149.944 58.2279 149.84 58.0162 149.697 57.831C149.554 57.6459 149.376 57.4911 149.172 57.3757C148.969 57.2602 148.745 57.1863 148.513 57.1584C124.431 54.0368 119.952 77.9526 119.901 78.2043C119.847 78.4412 119.84 78.6867 119.884 78.926C119.927 79.1652 120.018 79.3932 120.153 79.5958C120.287 79.7985 120.461 79.9716 120.664 80.1046C120.868 80.2376 121.096 80.3277 121.336 80.3693V80.2938ZM179.062 21.3854C181.651 19.37 183.565 16.6124 184.547 13.4806C187.925 13.1054 191.131 11.798 193.808 9.70443C195.339 8.48509 196.65 7.01199 197.683 5.34924C199.339 4.75418 200.893 3.90486 202.288 2.83179C203.072 2.18549 203.804 1.47841 204.477 0.717125H196.249C195.492 3.29442 193.943 5.5673 191.82 7.21215C189.538 9.06468 186.728 10.1456 183.793 10.2994C180.859 10.4532 177.951 9.67196 175.489 8.06809C171.915 5.77721 168.493 3.25975 165.222 0.7423H159.56C164.593 4.6947 169.374 8.29466 173.475 10.9883C176.286 12.8601 179.613 13.8022 182.987 13.682C182.334 13.7323 181.678 13.7323 181.024 13.682C180.205 15.7736 178.841 17.6077 177.074 18.9938C175.044 20.6173 172.596 21.6325 170.013 21.9221C167.43 22.2116 164.818 21.7637 162.479 20.6302C158.327 18.44 147.808 10.1827 137.315 0.792649H132.282C141.095 9.10523 150.525 16.7382 160.491 23.6259C163.468 25.0843 166.801 25.6556 170.094 25.2717C173.387 24.8879 176.5 23.5651 179.062 21.4609V21.3854ZM35.6276 12.4233C36.2064 12.9268 36.7852 13.3547 37.3639 13.7827C39.1228 15.1514 41.1669 16.1065 43.345 16.5772C45.523 17.0479 47.7792 17.022 49.9459 16.5016C50.6296 16.331 51.2953 16.095 51.9338 15.7967C54.327 14.5436 56.4 12.7566 57.9927 10.574C59.5853 8.39138 60.6549 5.87158 61.1187 3.2094C61.2948 2.40382 61.4206 1.54788 61.5212 0.691951H58.6023C58.412 2.08074 58.0832 3.44698 57.6208 4.77022C57.0988 6.5622 56.2156 8.22824 55.0255 9.66568C53.8354 11.1031 52.3635 12.2815 50.7008 13.1282C50.2049 13.354 49.6916 13.5393 49.1658 13.682C46.273 14.3517 43.2333 13.8734 40.6856 12.3478C39.6122 11.7435 38.6008 11.0352 37.6659 10.2331C34.7432 7.60808 32.4398 4.36643 30.922 0.7423H27.7513C29.4232 5.25392 32.17 9.28941 35.7534 12.4988L35.6276 12.4233ZM349.799 4.87092C347.981 5.9117 346.079 6.79599 344.112 7.51425C342.558 8.11134 341.037 8.79204 339.557 9.55338C339.186 9.75458 338.894 10.0759 338.73 10.4647C338.565 10.8534 338.537 11.2866 338.651 11.6932C338.764 12.1028 339.012 12.4623 339.354 12.7135C339.697 12.9648 340.114 13.0931 340.538 13.0778C342.23 13.1379 343.878 13.6326 345.324 14.5144C346.77 15.3962 347.964 16.6354 348.792 18.1127C349.034 18.5959 349.228 19.1019 349.371 19.6232C349.627 20.7369 349.62 21.8952 349.349 23.0055C349.078 24.1158 348.551 25.1473 347.811 26.0175C347.663 26.2121 347.495 26.3895 347.307 26.5462C345.601 27.7966 343.613 28.6092 341.52 28.9126H341.318L340.413 29.0636C338.511 29.3304 336.578 29.2622 334.7 28.8622C334.381 28.8015 334.07 28.7087 333.769 28.5853C333.318 28.4267 332.888 28.2154 332.486 27.956L332.159 27.7294L331.882 27.5028C331.662 27.3012 331.467 27.0728 331.303 26.8231C331.206 26.6647 331.088 26.5206 330.951 26.3951C330.685 26.1761 330.362 26.0365 330.02 25.9924H329.869C329.661 25.9557 329.448 25.9557 329.24 25.9924C329.069 26.0418 328.908 26.1183 328.762 26.2189C328.533 26.3754 328.344 26.5821 328.208 26.8231C328.195 26.8811 328.195 26.9413 328.208 26.9993C328.108 27.2043 328.048 27.4264 328.032 27.6539C328.032 27.6539 328.032 27.6539 328.032 27.8301C328.043 27.8968 328.043 27.9648 328.032 28.0315C328.032 28.0315 328.032 28.2077 328.032 28.3588C328.032 28.5098 328.032 28.3588 328.032 28.3588C327.789 29.2767 327.363 30.136 326.779 30.8845C326.195 31.6331 325.466 32.2554 324.635 32.714C320.734 35.2314 314.997 35.7097 313.236 33.7461C312.746 33.1945 312.3 32.6053 311.902 31.9839C311.808 31.8383 311.724 31.687 311.65 31.5307C311.381 31.0877 311.145 30.6249 310.946 30.1462L310.795 29.693C310.622 29.2025 310.495 28.6968 310.417 28.1825C310.407 28.0653 310.407 27.9473 310.417 27.8301C310.275 26.5386 310.421 25.2317 310.845 24.0036C310.923 23.7272 311.024 23.4578 311.147 23.198C311.294 22.8113 311.462 22.4331 311.65 22.0651C311.801 21.7379 311.977 21.4106 312.154 21.1085C313.05 19.6203 314.087 18.2209 315.249 16.9295C315.511 16.6457 315.679 16.2872 315.728 15.9038C315.778 15.5204 315.707 15.131 315.525 14.7897C315.339 14.451 315.054 14.1776 314.707 14.0065C314.361 13.8354 313.97 13.7749 313.588 13.8331C311.904 14.0252 310.201 13.7003 308.706 12.9016C307.437 12.2765 306.294 11.4232 305.334 10.3841L304.982 9.98135C303.967 8.87281 303.258 7.51992 302.923 6.05494C302.588 4.58995 302.638 3.06302 303.069 1.62341C303.096 1.32778 303.139 1.03371 303.195 0.7423H299.169C298.708 2.22535 298.544 3.78479 298.687 5.3313C298.829 6.87782 299.275 8.38101 299.999 9.75478C299.622 9.83236 299.251 9.94185 298.892 10.0821C297.213 10.7067 295.772 11.8411 294.77 13.3264C293.769 14.8117 293.256 16.5734 293.306 18.3645C293.3 20.1083 293.827 21.8123 294.816 23.2483C293.797 23.8064 292.996 24.6904 292.539 25.7586C292.083 26.8267 291.999 28.0172 292.299 29.1392C292.856 31.0014 293.94 32.6627 295.42 33.9223C294.892 34.1874 294.38 34.4815 293.885 34.8034C290.387 37.0188 289.154 40.0901 290.487 43.2117C291.01 44.8967 291.897 46.4464 293.084 47.7513C294.271 49.0562 295.73 50.0847 297.357 50.7641C298.604 51.1063 299.911 51.1641 301.183 50.9331C302.455 50.7022 303.658 50.1885 304.705 49.4298C305.309 57.1081 309.738 59.4997 313.915 60.2801C315.461 60.4633 317.02 60.0689 318.294 59.1724C320.009 57.9929 321.458 56.4663 322.546 54.6913H322.999C323.125 54.6913 334.776 52.1739 341.696 54.9431C342.275 55.3459 342.803 55.7235 343.281 56.1263C345.798 58.2661 348.037 60.4563 349.899 62.294V57.1584C348.616 55.95 347.232 54.641 345.772 53.4326C345.651 53.0296 345.381 52.6877 345.018 52.476C344.524 52.1811 344.011 51.9203 343.483 51.6955C338.767 48.8494 333.755 46.5279 328.535 44.7726C330.112 43.6648 331.519 42.3334 332.712 40.8202C332.989 41.1404 333.375 41.3466 333.794 41.3992C336.864 41.8271 343.86 49.3543 349.899 57.0829V51.0914C344.867 44.9236 338.727 38.63 334.65 37.774C335.274 36.6001 335.626 35.3011 335.682 33.9727C335.682 33.6202 335.682 33.293 335.682 32.9405C337.087 33.0802 338.504 33.0802 339.909 32.9405C342.244 34.8353 344.941 36.2318 347.836 37.044C347.858 37.3122 347.945 37.5712 348.088 37.7992L349.975 40.7698V33.7713C348.273 33.4296 346.629 32.8446 345.093 32.0342C346.356 31.6419 347.565 31.0921 348.691 30.3979C349.13 30.1138 349.55 29.8027 349.95 29.4664V13.3296C348.87 12.3073 347.64 11.4581 346.301 10.8121C347.534 10.3086 348.817 9.77996 349.924 9.20094L349.799 4.87092ZM331.605 49.9585C329.152 50.0348 326.706 50.2703 324.283 50.6634C324.41 50.2868 324.503 49.8991 324.559 49.5054C324.694 48.8261 324.745 48.1328 324.71 47.4411C326.019 47.8438 328.686 48.7501 331.731 49.9837L331.605 49.9585ZM326.044 41.8523C325.573 42.25 325.019 42.5376 324.422 42.6944C323.826 42.8511 323.202 42.8731 322.596 42.7586C322.216 42.6036 321.795 42.5789 321.399 42.6882C321.003 42.7974 320.654 43.0346 320.407 43.3628C320.15 43.6843 320.01 44.0838 320.01 44.4956C320.01 44.9075 320.15 45.307 320.407 45.6285C320.696 46.1073 320.887 46.6387 320.969 47.1918C321.051 47.7449 321.023 48.3088 320.885 48.8508C320.289 51.7504 318.662 54.3353 316.306 56.1263C315.797 56.5035 315.177 56.6986 314.544 56.6801C311.575 56.2018 307.725 54.4899 308.53 45.553C308.564 45.1622 308.476 44.7704 308.278 44.432C308.079 44.0936 307.781 43.8255 307.423 43.6649C307.141 43.5406 306.833 43.487 306.526 43.509C306.219 43.5309 305.922 43.6277 305.661 43.7907C305.518 43.8881 305.391 44.007 305.284 44.1432C302.994 46.6606 300.452 47.8942 298.49 47.29C297.406 46.7505 296.445 45.9938 295.665 45.0671C294.886 44.1403 294.306 43.0632 293.96 41.9027C293.708 41.2985 293.104 39.8887 295.923 38.1013C297.297 37.2968 298.769 36.6708 300.301 36.2384C300.729 36.1276 301.104 35.8705 301.361 35.5118C301.619 35.153 301.742 34.7153 301.711 34.2748C301.671 33.8341 301.478 33.4212 301.165 33.1084C300.853 32.7955 300.44 32.6024 299.999 32.5629C299.08 32.1847 298.247 31.6238 297.551 30.9141C296.854 30.2045 296.309 29.3608 295.948 28.4343C295.838 28.0864 295.863 27.7101 296.016 27.3793C296.17 27.0485 296.442 26.7872 296.778 26.6469C297.349 26.3041 297.969 26.0495 298.615 25.8917C298.974 25.7963 299.296 25.5975 299.542 25.3199C299.789 25.0423 299.948 24.6983 299.999 24.3308C300.046 23.9658 299.986 23.595 299.825 23.264C299.664 22.933 299.41 22.6563 299.094 22.4679C298.44 22.0129 297.918 21.3947 297.578 20.6747C297.238 19.9547 297.092 19.1582 297.156 18.3645C297.126 17.3276 297.417 16.3068 297.989 15.4416C298.561 14.5764 299.386 13.9091 300.352 13.531C301.068 13.2352 301.85 13.1395 302.616 13.254L303.069 13.6568C303.422 14.0093 303.799 14.3365 304.177 14.6638L304.705 15.0414C305.203 15.4174 305.724 15.7621 306.265 16.0736C307.068 17.2171 307.767 18.4303 308.354 19.6987L308.152 20.1519C307.951 20.5295 307.775 20.9071 307.599 21.2847C307.423 21.6623 307.297 22.04 307.171 22.3924C307.014 22.8129 306.88 23.2415 306.768 23.6763C306.768 23.928 306.643 24.1798 306.592 24.4315C306.482 24.9715 306.406 25.5181 306.366 26.0679C306.353 26.2355 306.353 26.4038 306.366 26.5714C306.341 27.0661 306.341 27.5619 306.366 28.0567C306.366 28.0567 306.366 28.3084 306.366 28.4595C306.424 29.0387 306.533 29.6116 306.693 30.1713C306.693 30.1713 306.693 30.4482 306.693 30.5741C306.861 31.1429 307.071 31.6982 307.322 32.2356L307.473 32.5881C307.775 33.1671 308.102 33.7209 308.454 34.2748L308.605 34.5013C309.033 35.1373 309.504 35.743 310.015 36.3139C313.412 40.0901 321.112 39.1838 326.22 35.9363C326.717 35.6187 327.196 35.2741 327.654 34.9041C327.831 34.9041 327.956 34.602 328.133 34.4762C328.388 34.2542 328.632 34.0189 328.862 33.7713C329.013 33.6202 329.139 33.444 329.265 33.293C329.391 33.1419 329.693 32.8147 329.869 32.5629L330.12 32.1349C330.303 31.8586 330.471 31.5729 330.624 31.279C330.767 31.3696 330.919 31.4455 331.077 31.5056L331.479 31.7321C331.68 32.4186 331.773 33.1319 331.756 33.8468C331.014 37.1509 329.009 40.0332 326.17 41.8775L326.044 41.8523ZM246.098 92.6797C244.671 92.667 243.247 92.5237 241.846 92.2517H241.418H241.141C241.059 92.2292 240.972 92.2292 240.889 92.2517L240.638 92.4028L240.462 92.5538C240.347 92.6712 240.253 92.8075 240.185 92.9566C240.147 93.1393 240.147 93.3278 240.185 93.5104C240.173 93.5601 240.173 93.6118 240.185 93.6615C240.173 93.7871 240.173 93.9135 240.185 94.0391V94.2405L240.386 94.5174L240.537 94.6685L240.688 94.7943C246.924 98.8427 253.702 101.987 260.819 104.134C265.355 105.333 270.019 105.975 274.71 106.047C279.034 106.287 283.35 105.446 287.269 103.6C291.188 101.754 294.585 98.9616 297.156 95.4741C305.661 83.6169 301.107 76.6435 298.087 72.0366L297.005 70.3499C295.443 67.9675 293.298 66.0235 290.775 64.7018C288.252 63.3802 285.433 62.7248 282.586 62.7975C280.403 62.7296 278.235 63.1748 276.255 64.0973C274.275 65.0198 272.539 66.3939 271.187 68.1093C268.964 70.9333 266.969 73.9302 265.223 77.0715C260.467 85.0518 255.887 92.7049 246.224 92.7049L246.098 92.6797ZM294.639 72.238L295.571 73.6981C298.439 78.0785 302.013 83.5162 294.715 93.6867C292.445 96.8562 289.406 99.3954 285.884 101.065C282.362 102.734 278.473 103.478 274.584 103.228C270.139 103.164 265.719 102.555 261.423 101.415C258.509 100.629 255.671 99.5842 252.943 98.2936C255.567 98.6848 258.216 98.8867 260.87 98.8978C266.069 99.0967 271.247 98.1412 276.033 96.0997C280.819 94.0583 285.094 90.9817 288.55 87.0909C292.314 83.0431 294.478 77.7641 294.639 72.238ZM267.84 78.4812C269.528 75.4621 271.455 72.583 273.603 69.8716C274.667 68.5139 276.039 67.4291 277.606 66.7068C279.172 65.9845 280.888 65.6455 282.611 65.7178C285.483 65.7559 288.281 66.6308 290.664 68.2352C293.708 75.5107 288.676 82.5092 286.31 85.228C275.993 97.1104 261.146 96.8838 251.584 95.0964C259.41 92.6042 263.914 85.1777 267.89 78.4812H267.84ZM341.318 148.391L333.165 176.083C329.267 176.57 325.61 178.233 322.679 180.85C319.748 183.467 317.683 186.915 316.758 190.734C312.254 207.173 301.66 287.228 298.288 311.27C297.86 314.392 297.559 316.305 297.508 317.035C296.893 320.69 297.733 324.44 299.848 327.482C300.38 328.151 301.043 328.703 301.796 329.105C302.549 329.508 303.376 329.753 304.227 329.824C307.07 330.025 311.776 328.338 317.463 319.049C318.646 317.136 319.98 314.467 321.766 311.27C329.315 296.568 340.438 272.25 349.874 251.002V241.914C348.666 244.759 347.358 247.679 346.1 250.675C342.224 245.64 334.499 244.256 334.147 244.18C333.631 244.097 333.104 244.216 332.673 244.511C332.242 244.806 331.941 245.255 331.832 245.766C331.736 246.283 331.849 246.817 332.146 247.252C332.443 247.686 332.9 247.984 333.417 248.082C335.682 248.51 341.973 250.6 343.785 254.401C343.908 254.613 344.07 254.801 344.263 254.955C333.669 279.349 324.61 297.374 317.312 311.169C316.104 313.46 315.022 315.424 314.116 316.884C308.807 325.393 305.435 325.846 304.504 325.771C304.188 325.735 303.883 325.637 303.606 325.481C303.33 325.326 303.087 325.116 302.893 324.864C301.492 322.613 300.972 319.923 301.434 317.312C301.434 316.708 301.811 314.492 302.289 311.144C303.422 303.315 305.108 290.325 307.096 275.598C307.067 276.103 307.234 276.599 307.562 276.983C307.891 277.368 308.354 277.611 308.857 277.662C311.147 277.889 317.589 279.248 319.778 283.024C319.94 283.302 320.166 283.536 320.438 283.707C320.709 283.878 321.018 283.981 321.338 284.006C321.735 284.026 322.128 283.93 322.471 283.729C322.696 283.601 322.894 283.43 323.053 283.225C323.212 283.02 323.329 282.785 323.397 282.535C323.465 282.284 323.483 282.023 323.449 281.765C323.415 281.508 323.331 281.26 323.2 281.035C319.552 274.742 309.637 273.76 309.234 273.735C308.745 273.704 308.262 273.857 307.88 274.165C307.499 274.472 307.245 274.912 307.171 275.396C310.417 251.179 314.418 222.303 317.992 203.85C320.659 203.548 326.421 203.573 329.215 206.368C329.542 206.718 329.994 206.925 330.473 206.947C330.748 206.975 331.026 206.942 331.287 206.85C331.547 206.759 331.785 206.612 331.983 206.418C332.171 206.235 332.321 206.016 332.424 205.774C332.526 205.532 332.579 205.271 332.579 205.008C332.579 204.745 332.526 204.485 332.424 204.243C332.321 204.001 332.171 203.782 331.983 203.599C328.258 199.772 321.917 199.546 318.721 199.722C319.426 196.223 320.055 193.403 320.558 191.565C323.628 180.463 333.719 178.978 341.646 179.431C343.273 179.531 344.889 179.767 346.477 180.136C347.685 180.556 348.817 181.009 349.874 181.495V177.216C349.144 176.914 348.415 176.637 347.609 176.36L346.376 176.083L349.874 164.78V153.778C349.784 153.856 349.7 153.94 349.622 154.03L349.371 154.382C349.179 154.627 349.011 154.888 348.868 155.163C348.644 155.558 348.475 155.981 348.364 156.422L342.451 175.655C340.775 175.551 339.094 175.551 337.418 175.655L345.169 149.549C345.517 148.55 346.172 147.687 347.039 147.081C347.907 146.475 348.943 146.159 350 146.176V142.173C348.09 142.166 346.226 142.764 344.676 143.881C343.126 144.998 341.968 146.576 341.369 148.391H341.318ZM323.2 84.5735C322.833 84.7338 322.533 85.0183 322.354 85.3772C322.174 85.7361 322.127 86.1466 322.219 86.5371C327.629 107.835 338.249 119.264 349.899 125.256V121.152C348.349 120.288 346.853 119.33 345.42 118.282C346.603 117.754 348.138 117.074 349.899 116.394V112.693C346.578 113.952 343.961 115.211 342.501 115.865C334.757 108.54 329.236 99.1771 326.572 88.8532C331.077 90.5147 339.809 93.8881 349.924 98.3943V94.6433C340.941 90.6909 333.191 87.6951 328.686 86.0084C332.097 84.658 335.616 83.5969 339.205 82.8364C341.957 82.2646 344.751 81.9111 347.559 81.7791C347.987 83.0127 348.792 85.1021 349.924 87.5441V78.305C346.085 78.2988 342.256 78.6954 338.5 79.4882C333.252 80.6418 328.141 82.3463 323.251 84.5735H323.2ZM336.21 217.243C335.697 217.155 335.169 217.271 334.741 217.568C334.313 217.865 334.018 218.317 333.92 218.829C333.825 219.347 333.938 219.881 334.235 220.315C334.532 220.749 334.989 221.048 335.506 221.145C337.77 221.573 344.061 223.663 345.873 227.464C346.018 227.783 346.247 228.057 346.535 228.257C346.823 228.456 347.159 228.574 347.509 228.597C347.846 228.625 348.184 228.564 348.49 228.421C348.936 228.198 349.282 227.815 349.459 227.349C349.636 226.882 349.632 226.366 349.446 225.903C346.402 219.282 336.638 217.394 336.21 217.243ZM149.998 116.243C150.778 116.444 151.583 116.595 152.388 116.772L153.722 117.099C181.05 123.418 218.946 114.783 243.305 71.5583C247.306 64.6217 250.603 57.3012 253.144 49.7068C253.502 50.3281 253.924 50.9103 254.402 51.4438C254.63 51.695 254.928 51.8706 255.258 51.9473C255.442 51.9725 255.628 51.9725 255.812 51.9473C256.074 51.9359 256.33 51.8613 256.558 51.7299C256.786 51.5984 256.979 51.4139 257.12 51.1921C274.156 25.3882 257.8 11.2653 252.087 7.43872C252.097 7.34666 252.097 7.25387 252.087 7.1618C252.289 6.40657 252.893 3.91429 253.446 0.641602H250.049C249.747 2.3283 249.445 3.83877 249.143 5.12267C248.361 4.98645 247.587 4.80148 246.828 4.56883C246.999 3.29985 247.1 2.0224 247.13 0.7423H243.733C243.745 1.86031 243.694 2.9781 243.582 4.09051C236.36 2.52969 219.324 2.15207 207.296 27.5532C207.191 27.7872 207.148 28.0441 207.17 28.2995C207.192 28.555 207.278 28.8006 207.422 29.0133C207.571 29.231 207.77 29.4104 208.001 29.5373C208.233 29.6641 208.491 29.7347 208.755 29.7434C210.076 29.7683 211.397 29.6925 212.706 29.5168C205.484 39.8887 194.789 50.1347 173.249 53.1557C166.509 53.9111 159.687 53.4334 153.118 51.7459L151.583 51.4186C147.998 50.6034 144.337 50.173 140.662 50.1347C127.904 48.6998 119.499 58.7696 116.529 64.9374C113.479 71.4757 112.674 78.8392 114.24 85.8826C115.976 94.6181 123.248 110.176 149.872 116.319L149.998 116.243ZM211.599 26.521C222.268 5.90308 235.932 5.52546 243.28 7.21215C245.69 7.74173 247.989 8.68733 250.074 10.0065C256.189 14.1351 268.595 25.8665 255.61 47.4914C254.955 46.1963 254.408 44.849 253.975 43.4635C253.964 43.3631 253.964 43.2618 253.975 43.1614C253.748 42.4817 253.547 41.7768 253.346 41.0719V40.795C253.169 40.1404 252.993 39.4859 252.842 38.8314C252.842 38.5796 252.842 38.3027 252.666 38.051C252.49 37.7992 252.515 37.2957 252.414 36.9433C251.936 34.6524 251.634 32.6888 251.483 31.5811C251.483 31.2538 251.483 30.9014 251.332 30.6245C251.293 30.3295 251.17 30.052 250.979 29.8245C250.787 29.5971 250.534 29.4291 250.25 29.3406C249.955 29.2432 249.64 29.2245 249.335 29.2863C249.031 29.3481 248.748 29.4883 248.514 29.693C245.318 32.5126 236.536 39.5866 231.201 41.1726C229.819 34.9866 229.657 28.5903 230.723 22.342C230.758 22.1289 230.747 21.9108 230.691 21.7024C230.634 21.4939 230.534 21.3 230.396 21.1337C230.19 21.0029 229.958 20.9171 229.717 20.8819C229.409 20.7148 229.058 20.6446 228.71 20.6805H228.282H227.955H227.754L227.125 21.033H226.999C226.37 21.3602 225.539 21.8134 224.483 22.2917H224.332L222.595 23.0721C221.312 23.6259 219.878 24.1798 218.368 24.6581C217.616 24.9144 216.852 25.1328 216.078 25.3126C214.618 25.8304 213.121 26.2344 211.599 26.521ZM119.549 66.1961C122.066 60.7836 129.413 51.9725 140.259 53.2564C140.351 53.2688 140.444 53.2688 140.536 53.2564C143.984 53.3021 147.417 53.7156 150.778 54.4899L152.313 54.792C159.305 56.5632 166.559 57.0579 173.727 56.2521C198.488 52.7781 210.038 39.7628 217.261 28.5602H217.562L219.852 27.8804H220.154C220.96 27.6035 221.74 27.3266 222.495 27.0245C224.08 26.3951 225.514 25.7658 226.647 25.1868C226.636 25.2535 226.636 25.3215 226.647 25.3882C226.165 29.7941 226.242 34.2431 226.873 38.63C227.142 40.3424 227.563 42.0273 228.131 43.6649C228.268 44.0106 228.514 44.3017 228.832 44.4929C229.151 44.6841 229.524 44.7647 229.893 44.7222C235.379 44.118 243.934 37.5978 248.137 34.1237C248.584 36.8211 249.172 39.4932 249.898 42.1292L250.049 42.7334L250.276 43.4383C250.344 43.7113 250.428 43.9803 250.527 44.2439L250.678 44.697C250.678 44.8984 250.804 45.0746 250.854 45.276C248.414 54.0986 244.827 62.5624 240.185 70.4506C216.329 112.769 179.288 120.623 153.067 114.053L150.702 113.549C125.84 107.784 119.197 93.4097 117.461 85.4798C116 78.998 116.735 72.2144 119.549 66.1961ZM145.342 145.093C146.726 145.345 179.087 152.016 177.023 189.803C177.01 190.038 177.043 190.273 177.12 190.495C177.198 190.717 177.318 190.922 177.475 191.097C177.631 191.273 177.821 191.415 178.033 191.517C178.245 191.619 178.475 191.678 178.709 191.691C179.166 191.692 179.606 191.517 179.938 191.204C180.271 190.89 180.47 190.461 180.496 190.004C182.736 149.045 146.273 141.644 145.921 141.569C145.69 141.525 145.452 141.527 145.221 141.576C144.991 141.625 144.772 141.718 144.578 141.852C144.384 141.985 144.218 142.155 144.09 142.353C143.962 142.551 143.875 142.772 143.832 143.004C143.793 143.24 143.801 143.482 143.856 143.716C143.91 143.949 144.011 144.169 144.151 144.364C144.291 144.558 144.469 144.723 144.674 144.848C144.878 144.973 145.105 145.056 145.342 145.093ZM5.70773 185.372L12.7284 162.036C13.7601 158.159 10.816 154.055 5.90909 152.142C5.9144 150.664 5.52331 149.213 4.77668 147.938C3.1375 145.276 0.515438 143.367 -2.52091 142.626C-3.34461 142.41 -4.1874 142.275 -5.0373 142.223C-5.63225 142.186 -6.22888 142.186 -6.82383 142.223V146.226C-6.32968 146.188 -5.83341 146.188 -5.33925 146.226C-4.76123 146.277 -4.18874 146.378 -3.62813 146.528C-1.6167 147.004 0.132699 148.24 1.25367 149.977C1.47941 150.371 1.64885 150.795 1.75698 151.236H-0.155497C-0.618837 151.251 -1.08088 151.294 -1.53948 151.362H-1.86662L-3.02406 151.638L-3.47699 151.764L-4.28226 152.117C-4.4896 152.185 -4.69161 152.27 -4.88632 152.368L-5.38947 152.696C-5.63742 152.835 -5.8732 152.995 -6.09414 153.174C-6.20634 153.253 -6.30783 153.346 -6.39609 153.451L-6.82383 153.879V165.006L-4.5088 157.454C-4.44454 157.221 -4.34255 156.999 -4.20685 156.799C-4.06378 156.608 -3.89429 156.439 -3.70354 156.296C-2.20802 155.348 -0.420892 154.973 1.32924 155.238C1.9069 155.292 2.47917 155.393 3.04037 155.54L3.56886 155.717L3.94623 154.634C4.02506 154.412 4.14696 154.208 4.30486 154.034C4.46276 153.859 4.65359 153.717 4.86637 153.617C5.07916 153.516 5.3097 153.459 5.54477 153.448C5.77985 153.436 6.01486 153.472 6.23623 153.552C6.45776 153.63 6.66127 153.752 6.83491 153.911C7.00856 154.069 7.14881 154.261 7.2473 154.474C7.34579 154.688 7.40055 154.919 7.40841 155.154C7.41627 155.389 7.37707 155.623 7.29307 155.843L6.76457 157.353C7.40023 157.745 7.91535 158.305 8.25284 158.972C8.59033 159.638 8.73709 160.385 8.67705 161.129L2.15969 182.578C0.988556 181.663 -0.238523 180.822 -1.51429 180.06C-1.6588 180.343 -1.8788 180.579 -2.14984 180.744C-2.42088 180.908 -2.73226 180.994 -3.04925 180.992C-3.24922 181.025 -3.45319 181.025 -3.65316 180.992C-4.09044 180.827 -4.44594 180.498 -4.6435 180.075C-4.84105 179.651 -4.86505 179.167 -4.71015 178.726V178.55L-7 177.518V181.798C13.1311 190.76 7.79633 206.972 7.59502 207.677C7.39371 208.382 1.25375 222.908 -7 242.091V251.078C2.6126 229.453 10.6148 211 11.2942 209.112C12.5266 205.008 12.6592 200.653 11.6788 196.482C10.6983 192.311 8.63913 188.471 5.70773 185.347V185.372ZM273.854 266.208C273.622 266.172 273.386 266.183 273.159 266.24C272.931 266.297 272.718 266.399 272.53 266.54C272.343 266.68 272.185 266.857 272.067 267.06C271.949 267.262 271.872 267.486 271.841 267.718C270.667 276.372 267.048 284.511 261.409 291.179C255.77 297.846 248.346 302.764 240.009 305.354C239.783 305.413 239.572 305.515 239.386 305.656C239.201 305.797 239.045 305.973 238.928 306.174C238.811 306.375 238.735 306.598 238.705 306.829C238.674 307.06 238.69 307.294 238.75 307.519C238.846 307.901 239.066 308.239 239.376 308.481C239.686 308.723 240.068 308.854 240.462 308.853C240.612 308.877 240.765 308.877 240.915 308.853C241.217 308.853 270.684 300.571 275.364 268.373C275.423 268.129 275.429 267.875 275.383 267.628C275.337 267.382 275.24 267.147 275.098 266.941C274.955 266.734 274.771 266.56 274.556 266.429C274.342 266.298 274.103 266.215 273.854 266.183V266.208ZM88.6228 353.186C88.5266 352.976 88.3897 352.788 88.2201 352.632C88.1372 352.47 88.0359 352.318 87.9181 352.179C84.8733 348.151 80.0167 346.59 77.148 348.78C74.8078 350.542 74.3549 353.991 75.915 357.491H79.9664L79.6392 357.012C78.381 354.847 78.23 352.43 79.2869 351.625L79.5386 351.474C80.7717 350.92 83.2124 351.851 85.0746 354.319L85.3011 354.671L85.4521 354.898C85.9532 355.672 86.327 356.522 86.5593 357.415H90.1829C89.9478 355.967 89.4442 354.575 88.6982 353.312L88.6228 353.186ZM73.2729 311.95C78.9337 309.224 84.1238 305.612 88.6479 301.251C88.8327 301.081 88.973 300.868 89.0563 300.631C89.1397 300.394 89.1636 300.14 89.1261 299.891C89.0784 299.646 88.9707 299.417 88.8126 299.223C88.6545 299.03 88.4508 298.879 88.2201 298.784C81.6183 296.164 74.5462 294.939 67.4483 295.186C60.3505 295.433 53.3805 297.146 46.9766 300.219C41.0542 302.821 35.5571 306.3 30.6703 310.54C30.474 310.722 30.3307 310.954 30.2554 311.211C30.1801 311.468 30.1756 311.741 30.2425 312C30.3182 312.262 30.4635 312.499 30.6629 312.685C30.8623 312.871 31.1083 313 31.3749 313.057C49.971 316.985 62.9053 316.657 73.1973 312L73.2729 311.95ZM48.109 302.912C59.572 297.421 72.7212 296.608 84.7726 300.646C80.9679 304.142 76.6586 307.045 71.9895 309.256C62.7795 313.385 51.2795 313.888 34.923 310.767C39.0329 307.67 43.4821 305.052 48.1844 302.963L48.109 302.912ZM48.5367 336.294C47.7981 335.619 46.9015 335.14 45.9297 334.903C44.9579 334.665 43.942 334.676 42.9754 334.934C39.4525 336.067 37.9427 340.875 39.5532 345.734C40.1962 347.826 41.4175 349.694 43.0762 351.121C43.8135 351.798 44.7109 352.276 45.684 352.509C46.657 352.743 47.6734 352.724 48.6373 352.456L49.1406 352.254C52.3113 350.844 53.5694 346.288 52.0596 341.681C51.4416 339.61 50.2456 337.758 48.6121 336.344L48.5367 336.294ZM47.6811 349.007H47.5301C47.1315 349.076 46.7222 349.048 46.3367 348.925C45.9512 348.803 45.601 348.589 45.3157 348.302C44.1938 347.306 43.3742 346.015 42.9502 344.576C41.9689 341.555 42.6735 338.937 44.0575 338.282C44.4581 338.216 44.8688 338.248 45.2544 338.375C45.64 338.502 45.989 338.721 46.2719 339.012C47.4045 339.999 48.2263 341.293 48.6373 342.738C49.7194 345.81 48.9897 348.503 47.7566 349.057L47.6811 349.007ZM51.3551 328.867C49.5113 327.066 47.2495 325.75 44.7726 325.039C42.2956 324.327 39.6808 324.241 37.1626 324.789C36.4823 324.971 35.8176 325.206 35.1747 325.494C26.9461 329.194 23.1715 341.228 26.3925 353.513C26.7406 354.83 27.1691 356.125 27.6758 357.39H30.8464C30.197 355.887 29.6589 354.339 29.2361 352.758C26.3925 341.857 29.4624 331.309 36.3825 328.187C36.8747 327.959 37.389 327.782 37.9175 327.659C39.9698 327.229 42.0969 327.32 44.1052 327.922C46.1136 328.525 47.9396 329.62 49.4174 331.108C53.5578 334.878 56.4688 339.808 57.7718 345.256C58.8428 349.207 59.0996 353.336 58.5267 357.39H61.4458C62.0192 353.09 61.7456 348.72 60.6405 344.526C59.1572 338.565 55.9543 333.172 51.4305 329.018L51.3551 328.867ZM93.8569 345.18C86.962 338.887 78.4565 336.419 71.9391 339.365C71.1525 339.719 70.4023 340.149 69.6995 340.649C67.6737 342.243 66.0737 344.314 65.0419 346.677C64.0101 349.041 63.5787 351.622 63.786 354.193C63.8254 355.263 63.9262 356.331 64.088 357.39H67.0825C67.0825 357.39 67.0825 357.39 67.0825 357.214C66.9072 356.19 66.8063 355.155 66.7805 354.117C66.5923 352.031 66.9183 349.93 67.7299 347.999C68.5415 346.068 69.8139 344.365 71.4358 343.04C71.9854 342.657 72.5662 342.32 73.1721 342.033C78.2049 339.768 85.0998 341.681 90.7868 346.514C92.8157 348.239 94.632 350.2 96.1971 352.355C97.3285 353.946 98.3218 355.63 99.1664 357.39H102.387C101.367 355.003 100.093 352.732 98.5877 350.618C97.2048 348.714 95.6461 346.944 93.9323 345.331L93.8569 345.18ZM140.687 318.974C140.574 318.756 140.418 318.564 140.228 318.409C140.039 318.254 139.82 318.138 139.585 318.07C139.35 318.002 139.103 317.982 138.86 318.012C138.617 318.042 138.382 318.12 138.17 318.243C137.948 318.351 137.75 318.504 137.591 318.693C137.431 318.882 137.314 319.102 137.245 319.339C137.176 319.577 137.158 319.826 137.191 320.071C137.225 320.316 137.31 320.551 137.441 320.761C137.818 321.466 147.003 338.383 170.38 355.351C170.688 355.571 171.059 355.685 171.437 355.678C171.716 355.675 171.991 355.608 172.24 355.481C172.488 355.354 172.705 355.172 172.871 354.948C173.012 354.757 173.113 354.54 173.17 354.309C173.226 354.079 173.235 353.839 173.198 353.605C173.16 353.37 173.076 353.146 172.951 352.944C172.826 352.743 172.662 352.568 172.469 352.43C149.972 335.991 140.838 319.301 140.762 319.125L140.687 318.974ZM250.25 331.989C249.025 331.234 247.599 330.868 246.162 330.94C244.724 331.012 243.342 331.518 242.198 332.392C241.276 333.339 240.619 334.512 240.292 335.793C239.965 337.074 239.98 338.419 240.336 339.692C240.537 340.523 240.814 341.53 241.141 342.688C242.646 347.451 243.492 352.397 243.657 357.39H247.055C246.882 352.114 245.984 346.888 244.387 341.857C244.085 340.749 243.808 339.793 243.632 339.012C243.404 338.265 243.367 337.472 243.525 336.706C243.683 335.941 244.032 335.227 244.538 334.632C245.369 333.877 246.727 333.902 248.464 334.632C252.364 338.333 251.433 349.51 250.074 357.289H253.471C254.855 349.41 255.988 336.822 250.628 332.115C250.527 332.115 250.426 332.124 250.326 332.14L250.25 331.989ZM0.599542 0.7423H-3.20023C-3.42567 1.59536 -3.82935 2.39092 -4.38455 3.07653C-4.93975 3.76214 -5.63392 4.32223 -6.42128 4.71988L-6.72323 4.8961V9.15059C-5.92778 8.77632 -5.15482 8.35603 -4.4082 7.89187C-3.07269 7.17506 -1.92385 6.15479 -1.05414 4.91307C-0.184431 3.67135 0.382016 2.24282 0.599542 0.7423ZM87.7421 263.111L64.6667 251.053C64.4534 250.931 64.2176 250.853 63.9734 250.825C63.7292 250.797 63.4819 250.819 63.2465 250.89C63.0111 250.96 62.7926 251.078 62.6042 251.236C62.4157 251.394 62.2612 251.589 62.1503 251.808C62.0283 252.021 61.951 252.257 61.923 252.502C61.895 252.746 61.917 252.993 61.9877 253.229C62.0583 253.464 62.1759 253.683 62.3337 253.871C62.4914 254.06 62.6859 254.214 62.9052 254.325L85.9806 266.384C86.2398 266.51 86.5229 266.578 86.8109 266.585C87.1373 266.586 87.4577 266.497 87.7372 266.328C88.0166 266.16 88.2445 265.918 88.3962 265.629C88.5257 265.422 88.6116 265.192 88.6487 264.951C88.6858 264.71 88.6734 264.464 88.6122 264.229C88.5509 263.993 88.442 263.772 88.2924 263.58C88.1428 263.388 87.9556 263.228 87.7421 263.111ZM99.0658 238.34L74.8832 232.675C77.1983 221.322 76.8964 211.806 71.9391 210.018C47.7818 202.466 31.3497 215.859 25.7885 232.675C20.2272 249.492 25.5369 271.771 46.8004 279.525C51.8332 281.312 58.099 274.238 63.635 264.043L85.8044 275.271C94.0833 278.292 103.797 272.476 107.496 262.356C111.195 252.236 107.345 241.36 99.0658 238.34ZM28.9089 233.607L29.2109 232.726C31.5806 225.512 36.517 219.421 43.0817 215.611C49.6465 211.8 57.3819 210.536 64.8177 212.057C58.9293 216.866 52.5628 228.446 48.134 240.63C43.7052 252.815 41.0882 266.057 42.5981 273.357C27.6256 265.075 24.1529 247.78 28.9089 233.607ZM47.7314 275.875C44.6363 274.767 44.586 260.946 51.5312 241.864C58.4764 222.782 67.309 212.334 70.4293 213.341C72.5683 214.172 73.2475 221.145 71.0835 231.769L64.0628 230.133C63.6597 230.046 63.2391 230.101 62.8722 230.289C62.5053 230.477 62.2147 230.787 62.0497 231.165C61.3703 232.121 53.0662 244.381 52.6132 257.145C52.6096 257.485 52.699 257.82 52.872 258.113C53.045 258.406 53.295 258.646 53.5947 258.806L60.0366 262.054C54.9032 271.746 49.8955 276.68 47.7314 275.875ZM103.973 260.946C100.978 269.178 93.3787 274.012 86.987 271.746L56.3878 256.239C57.414 248.298 60.2182 240.691 64.5913 233.984L97.9082 241.763C104.25 244.13 106.967 252.714 103.973 260.946ZM235.253 192.748C234.783 192.793 234.349 193.022 234.048 193.385C233.746 193.749 233.6 194.216 233.642 194.687C233.642 195.341 235.001 210.849 222.394 214.197C222.169 214.256 221.957 214.358 221.772 214.499C221.586 214.64 221.431 214.816 221.314 215.017C221.197 215.218 221.121 215.441 221.09 215.672C221.06 215.903 221.075 216.137 221.136 216.362C221.231 216.744 221.451 217.082 221.762 217.324C222.072 217.566 222.454 217.697 222.847 217.696H223.3C238.851 213.568 237.215 194.586 237.215 194.41C237.196 194.172 237.13 193.939 237.021 193.727C236.912 193.514 236.762 193.325 236.58 193.171C236.397 193.016 236.186 192.899 235.958 192.827C235.731 192.754 235.491 192.728 235.253 192.748ZM279.893 252.261C273.225 242.493 265.751 238.591 254.075 238.843C253.813 238.849 253.555 238.914 253.32 239.031C253.085 239.149 252.879 239.316 252.716 239.523C252.539 239.717 252.409 239.95 252.339 240.204C252.269 240.458 252.26 240.725 252.314 240.983C252.434 241.632 252.603 242.272 252.817 242.896C250.09 241.237 247.04 240.182 243.872 239.799C240.704 239.417 237.49 239.718 234.447 240.681C234.092 240.78 233.774 240.985 233.536 241.268C233.298 241.551 233.151 241.899 233.114 242.267C233.026 243.432 233.026 244.601 233.114 245.766C229.322 244.023 225.075 243.529 220.985 244.356C220.748 244.408 220.524 244.505 220.326 244.643C220.127 244.782 219.958 244.958 219.827 245.162C219.688 245.361 219.594 245.588 219.55 245.827C219.507 246.066 219.515 246.311 219.576 246.546C219.986 247.767 220.617 248.902 221.438 249.895C220.094 249.726 218.73 249.865 217.449 250.301C216.167 250.737 215.001 251.459 214.039 252.412C213.878 252.586 213.754 252.792 213.676 253.016C213.598 253.24 213.567 253.478 213.586 253.715C213.605 253.952 213.673 254.182 213.786 254.391C213.898 254.6 214.053 254.784 214.241 254.93C214.446 255.7 214.514 256.501 214.442 257.296C214.442 257.724 214.442 258.127 214.442 258.479C214.397 258.603 214.338 258.721 214.266 258.832C213.787 258.768 213.321 258.632 212.882 258.429C212.653 258.323 212.404 258.268 212.152 258.268C211.9 258.268 211.651 258.323 211.422 258.429C210.962 258.654 210.609 259.052 210.441 259.536C209.559 264.072 210.393 268.773 212.781 272.728C211.932 272.724 211.087 272.614 210.265 272.401C210.007 272.313 209.732 272.285 209.461 272.32C209.191 272.355 208.932 272.452 208.705 272.602C208.471 272.749 208.274 272.948 208.13 273.184C207.986 273.42 207.898 273.686 207.874 273.961C207.663 277.419 208.231 280.879 209.538 284.086C210.845 287.294 212.857 290.166 215.424 292.49C214.646 292.257 213.909 291.909 213.234 291.458C212.95 291.239 212.608 291.108 212.25 291.081C211.893 291.054 211.535 291.132 211.221 291.307C210.907 291.479 210.65 291.741 210.484 292.059C210.319 292.377 210.251 292.737 210.29 293.094C211.397 303.466 225.615 313.888 234.297 315.197C238.855 315.764 243.481 315.408 247.899 314.149C252.318 312.891 256.437 310.756 260.014 307.872C260.266 308.123 260.492 308.4 260.769 308.627C262.322 309.844 264.29 310.404 266.251 310.188C268.213 309.971 270.011 308.995 271.262 307.469L280.648 295.737C281.879 294.188 282.452 292.217 282.245 290.25C282.038 288.282 281.067 286.474 279.541 285.214C279.255 284.998 278.952 284.805 278.635 284.635C283.945 273.257 285.681 260.745 279.893 252.261ZM215.826 262.129C216.381 261.827 216.868 261.414 217.258 260.916C217.647 260.418 217.931 259.846 218.091 259.234C218.142 258.977 218.142 258.712 218.091 258.454C218.052 258.069 218.052 257.681 218.091 257.296C218.151 256.196 218.049 255.093 217.789 254.023C219.176 253.615 220.625 253.462 222.067 253.57C223.325 253.716 224.599 253.534 225.766 253.041C225.993 252.918 226.191 252.746 226.343 252.537C226.495 252.328 226.599 252.087 226.647 251.833C226.699 251.58 226.697 251.319 226.641 251.068C226.584 250.816 226.475 250.579 226.319 250.373L225.816 249.718L224.306 247.654C227.306 247.314 230.322 248.133 232.736 249.945C232.973 250.179 233.269 250.344 233.592 250.423C233.978 252.676 234.146 254.961 234.095 257.246C234.095 257.925 233.869 258.378 233.567 258.555C232.208 259.411 228.056 257.799 225.565 256.868C224.634 256.49 223.753 256.163 223.048 255.911C222.651 255.676 222.186 255.583 221.728 255.647C221.271 255.711 220.849 255.929 220.532 256.264C220.38 256.486 220.279 256.738 220.236 257.004C220.192 257.269 220.207 257.541 220.28 257.799C220.287 261.176 220.822 264.532 221.866 267.743C222.142 268.826 222.495 270.261 222.57 270.714C220.958 271.751 219.1 272.341 217.185 272.426C217.109 272.182 216.981 271.959 216.808 271.771C214.792 269.054 213.746 265.739 213.838 262.356C214.509 262.474 215.199 262.396 215.826 262.129ZM211.573 276.227C216.128 276.605 224.533 275.824 226.043 271.872C226.395 270.915 226.043 269.833 225.338 266.837C224.702 264.643 224.231 262.405 223.929 260.141H224.306C228.232 261.651 232.661 263.363 235.555 261.525C236.232 261.073 236.789 260.464 237.179 259.749C237.569 259.035 237.78 258.236 237.794 257.422C237.866 254.927 237.689 252.43 237.266 249.97C236.957 247.995 236.772 246.002 236.712 244.004C240.154 243.065 243.798 243.175 247.178 244.318C250.557 245.462 253.52 247.587 255.686 250.423C255.997 250.784 256.424 251.025 256.894 251.103C258.076 252.854 258.874 254.836 259.234 256.918C254.13 254.549 248.602 253.231 242.978 253.041C242.651 253.028 242.325 253.099 242.034 253.249C241.743 253.399 241.496 253.623 241.317 253.897C241.151 254.18 241.064 254.501 241.064 254.829C241.064 255.156 241.151 255.478 241.317 255.76C244.035 260.644 248.187 272.224 247.784 275.019C246.954 275.019 245.268 274.54 244.085 274.213C239.052 272.954 232.183 271.243 227.653 273.382C227.378 273.507 227.14 273.7 226.959 273.942C226.779 274.184 226.662 274.468 226.621 274.767C226.576 275.066 226.605 275.372 226.706 275.658C226.807 275.943 226.977 276.199 227.2 276.403C230.597 279.45 233.34 293.321 231.83 295.36C230.777 295.484 229.713 295.484 228.66 295.36C224.125 294.457 220.007 292.102 216.929 288.65C213.851 285.198 211.98 280.837 211.599 276.227H211.573ZM277.78 293.396L268.419 305.128C268.106 305.519 267.719 305.845 267.279 306.086C266.84 306.327 266.357 306.479 265.859 306.533C265.361 306.587 264.857 306.541 264.376 306.399C263.896 306.258 263.448 306.022 263.059 305.707L262.832 305.53C265.672 303.096 268.276 300.399 270.608 297.474C271.74 296.04 272.822 294.529 273.854 292.968C273.919 292.889 273.978 292.804 274.03 292.716C275.012 291.231 275.918 289.721 276.773 288.135C276.846 288.052 276.906 287.959 276.949 287.858L277.201 288.034C277.592 288.347 277.918 288.735 278.159 289.174C278.4 289.613 278.552 290.096 278.605 290.595C278.659 291.093 278.614 291.597 278.472 292.078C278.331 292.559 278.095 293.007 277.78 293.396ZM274.559 284.585C271.753 290.142 268.112 295.236 263.763 299.69L263.461 299.992L261.775 301.603L261.021 302.283L259.788 303.315C251.936 309.734 243.204 312.73 235.177 311.522C228.886 310.59 218.443 303.491 215.197 296.09C219.376 297.338 223.665 298.181 228.006 298.607H228.207C229.7 298.829 231.218 298.829 232.711 298.607C233.43 298.426 234.068 298.01 234.523 297.424C237.341 293.9 234.976 281.715 231.528 275.799C235.492 275.74 239.44 276.301 243.23 277.461C245.148 278.215 247.22 278.492 249.269 278.266C249.788 278.093 250.244 277.769 250.577 277.335C253.245 274.037 248.464 262.23 245.947 256.667C249.898 257.12 256.013 258.227 258.982 260.82C259.326 261.135 259.775 261.31 260.24 261.31C260.706 261.31 261.155 261.135 261.499 260.82C265.047 257.447 262.228 252.513 259.511 247.805C258.411 246.077 257.427 244.277 256.566 242.418C265.651 242.72 271.313 246.068 276.874 254.225C281.579 261.223 280.397 273.055 274.508 284.585H274.559ZM-2.69692 66.4982C-2.39934 66.8234 -1.99747 67.0341 -1.56083 67.0939C-1.12419 67.1537 -0.680447 67.0587 -0.306474 66.8254L0.800743 66.1206C2.05894 65.315 3.31718 64.5849 4.6257 63.8297C5.93422 63.0744 7.14211 62.294 8.57645 61.4633L9.91006 60.5822C10.1322 60.4188 10.3204 60.2136 10.4637 59.978L12.9801 58.3165C13.3863 58.0566 13.6793 57.6529 13.8006 57.1861C13.9219 56.7193 13.8626 56.2239 13.6344 55.799C8.60164 46.1068 5.22961 36.2887 5.22961 32.3867C6.61619 30.4068 7.37865 28.057 7.41886 25.6399C7.44254 24.846 7.37511 24.052 7.21766 23.2735C10.0554 23.5447 12.9033 22.8722 15.3204 21.3602C16.8375 20.4129 18.1286 19.1443 19.1025 17.6436C20.0764 16.143 20.7094 14.447 20.957 12.675C21.8378 6.45692 16.4024 2.60521 10.2624 0.7423H4.14758C4.02419 0.967112 3.94728 1.21445 3.92135 1.46961C3.89541 1.72477 3.92098 1.98254 3.9966 2.2276C4.10644 2.55254 4.30269 2.8414 4.56427 3.06317C4.82584 3.28493 5.14292 3.43122 5.48134 3.48632C6.78986 3.68772 18.0632 5.67651 17.2328 12.1715C17.0618 13.4017 16.6211 14.5789 15.9425 15.619C15.2639 16.6591 14.3641 17.5364 13.3073 18.1882C11.9842 19.0925 10.429 19.597 8.82726 19.6416C7.22552 19.6863 5.64473 19.2692 4.27337 18.44C3.86345 18.19 3.37286 18.108 2.90398 18.2112C2.4351 18.3144 2.02417 18.5948 1.75698 18.9938C1.51657 19.4041 1.4375 19.8892 1.5352 20.3547C1.6329 20.8201 1.90041 21.2324 2.28548 21.5113C2.86565 21.9973 3.31639 22.6196 3.59743 23.3225C3.87847 24.0254 3.98108 24.787 3.896 25.5392C3.88893 26.3938 3.75312 27.2425 3.4933 28.0567C3.29934 28.1544 3.1279 28.2916 2.98999 28.4595C1.31664 30.3252 -0.605365 31.9517 -2.72211 33.293C-3.14989 33.5699 -3.50224 33.7713 -3.8797 33.9727C-4.72607 34.0046 -5.5728 33.9199 -6.39609 33.7209V40.8202L5.27999 59.2227L3.06555 60.5318C2.56228 60.8087 2.08412 61.1108 1.60601 61.4129C-0.0799751 59.0717 -3.02413 55.0941 -6.39609 51.0158V57.0326L-6.16955 57.3095L-6.39609 57.1081V62.3192C-4.33265 64.736 -2.72208 66.473 -2.69692 66.4982ZM-4.00549 38.1516L-2.79767 37.5978C-1.12787 37.3283 0.471682 36.7292 1.90796 35.8356H2.05894C3.7263 42.9017 6.26199 49.7341 9.6081 56.1766L7.94735 57.2088L-4.00549 38.1516ZM-4.4082 16.4764C-5.00788 15.3111 -5.78933 14.2488 -6.72323 13.3296V29.3909C-6.35459 29.0532 -6.0176 28.6825 -5.71662 28.2832C-4.36285 26.6617 -3.51681 24.6769 -3.28409 22.5771C-3.05136 20.4772 -3.44238 18.3552 -4.4082 16.4764ZM34.621 129.283C37.4265 128.718 40.1922 127.969 42.9 127.043C43.2981 126.9 43.6303 126.616 43.8341 126.245C44.038 125.875 44.0996 125.442 44.0072 125.029C44.0072 124.525 32.004 78.4309 -6.72323 78.305V87.5441C-5.18604 90.8965 -3.34116 94.099 -1.21234 97.1104C-3.09963 96.2293 -4.9366 95.4237 -6.72323 94.5929V98.3943C-0.356771 101.239 6.53813 104.512 13.4079 108.086C6.50084 108.544 -0.291869 110.082 -6.72323 112.643V116.344C0.674948 113.423 12.4013 109.849 20.957 112.316C27.3016 115.893 33.3145 120.03 38.9241 124.677C37.6407 125.029 35.9799 125.482 33.8913 125.885C24.6813 127.798 7.89693 129.46 -6.77361 121.102V125.205C8.40021 132.959 25.2349 131.247 34.621 129.283ZM6.76457 100.887C1.35521 95.5009 -2.7805 88.9721 -5.33925 81.7791C21.7119 82.8113 34.3442 108.363 38.6975 120.095C28.7369 112.618 18.0367 106.181 6.76457 100.887ZM74.3799 337.729C74.5656 337.652 74.7297 337.531 74.858 337.376C75.3198 336.557 75.4747 335.6 75.2948 334.678C75.115 333.755 74.6122 332.927 73.8768 332.341C49.5433 311.27 10.2625 314.946 9.88502 314.971C9.49524 315.009 9.13635 315.2 8.88655 315.502C8.63674 315.803 8.5162 316.192 8.55126 316.582C8.56709 316.774 8.62076 316.961 8.70915 317.132C8.79754 317.303 8.91888 317.455 9.06624 317.579C9.21361 317.703 9.38401 317.797 9.56771 317.855C9.75141 317.913 9.9448 317.933 10.1366 317.916C10.5141 317.916 47.8825 314.87 72.7695 337.577C72.9932 337.759 73.2654 337.87 73.5519 337.897C73.8385 337.924 74.1265 337.865 74.3799 337.729ZM9.35653 344.324C7.75569 342.774 5.70503 341.771 3.49883 341.458C1.29263 341.146 -0.955701 341.542 -2.92346 342.587C-3.67639 343.074 -4.34731 343.677 -4.91135 344.375C-5.43654 343.674 -6.04502 343.04 -6.72323 342.487V350.819L-6.16955 351.021C-5.40469 351.427 -4.74642 352.008 -4.24801 352.717C-3.74959 353.425 -3.42519 354.241 -3.30098 355.099C-3.1032 355.926 -3.1032 356.789 -3.30098 357.616H0.498788C0.599976 356.502 0.514993 355.379 0.247211 354.293C0.0822411 353.614 -0.136562 352.949 -0.407074 352.305C-0.484134 352.113 -0.576672 351.927 -0.68384 351.751C-0.874164 351.337 -1.10162 350.941 -1.36331 350.568C-1.36331 350.391 -1.58983 350.215 -1.71565 350.064C-2.0437 349.657 -2.40566 349.278 -2.79767 348.931C-2.86256 348.879 -2.92163 348.82 -2.97384 348.755C-2.69354 347.57 -1.97394 346.535 -0.960607 345.86C0.334447 345.251 1.78707 345.063 3.19457 345.32C4.60207 345.577 5.8942 346.268 6.89051 347.295C7.31097 347.613 7.65709 348.018 7.90481 348.483C8.15253 348.949 8.29577 349.462 8.32472 349.989C7.96851 352.816 6.54641 355.4 4.34894 357.214C4.22629 357.339 4.12438 357.484 4.04698 357.642H10.2876L9.30615 357.365C11.1004 355.249 12.1211 352.586 12.2001 349.812C12.1528 348.746 11.874 347.702 11.383 346.755C10.8919 345.807 10.2004 344.978 9.35653 344.324ZM-1.13677 179.758L6.99111 157.101C6.02989 156.373 4.94812 155.819 3.79525 155.465L-4.43323 178.273C-3.30086 178.802 -2.26914 179.356 -1.28775 179.909C-1.23113 179.866 -1.18039 179.815 -1.13677 179.758ZM170.833 274.364C164.517 273.131 158.251 276.328 150.853 282.194C147.289 283.055 143.889 284.492 140.787 286.448C139.705 282.546 138.271 274.037 138.699 273.206C143.908 269.455 147.531 265.503 147.431 261.903C147.296 260.409 146.784 258.975 145.943 257.733C145.102 256.491 143.961 255.483 142.625 254.804C141.401 253.899 139.974 253.308 138.469 253.084C136.964 252.86 135.427 253.01 133.993 253.52C128.507 255.609 125.614 263.338 124.859 267.139C123.273 274.994 127.627 290.954 129.892 295.662C127.855 297.953 126.114 300.49 124.708 303.214C123.053 304.16 121.472 305.229 119.977 306.411C115.745 309.474 112.296 313.493 109.911 318.143C108.457 321.286 107.975 324.793 108.527 328.213C109.635 335.035 120.631 346.842 132.282 357.541H137.315C125.035 346.389 112.956 333.6 111.95 327.331C111.45 324.122 112.053 320.839 113.661 318.017C115.748 314.425 118.538 311.291 121.864 308.803L122.72 308.174C122.391 309.584 122.247 311.031 122.292 312.479C122.441 314.378 122.873 316.245 123.575 318.017C128.206 330.277 144.638 345.709 159.434 357.516H165.096C145.493 342.789 131.93 328.187 127.35 318.017C126.431 316.12 125.86 314.074 125.664 311.975C125.362 306.135 130.168 298.406 137.919 292.263C144.109 287.228 150.878 284.711 155.533 285.013C163.712 285.743 174.809 301.553 183.44 318.017C190.436 331.41 195.796 345.231 196.526 351.625C196.759 353.602 196.588 355.607 196.022 357.516H204.251C207.037 354.311 208.526 350.181 208.428 345.935C208.428 340.901 205.358 329.899 200.703 318.017C193.254 298.431 181.175 276.378 170.833 274.364ZM137.768 288.538C137.214 288.94 136.661 289.318 136.132 289.746C134.924 290.703 133.616 291.76 132.559 292.868C130.47 288.009 127.199 274.037 128.457 267.693C129.036 264.748 131.502 258.202 135.377 256.717C136.295 256.426 137.269 256.363 138.217 256.534C139.164 256.705 140.055 257.105 140.813 257.699C141.639 258.084 142.358 258.667 142.907 259.395C143.455 260.124 143.816 260.977 143.958 261.878C143.958 264.194 140.083 267.769 136.006 270.714C133.314 272.778 136.308 283.78 137.768 288.538ZM200.3 357.113C200.124 357.264 199.923 357.365 199.746 357.491C200.283 355.361 200.428 353.152 200.174 350.97C199.495 345.054 194.487 331.561 187.592 318.042C178.785 300.747 166.933 283.402 157.119 281.816C162.554 278.619 165.674 276.781 169.701 277.662C178.231 279.324 189.53 299.463 197.054 317.941C201.785 329.673 205.031 340.8 205.056 346.212C205.168 348.274 204.796 350.334 203.97 352.227C203.144 354.12 201.888 355.793 200.3 357.113Z" fill="white" fill-opacity="0.05"/>
</g>
</svg>
