<svg width="335" height="358" viewBox="0 0 335 358" fill="none" xmlns="http://www.w3.org/2000/svg">
<rect y="0.641602" width="335" height="357" fill="#FFB628"/>
<mask id="mask0_999_8" style="mask-type:alpha" maskUnits="userSpaceOnUse" x="0" y="0" width="335" height="358">
<rect y="0.641602" width="335" height="357" fill="#FFB628"/>
</mask>
<g mask="url(#mask0_999_8)">
<g clip-path="url(#clip0_999_8)">
<path d="M70.2966 167.663C71.7163 175.034 74.899 181.951 79.5727 187.824C82.5453 191.565 86.0611 194.841 90.0031 197.541C90.3709 197.986 93.7224 202.518 95.7542 204.912C93.0873 203.7 90.5045 202.402 88.0856 200.76C83.7551 197.825 79.8962 194.249 76.6414 190.154C71.5943 183.809 68.1587 176.337 66.6283 168.375C66.5273 167.852 66.4382 167.351 66.3611 166.872C64.2948 154.015 67.4355 141.604 74.2831 131.792C81.1307 121.98 91.6837 114.771 104.437 112.318C104.952 112.219 105.449 112.131 105.928 112.053C115.945 110.452 126.211 111.927 135.372 116.282C143.693 120.212 150.812 126.294 155.992 133.899C156.56 134.735 157.094 135.605 157.611 136.478C152.974 132.227 151.604 131.256 146.486 128.415C142.747 124.829 138.453 121.87 133.769 119.656C125.298 115.625 115.804 114.259 106.54 115.738C106.052 115.817 105.588 115.898 105.15 115.983C93.3931 118.244 83.6611 124.889 77.3536 133.931C71.046 142.973 68.1491 154.412 70.0528 166.262C70.1286 166.75 70.2112 167.218 70.2966 167.663Z" fill="white" fill-opacity="0.08"/>
<path d="M114.214 209.111C111.273 209.314 108.319 209.141 105.421 208.597C98.4926 207.265 92.7099 203.776 88.5333 198.703C84.3884 193.673 81.8428 187.105 81.3566 179.587C81.1279 175.779 81.3858 171.958 82.1238 168.216C84.3829 156.456 90.8227 145.538 99.4046 137.394C108.021 129.217 118.827 123.805 129.787 123.097C132.727 122.893 135.682 123.066 138.579 123.61C145.508 124.942 151.291 128.431 155.467 133.504C159.612 138.533 162.158 145.101 162.644 152.62C162.873 156.427 162.615 160.249 161.877 163.991C159.618 175.751 153.178 186.669 144.596 194.812C135.98 202.989 125.173 208.402 114.214 209.111ZM106.116 204.921C108.703 205.407 111.341 205.561 113.967 205.379C124.015 204.73 133.996 199.7 142.011 192.095C150.058 184.458 156.09 174.253 158.196 163.295C158.876 159.862 159.115 156.356 158.907 152.862C158.473 146.15 156.226 140.317 152.571 135.88C148.945 131.482 143.916 128.442 137.881 127.286C135.294 126.8 132.655 126.646 130.029 126.827C119.982 127.478 110 132.507 101.987 140.112C93.9386 147.749 87.9066 157.953 85.8004 168.911C85.1214 172.345 84.8825 175.852 85.0896 179.346C85.5235 186.057 87.7702 191.891 91.4261 196.326C95.0517 200.723 100.081 203.761 106.116 204.921Z" fill="white" fill-opacity="0.08"/>
<path d="M342.635 271.965C335.269 270.521 328.362 267.317 322.504 262.624C318.772 259.64 315.507 256.113 312.82 252.162C312.376 251.793 307.861 248.425 305.468 246.388C306.671 249.058 307.96 251.645 309.594 254.07C312.517 258.41 316.082 262.281 320.169 265.549C326.497 270.616 333.959 274.076 341.916 275.632C342.439 275.734 342.94 275.826 343.418 275.907C356.268 278.016 368.69 274.914 378.524 268.098C388.358 261.282 395.605 250.753 398.094 238.007C398.195 237.492 398.287 236.995 398.37 236.516C400.065 226.185 398.422 215.992 394.237 207.059C390.334 198.725 384.273 191.587 376.684 186.384C375.849 185.813 374.981 185.282 374.11 184.757C378.345 189.407 379.312 190.781 382.136 195.915C385.711 199.665 388.655 203.968 390.855 208.659C394.858 217.145 396.194 226.645 394.685 235.905C394.605 236.392 394.521 236.857 394.436 237.295C392.136 249.045 385.46 258.751 376.39 265.032C367.321 271.313 355.882 274.172 344.037 272.227C343.548 272.139 343.081 272.052 342.635 271.965Z" fill="white" fill-opacity="0.08"/>
<path d="M301.331 227.914C301.118 230.854 301.281 233.81 301.816 236.709C303.124 243.641 306.601 249.436 311.655 253.629C316.671 257.79 323.226 260.355 330.749 260.866C334.555 261.107 338.377 260.861 342.121 260.136C353.888 257.914 364.827 251.51 373 242.955C381.203 234.365 386.651 223.573 387.394 212.618C387.607 209.678 387.444 206.723 386.908 203.824C385.6 196.891 382.123 191.097 377.069 186.904C372.053 182.743 365.498 180.176 357.977 179.667C354.17 179.426 350.347 179.671 346.602 180.397C334.836 182.619 323.897 189.023 315.726 197.578C307.521 206.169 302.075 216.96 301.331 227.914ZM305.494 236.026C305.016 233.438 304.871 230.799 305.06 228.174C305.742 218.129 310.804 208.165 318.435 200.175C326.098 192.151 336.321 186.152 347.286 184.082C350.722 183.414 354.229 183.186 357.723 183.403C364.433 183.859 370.258 186.125 374.683 189.796C379.07 193.435 382.09 198.474 383.23 204.514C383.708 207.102 383.854 209.741 383.664 212.366C382.975 222.412 377.92 232.377 370.29 240.366C362.626 248.39 352.403 254.389 341.438 256.46C338.002 257.128 334.496 257.355 331.002 257.137C324.291 256.683 318.467 254.417 314.041 250.746C309.654 247.104 306.634 242.065 305.494 236.026Z" fill="white" fill-opacity="0.08"/>
<path d="M154.1 151.903C154.076 151.738 154.041 151.574 153.996 151.413C153.949 151.25 153.89 151.091 153.82 150.936C153.727 150.728 153.612 150.53 153.477 150.346C153.225 150 152.907 149.708 152.541 149.487C152.175 149.267 151.769 149.121 151.346 149.06C150.508 148.943 149.655 149.074 148.89 149.435C148.536 149.596 148.2 149.793 147.887 150.023L131.514 161.98L131.469 162.016C131.187 162.223 130.924 162.453 130.682 162.704C130.422 162.972 130.185 163.261 129.975 163.57C129.847 163.759 129.737 163.937 129.646 164.104C129.15 164.983 128.924 165.99 128.999 166.997C129.099 168.038 129.579 168.94 130.423 169.515C130.512 169.576 130.604 169.633 130.699 169.686L130.785 169.73L143.914 176.884C144.043 176.954 144.177 177.014 144.314 177.066C144.449 177.116 144.587 177.158 144.727 177.192C145.811 177.449 146.997 177.192 148.033 176.555C149.054 175.926 149.873 175.018 150.395 173.938C150.85 172.999 151.267 172.06 151.646 171.121C152.025 170.182 152.368 169.244 152.672 168.305C152.984 167.344 153.256 166.392 153.488 165.448C153.72 164.505 153.915 163.559 154.073 162.611C154.235 161.644 154.354 160.705 154.43 159.795C154.51 158.861 154.55 157.94 154.551 157.032C154.551 156.161 154.512 155.289 154.434 154.415C154.364 153.577 154.252 152.74 154.1 151.903ZM151.857 159.593C151.783 160.461 151.674 161.33 151.531 162.195C151.387 163.06 151.2 163.961 150.98 164.851C150.759 165.74 150.503 166.641 150.221 167.52C149.938 168.399 149.612 169.288 149.256 170.169C148.901 171.051 148.5 171.96 148.076 172.829C147.771 173.458 147.293 173.987 146.698 174.353C146.215 174.646 145.72 174.781 145.33 174.687C145.296 174.679 145.263 174.668 145.23 174.654C145.212 174.648 145.195 174.641 145.179 174.632C145.134 174.606 145.088 174.582 145.041 174.561L132.024 167.466C131.995 167.447 131.965 167.429 131.934 167.413L131.883 167.384C131.788 167.308 131.711 167.212 131.658 167.102C131.604 166.993 131.575 166.873 131.573 166.752C131.549 166.255 131.67 165.763 131.923 165.335C131.987 165.218 132.05 165.114 132.11 165.024C132.237 164.839 132.379 164.665 132.535 164.503C132.672 164.362 132.822 164.233 132.981 164.116C133.002 164.104 133.022 164.09 133.042 164.075L149.415 152.118C149.587 151.993 149.772 151.886 149.966 151.799C150.271 151.646 150.614 151.583 150.953 151.618C151.039 151.628 151.123 151.655 151.199 151.697C151.274 151.74 151.341 151.797 151.394 151.865C151.425 151.908 151.452 151.954 151.473 152.003C151.492 152.047 151.507 152.093 151.519 152.14C151.539 152.209 151.551 152.263 151.558 152.303C151.56 152.316 151.562 152.33 151.565 152.343C151.701 153.091 151.805 153.867 151.878 154.67C151.946 155.434 151.98 156.231 151.98 157.058C151.979 157.886 151.939 158.73 151.86 159.593H151.857Z" fill="white" fill-opacity="0.08"/>
<path d="M142.395 179.543C142.293 179.474 142.201 179.416 142.119 179.371L142.03 179.327L129.661 172.587C129.292 172.343 128.878 172.177 128.444 172.098C127.994 172.018 127.534 172.018 127.084 172.098C125.956 172.279 124.88 172.908 124.036 173.778C123.195 174.634 122.628 175.721 122.409 176.901L119.461 194.58C119.448 194.653 119.442 194.727 119.443 194.802C119.435 194.872 119.428 194.939 119.422 195.014C119.41 195.18 119.406 195.325 119.409 195.448C119.415 195.868 119.489 196.284 119.629 196.681C119.865 197.352 120.316 197.927 120.911 198.317C121.503 198.7 122.198 198.892 122.902 198.868C123.383 198.853 123.859 198.76 124.31 198.593C124.345 198.58 124.38 198.565 124.413 198.55C126.032 197.957 127.61 197.26 129.139 196.463C130.747 195.625 132.301 194.69 133.794 193.661C135.328 192.604 136.8 191.459 138.202 190.231C139.629 188.984 140.985 187.659 142.264 186.261C142.279 186.245 142.294 186.228 142.308 186.21C142.399 186.11 142.484 186.008 142.566 185.906C142.647 185.804 142.75 185.663 142.841 185.534C142.971 185.345 143.081 185.165 143.173 184.997C143.673 184.111 143.9 183.096 143.823 182.082C143.724 181.025 143.243 180.12 142.395 179.543ZM140.899 183.754C140.841 183.862 140.777 183.967 140.709 184.068C140.658 184.145 140.601 184.221 140.544 184.294C140.486 184.367 140.442 184.419 140.392 184.476L140.367 184.502C139.153 185.831 137.865 187.092 136.51 188.278C135.183 189.44 133.79 190.525 132.338 191.526C130.934 192.494 129.471 193.373 127.959 194.16C126.527 194.906 125.05 195.56 123.534 196.116L123.442 196.146C123.249 196.218 123.047 196.26 122.841 196.269C122.661 196.28 122.481 196.237 122.326 196.145C122.207 196.061 122.118 195.941 122.073 195.802C122.025 195.665 122 195.521 122 195.376C122 195.293 122 195.238 122 195.191C122 195.145 122.009 195.087 122.019 195.03C122.031 194.965 122.039 194.899 122.041 194.832L124.961 177.321C125.092 176.655 125.418 176.042 125.898 175.562C126.365 175.076 126.938 174.736 127.505 174.639C127.658 174.612 127.814 174.612 127.967 174.639C128.068 174.657 128.164 174.694 128.249 174.749C128.284 174.774 128.321 174.796 128.358 174.817L140.798 181.597C140.826 181.615 140.856 181.633 140.887 181.649L140.939 181.68C141.036 181.757 141.114 181.855 141.169 181.967C141.224 182.078 141.253 182.2 141.256 182.324C141.279 182.826 141.155 183.323 140.899 183.754Z" fill="white" fill-opacity="0.08"/>
<path d="M125.534 156.222C125.573 156.619 125.675 157.007 125.837 157.372C125.931 157.582 126.046 157.782 126.18 157.968L126.242 158.047C126.751 158.698 127.491 159.129 128.309 159.25C129.148 159.367 130.003 159.236 130.769 158.873C131.123 158.712 131.459 158.515 131.773 158.285L147.37 146.895L147.402 146.87C147.51 146.793 147.628 146.7 147.757 146.594C147.887 146.488 148.033 146.356 148.15 146.242C149.007 145.409 149.598 144.342 149.85 143.174C150.09 141.974 149.875 140.794 149.149 139.919C148.248 138.83 147.232 137.841 146.118 136.97C145.001 136.099 143.793 135.351 142.516 134.738C141.258 134.136 139.944 133.661 138.592 133.321C137.216 132.975 135.812 132.753 134.397 132.657C134.199 132.627 133.999 132.612 133.799 132.613C133.581 132.615 133.363 132.634 133.148 132.671C132.026 132.851 130.944 133.478 130.117 134.343C129.281 135.195 128.717 136.278 128.499 137.452L125.567 155.027C125.559 155.08 125.554 155.132 125.551 155.185C125.504 155.528 125.499 155.877 125.534 156.222ZM128.125 155.448C128.132 155.407 128.137 155.366 128.139 155.325L131.05 137.875C131.179 137.214 131.502 136.606 131.978 136.13C132.442 135.649 133.01 135.303 133.572 135.215C133.654 135.203 133.736 135.196 133.819 135.196C133.885 135.196 133.951 135.202 134.017 135.214C134.062 135.22 134.108 135.226 134.155 135.229C135.441 135.312 136.716 135.512 137.966 135.825C139.149 136.122 140.3 136.538 141.4 137.065C142.511 137.597 143.562 138.248 144.533 139.006C145.502 139.763 146.387 140.622 147.172 141.568C147.373 141.81 147.417 142.215 147.326 142.67C147.175 143.331 146.833 143.932 146.343 144.4C146.257 144.484 146.183 144.553 146.117 144.607C146.051 144.66 145.997 144.702 145.917 144.76L145.854 144.802L130.256 156.193C130.084 156.318 129.899 156.426 129.705 156.514C129.399 156.667 129.055 156.73 128.714 156.694C128.554 156.673 128.408 156.596 128.3 156.477L128.275 156.442C128.245 156.399 128.219 156.353 128.198 156.304C128.148 156.192 128.116 156.072 128.103 155.949C128.089 155.781 128.097 155.611 128.127 155.445L128.125 155.448Z" fill="white" fill-opacity="0.08"/>
<path d="M119.404 176.655C119.366 176.264 119.266 175.881 119.107 175.522C119.014 175.315 118.9 175.118 118.766 174.934C118.747 174.907 118.726 174.881 118.704 174.855C118.202 174.211 117.471 173.787 116.663 173.669C115.837 173.555 114.996 173.683 114.243 174.04C113.892 174.198 113.56 174.392 113.25 174.62L97.9992 185.757L97.9676 185.78C97.8615 185.856 97.7458 185.947 97.6177 186.056C97.4896 186.164 97.3422 186.29 97.232 186.403C96.3893 187.221 95.8079 188.27 95.5611 189.418C95.3241 190.6 95.5363 191.76 96.2498 192.625C97.1336 193.693 98.1303 194.663 99.2224 195.518C100.316 196.371 101.498 197.104 102.749 197.702C103.98 198.293 105.268 198.758 106.592 199.092C107.939 199.43 109.313 199.647 110.698 199.741C110.893 199.771 111.09 199.785 111.287 199.784C111.501 199.782 111.715 199.763 111.927 199.727C113.029 199.549 114.09 198.934 114.911 198.084C115.733 197.246 116.287 196.182 116.502 195.029L119.368 177.843C119.377 177.791 119.382 177.739 119.384 177.687C119.431 177.345 119.438 176.999 119.404 176.655ZM116.815 177.41C116.808 177.45 116.803 177.489 116.801 177.529L113.955 194.595C113.828 195.235 113.515 195.824 113.054 196.286C112.605 196.752 112.055 197.085 111.511 197.172C111.433 197.185 111.354 197.191 111.276 197.19C111.212 197.19 111.148 197.184 111.085 197.173C111.041 197.173 110.996 197.161 110.948 197.158C109.693 197.077 108.448 196.882 107.228 196.575C106.074 196.286 104.95 195.882 103.876 195.369C102.791 194.848 101.766 194.213 100.818 193.473C99.8718 192.734 99.0082 191.896 98.2417 190.972C98.0516 190.742 98.0103 190.356 98.1039 189.917C98.2503 189.276 98.5824 188.693 99.0585 188.24C99.1412 188.159 99.2142 188.091 99.2776 188.039C99.3409 187.987 99.3919 187.948 99.4704 187.892L99.5351 187.849L114.785 176.711C114.951 176.589 115.128 176.484 115.314 176.398C115.609 176.25 115.94 176.19 116.268 176.224C116.418 176.242 116.557 176.314 116.659 176.425L116.684 176.458C116.712 176.498 116.736 176.54 116.757 176.584C116.804 176.691 116.834 176.806 116.846 176.923C116.86 177.085 116.853 177.249 116.823 177.409L116.815 177.41Z" fill="white" fill-opacity="0.08"/>
<path d="M96.7476 183.092L112.958 171.253L113.005 171.218C113.283 171.014 113.542 170.787 113.782 170.54C114.04 170.276 114.275 169.989 114.483 169.683C114.61 169.499 114.718 169.322 114.809 169.151C115.303 168.277 115.527 167.276 115.451 166.275C115.351 165.241 114.875 164.347 114.035 163.772C113.935 163.705 113.844 163.648 113.76 163.603L113.672 163.559L100.676 156.477C100.55 156.407 100.419 156.346 100.284 156.295C100.149 156.245 100.011 156.203 99.8704 156.171C98.7932 155.915 97.6154 156.171 96.5837 156.801C95.5724 157.425 94.7601 158.325 94.2419 159.394C93.7919 160.326 93.3787 161.256 93.0022 162.185C92.6257 163.115 92.2873 164.044 91.987 164.975C91.6784 165.925 91.4089 166.868 91.1784 167.803C90.9479 168.738 90.755 169.674 90.5998 170.611C90.44 171.57 90.3216 172.5 90.2444 173.401C90.1664 174.325 90.1269 175.237 90.126 176.138C90.126 176.999 90.1645 177.865 90.2417 178.735C90.3161 179.569 90.429 180.4 90.5805 181.228C90.603 181.393 90.6371 181.555 90.6825 181.715C90.7294 181.877 90.7879 182.035 90.8574 182.188C90.9507 182.397 91.0651 182.595 91.199 182.78C91.2192 182.808 91.2399 182.834 91.261 182.859C91.7668 183.507 92.503 183.934 93.3163 184.053C94.148 184.169 94.9956 184.04 95.7544 183.68C96.1048 183.518 96.4376 183.321 96.7476 183.092ZM94.6813 181.316C94.3833 181.465 94.0487 181.527 93.7171 181.492C93.5614 181.474 93.4175 181.4 93.3121 181.284L93.2887 181.25C93.2593 181.21 93.234 181.167 93.2129 181.122C93.1954 181.08 93.1802 181.038 93.1675 180.995C93.1518 180.943 93.1394 180.889 93.1303 180.835C93.1287 180.822 93.1264 180.808 93.1234 180.795C92.9884 180.056 92.8851 179.288 92.8135 178.492C92.7464 177.735 92.7125 176.948 92.7115 176.13C92.7106 175.311 92.7478 174.472 92.8231 173.61C92.8956 172.751 93.0036 171.892 93.1468 171.034C93.2901 170.177 93.471 169.301 93.6896 168.407C93.91 167.511 94.1607 166.63 94.4417 165.765C94.7227 164.9 95.0409 164.028 95.3963 163.148C95.7563 162.259 96.1457 161.382 96.5644 160.516C96.8656 159.895 97.3378 159.374 97.9254 159.013C98.4006 158.724 98.8896 158.591 99.2698 158.682C99.2932 158.682 99.3263 158.699 99.369 158.714L99.4076 158.729C99.4554 158.758 99.5057 158.784 99.5577 158.805L112.444 165.83L112.534 165.882L112.583 165.91C112.676 165.985 112.751 166.078 112.803 166.185C112.855 166.292 112.883 166.408 112.885 166.527C112.908 167.016 112.788 167.501 112.539 167.923C112.476 168.037 112.415 168.14 112.355 168.228C112.232 168.411 112.094 168.583 111.941 168.742C111.806 168.881 111.659 169.008 111.502 169.122L111.441 169.164L95.231 181.002C95.0602 181.127 94.877 181.234 94.6841 181.321L94.6813 181.316Z" fill="white" fill-opacity="0.08"/>
<path d="M102.229 153.927C102.332 153.996 102.424 154.054 102.504 154.099C102.533 154.116 102.563 154.129 102.592 154.143L115.158 160.992C115.532 161.235 115.951 161.402 116.391 161.483C116.843 161.564 117.306 161.567 117.759 161.491C118.899 161.306 119.994 160.664 120.843 159.79C121.694 158.923 122.267 157.822 122.489 156.628L125.484 138.678C125.496 138.604 125.502 138.53 125.502 138.455C125.51 138.385 125.517 138.317 125.522 138.239C125.535 138.071 125.539 137.923 125.536 137.801C125.529 137.378 125.454 136.959 125.313 136.561C125.074 135.883 124.619 135.302 124.018 134.908C123.42 134.523 122.719 134.331 122.008 134.357C121.522 134.371 121.042 134.464 120.585 134.632C120.55 134.645 120.516 134.659 120.482 134.675C118.839 135.278 117.236 135.985 115.684 136.794C114.052 137.644 112.474 138.593 110.959 139.637C109.4 140.71 107.904 141.872 106.478 143.118C105.03 144.384 103.654 145.729 102.355 147.148L102.311 147.198C102.219 147.301 102.132 147.404 102.05 147.509C101.967 147.614 101.864 147.753 101.774 147.884C101.643 148.077 101.533 148.259 101.439 148.435C100.934 149.331 100.705 150.357 100.781 151.383C100.893 152.428 101.372 153.344 102.229 153.927ZM103.719 149.657C103.778 149.546 103.842 149.438 103.912 149.334C103.966 149.257 104.022 149.18 104.081 149.104C104.141 149.029 104.186 148.976 104.237 148.918L104.262 148.892C105.498 147.542 106.808 146.261 108.186 145.056C109.534 143.873 110.949 142.77 112.424 141.75C113.85 140.768 115.336 139.875 116.872 139.075C118.326 138.316 119.829 137.652 121.369 137.087L121.463 137.057C121.66 136.982 121.868 136.94 122.078 136.931C122.265 136.919 122.452 136.964 122.613 137.059C122.738 137.147 122.831 137.274 122.877 137.419C122.926 137.56 122.952 137.708 122.953 137.857C122.953 137.941 122.953 138.004 122.953 138.046C122.953 138.087 122.942 138.153 122.934 138.212C122.92 138.278 122.913 138.345 122.911 138.412L119.945 156.194C119.811 156.873 119.478 157.496 118.989 157.985C118.512 158.481 117.925 158.835 117.345 158.929C117.187 158.956 117.025 158.956 116.866 158.929C116.763 158.911 116.664 158.871 116.577 158.813C116.541 158.79 116.505 158.767 116.467 158.745L103.834 151.858C103.805 151.839 103.774 151.821 103.744 151.804L103.689 151.774C103.588 151.693 103.506 151.592 103.449 151.476C103.392 151.36 103.361 151.233 103.358 151.104C103.336 150.598 103.461 150.095 103.719 149.658V149.657Z" fill="white" fill-opacity="0.08"/>
<path d="M336.401 227.998C336.76 227.245 336.891 226.404 336.778 225.578C336.663 224.769 336.241 224.036 335.599 223.532L335.521 223.47C335.337 223.337 335.14 223.222 334.934 223.128C334.575 222.967 334.193 222.866 333.801 222.827C333.46 222.791 333.116 222.796 332.777 222.84C332.724 222.843 332.672 222.849 332.621 222.857L315.427 225.668C314.272 225.879 313.206 226.429 312.366 227.25C311.513 228.067 310.894 229.125 310.713 230.227C310.676 230.438 310.657 230.652 310.654 230.867C310.653 231.064 310.666 231.261 310.695 231.455C310.784 232.841 310.997 234.216 311.332 235.564C311.662 236.89 312.123 238.178 312.709 239.412C313.305 240.664 314.034 241.849 314.883 242.945C315.732 244.04 316.698 245.04 317.762 245.927C318.621 246.646 319.784 246.861 320.966 246.63C322.114 246.386 323.165 245.808 323.985 244.969C324.098 244.854 324.215 244.725 324.335 244.583C324.455 244.441 324.534 244.339 324.611 244.234C324.619 244.224 324.627 244.214 324.634 244.203L335.821 228.988C336.047 228.679 336.241 228.347 336.401 227.998ZM334.045 226.927C333.958 227.114 333.853 227.29 333.73 227.455L322.543 242.671C322.528 242.692 322.513 242.712 322.499 242.734C322.444 242.811 322.394 242.872 322.352 242.927C322.309 242.982 322.232 243.065 322.151 243.145C321.696 243.619 321.111 243.95 320.47 244.094C320.032 244.181 319.643 244.138 319.416 243.947C318.495 243.177 317.659 242.311 316.923 241.362C316.186 240.411 315.554 239.384 315.037 238.297C314.527 237.221 314.127 236.097 313.841 234.94C313.539 233.721 313.348 232.476 313.271 231.221C313.271 231.176 313.263 231.13 313.256 231.083C313.245 231.021 313.239 230.957 313.239 230.893C313.24 230.814 313.246 230.736 313.259 230.658C313.348 230.115 313.682 229.567 314.15 229.118C314.613 228.658 315.203 228.347 315.844 228.224L332.925 225.432C332.965 225.429 333.004 225.424 333.042 225.418C333.203 225.389 333.366 225.383 333.529 225.397C333.646 225.409 333.76 225.44 333.868 225.488C333.911 225.508 333.953 225.532 333.991 225.561L334.026 225.586C334.137 225.688 334.208 225.827 334.226 225.977C334.257 226.305 334.194 226.635 334.045 226.929V226.927Z" fill="white" fill-opacity="0.08"/>
<path d="M354.099 242.019C354.048 241.884 353.988 241.753 353.918 241.627L346.878 228.609C346.864 228.579 346.849 228.55 346.834 228.52C346.782 228.425 346.726 228.333 346.664 228.244C346.097 227.403 345.201 226.923 344.167 226.82C343.166 226.742 342.164 226.963 341.288 227.454C341.105 227.553 340.928 227.661 340.756 227.779C340.45 227.985 340.162 228.219 339.897 228.476C339.649 228.714 339.422 228.974 339.218 229.251L339.18 229.297L327.29 245.47C327.061 245.782 326.864 246.116 326.703 246.469C326.341 247.227 326.209 248.074 326.323 248.907C326.436 249.723 326.862 250.464 327.51 250.973L327.587 251.035C327.772 251.169 327.97 251.284 328.178 251.378C328.331 251.448 328.489 251.507 328.651 251.554C328.811 251.601 328.974 251.636 329.138 251.659C329.965 251.811 330.796 251.927 331.63 252.005C332.499 252.086 333.365 252.127 334.227 252.129C335.127 252.129 336.04 252.092 336.965 252.019C337.864 251.945 338.794 251.83 339.755 251.673C340.698 251.518 341.635 251.328 342.565 251.102C343.495 250.877 344.439 250.611 345.396 250.305C346.331 250.005 347.261 249.669 348.188 249.298C349.114 248.927 350.046 248.516 350.983 248.066C352.055 247.552 352.957 246.743 353.585 245.733C354.214 244.701 354.478 243.529 354.225 242.448C354.194 242.302 354.151 242.159 354.099 242.019ZM351.374 244.369C351.011 244.956 350.488 245.426 349.867 245.726C348.999 246.142 348.12 246.528 347.231 246.885C346.356 247.236 345.484 247.552 344.613 247.832C343.743 248.112 342.861 248.36 341.968 248.575C341.089 248.788 340.213 248.966 339.34 249.109C338.482 249.25 337.622 249.355 336.763 249.426C335.903 249.497 335.064 249.531 334.243 249.528C333.424 249.528 332.637 249.492 331.881 249.419C331.087 249.347 330.319 249.241 329.579 249.101H329.539C329.501 249.094 329.448 249.082 329.38 249.062C329.336 249.05 329.294 249.035 329.253 249.017C329.208 248.995 329.165 248.97 329.125 248.941L329.092 248.916C328.976 248.811 328.902 248.667 328.884 248.511C328.851 248.18 328.913 247.845 329.063 247.547C329.151 247.358 329.258 247.178 329.382 247.01L341.274 230.837L341.316 230.777C341.43 230.621 341.558 230.475 341.697 230.339C341.856 230.187 342.028 230.049 342.211 229.926C342.3 229.867 342.404 229.805 342.519 229.743C342.941 229.495 343.426 229.377 343.915 229.401C344.033 229.404 344.15 229.432 344.256 229.485C344.363 229.537 344.456 229.612 344.531 229.704L344.558 229.755C344.575 229.786 344.593 229.815 344.611 229.844L351.593 242.753C351.615 242.805 351.64 242.855 351.669 242.904C351.669 242.916 351.678 242.928 351.684 242.944C351.696 242.976 351.707 243.008 351.716 243.041C351.798 243.409 351.665 243.895 351.374 244.369Z" fill="white" fill-opacity="0.08"/>
<path d="M333.463 197.92C333.514 198.058 333.574 198.192 333.644 198.321L340.757 211.472C340.771 211.502 340.785 211.531 340.8 211.56C340.845 211.643 340.902 211.735 340.969 211.836C341.542 212.683 342.443 213.165 343.483 213.268C344.492 213.348 345.502 213.126 346.384 212.63C346.568 212.531 346.747 212.422 346.92 212.304C347.23 212.095 347.52 211.859 347.788 211.599C348.039 211.357 348.27 211.095 348.477 210.815C348.488 210.801 348.5 210.786 348.511 210.769L360.52 194.436C360.752 194.124 360.95 193.788 361.111 193.435C361.476 192.672 361.61 191.818 361.496 190.98C361.435 190.557 361.291 190.15 361.072 189.784C360.852 189.417 360.562 189.098 360.217 188.845C360.033 188.709 359.836 188.594 359.628 188.499C359.473 188.429 359.314 188.37 359.151 188.322C358.99 188.276 358.826 188.241 358.661 188.217C357.826 188.063 356.987 187.946 356.145 187.867C355.268 187.787 354.396 187.745 353.528 187.742C352.621 187.742 351.7 187.779 350.765 187.853C349.854 187.929 348.915 188.045 347.948 188.203C346.981 188.361 346.034 188.553 345.109 188.779C344.165 189.008 343.211 189.276 342.249 189.585C341.305 189.888 340.366 190.227 339.431 190.601C338.496 190.976 337.555 191.389 336.608 191.841C335.53 192.361 334.622 193.177 333.991 194.194C333.356 195.233 333.09 196.417 333.345 197.5C333.375 197.643 333.414 197.783 333.463 197.92ZM336.192 195.544C336.56 194.949 337.09 194.471 337.72 194.166C338.596 193.746 339.484 193.355 340.384 192.994C341.267 192.641 342.151 192.323 343.036 192.038C343.92 191.753 344.811 191.503 345.708 191.287C346.598 191.071 347.484 190.891 348.365 190.747C349.231 190.605 350.099 190.499 350.969 190.428C351.838 190.357 352.687 190.323 353.514 190.325C354.341 190.325 355.137 190.361 355.903 190.433C356.705 190.508 357.481 190.615 358.228 190.756H358.268C358.323 190.766 358.377 190.779 358.431 190.796C358.478 190.808 358.524 190.824 358.568 190.842C358.617 190.863 358.663 190.89 358.706 190.921C358.774 190.975 358.83 191.042 358.872 191.118C358.914 191.194 358.94 191.277 358.95 191.363C358.986 191.703 358.923 192.045 358.768 192.349C358.68 192.544 358.572 192.728 358.446 192.9L346.437 209.233C346.422 209.254 346.408 209.275 346.395 209.294C346.278 209.453 346.148 209.602 346.007 209.74C345.845 209.896 345.671 210.037 345.485 210.162C345.394 210.224 345.289 210.286 345.174 210.349C344.745 210.6 344.252 210.72 343.756 210.695C343.634 210.692 343.515 210.663 343.405 210.609C343.296 210.555 343.2 210.477 343.124 210.382L343.095 210.331C343.078 210.3 343.06 210.271 343.043 210.24L335.99 197.201C335.969 197.154 335.945 197.108 335.918 197.063C335.91 197.047 335.903 197.03 335.896 197.012C335.881 196.97 335.87 196.937 335.863 196.912C335.756 196.519 335.893 196.026 336.192 195.544Z" fill="white" fill-opacity="0.08"/>
<path d="M313.785 222.54C314.18 222.682 314.596 222.758 315.016 222.766C315.139 222.766 315.283 222.766 315.45 222.753C315.522 222.753 315.588 222.742 315.662 222.733C315.737 222.735 315.812 222.729 315.885 222.717L333.572 219.824C334.753 219.608 335.842 219.045 336.701 218.207C337.573 217.371 338.206 216.291 338.391 215.164C338.47 214.714 338.47 214.254 338.391 213.804C338.312 213.37 338.148 212.955 337.907 212.585L331.206 200.195C331.192 200.164 331.177 200.135 331.162 200.106C331.116 200.022 331.06 199.93 330.991 199.831C330.417 198.981 329.512 198.496 328.466 198.391C327.451 198.313 326.436 198.536 325.548 199.033C325.379 199.124 325.2 199.234 325.008 199.363C324.88 199.451 324.756 199.54 324.638 199.638C324.519 199.736 324.433 199.803 324.331 199.894L324.281 199.938C322.879 201.213 321.549 202.566 320.297 203.988C319.065 205.39 317.915 206.862 316.854 208.396C315.82 209.886 314.879 211.437 314.037 213.043C313.235 214.569 312.533 216.145 311.935 217.762C311.918 217.795 311.904 217.83 311.892 217.865C311.725 218.316 311.632 218.791 311.616 219.272C311.589 219.975 311.777 220.671 312.155 221.265C312.544 221.856 313.117 222.304 313.785 222.54ZM314.325 218.734C314.336 218.704 314.345 218.672 314.355 218.642C314.916 217.128 315.574 215.652 316.325 214.223C317.117 212.714 318.001 211.255 318.972 209.854C319.978 208.405 321.067 207.015 322.234 205.692C323.425 204.337 324.689 203.05 326.022 201.835C326.032 201.828 326.04 201.819 326.049 201.81C326.105 201.761 326.166 201.711 326.23 201.66C326.295 201.609 326.38 201.546 326.458 201.495C326.559 201.427 326.665 201.364 326.773 201.306C327.206 201.052 327.704 200.93 328.206 200.956C328.33 200.959 328.452 200.989 328.563 201.044C328.674 201.099 328.772 201.178 328.85 201.275L328.879 201.328C328.896 201.359 328.914 201.389 328.932 201.416L335.672 213.877C335.692 213.915 335.714 213.952 335.739 213.988C335.794 214.073 335.831 214.169 335.848 214.27C335.875 214.423 335.875 214.579 335.848 214.731C335.754 215.299 335.407 215.871 334.921 216.336C334.438 216.814 333.825 217.138 333.158 217.267L315.639 220.131C315.572 220.133 315.506 220.14 315.44 220.153C315.383 220.161 315.327 220.167 315.278 220.171C315.228 220.175 315.176 220.171 315.095 220.171C314.95 220.169 314.806 220.144 314.669 220.097C314.53 220.052 314.409 219.962 314.326 219.842C314.234 219.686 314.192 219.507 314.203 219.327C314.213 219.124 314.253 218.924 314.325 218.734Z" fill="white" fill-opacity="0.08"/>
<path d="M278.911 241.415C276.621 247.142 273.223 252.36 268.91 256.769C264.597 261.179 259.456 264.692 253.781 267.108C248.114 269.541 242.022 270.83 235.855 270.901C229.688 270.972 223.568 269.823 217.846 267.521C212.119 265.231 206.901 261.833 202.492 257.52C198.083 253.208 194.569 248.066 192.153 242.391C189.72 236.724 188.432 230.632 188.361 224.465C188.29 218.298 189.438 212.178 191.74 206.457C193.037 203.216 194.691 200.131 196.671 197.256C195.335 197.086 193.994 196.85 192.649 196.548C190.926 199.243 189.459 202.093 188.27 205.062C185.783 211.24 184.541 217.848 184.615 224.506C184.689 231.165 186.079 237.744 188.704 243.864C191.313 249.99 195.108 255.541 199.869 260.196C204.631 264.852 210.266 268.52 216.449 270.991C222.627 273.478 229.234 274.721 235.893 274.646C242.552 274.572 249.131 273.182 255.251 270.557C261.377 267.948 266.928 264.153 271.583 259.392C276.238 254.631 279.907 248.996 282.378 242.813C284.865 236.635 286.108 230.027 286.033 223.368C285.959 216.709 284.569 210.13 281.944 204.01C279.336 197.884 275.543 192.333 270.783 187.678C266.023 183.022 260.39 179.352 254.208 176.88C250.327 175.322 246.269 174.248 242.126 173.682C241.447 174.885 240.716 176.055 239.932 177.192C244.353 177.629 248.69 178.692 252.813 180.35C258.54 182.64 263.758 186.038 268.167 190.351C272.576 194.664 276.09 199.805 278.506 205.48C280.937 211.148 282.225 217.24 282.294 223.407C282.364 229.574 281.214 235.694 278.911 241.415Z" fill="white" fill-opacity="0.08"/>
<path d="M241.972 184.418C241.634 184.362 241.287 184.442 241.008 184.64C240.729 184.839 240.541 185.141 240.484 185.479C240.427 185.817 240.507 186.163 240.706 186.442C240.905 186.721 241.207 186.91 241.545 186.967C242.864 187.189 244.171 187.483 245.458 187.847C246.754 188.212 248.03 188.647 249.279 189.148C253.85 190.976 258.015 193.689 261.534 197.131C265.053 200.573 267.858 204.677 269.786 209.206C271.727 213.73 272.755 218.592 272.812 223.514C272.868 228.436 271.95 233.321 270.113 237.887C270.049 238.045 270.018 238.213 270.02 238.383C270.022 238.552 270.057 238.72 270.123 238.876C270.19 239.032 270.287 239.174 270.408 239.292C270.529 239.411 270.673 239.505 270.83 239.568C270.988 239.631 271.156 239.663 271.326 239.661C271.495 239.659 271.663 239.624 271.819 239.557C271.975 239.49 272.116 239.393 272.234 239.272C272.353 239.151 272.446 239.007 272.51 238.85C274.476 233.969 275.458 228.747 275.399 223.485C275.34 218.223 274.241 213.024 272.167 208.188C270.105 203.347 267.106 198.961 263.344 195.282C259.581 191.603 255.129 188.704 250.242 186.752C248.908 186.216 247.547 185.752 246.163 185.362C244.784 184.973 243.385 184.658 241.972 184.418Z" fill="white" fill-opacity="0.08"/>
<path d="M182.742 200.839C182.282 200.654 181.767 200.659 181.311 200.854C180.855 201.049 180.494 201.416 180.309 201.876C180.125 202.336 180.13 202.851 180.325 203.307C180.519 203.763 180.887 204.123 181.346 204.309L199.943 211.728C200.403 211.913 200.918 211.908 201.374 211.713C201.83 211.519 202.19 211.151 202.375 210.691C202.56 210.231 202.554 209.716 202.36 209.26C202.165 208.804 201.798 208.444 201.338 208.258L182.742 200.839Z" fill="white" fill-opacity="0.08"/>
<path d="M185.5 204.056C185.375 204.171 185.229 204.26 185.069 204.319C184.91 204.378 184.741 204.405 184.571 204.398C184.401 204.392 184.234 204.352 184.08 204.281C183.926 204.209 183.787 204.109 183.672 203.984C183.557 203.859 183.467 203.713 183.408 203.553C183.35 203.394 183.323 203.225 183.33 203.055C183.336 202.885 183.377 202.718 183.448 202.564C183.519 202.41 183.62 202.271 183.745 202.156L191.861 194.628C191.921 195.122 191.989 195.617 192.065 196.114L192.113 196.427L192.422 196.497C192.755 196.573 193.088 196.635 193.422 196.709L185.5 204.056Z" fill="white" fill-opacity="0.08"/>
<path d="M247.331 143.674L247.639 143.744C247.892 143.802 248.121 143.934 248.298 144.123C248.475 144.312 248.591 144.55 248.631 144.806L248.678 145.119C249.551 150.708 249.347 156.412 248.077 161.925C245.932 171.254 240.874 179.63 233.994 186.031C227.113 192.432 218.393 196.886 208.938 198.357C203.382 199.223 197.711 199.024 192.229 197.771L192.137 197.753L191.828 197.683C191.576 197.626 191.346 197.494 191.169 197.305C190.992 197.115 190.876 196.877 190.837 196.621L190.788 196.308C189.916 190.719 190.12 185.015 191.39 179.503C193.534 170.173 198.592 161.798 205.474 155.397C212.356 148.995 221.073 144.542 230.528 143.072C236.084 142.206 241.755 142.404 247.237 143.656L247.331 143.674ZM246.207 146.07C241.185 144.983 236.005 144.832 230.929 145.623C222 147.012 213.758 151.221 207.236 157.289C200.713 163.357 195.926 171.278 193.903 180.083C192.75 185.092 192.532 190.271 193.26 195.359C198.282 196.445 203.462 196.596 208.539 195.803C217.469 194.414 225.709 190.205 232.232 184.138C238.754 178.072 243.542 170.15 245.565 161.345C246.717 156.336 246.934 151.157 246.207 146.07Z" fill="white" fill-opacity="0.08"/>
<path d="M192.807 196.444C192.741 196.505 192.664 196.552 192.58 196.584C192.496 196.615 192.407 196.629 192.317 196.625C192.227 196.622 192.139 196.6 192.058 196.563C191.977 196.525 191.904 196.472 191.843 196.405C191.782 196.34 191.734 196.263 191.703 196.178C191.672 196.094 191.658 196.005 191.662 195.915C191.665 195.826 191.687 195.738 191.724 195.656C191.762 195.575 191.815 195.502 191.881 195.441L246.475 144.897C246.54 144.836 246.617 144.788 246.702 144.757C246.786 144.726 246.875 144.712 246.965 144.715C247.054 144.719 247.142 144.74 247.224 144.778C247.305 144.816 247.378 144.869 247.439 144.935C247.56 145.069 247.624 145.245 247.617 145.425C247.609 145.605 247.532 145.776 247.4 145.899L192.807 196.444Z" fill="white" fill-opacity="0.08"/>
<path d="M238.956 177.154C239.133 177.186 239.29 177.286 239.393 177.433C239.496 177.58 239.537 177.761 239.507 177.938C239.477 178.116 239.378 178.275 239.231 178.379C239.084 178.484 238.901 178.526 238.723 178.496L216.018 174.621C215.867 174.594 215.729 174.518 215.627 174.404C215.524 174.29 215.462 174.145 215.452 173.992L213.22 151.234C213.203 151.054 213.258 150.875 213.372 150.736C213.487 150.597 213.652 150.509 213.832 150.492C214.011 150.476 214.189 150.532 214.327 150.646C214.466 150.761 214.555 150.925 214.574 151.103L216.758 173.366L238.949 177.154H238.956ZM246.034 163.282L230.562 160.638L229.067 145.297C229.058 145.208 229.033 145.122 228.991 145.043C228.949 144.964 228.892 144.894 228.823 144.837C228.754 144.78 228.674 144.738 228.589 144.712C228.503 144.686 228.413 144.677 228.324 144.685C228.236 144.694 228.149 144.72 228.071 144.762C227.992 144.804 227.922 144.861 227.865 144.93C227.809 144.999 227.766 145.079 227.74 145.164C227.714 145.249 227.705 145.339 227.714 145.428L229.257 161.269C229.268 161.422 229.329 161.567 229.432 161.681C229.534 161.795 229.672 161.872 229.823 161.899L245.802 164.633C245.979 164.663 246.161 164.622 246.307 164.519C246.454 164.416 246.554 164.259 246.586 164.082C246.614 163.904 246.571 163.723 246.467 163.577C246.362 163.43 246.205 163.33 246.028 163.298L246.034 163.282ZM225.444 189.979L202.991 186.151L200.808 163.924C200.799 163.835 200.773 163.748 200.731 163.67C200.69 163.591 200.633 163.521 200.564 163.464C200.495 163.407 200.416 163.365 200.33 163.339C200.245 163.312 200.155 163.303 200.066 163.312C199.887 163.329 199.722 163.417 199.607 163.557C199.492 163.696 199.438 163.875 199.455 164.054L201.686 186.775C201.695 186.928 201.756 187.074 201.859 187.189C201.962 187.303 202.101 187.379 202.253 187.404L225.218 191.321C225.395 191.349 225.575 191.307 225.722 191.204C225.868 191.101 225.968 190.945 226.002 190.77C226.018 190.681 226.016 190.59 225.996 190.502C225.977 190.415 225.94 190.331 225.888 190.258C225.836 190.184 225.77 190.122 225.694 190.074C225.618 190.026 225.533 189.994 225.444 189.979Z" fill="white" fill-opacity="0.08"/>
<path d="M194.838 217.365L196.874 218.054L198.156 220.047C198.217 220.142 198.268 220.215 198.308 220.267C198.328 220.296 198.35 220.322 198.372 220.35C198.921 221.039 199.707 221.497 200.576 221.635C201.47 221.777 202.384 221.58 203.141 221.084C203.238 221.022 203.316 220.968 203.373 220.926C203.403 220.904 203.432 220.88 203.459 220.857C203.606 220.738 203.744 220.61 203.873 220.473C204.013 220.321 204.142 220.159 204.257 219.988L206.461 216.804L209.315 214.993C210.118 214.476 210.706 213.685 210.968 212.767C211.233 211.864 211.158 210.895 210.759 210.044L209.609 207.469L209.778 203.974C209.778 203.904 209.778 203.837 209.778 203.761C209.781 202.84 209.442 201.951 208.828 201.266C208.517 200.918 208.14 200.635 207.719 200.434C207.298 200.233 206.84 200.118 206.374 200.095C206.311 200.095 206.245 200.095 206.179 200.095C205.888 200.096 205.599 200.131 205.318 200.201C205.038 200.271 204.767 200.373 204.51 200.504L204.462 200.529L201.999 201.693L199.711 201.353C199.222 201.281 198.723 201.308 198.244 201.434C197.766 201.56 197.318 201.782 196.927 202.086C196.156 202.681 195.633 203.54 195.456 204.498C195.456 204.52 195.456 204.517 195.44 204.609C195.44 204.641 195.431 204.66 195.429 204.674V204.693C195.429 204.693 195.429 204.675 195.429 204.717C195.429 204.717 195.429 204.731 195.429 204.739L194.867 208.437L192.906 211.933C192.867 212.003 192.833 212.074 192.803 212.148C192.411 212.954 192.306 213.87 192.506 214.744C192.615 215.226 192.822 215.681 193.114 216.08C193.406 216.48 193.776 216.815 194.203 217.066C194.34 217.146 194.442 217.204 194.513 217.234C194.583 217.264 194.696 217.31 194.843 217.359L194.838 217.365ZM198.695 214.724L196.323 213.918L196.117 213.85L196.276 213.566L198.287 209.984C198.397 209.788 198.471 209.573 198.505 209.351L199.105 205.394L199.158 205.061L199.535 205.116L202.014 205.484C202.38 205.538 202.754 205.483 203.088 205.324L206.034 203.932L205.852 207.67C205.822 207.991 205.876 208.314 206.008 208.608L207.285 211.461L207.432 211.775L206.946 212.084L204.218 213.815C203.969 213.954 203.755 214.148 203.592 214.381L201.195 217.851L199.68 215.486C199.448 215.127 199.101 214.858 198.695 214.724Z" fill="white" fill-opacity="0.08"/>
<path d="M300.492 311.165C305.389 307.415 310.979 304.671 316.94 303.088C322.901 301.506 329.116 301.118 335.228 301.945C341.342 302.755 347.236 304.765 352.571 307.86C357.905 310.954 362.576 315.073 366.314 319.978C370.064 324.875 372.808 330.465 374.39 336.426C375.973 342.387 376.361 348.603 375.534 354.714C374.724 360.828 372.714 366.722 369.619 372.057C366.525 377.392 362.406 382.062 357.501 385.8C354.729 387.921 351.729 389.726 348.557 391.182C349.619 392.009 350.651 392.898 351.651 393.849C354.51 392.416 357.228 390.716 359.768 388.773C365.066 384.738 369.514 379.696 372.857 373.937C376.2 368.178 378.372 361.814 379.248 355.213C380.14 348.614 379.719 341.903 378.01 335.467C376.3 329.031 373.336 322.996 369.287 317.709C365.252 312.412 360.21 307.964 354.45 304.621C348.69 301.278 342.327 299.107 335.725 298.231C329.126 297.339 322.416 297.759 315.98 299.469C309.544 301.178 303.509 304.143 298.223 308.192C292.925 312.227 288.477 317.269 285.134 323.028C281.792 328.788 279.62 335.151 278.744 341.752C277.852 348.351 278.273 355.062 279.982 361.498C281.692 367.934 284.656 373.969 288.704 379.256C291.241 382.581 294.178 385.579 297.449 388.185C298.649 387.499 299.876 386.868 301.131 386.292C297.555 383.654 294.372 380.521 291.678 376.987C287.929 372.09 285.184 366.5 283.602 360.539C282.02 354.578 281.631 348.363 282.459 342.251C283.269 336.137 285.279 330.243 288.373 324.908C291.468 319.574 295.586 314.903 300.492 311.165Z" fill="white" fill-opacity="0.08"/>
<path d="M303.069 379.036C303.199 379.145 303.348 379.228 303.51 379.28C303.671 379.332 303.841 379.352 304.01 379.338C304.179 379.324 304.344 379.277 304.495 379.199C304.645 379.121 304.779 379.015 304.889 378.886C304.999 378.756 305.082 378.607 305.133 378.445C305.185 378.284 305.205 378.114 305.191 377.945C305.177 377.776 305.13 377.611 305.052 377.46C304.975 377.309 304.868 377.175 304.739 377.066C303.719 376.2 302.747 375.281 301.827 374.311C300.901 373.333 300.027 372.308 299.209 371.238C296.217 367.329 294.027 362.867 292.764 358.109C291.502 353.351 291.192 348.391 291.852 343.513C292.498 338.633 294.102 333.929 296.572 329.671C299.042 325.413 302.329 321.686 306.244 318.702C306.517 318.494 306.695 318.187 306.741 317.847C306.787 317.508 306.696 317.164 306.488 316.891C306.385 316.756 306.257 316.643 306.11 316.557C305.963 316.472 305.801 316.417 305.633 316.394C305.465 316.371 305.294 316.382 305.13 316.425C304.966 316.469 304.812 316.544 304.677 316.647C300.491 319.836 296.976 323.821 294.335 328.372C291.693 332.923 289.977 337.952 289.285 343.168C288.579 348.383 288.912 353.686 290.263 358.772C291.613 363.857 293.956 368.626 297.156 372.804C298.028 373.946 298.961 375.041 299.949 376.085C300.936 377.124 301.977 378.109 303.069 379.036Z" fill="white" fill-opacity="0.08"/>
<path d="M162.166 361.826L162.359 362.077C162.518 362.282 162.611 362.53 162.628 362.788C162.644 363.047 162.582 363.305 162.45 363.528L162.288 363.803C159.407 368.671 155.622 372.943 151.137 376.389C143.55 382.227 134.32 385.481 124.935 386.043C115.551 386.605 105.993 384.5 97.7615 379.622C92.9222 376.757 88.672 372.998 85.2373 368.545C85.2166 368.521 85.1973 368.498 85.178 368.473L84.9838 368.222C84.8255 368.017 84.7323 367.769 84.7163 367.511C84.7004 367.252 84.7624 366.995 84.8943 366.772L85.0568 366.496C87.9368 361.628 91.7213 357.356 96.2063 353.91C103.794 348.072 113.024 344.825 122.408 344.256C131.791 343.688 141.35 345.799 149.582 350.677C154.421 353.542 158.671 357.3 162.106 361.753C162.127 361.777 162.147 361.802 162.166 361.826ZM159.775 362.96C156.59 358.929 152.687 355.52 148.265 352.904C140.49 348.297 131.459 346.305 122.563 346.843C113.667 347.382 104.941 350.448 97.7807 355.956C93.7056 359.089 90.2439 362.948 87.5694 367.338C90.7547 371.369 94.6563 374.778 99.0784 377.394C106.853 382 115.891 383.992 124.78 383.455C133.669 382.917 142.404 379.851 149.564 374.341C153.639 371.208 157.101 367.35 159.775 362.96Z" fill="white" fill-opacity="0.08"/>
<path d="M134.413 382.34C134.473 382.407 134.518 382.486 134.547 382.571C134.575 382.656 134.587 382.746 134.581 382.836C134.574 382.926 134.55 383.013 134.51 383.093C134.47 383.174 134.414 383.245 134.346 383.304C134.208 383.421 134.03 383.48 133.85 383.467C133.669 383.454 133.501 383.371 133.382 383.235L118.323 365.807C118.222 365.691 118.164 365.544 118.157 365.39C118.151 365.237 118.197 365.086 118.287 364.961L131.036 345.979C131.136 345.83 131.292 345.726 131.469 345.692C131.646 345.657 131.83 345.694 131.979 345.795C132.053 345.845 132.117 345.909 132.166 345.983C132.215 346.058 132.249 346.141 132.266 346.229C132.283 346.317 132.282 346.407 132.264 346.494C132.246 346.581 132.211 346.664 132.161 346.738L119.689 365.31L134.408 382.344L134.413 382.34ZM148.697 376.141C148.756 376.209 148.801 376.287 148.83 376.372C148.859 376.458 148.87 376.548 148.864 376.637C148.858 376.727 148.834 376.814 148.793 376.895C148.753 376.975 148.697 377.047 148.629 377.105C148.492 377.223 148.313 377.281 148.133 377.268C147.952 377.256 147.784 377.172 147.665 377.036L137.068 364.762C136.967 364.645 136.909 364.498 136.902 364.345C136.896 364.191 136.942 364.04 137.032 363.916L145.91 350.715C145.96 350.641 146.023 350.577 146.098 350.528C146.172 350.478 146.256 350.444 146.343 350.427C146.431 350.409 146.521 350.41 146.609 350.428C146.696 350.445 146.78 350.48 146.854 350.531C147.003 350.631 147.106 350.787 147.141 350.963C147.176 351.14 147.139 351.323 147.038 351.473L138.436 364.264L148.692 376.145L148.697 376.141ZM115.832 383.648C115.891 383.716 115.937 383.795 115.965 383.88C115.994 383.965 116.006 384.055 115.999 384.145C115.993 384.234 115.969 384.322 115.929 384.402C115.889 384.482 115.833 384.554 115.765 384.613C115.627 384.73 115.449 384.789 115.268 384.776C115.088 384.763 114.92 384.68 114.8 384.544L99.5667 366.919C99.4659 366.803 99.4073 366.656 99.4006 366.502C99.3938 366.349 99.4393 366.197 99.5295 366.073L112.256 347.119C112.357 346.969 112.513 346.866 112.69 346.831C112.867 346.796 113.05 346.833 113.2 346.934C113.349 347.035 113.453 347.191 113.487 347.368C113.522 347.544 113.485 347.728 113.384 347.878L100.935 366.421L115.832 383.648Z" fill="white" fill-opacity="0.08"/>
<path d="M-0.000291626 200.095C5.54867 195.516 12.0749 192.272 19.0753 190.614C25.0738 189.18 31.2965 188.945 37.3858 189.924C43.4752 190.902 49.3111 193.074 54.5584 196.315C59.813 199.545 64.3777 203.78 67.9903 208.779C71.6029 213.778 74.1922 219.441 75.6093 225.444C77.0428 231.441 77.2774 237.662 76.2994 243.75C75.3214 249.839 73.1503 255.673 69.9106 260.92C68.081 263.892 65.9272 266.651 63.4887 269.148C64.7744 269.544 66.055 270.003 67.3306 270.525C69.4868 268.163 71.416 265.603 73.0926 262.879C76.5932 257.214 78.9398 250.913 79.9975 244.338C81.0551 237.764 80.803 231.045 79.2556 224.568C77.7256 218.087 74.93 211.973 71.0294 206.577C67.1289 201.18 62.2002 196.608 56.5268 193.122C50.8615 189.622 44.5605 187.275 37.9856 186.218C31.4108 185.16 24.6917 185.411 18.2144 186.958C11.6453 188.517 5.45301 191.37 -0.000291626 195.351V200.092V200.095ZM-0.000291626 277.219C1.07232 278.003 2.18445 278.749 3.33604 279.458C6.89483 281.654 10.7109 283.402 14.6977 284.663C15.571 283.594 16.4893 282.565 17.4527 281.577C13.1698 280.394 9.07632 278.609 5.29481 276.276C3.44352 275.136 1.67296 273.87 -0.00439453 272.487L-0.000291626 277.219Z" fill="white" fill-opacity="0.08"/>
<path d="M16.6692 274.109C16.8293 274.165 16.9988 274.188 17.1681 274.179C17.3374 274.169 17.5032 274.126 17.6559 274.053C17.8087 273.979 17.9454 273.876 18.0583 273.749C18.1712 273.623 18.2581 273.475 18.3139 273.315C18.371 273.155 18.3958 272.984 18.3868 272.814C18.3778 272.644 18.3353 272.477 18.2617 272.324C18.1881 272.17 18.0849 272.033 17.9579 271.919C17.8309 271.806 17.6827 271.718 17.5218 271.662C16.2594 271.219 15.022 270.708 13.815 270.13C12.6001 269.551 11.417 268.907 10.2706 268.202C6.29416 265.758 2.81057 262.59 0 258.864V262.94C2.59318 265.846 5.59598 268.36 8.9138 270.4C10.1378 271.155 11.4009 271.845 12.6978 272.467C13.9916 273.084 15.3172 273.632 16.6692 274.109Z" fill="white" fill-opacity="0.08"/>
<path d="M77.8273 267.986C78.2495 268.247 78.7577 268.328 79.2402 268.214C79.7227 268.099 80.14 267.798 80.4005 267.376C80.6606 266.954 80.7424 266.446 80.628 265.963C80.5136 265.481 80.2122 265.063 79.7902 264.803L62.7272 254.334C62.5183 254.205 62.2862 254.118 62.0439 254.079C61.8016 254.04 61.5539 254.049 61.3151 254.105C61.0762 254.162 60.8509 254.265 60.6519 254.409C60.4529 254.552 60.2842 254.734 60.1554 254.943C60.0263 255.152 59.9397 255.384 59.9005 255.626C59.8612 255.869 59.8701 256.117 59.9267 256.356C59.9832 256.595 60.0863 256.82 60.23 257.019C60.3737 257.218 60.5552 257.387 60.7642 257.516L77.8273 267.986Z" fill="white" fill-opacity="0.08"/>
<path d="M75.6551 264.348C75.9432 264.161 76.2937 264.096 76.6295 264.168C76.9653 264.239 77.259 264.441 77.4459 264.729C77.5385 264.872 77.6021 265.031 77.6329 265.199C77.6638 265.366 77.6614 265.538 77.6258 265.704C77.5902 265.87 77.5222 266.028 77.4256 266.168C77.3291 266.308 77.2058 266.428 77.0629 266.52L67.7868 272.559C67.8116 272.062 67.8295 271.563 67.8378 271.06V270.745L67.5458 270.622C67.2303 270.484 66.9135 270.367 66.5967 270.243L75.6551 264.348Z" fill="white" fill-opacity="0.08"/>
<path d="M4.46732 313.35L4.17527 313.228C3.93596 313.129 3.73203 312.96 3.59003 312.743C3.44804 312.527 3.37456 312.272 3.37911 312.013V311.697C3.46714 306.041 4.63606 300.455 6.82285 295.238C10.5201 286.408 16.9268 279.014 24.7965 273.87C32.6661 268.727 42.0152 265.822 51.5806 265.979C57.2036 266.07 62.7581 267.229 67.948 269.395L68.0362 269.427L68.3282 269.549C68.5675 269.648 68.7715 269.817 68.9135 270.034C69.0555 270.251 69.1289 270.505 69.1244 270.764V271.08C69.0364 276.735 67.8674 282.322 65.6806 287.538C61.9848 296.368 55.5767 303.764 47.707 308.907C39.8374 314.051 30.4883 316.954 20.9229 316.797C15.3004 316.707 9.74624 315.549 4.55684 313.383C4.52654 313.373 4.49762 313.362 4.46732 313.35ZM5.98257 311.18C10.7476 313.103 15.8265 314.13 20.9643 314.211C30.0007 314.358 38.8373 311.61 46.291 306.738C53.7446 301.865 59.8125 294.873 63.3017 286.541C65.2879 281.8 66.3825 276.733 66.5306 271.595C61.7655 269.672 56.6866 268.645 51.5489 268.564C42.5125 268.416 33.6772 271.165 26.2222 276.037C18.7671 280.909 12.7006 287.9 9.21142 296.234C7.22505 300.975 6.13046 306.042 5.98257 311.18Z" fill="white" fill-opacity="0.08"/>
<path d="M67.1599 270.608C67.235 270.559 67.3189 270.526 67.4069 270.509C67.4949 270.493 67.5852 270.494 67.6727 270.513C67.7603 270.532 67.8432 270.567 67.9169 270.618C67.9906 270.669 68.0535 270.734 68.1021 270.809C68.2002 270.96 68.2341 271.145 68.1964 271.321C68.1586 271.498 68.0524 271.652 67.901 271.75L5.5168 312.287C5.44176 312.336 5.35782 312.369 5.26982 312.385C5.18182 312.402 5.09146 312.4 5.00394 312.382C4.91642 312.363 4.83346 312.327 4.75978 312.277C4.6861 312.226 4.62314 312.161 4.57454 312.086C4.4765 311.934 4.44266 311.75 4.48038 311.574C4.51809 311.397 4.62433 311.243 4.77572 311.145L67.1599 270.608Z" fill="white" fill-opacity="0.08"/>
<path d="M18.4059 281.778C18.2362 281.718 18.0974 281.593 18.0199 281.431C17.9424 281.268 17.9326 281.082 17.9926 280.912C18.0224 280.828 18.0685 280.75 18.1283 280.684C18.188 280.618 18.2602 280.564 18.3408 280.525C18.4214 280.487 18.5088 280.465 18.598 280.46C18.6871 280.456 18.7764 280.469 18.8605 280.499L40.5781 288.173C40.7222 288.225 40.8447 288.324 40.9263 288.453C41.0079 288.583 41.0439 288.736 41.0286 288.889L39.3618 311.695C39.3553 311.784 39.3314 311.871 39.2913 311.951C39.2513 312.03 39.1959 312.101 39.1283 312.16C39.0608 312.218 38.9824 312.262 38.8977 312.291C38.8129 312.319 38.7235 312.33 38.6345 312.323C38.4546 312.31 38.2873 312.225 38.1695 312.089C38.0517 311.952 37.993 311.774 38.0063 311.594L39.6359 289.279L18.41 281.777L18.4059 281.778ZM9.07472 294.247L23.8718 299.482L22.7395 314.855C22.7329 314.944 22.744 315.033 22.772 315.118C22.8 315.203 22.8445 315.281 22.9028 315.349C22.9611 315.416 23.0322 315.472 23.112 315.512C23.1917 315.552 23.2786 315.576 23.3676 315.582C23.5472 315.595 23.7247 315.537 23.8611 315.419C23.9974 315.302 24.0816 315.135 24.095 314.955L25.2645 299.088C25.2813 298.935 25.2459 298.781 25.1641 298.651C25.0823 298.521 24.9589 298.423 24.814 298.372L9.52376 292.962C9.35404 292.903 9.16761 292.913 9.00524 292.99C8.84288 293.067 8.71778 293.206 8.6573 293.375C8.59948 293.545 8.61031 293.731 8.6875 293.893C8.76469 294.056 8.90215 294.181 9.07055 294.243L9.07472 294.247ZM33.8986 271.44L55.3752 279.026L53.7512 301.302C53.7383 301.481 53.7971 301.659 53.9149 301.795C54.0326 301.931 54.1997 302.016 54.3793 302.029C54.4683 302.036 54.5578 302.024 54.6425 301.996C54.7272 301.968 54.8056 301.924 54.8732 301.866C54.9407 301.807 54.9961 301.736 55.0362 301.656C55.0762 301.577 55.1002 301.49 55.1066 301.401L56.7679 278.632C56.7847 278.479 56.7493 278.325 56.6675 278.195C56.5857 278.065 56.4623 277.967 56.3174 277.916L34.3504 270.156C34.1805 270.099 33.9946 270.109 33.8325 270.187C33.6704 270.264 33.5449 270.401 33.4826 270.57C33.4241 270.74 33.4349 270.927 33.5127 271.09C33.5905 271.253 33.7291 271.378 33.8986 271.44Z" fill="white" fill-opacity="0.08"/>
<path d="M68.7168 249.647L66.8269 248.619L65.9026 246.437C65.8585 246.334 65.8213 246.253 65.791 246.194C65.7745 246.162 65.758 246.132 65.74 246.103C65.3176 245.33 64.6205 244.744 63.7867 244.461C62.9317 244.169 61.9989 244.206 61.1695 244.564C61.0634 244.609 60.978 244.648 60.9133 244.681C60.8802 244.698 60.8485 244.715 60.8169 244.735C60.6541 244.826 60.498 244.93 60.3499 245.043C60.1851 245.168 60.0307 245.306 59.8884 245.457L57.1789 248.22L54.0588 249.52C53.1789 249.892 52.4648 250.572 52.0504 251.432C51.6366 252.277 51.5451 253.244 51.7929 254.151L52.4912 256.884L51.7295 260.299C51.7143 260.368 51.7006 260.437 51.6895 260.509C51.5309 261.414 51.7135 262.347 52.202 263.126C52.449 263.522 52.7726 263.865 53.1539 264.135C53.5352 264.405 53.9665 264.595 54.4225 264.696C54.4831 264.71 54.5479 264.722 54.614 264.735C54.8997 264.782 55.1901 264.796 55.479 264.775C55.7671 264.754 56.0518 264.701 56.3276 264.615L56.3786 264.597L58.9958 263.87L61.1998 264.593C61.6699 264.747 62.1664 264.804 62.6593 264.761C63.1522 264.719 63.6313 264.576 64.0677 264.343C64.9288 263.888 65.591 263.13 65.9274 262.215C65.9356 262.196 65.9274 262.197 65.9618 262.109L65.9839 262.047V262.029C65.9839 262.036 65.9838 262.047 65.9921 262.006C65.9921 262.006 65.9921 261.993 65.9921 261.987L67.1754 258.435L69.7004 255.324C69.7501 255.262 69.7961 255.197 69.8381 255.129C70.3616 254.402 70.6202 253.517 70.5709 252.622C70.5456 252.128 70.4193 251.645 70.1996 251.201C69.98 250.758 69.6718 250.364 69.294 250.045C69.1728 249.943 69.0805 249.871 69.0185 249.827C68.9565 249.783 68.8504 249.721 68.714 249.647H68.7168ZM64.4645 251.593L66.6685 252.79L66.8586 252.892L66.6533 253.144L64.0636 256.336C63.9212 256.511 63.8119 256.71 63.7413 256.924L62.4768 260.721L62.3693 261.04L62.007 260.922L59.6281 260.139C59.2766 260.024 58.8987 260.016 58.5426 260.116L55.4033 260.987L56.2174 257.335C56.2994 257.023 56.2994 256.695 56.2174 256.383L55.4432 253.352L55.3523 253.018L55.884 252.796L58.8649 251.556C59.134 251.462 59.3781 251.307 59.5785 251.104L62.5305 248.092L63.6325 250.681C63.798 251.071 64.0915 251.393 64.4645 251.593Z" fill="white" fill-opacity="0.08"/>
<path d="M360.662 76.3614C365.568 80.1 369.686 84.7712 372.78 90.1065C375.874 95.4417 377.883 101.336 378.692 107.45C379.518 113.561 379.129 119.775 377.547 125.735C375.964 131.695 373.22 137.283 369.471 142.18C365.732 147.085 361.061 151.203 355.726 154.298C350.39 157.392 344.496 159.402 338.381 160.211C332.269 161.037 326.054 160.647 320.093 159.063C314.133 157.479 308.544 154.733 303.648 150.982C300.874 148.864 298.343 146.445 296.103 143.769C295.582 145.012 294.996 146.24 294.344 147.454C296.479 149.836 298.833 152.012 301.376 153.952C306.662 158.002 312.697 160.968 319.132 162.679C325.568 164.389 332.279 164.811 338.878 163.919C345.48 163.044 351.843 160.873 357.603 157.532C363.363 154.19 368.405 149.743 372.441 144.446C376.491 139.159 379.456 133.124 381.167 126.688C382.877 120.252 383.299 113.542 382.407 106.942C381.531 100.342 379.36 93.9812 376.018 88.2234C372.676 82.4656 368.229 77.4247 362.934 73.3902C357.647 69.3403 351.613 66.375 345.177 64.6647C338.741 62.9544 332.031 62.5327 325.431 63.424C318.83 64.2989 312.467 66.4697 306.707 69.8117C300.947 73.1536 295.904 77.6008 291.869 82.8977C289.328 86.2192 287.207 89.8414 285.553 93.6821C286.529 94.6592 287.461 95.6772 288.348 96.736C289.952 92.591 292.138 88.6951 294.838 85.165C298.577 80.2596 303.248 76.1413 308.583 73.0468C313.919 69.9524 319.813 67.9428 325.927 67.1336C332.039 66.3076 338.255 66.6977 344.216 68.2813C350.177 69.8649 355.766 72.6109 360.662 76.3614Z" fill="white" fill-opacity="0.08"/>
<path d="M295.858 96.6998C295.713 97.0102 295.698 97.3653 295.815 97.6871C295.932 98.0089 296.172 98.2712 296.482 98.4162C296.792 98.5608 297.147 98.5763 297.469 98.4593C297.791 98.3423 298.053 98.1024 298.198 97.7922C298.767 96.5806 299.399 95.4003 300.094 94.2561C300.793 93.106 301.553 91.9937 302.371 90.9239C305.355 87.0089 309.083 83.7222 313.342 81.2525C317.6 78.7829 322.305 77.1791 327.185 76.5332C332.062 75.8737 337.021 76.1844 341.778 77.4475C346.535 78.7105 350.995 80.901 354.903 83.8932C355.038 83.9963 355.191 84.0719 355.355 84.1155C355.519 84.1592 355.69 84.1702 355.859 84.1478C356.027 84.1254 356.189 84.0701 356.336 83.9851C356.483 83.9 356.611 83.7869 356.714 83.6521C356.922 83.3798 357.014 83.0362 356.968 82.6966C356.923 82.357 356.745 82.0491 356.473 81.8407C352.296 78.6408 347.527 76.2978 342.441 74.9463C337.355 73.5949 332.053 73.2615 326.838 73.9655C321.621 74.6574 316.593 76.3731 312.041 79.0141C307.49 81.6551 303.505 85.1693 300.315 89.355C299.443 90.4969 298.632 91.6846 297.885 92.913C297.142 94.1378 296.465 95.4019 295.858 96.6998Z" fill="white" fill-opacity="0.08"/>
<path d="M295.829 158.159C295.528 158.552 295.396 159.049 295.462 159.539C295.527 160.03 295.785 160.475 296.178 160.776C296.571 161.076 297.068 161.208 297.558 161.143C298.049 161.077 298.494 160.82 298.795 160.427L310.917 144.498C311.217 144.104 311.348 143.608 311.283 143.117C311.218 142.627 310.961 142.182 310.568 141.881C310.175 141.581 309.678 141.449 309.187 141.515C308.697 141.58 308.252 141.838 307.951 142.231L295.829 158.159Z" fill="white" fill-opacity="0.08"/>
<path d="M299.665 156.368C299.822 156.673 299.851 157.028 299.746 157.355C299.641 157.682 299.411 157.954 299.106 158.111C298.801 158.267 298.446 158.296 298.12 158.191C297.793 158.087 297.522 157.856 297.365 157.551L292.283 147.716C292.776 147.79 293.272 147.857 293.77 147.917L294.084 147.954L294.234 147.679C294.398 147.377 294.551 147.074 294.706 146.772L299.665 156.368Z" fill="white" fill-opacity="0.08"/>
<path d="M258.035 80.6328L258.185 80.3573C258.308 80.1293 258.496 79.9435 258.726 79.8239C258.955 79.7042 259.216 79.6564 259.473 79.6865L259.788 79.7237C265.406 80.3781 270.848 82.1016 275.818 84.8012C284.235 89.3634 290.951 96.4782 295.281 104.823C299.61 113.168 301.565 122.757 300.452 132.262C299.799 137.848 298.09 143.258 295.416 148.206C295.403 148.234 295.39 148.261 295.375 148.29L295.224 148.566C295.102 148.794 294.913 148.98 294.683 149.1C294.453 149.219 294.192 149.267 293.935 149.236L293.621 149.199C288.003 148.544 282.562 146.821 277.591 144.122C269.176 139.56 262.459 132.445 258.128 124.1C253.797 115.755 251.844 106.165 252.957 96.6601C253.61 91.0751 255.319 85.6651 257.992 80.7182C258.006 80.6893 258.019 80.6604 258.035 80.6328ZM260.042 82.3575C257.651 86.9055 256.12 91.8555 255.525 96.959C254.474 105.935 256.324 115.004 260.426 122.907C264.528 130.81 270.877 137.547 278.82 141.853C283.338 144.304 288.27 145.901 293.368 146.561C295.757 142.013 297.289 137.063 297.884 131.96C298.935 122.984 297.085 113.915 292.983 106.012C288.881 98.1092 282.532 91.3718 274.595 87.0658C270.075 84.6139 265.141 83.0177 260.042 82.3575Z" fill="white" fill-opacity="0.08"/>
<path d="M294.293 147.289C294.376 147.449 294.391 147.636 294.336 147.807C294.281 147.979 294.16 148.122 294 148.205C293.839 148.285 293.653 148.3 293.481 148.245C293.31 148.19 293.167 148.07 293.083 147.911L258.992 81.783C258.912 81.6219 258.897 81.4356 258.952 81.2641C259.008 81.0926 259.128 80.9496 259.287 80.8656C259.448 80.7832 259.634 80.768 259.806 80.8232C259.978 80.8785 260.121 80.9998 260.203 81.1603L294.293 147.289Z" fill="white" fill-opacity="0.08"/>
<path d="M288.052 97.6601C288.13 97.4981 288.268 97.3731 288.437 97.3118C288.606 97.2506 288.793 97.2579 288.957 97.3322C289.119 97.4104 289.244 97.5488 289.305 97.718C289.366 97.8871 289.359 98.0735 289.284 98.2373L279.474 119.077C279.409 119.217 279.298 119.33 279.161 119.398C279.023 119.466 278.867 119.486 278.716 119.454L256.191 115.514C256.014 115.483 255.856 115.382 255.753 115.235C255.65 115.087 255.609 114.905 255.64 114.727C255.672 114.55 255.772 114.392 255.92 114.289C256.067 114.186 256.25 114.145 256.427 114.176L278.467 118.033L288.054 97.6642L288.052 97.6601ZM276.58 87.1291L269.889 101.328L254.707 98.6629C254.619 98.6473 254.529 98.6491 254.442 98.6683C254.354 98.6876 254.272 98.7239 254.199 98.775C254.126 98.8262 254.064 98.8914 254.016 98.9667C253.968 99.042 253.935 99.126 253.92 99.2139C253.889 99.3914 253.929 99.5741 254.032 99.7218C254.136 99.8696 254.293 99.9703 254.471 100.002L270.141 102.757C270.292 102.789 270.448 102.769 270.586 102.7C270.724 102.632 270.834 102.519 270.899 102.379L277.811 87.7104C277.85 87.6296 277.872 87.5421 277.876 87.4529C277.88 87.3636 277.867 87.2743 277.837 87.1901C277.807 87.106 277.761 87.0286 277.701 86.9623C277.641 86.896 277.568 86.8423 277.488 86.804C277.407 86.7661 277.319 86.7445 277.23 86.7404C277.14 86.7364 277.051 86.75 276.967 86.7804C276.883 86.8109 276.806 86.8576 276.74 86.9179C276.674 86.9782 276.62 87.0509 276.583 87.1319L276.58 87.1291ZM296.789 114.11L287.091 134.72L265.09 130.876C265.002 130.86 264.912 130.862 264.825 130.881C264.738 130.9 264.655 130.937 264.582 130.988C264.509 131.039 264.447 131.104 264.399 131.18C264.351 131.255 264.319 131.339 264.304 131.427C264.275 131.604 264.316 131.786 264.419 131.933C264.522 132.08 264.678 132.181 264.855 132.215L287.344 136.145C287.494 136.177 287.65 136.157 287.788 136.089C287.926 136.021 288.036 135.908 288.101 135.769L298.019 114.693C298.095 114.53 298.104 114.343 298.042 114.173C297.981 114.004 297.854 113.866 297.691 113.789C297.529 113.712 297.343 113.703 297.174 113.763C297.005 113.823 296.866 113.948 296.789 114.11Z" fill="white" fill-opacity="0.08"/>
<path d="M314.989 150.934L316.199 149.157L318.463 148.455C318.57 148.421 318.655 148.392 318.716 148.369L318.812 148.327C319.623 147.984 320.276 147.349 320.642 146.548C321.018 145.725 321.075 144.792 320.802 143.93C320.767 143.82 320.737 143.732 320.709 143.664C320.697 143.63 320.682 143.596 320.667 143.563C320.591 143.391 320.504 143.226 320.406 143.067C320.299 142.89 320.176 142.723 320.041 142.567L317.562 139.595L316.58 136.36C316.298 135.447 315.693 134.668 314.878 134.169C314.08 133.673 313.128 133.485 312.2 133.639L309.412 134.061L306.091 132.959C306.025 132.937 305.953 132.916 305.886 132.897C305 132.648 304.053 132.737 303.227 133.145C302.807 133.35 302.433 133.638 302.125 133.99C301.818 134.343 301.584 134.753 301.437 135.197C301.416 135.256 301.398 135.318 301.38 135.383C301.303 135.663 301.26 135.951 301.252 136.241C301.243 136.53 301.269 136.818 301.328 137.101C301.328 137.117 301.335 137.135 301.339 137.153L301.802 139.836L300.861 141.951C300.66 142.403 300.553 142.891 300.547 143.386C300.54 143.88 300.634 144.371 300.822 144.828C301.188 145.732 301.875 146.468 302.751 146.895L302.854 146.94L302.913 146.968H302.93C302.93 146.968 302.913 146.968 302.952 146.979L302.971 146.987L306.386 148.519L309.231 151.343C309.286 151.399 309.346 151.451 309.408 151.5C310.08 152.093 310.934 152.439 311.83 152.479C312.324 152.503 312.818 152.426 313.281 152.252C313.745 152.078 314.167 151.81 314.523 151.467C314.608 151.386 314.69 151.301 314.767 151.212C314.819 151.151 314.888 151.056 314.976 150.928L314.989 150.934ZM313.473 146.508L312.063 148.574L311.941 148.754L311.711 148.524L308.795 145.632C308.636 145.473 308.449 145.344 308.244 145.251L304.594 143.613L304.288 143.476L304.441 143.127L305.458 140.839C305.61 140.502 305.658 140.127 305.595 139.762L305.044 136.551L308.597 137.726C308.898 137.842 309.224 137.876 309.543 137.827L312.633 137.36L312.975 137.302L313.143 137.853L314.081 140.944C314.148 141.221 314.277 141.479 314.46 141.699L317.159 144.934L314.472 145.761C314.064 145.888 313.713 146.152 313.476 146.508H313.473Z" fill="white" fill-opacity="0.08"/>
<path d="M196.418 51.1339C194.865 57.1033 192.148 62.707 188.423 67.6229C184.697 72.5388 180.037 76.67 174.71 79.779C169.392 82.903 163.51 84.9454 157.401 85.7889C151.292 86.6324 145.076 86.2602 139.111 84.6939C133.142 83.1412 127.539 80.4241 122.623 76.6987C117.708 72.9732 113.577 68.313 110.469 62.9859C107.344 57.6687 105.301 51.7864 104.458 45.6772C103.614 39.5679 103.986 33.3521 105.552 27.3871C106.435 24.0094 107.69 20.7403 109.295 17.64C107.95 17.64 106.591 17.5738 105.218 17.4416C103.845 20.3306 102.747 23.3428 101.941 26.438C100.246 32.8779 99.8414 39.5891 100.749 46.186C101.656 52.7829 103.859 59.1354 107.229 64.8786C110.586 70.6293 115.048 75.6598 120.356 79.6809C125.664 83.702 131.714 86.6345 138.159 88.3098C144.6 90.0029 151.311 90.4064 157.908 89.4972C164.505 88.588 170.857 86.3841 176.6 83.012C182.35 79.6544 187.381 75.1935 191.402 69.8856C195.423 64.5778 198.355 58.5277 200.031 52.083C201.724 45.6423 202.128 38.9305 201.218 32.3333C200.309 25.7362 198.105 19.3837 194.733 13.6411C191.859 8.72928 188.18 4.33502 183.851 0.641602H177.718C183.342 4.54351 188.046 9.62642 191.502 15.5351C194.626 20.8524 196.668 26.7347 197.512 32.8439C198.356 38.9531 197.984 45.1688 196.418 51.1339Z" fill="white" fill-opacity="0.08"/>
<path d="M151.282 0.641602C151.314 0.952434 151.456 1.2414 151.684 1.45511C151.912 1.66881 152.21 1.79282 152.522 1.80421C153.859 1.85966 155.193 1.98703 156.517 2.18578C157.848 2.38566 159.168 2.65696 160.47 2.9985C165.235 4.23702 169.708 6.40522 173.633 9.37843C177.557 12.3516 180.855 16.0712 183.337 20.3233C185.831 24.5673 187.461 29.2624 188.134 34.1386C188.808 39.0148 188.51 43.976 187.26 48.737C187.217 48.9012 187.207 49.0722 187.23 49.2403C187.253 49.4084 187.309 49.5703 187.395 49.7168C187.48 49.8633 187.594 49.9914 187.729 50.0939C187.864 50.1964 188.019 50.2713 188.183 50.3143C188.514 50.4011 188.866 50.3528 189.162 50.18C189.458 50.0072 189.673 49.724 189.76 49.3927C191.097 44.3032 191.416 38.9996 190.697 33.7866C189.978 28.5736 188.237 23.554 185.572 19.0161C180.306 9.99906 171.718 3.40317 161.648 0.641602H151.282Z" fill="white" fill-opacity="0.08"/>
<path d="M95.9179 22.9447C95.6804 22.8823 95.4329 22.8672 95.1896 22.9005C94.9462 22.9338 94.7119 23.0148 94.4999 23.1388C94.2878 23.2628 94.1024 23.4273 93.954 23.6231C93.8057 23.8188 93.6974 24.0419 93.6354 24.2795C93.5731 24.5169 93.5582 24.7642 93.5915 25.0073C93.6248 25.2504 93.7057 25.4845 93.8295 25.6964C93.9533 25.9082 94.1177 26.0936 94.3132 26.2419C94.5087 26.3902 94.7315 26.4985 94.9688 26.5607L114.347 31.5899C114.827 31.7154 115.337 31.6452 115.765 31.3949C116.193 31.1446 116.504 30.7347 116.63 30.2551C116.692 30.0176 116.707 29.7702 116.674 29.5269C116.64 29.2836 116.559 29.0493 116.436 28.8373C116.312 28.6254 116.147 28.4399 115.951 28.2915C115.756 28.1432 115.533 28.0348 115.295 27.9726L95.9179 22.9447Z" fill="white" fill-opacity="0.08"/>
<path d="M99.0572 25.789C98.8363 26.0513 98.5204 26.2154 98.1787 26.2451C97.8371 26.2748 97.4976 26.1677 97.2348 25.9474C96.9722 25.7263 96.8081 25.41 96.7787 25.068C96.7493 24.726 96.8568 24.3863 97.0777 24.1236L104.186 15.6382C104.307 16.1212 104.437 16.6038 104.575 17.0859L104.662 17.3904L104.976 17.422C105.317 17.4551 105.655 17.4813 105.996 17.5061L99.0572 25.789Z" fill="white" fill-opacity="0.08"/>
<path d="M145.865 0.641602C145.552 1.04291 145.23 1.43826 144.901 1.82763C138.876 9.04848 130.787 14.5544 121.591 17.1992C116.186 18.7549 110.536 19.2691 104.939 18.7144C104.909 18.7144 104.877 18.7144 104.846 18.7144L104.532 18.6841C104.274 18.6595 104.029 18.5578 103.83 18.3922C103.631 18.2266 103.486 18.0048 103.415 17.7557L103.328 17.4512C101.761 12.0136 101.25 6.32645 101.822 0.696702C101.822 0.678794 101.822 0.659509 101.822 0.641602H104.416L104.383 0.954294C103.868 6.06853 104.301 11.2339 105.661 16.1908C110.78 16.6388 115.938 16.1382 120.876 14.7141C129.364 12.2815 136.859 7.24671 142.519 0.641602H145.865Z" fill="white" fill-opacity="0.08"/>
<path d="M105.352 17.3204C105.295 17.3897 105.224 17.4469 105.145 17.4887C105.065 17.5304 104.977 17.5559 104.888 17.5636C104.798 17.5713 104.708 17.561 104.622 17.5335C104.536 17.5059 104.457 17.4616 104.388 17.403C104.319 17.3455 104.262 17.2748 104.22 17.195C104.178 17.1152 104.153 17.0279 104.145 16.9382C104.137 16.8485 104.148 16.7581 104.175 16.6724C104.203 16.5866 104.247 16.5072 104.306 16.4388L117.57 0.641602H119.351L105.352 17.3204Z" fill="white" fill-opacity="0.08"/>
<path d="M136.919 6.80867C137.009 6.81204 137.096 6.83301 137.177 6.8704C137.259 6.90778 137.331 6.96084 137.392 7.02651C137.453 7.09218 137.5 7.16918 137.53 7.25307C137.561 7.33696 137.575 7.42608 137.571 7.51533C137.567 7.60453 137.546 7.69216 137.509 7.77321C137.471 7.85425 137.418 7.92711 137.353 7.98763C137.287 8.04815 137.21 8.09513 137.126 8.12589C137.042 8.15665 136.953 8.17058 136.864 8.16688L113.584 7.16406C113.431 7.15784 113.285 7.10003 113.168 7.00002C113.052 6.90001 112.973 6.76365 112.944 6.61306L111.59 0.641602H112.984L114.164 5.82789L136.919 6.80867Z" fill="white" fill-opacity="0.08"/>
<path d="M109.983 37.8218L112.09 38.2529L113.612 40.0698C113.685 40.1553 113.749 40.2227 113.789 40.2696C113.814 40.2958 113.839 40.3192 113.865 40.3426C114.494 40.9557 115.329 41.3119 116.207 41.3413C117.112 41.3711 117.996 41.0633 118.686 40.4776C118.775 40.4032 118.845 40.3398 118.896 40.2902C118.922 40.2654 118.948 40.2379 118.973 40.2117C119.102 40.0764 119.221 39.9318 119.33 39.7792C119.451 39.6119 119.558 39.435 119.651 39.2502L121.434 35.8147L124.039 33.6603C124.772 33.0472 125.255 32.1882 125.4 31.2442C125.548 30.3147 125.353 29.3631 124.849 28.5677L123.384 26.1598L123.108 22.6706C123.108 22.6004 123.096 22.5329 123.086 22.4585C122.973 21.5447 122.525 20.7051 121.83 20.1016C121.478 19.7953 121.068 19.5621 120.625 19.4157C120.182 19.2693 119.714 19.2126 119.248 19.2489C119.185 19.2489 119.12 19.2558 119.054 19.2696C118.766 19.3065 118.484 19.3782 118.214 19.4831C117.945 19.5864 117.689 19.7209 117.451 19.884L117.407 19.9156L115.109 21.3785L112.796 21.329C112.302 21.3187 111.81 21.4087 111.352 21.5936C110.893 21.7785 110.477 22.0545 110.128 22.4048C109.437 23.0917 109.025 24.0095 108.969 24.9821C108.969 25.0041 108.969 25.0014 108.969 25.095C108.969 25.1267 108.969 25.1474 108.969 25.1598V25.1791C108.969 25.1722 108.969 25.1612 108.969 25.2025V25.23L108.876 28.9699L107.37 32.6892C107.34 32.7629 107.315 32.8384 107.294 32.9151C107.006 33.7656 107.017 34.6891 107.326 35.5324C107.495 35.9974 107.757 36.4229 108.097 36.7825C108.437 37.1422 108.847 37.4283 109.301 37.6234C109.446 37.6854 109.555 37.7281 109.629 37.7515C109.704 37.7749 109.821 37.8025 109.972 37.8342H109.979L109.983 37.8218ZM113.481 34.7183L111.026 34.2168L110.814 34.1741L110.937 33.8725L112.481 30.0637C112.565 29.8546 112.612 29.6321 112.618 29.4066L112.718 25.4119L112.727 25.0758H113.109L115.612 25.1295C115.981 25.1373 116.345 25.0346 116.656 24.8347L119.404 23.0853L119.693 26.8155C119.705 27.1382 119.8 27.4524 119.969 27.7274L121.593 30.397L121.779 30.6904L121.335 31.0582L118.846 33.1245C118.616 33.2932 118.428 33.5123 118.295 33.765L116.351 37.5077L114.546 35.3519C114.275 35.0267 113.901 34.8032 113.486 34.7183H113.481Z" fill="white" fill-opacity="0.08"/>
<path d="M256.492 288.844C258.86 290.382 260.652 292.333 262.486 294.452C278.299 312.717 262.154 334.045 243.315 342.074C237.984 344.318 232.298 345.602 226.521 345.869C230.791 344.918 237.678 341.196 241.841 338.617C258.197 331.647 273.741 313.184 259.658 296.916C258.857 294.467 256.981 290.099 256.492 288.844Z" fill="white" fill-opacity="0.08"/>
<path d="M202.662 331.165C206.414 336.442 211.4 340.034 216.962 341.55C222.334 343.011 228.277 342.537 234.201 339.77C240.9 336.642 246.599 331.074 250.731 324.188C255.09 316.885 257.569 308.616 257.947 300.12C258.044 297.848 257.62 296.023 256.887 294.629C256.083 293.099 254.908 292.081 253.667 291.571C252.277 291.001 250.684 291.049 249.018 291.611C247.089 292.263 245.09 293.571 243.183 295.401C237.168 301.134 232.904 304.78 227.996 307.221C223.064 309.674 217.607 310.852 209.244 311.629C206.059 311.925 203.641 312.756 201.925 313.971C200.741 314.79 199.816 315.932 199.26 317.26C198.72 318.561 198.538 320.05 198.687 321.657C198.962 324.595 200.333 327.893 202.662 331.169V331.165ZM215.974 345.167C209.574 343.426 203.869 339.332 199.605 333.337C196.896 329.527 195.291 325.594 194.956 321.993C194.751 319.789 195.021 317.701 195.799 315.823C196.624 313.848 197.996 312.148 199.753 310.925C201.988 309.335 205.019 308.265 208.903 307.904C216.763 307.174 221.841 306.093 226.325 303.863C230.833 301.62 234.865 298.161 240.594 292.705C242.913 290.483 245.387 288.878 247.821 288.056C250.333 287.209 252.82 287.17 255.097 288.105C257.094 288.925 258.963 290.52 260.207 292.887C261.232 294.839 261.828 297.307 261.702 300.281C261.298 309.406 258.637 318.288 253.957 326.133C249.446 333.63 243.195 339.716 235.802 343.17C229.027 346.325 222.189 346.859 215.974 345.167Z" fill="white" fill-opacity="0.08"/>
<path d="M196.491 149.764C193.699 149.336 191.263 148.294 188.721 147.118C166.795 136.973 172.742 110.89 186.608 95.824C190.543 91.5873 195.194 88.0774 200.348 85.4556C196.845 88.0825 192.098 94.306 189.365 98.3683C177.325 111.455 170.748 134.671 190.277 143.707C192.017 145.611 195.527 148.822 196.491 149.764Z" fill="white" fill-opacity="0.08"/>
<path d="M228.145 89.048C222.554 85.7806 216.533 84.556 210.84 85.4665C205.342 86.344 200.12 89.2202 195.857 94.1792C191.036 99.7856 188.136 107.203 187.192 115.183C186.224 123.632 187.365 132.189 190.515 140.088C191.361 142.199 192.498 143.688 193.74 144.659C195.102 145.722 196.592 146.166 197.933 146.121C199.434 146.07 200.867 145.37 202.153 144.171C203.644 142.786 204.926 140.77 205.914 138.318V138.312C209.038 130.611 211.424 125.532 214.895 121.29C218.382 117.02 222.871 113.707 230.174 109.56C232.956 107.98 234.818 106.228 235.88 104.41C236.623 103.18 236.999 101.764 236.964 100.328C236.921 98.9205 236.475 97.4893 235.678 96.0856C234.22 93.5194 231.614 91.0784 228.143 89.0508L228.145 89.048ZM210.252 81.7597C216.802 80.7141 223.686 82.0999 230.038 85.8109C234.074 88.1692 237.156 91.0936 238.941 94.2384C240.035 96.1669 240.648 98.1781 240.71 100.21C240.771 102.35 240.22 104.463 239.121 106.3C237.737 108.668 235.416 110.891 232.023 112.817C225.159 116.715 220.976 119.79 217.806 123.666C214.618 127.564 212.366 132.374 209.391 139.708C208.192 142.688 206.597 145.169 204.717 146.918C202.775 148.724 200.524 149.782 198.065 149.866C195.906 149.94 193.547 149.256 191.439 147.61C189.702 146.253 188.143 144.247 187.031 141.484C183.647 133 182.419 123.81 183.458 114.736C184.486 106.046 187.681 97.9301 193 91.7396C197.876 86.0698 203.89 82.7735 210.252 81.7597Z" fill="white" fill-opacity="0.08"/>
<path d="M0 162.1C9.7954 162.816 20.7782 158.963 29.1479 152.766C33.7802 149.301 37.7652 145.047 40.92 140.199C37.9364 143.401 31.2417 147.46 26.9122 149.745C19.3071 155.376 9.00472 159.161 0 158.398V162.1Z" fill="white" fill-opacity="0.08"/>
<path d="M40.3071 112.181C42.9601 118.087 43.5373 124.205 42.0289 129.77C40.5715 135.142 37.1553 140.028 31.7707 143.739C25.6821 147.934 17.9957 150.03 9.96349 150.12C6.62078 150.151 3.2832 149.851 2.46572e-05 149.222V153.04C3.30306 153.63 6.65391 153.909 10.009 153.876C18.7575 153.78 27.1699 151.467 33.8893 146.837C40.0467 142.595 43.963 136.966 45.649 130.749C47.386 124.347 46.7414 117.353 43.7274 110.638C41.8127 106.368 39.2326 102.998 36.2889 100.889C34.4982 99.5959 32.5531 98.7721 30.5392 98.4939C28.4184 98.205 26.2591 98.5281 24.3157 99.4251C21.8128 100.549 19.3566 102.621 17.0783 105.791C12.4733 112.2 8.97033 116.032 4.77722 118.771C3.25483 119.756 1.65488 120.616 -0.00683594 121.342V125.416C2.54154 124.388 4.76071 123.271 6.83385 121.916C11.4443 118.903 15.2228 114.792 20.1239 107.971C21.9904 105.374 23.93 103.709 25.8516 102.847C27.1531 102.239 28.6013 102.016 30.0254 102.203C31.4208 102.396 32.7969 102.993 34.1069 103.934C36.5107 105.661 38.6596 108.514 40.3071 112.181Z" fill="white" fill-opacity="0.08"/>
<path d="M125.825 326.694C117.658 326.062 109.911 322.161 103.975 315.874C98.3425 309.911 94.3327 301.802 93.1549 292.319C93.0709 291.826 92.9992 291.322 92.94 290.81C92.895 290.412 92.8587 290.006 92.8312 289.593C92.463 288.722 92.1411 287.832 91.8669 286.927C91.5597 285.916 91.3095 284.888 91.1176 283.849C90.4357 280.179 90.4577 276.562 91.1699 273.188C91.8497 269.887 93.2619 266.78 95.3024 264.097C96.1889 262.836 97.186 261.658 98.2819 260.574C99.2266 259.639 100.24 258.776 101.312 257.992C102.067 255.658 103.716 253.648 105.751 252.009C108.256 249.99 111.383 248.513 114.054 247.718C116.545 245.334 119.49 243.473 122.713 242.248C125.9 241.04 129.299 240.492 132.704 240.639C135.287 239.284 138.117 238.468 141.024 238.238C144.109 238.007 147.207 238.446 150.106 239.526C151.097 239.891 152.104 240.31 153.082 240.716L153.303 240.809C154.235 240.917 155.131 241.063 155.981 241.244C156.948 241.449 157.903 241.705 158.842 242.011C162.166 243.097 165.256 244.861 167.959 247.035C170.758 249.28 173.154 251.985 175.046 255.034C175.921 256.457 176.698 257.939 177.37 259.468C177.925 260.725 178.381 262.023 178.733 263.351C179.36 264.151 179.936 264.987 180.459 265.857C181.051 266.845 181.566 267.878 181.999 268.945C184.051 273.309 185.31 278.003 185.719 282.807C186.117 287.481 185.613 292.187 184.234 296.67C183.235 299.867 181.737 302.886 179.794 305.614C177.853 308.337 175.492 310.734 172.798 312.714L172.777 312.729C171.697 313.548 170.555 314.281 169.361 314.922C168.314 315.483 167.232 315.975 166.121 316.395C165.781 316.88 165.423 317.359 165.051 317.836C164.596 318.414 164.114 318.983 163.608 319.526C160.42 322.949 155.357 326.387 149.464 328.054C144.73 329.394 139.455 329.608 134.16 327.795C133.626 327.612 133.076 327.397 132.507 327.157C132.109 326.988 131.754 326.829 131.43 326.681C130.641 326.76 129.849 326.802 129.068 326.81C128.011 326.824 126.902 326.777 125.814 326.693L125.825 326.694ZM106.697 313.301C112 318.917 118.887 322.401 126.12 322.96C127.025 323.029 128.007 323.067 129.032 323.055C129.83 323.052 130.628 323.006 131.422 322.917C131.82 322.841 132.233 322.897 132.597 323.076C133.126 323.333 133.6 323.554 133.985 323.719C134.423 323.905 134.886 324.084 135.382 324.253C139.885 325.795 144.391 325.607 148.446 324.46C153.64 322.992 158.089 319.975 160.881 316.976C161.294 316.527 161.708 316.038 162.121 315.526C162.551 314.975 162.96 314.415 163.345 313.851C163.569 313.491 163.91 313.218 164.31 313.078C165.447 312.679 166.552 312.194 167.616 311.626C168.632 311.081 169.605 310.457 170.524 309.759C170.55 309.739 170.576 309.718 170.603 309.699C172.969 307.949 175.043 305.835 176.746 303.435C178.457 301.031 179.778 298.371 180.659 295.555C181.893 291.53 182.342 287.306 181.983 283.112C181.612 278.742 180.466 274.473 178.597 270.505C178.582 270.473 178.569 270.441 178.556 270.41C178.187 269.499 177.747 268.619 177.24 267.777C176.748 266.961 176.202 266.179 175.605 265.436C175.403 265.206 175.261 264.93 175.192 264.632C174.881 263.38 174.461 262.156 173.937 260.977C173.333 259.604 172.636 258.276 171.849 257C170.185 254.313 168.076 251.929 165.613 249.95C163.253 248.031 160.566 246.553 157.681 245.589C156.867 245.323 156.039 245.101 155.202 244.923C154.348 244.74 153.525 244.605 152.746 244.51C152.525 244.502 152.308 244.456 152.104 244.372L151.649 244.185C150.712 243.795 149.748 243.394 148.818 243.051C146.424 242.156 143.865 241.788 141.315 241.974C138.774 242.179 136.306 242.924 134.076 244.16C133.753 244.349 133.382 244.436 133.009 244.412C129.962 244.215 126.909 244.673 124.055 245.757C121.171 246.854 118.549 248.543 116.357 250.716C116.126 250.95 115.837 251.119 115.519 251.205C113.163 251.847 110.325 253.133 108.098 254.932C106.457 256.255 105.176 257.825 104.763 259.566C104.657 260.017 104.387 260.412 104.005 260.675C102.903 261.443 101.869 262.305 100.914 263.251C99.9803 264.173 99.1307 265.176 98.3756 266.25L98.3233 266.321C96.6025 268.575 95.4143 271.188 94.8479 273.966C94.239 276.85 94.2252 279.97 94.8189 283.161C94.9818 284.063 95.1952 284.955 95.4581 285.834C95.7266 286.707 96.0463 287.564 96.4154 288.4C96.5057 288.605 96.558 288.825 96.5697 289.049C96.5931 289.473 96.6303 289.918 96.684 290.385C96.7327 290.805 96.7956 291.242 96.8728 291.693C96.881 291.735 96.8893 291.779 96.8934 291.822C97.9431 300.496 101.581 307.893 106.692 313.301H106.697Z" fill="white" fill-opacity="0.08"/>
<path d="M177.849 263.82C177.984 263.923 178.098 264.052 178.184 264.2C178.27 264.347 178.326 264.51 178.349 264.679C178.371 264.848 178.361 265.02 178.317 265.185C178.273 265.349 178.197 265.504 178.094 265.64C177.991 265.775 177.862 265.889 177.714 265.975C177.567 266.061 177.404 266.117 177.235 266.139C177.066 266.162 176.894 266.151 176.729 266.108C176.564 266.064 176.41 265.988 176.274 265.885C170.351 261.382 162.9 258.27 154.774 256.945C147.623 255.792 140.316 256.031 133.255 257.649C138.102 259.935 142.786 263.287 147.03 267.542C152.366 272.895 157.006 279.676 160.392 287.557C162.264 291.897 163.676 296.422 164.604 301.056C165.504 305.533 165.894 310.097 165.767 314.662C165.757 315.004 165.611 315.329 165.362 315.564C165.112 315.799 164.78 315.926 164.437 315.916C164.095 315.905 163.77 315.76 163.535 315.51C163.3 315.261 163.174 314.929 163.184 314.586C163.301 310.218 162.924 305.85 162.06 301.566C161.169 297.11 159.812 292.759 158.011 288.586C154.749 280.999 150.297 274.486 145.192 269.363C140.249 264.404 134.69 260.745 129.005 258.676C123.158 267.906 120.889 279.048 121.461 290.057C122.121 302.758 126.558 315.246 133.632 324.386C133.736 324.52 133.813 324.674 133.857 324.838C133.901 325.003 133.913 325.174 133.891 325.342C133.869 325.511 133.814 325.674 133.729 325.821C133.645 325.968 133.532 326.098 133.397 326.201C133.125 326.411 132.781 326.504 132.44 326.459C132.1 326.415 131.791 326.238 131.581 325.966C124.187 316.42 119.557 303.404 118.871 290.191C118.32 279.722 120.249 269.107 125.241 259.967C118.906 262.599 113.149 266.449 108.297 271.298C102.677 276.912 98.5295 283.605 96.3545 290.534C96.304 290.696 96.2221 290.847 96.1133 290.978C96.0046 291.109 95.8711 291.217 95.7205 291.296C95.5699 291.375 95.4052 291.424 95.2358 291.439C95.0664 291.455 94.8956 291.437 94.7331 291.386C94.4051 291.284 94.1312 291.056 93.9716 290.751C93.812 290.447 93.7797 290.092 93.8819 289.764C96.1809 282.435 100.552 275.374 106.465 269.468C111.163 264.774 116.669 260.967 122.72 258.23C119.855 258.054 116.981 258.135 114.131 258.472C110.007 258.963 105.962 259.972 102.092 261.477C101.933 261.539 101.764 261.569 101.594 261.566C101.424 261.563 101.256 261.526 101.1 261.458C100.944 261.39 100.803 261.292 100.685 261.17C100.567 261.047 100.475 260.902 100.413 260.744C100.287 260.424 100.294 260.067 100.432 259.752C100.57 259.437 100.827 259.19 101.147 259.065C105.221 257.478 109.479 256.414 113.82 255.896C117.441 255.465 121.098 255.427 124.727 255.785C123.428 254.964 122.083 254.218 120.698 253.552C118.672 252.574 116.562 251.784 114.393 251.19C114.062 251.099 113.781 250.882 113.611 250.584C113.44 250.286 113.395 249.933 113.485 249.603C113.575 249.272 113.793 248.991 114.091 248.82C114.388 248.65 114.741 248.605 115.072 248.695C117.394 249.328 119.653 250.171 121.822 251.216C123.719 252.13 125.547 253.183 127.29 254.365C127.774 252.396 128.394 250.462 129.146 248.579C130.169 246.012 131.458 243.559 132.99 241.259C133.181 240.975 133.476 240.778 133.812 240.71C134.147 240.643 134.496 240.711 134.781 240.9C135.065 241.09 135.263 241.386 135.33 241.721C135.397 242.057 135.328 242.405 135.139 242.69C133.705 244.842 132.5 247.137 131.544 249.539C130.978 250.972 130.494 252.435 130.095 253.923C133.136 251.284 136.441 248.966 139.958 247.005C144.032 244.724 148.371 242.953 152.877 241.733C153.21 241.644 153.564 241.691 153.862 241.863C154.16 242.035 154.378 242.318 154.467 242.65C154.556 242.983 154.51 243.337 154.338 243.635C154.166 243.933 153.883 244.151 153.551 244.24C149.248 245.403 145.104 247.092 141.214 249.268C138.201 250.95 135.349 252.906 132.696 255.113C140.079 253.427 147.718 253.181 155.194 254.389C163.743 255.784 171.595 259.066 177.849 263.82Z" fill="white" fill-opacity="0.08"/>
<path d="M0 422.818C2.67669 422.963 5.35996 422.703 7.95923 422.048C11.2291 421.229 14.2734 419.686 16.8675 417.534C18.0892 416.595 19.2242 415.549 20.2589 414.407C21.1514 413.421 21.97 412.371 22.7081 411.265C25.0058 410.409 26.9439 408.675 28.4936 406.572C30.4028 403.981 31.7431 400.795 32.4222 398.09C34.6967 395.499 36.4275 392.477 37.5121 389.204C38.5836 385.967 38.9839 382.546 38.6885 379.148C39.9314 376.51 40.6259 373.647 40.7299 370.732C40.8271 367.64 40.2543 364.563 39.0508 361.713C38.6375 360.74 38.1816 359.752 37.7325 358.792L37.632 358.574C37.4818 357.65 37.2986 356.76 37.081 355.918C36.834 354.962 36.537 354.019 36.1911 353.093C34.9624 349.819 33.0669 346.809 30.7775 344.201C28.4137 341.502 25.6081 339.225 22.4808 337.467C21.0215 336.653 19.5077 335.941 17.9502 335.336C16.6706 334.836 15.3538 334.436 14.012 334.141C13.1871 333.55 12.3263 333.01 11.4347 332.526C10.4215 331.977 9.36728 331.507 8.28155 331.121C5.61448 330.011 2.83895 329.182 0 328.648V332.471C2.35247 332.958 4.65323 333.668 6.87102 334.592C6.9027 334.606 6.93435 334.618 6.96741 334.629C7.89247 334.959 8.79054 335.36 9.65353 335.829C10.4919 336.285 11.2986 336.797 12.0683 337.362C12.3085 337.555 12.5923 337.685 12.8948 337.742C14.1605 338 15.4008 338.369 16.6016 338.844C17.9985 339.388 19.3563 340.028 20.6653 340.759C23.4208 342.304 25.8933 344.307 27.977 346.682C29.9969 348.957 31.5888 351.578 32.6757 354.42C32.9768 355.221 33.2347 356.038 33.4485 356.867C33.6675 357.713 33.8383 358.529 33.9609 359.303C33.9799 359.523 34.0373 359.739 34.1304 359.939C34.1992 360.087 34.2681 360.234 34.3384 360.384C34.7681 361.303 35.2103 362.249 35.5919 363.163C36.5904 365.516 37.0684 368.057 36.9928 370.612C36.8981 373.16 36.2603 375.659 35.1222 377.94C34.9462 378.27 34.8742 378.645 34.9155 379.016C35.2437 382.05 34.9173 385.12 33.9582 388.017C32.9854 390.945 31.4102 393.638 29.3339 395.921C29.1104 396.163 28.9546 396.459 28.8821 396.78C28.3421 399.161 27.1754 402.052 25.4783 404.357C24.2289 406.051 22.7109 407.4 20.9917 407.887C20.5455 408.012 20.162 408.299 19.9159 408.692C19.1963 409.827 18.3801 410.897 17.4764 411.892C16.5936 412.865 15.6255 413.757 14.5836 414.557L14.5134 414.614C12.3364 416.43 9.77627 417.729 7.02525 418.414C4.73073 418.99 2.36085 419.206 0 419.056V422.818Z" fill="white" fill-opacity="0.08"/>
<path d="M13.5739 335.029C13.4648 334.898 13.331 334.79 13.1801 334.711C13.0292 334.632 12.8642 334.583 12.6945 334.567C12.5247 334.552 12.3536 334.57 12.1908 334.621C12.0281 334.671 11.8769 334.754 11.7459 334.863C11.4813 335.083 11.3151 335.4 11.2838 335.743C11.2525 336.086 11.3588 336.427 11.5793 336.692C16.3344 342.416 19.7644 349.726 21.4394 357.786C22.8999 364.881 22.9761 372.192 21.664 379.316C19.1707 374.571 15.6195 370.037 11.1867 365.985C7.77195 362.88 4.01958 360.168 0 357.9V360.899C3.37509 362.908 6.53913 365.253 9.44415 367.897C14.6139 372.621 18.5081 378.017 20.8209 383.607C14.6387 387.91 7.47018 390.552 0 391.747V394.364C6.95775 393.299 13.6896 391.036 19.6982 387.417C17.3403 393.857 13.7424 399.773 9.10805 404.829C6.39528 407.798 3.33923 410.433 0.00417017 412.68V415.762C4.07418 413.214 7.77871 410.125 11.0159 406.578C15.5026 401.682 19.0683 396.016 21.5414 389.853C21.8408 392.707 21.8837 395.582 21.6695 398.444C21.3585 402.585 20.5254 406.67 19.19 410.602C19.1347 410.763 19.1116 410.933 19.1222 411.103C19.1328 411.273 19.1768 411.439 19.2516 411.591C19.3265 411.744 19.4308 411.881 19.5585 411.993C19.6862 412.106 19.8348 412.192 19.9958 412.247C20.1567 412.302 20.3269 412.325 20.4967 412.314C20.6665 412.304 20.8326 412.26 20.9854 412.185C21.1382 412.11 21.2747 412.006 21.3871 411.878C21.4995 411.75 21.5856 411.602 21.6405 411.441C23.0496 407.301 23.929 402.999 24.2578 398.638C24.5329 395.002 24.4123 391.347 23.8983 387.737C24.7749 388.999 25.5779 390.311 26.3034 391.665C27.368 393.647 28.2487 395.722 28.9344 397.864C28.9861 398.026 29.0691 398.176 29.1788 398.306C29.2884 398.435 29.4225 398.542 29.5735 398.62C29.7245 398.698 29.8893 398.745 30.0586 398.759C30.2278 398.773 30.3981 398.753 30.5599 398.702C30.7216 398.65 30.8716 398.567 31.0014 398.458C31.1311 398.348 31.2379 398.214 31.3158 398.063C31.3937 397.913 31.4412 397.748 31.4554 397.579C31.4696 397.41 31.4504 397.239 31.3988 397.078C30.6659 394.784 29.7253 392.563 28.5887 390.441C27.5926 388.585 26.4623 386.804 25.2069 385.113C27.1538 384.544 29.0589 383.842 30.9084 383.009C33.4287 381.876 35.8238 380.482 38.0549 378.852C38.1917 378.751 38.3074 378.625 38.3953 378.479C38.4832 378.334 38.5417 378.173 38.5672 378.005C38.5928 377.837 38.5851 377.665 38.5444 377.5C38.5038 377.335 38.431 377.18 38.3303 377.043C38.2297 376.906 38.1031 376.791 37.9577 376.703C37.8123 376.615 37.651 376.556 37.4831 376.531C37.3151 376.505 37.1438 376.513 36.9788 376.554C36.8139 376.594 36.6585 376.667 36.5217 376.768C34.4337 378.293 32.1923 379.595 29.8339 380.655C28.4319 381.287 26.9952 381.839 25.5306 382.308C28.0347 379.155 30.2084 375.753 32.0173 372.156C34.1198 367.987 35.7007 363.575 36.7242 359.02C36.7959 358.685 36.7323 358.336 36.5473 358.048C36.3622 357.76 36.0708 357.557 35.7365 357.483C35.4004 357.408 35.0484 357.47 34.7578 357.654C34.4672 357.839 34.2619 358.132 34.1868 358.468C33.2108 362.817 31.7025 367.029 29.6962 371.01C28.1464 374.093 26.3148 377.026 24.2247 379.772C25.5906 372.323 25.5064 364.68 23.9768 357.262C22.2122 348.781 18.5935 341.078 13.5739 335.029Z" fill="white" fill-opacity="0.08"/>
<path d="M269.577 58.5655C261.399 58.0889 253.58 54.3352 247.525 48.1626C241.78 42.3068 237.622 34.2746 236.261 24.8112C236.169 24.3208 236.088 23.8199 236.017 23.3084C235.964 22.9116 235.918 22.5067 235.879 22.0934C235.493 21.2296 235.153 20.3458 234.861 19.4459C234.534 18.4409 234.264 17.4181 234.053 16.3823C233.301 12.7264 233.255 9.10909 233.903 5.7232C234.234 3.97428 234.766 2.26925 235.487 0.641602H239.67C238.671 2.44315 237.969 4.39389 237.59 6.41884C237.039 9.31159 237.08 12.433 237.728 15.6123C237.908 16.5116 238.137 17.4001 238.417 18.2736C238.702 19.1415 239.038 19.9919 239.422 20.8206C239.517 21.0235 239.573 21.242 239.589 21.4653C239.621 21.8895 239.666 22.3345 239.727 22.8001C239.783 23.2188 239.854 23.6537 239.941 24.1046C239.95 24.1459 239.958 24.1886 239.965 24.2327C241.205 32.8944 244.979 40.2117 250.191 45.5316C255.601 51.0416 262.55 54.3972 269.792 54.8187C270.697 54.8724 271.68 54.8917 272.704 54.86C273.502 54.8391 274.299 54.7761 275.091 54.6713C275.488 54.5881 275.902 54.6364 276.269 54.809C276.803 55.057 277.28 55.2691 277.67 55.4262C278.111 55.6039 278.576 55.7733 279.076 55.9345C283.607 57.3905 288.109 57.1177 292.142 55.8931C297.306 54.3255 301.696 51.2262 304.433 48.1791C304.847 47.7232 305.246 47.2259 305.64 46.7052C306.053 46.1542 306.457 45.5798 306.832 45.0081C307.048 44.6444 307.383 44.3654 307.779 44.2174C308.908 43.7976 310.002 43.291 311.052 42.7022C312.059 42.1385 313.019 41.4965 313.924 40.782C313.949 40.7598 313.975 40.7391 314.003 40.72C316.335 38.9256 318.367 36.7724 320.024 34.3408C321.69 31.9045 322.96 29.2201 323.787 26.3871C324.945 22.3401 325.314 18.1084 324.875 13.9221C324.422 9.56151 323.195 5.31671 321.251 1.38683C321.236 1.35652 321.222 1.32484 321.209 1.29316C321.117 1.07827 321.022 0.866134 320.923 0.656754H325.056C326.948 4.72807 328.151 9.08576 328.614 13.5515C329.1 18.2168 328.685 22.932 327.392 27.4409C326.454 30.6562 325.012 33.7027 323.122 36.4676C321.238 39.2215 318.929 41.6587 316.281 43.6885L316.261 43.7036C315.198 44.5441 314.071 45.2999 312.89 45.9641C311.854 46.5448 310.782 47.0569 309.679 47.4973C309.347 47.989 308.998 48.4794 308.636 48.9588C308.193 49.5456 307.721 50.1242 307.227 50.6752C304.103 54.1589 299.107 57.6921 293.247 59.4719C288.538 60.9003 283.268 61.2144 277.94 59.5022C277.403 59.33 276.847 59.1247 276.28 58.8961C275.879 58.7349 275.521 58.5834 275.194 58.4401C274.408 58.5352 273.614 58.5903 272.835 58.6151C271.776 58.6467 270.667 58.622 269.577 58.5655Z" fill="white" fill-opacity="0.08"/>
<path d="M291.276 0.641602C296.04 5.62264 300.218 11.7429 303.398 18.7723C305.353 23.0763 306.851 27.5737 307.867 32.1905C308.851 36.6494 309.328 41.2053 309.287 45.7713C309.286 45.9409 309.251 46.1086 309.184 46.2648C309.118 46.4209 309.021 46.5625 308.9 46.6813C308.779 46.8001 308.636 46.8939 308.478 46.9574C308.321 47.0208 308.152 47.0526 307.983 47.051C307.64 47.047 307.313 46.9073 307.073 46.6625C306.833 46.4177 306.7 46.0878 306.703 45.7451C306.738 41.375 306.278 37.0151 305.332 32.7484C304.358 28.3101 302.92 23.9864 301.043 19.8481C297.638 12.3228 293.064 5.89676 287.862 0.871644L287.618 0.641602H291.276ZM266.895 0.641602C264.731 7.46023 264.016 14.7775 264.53 22.0121C265.429 34.6989 270.099 47.1005 277.35 56.1039C277.456 56.2364 277.536 56.3887 277.583 56.5519C277.631 56.7151 277.646 56.8861 277.627 57.0551C277.609 57.2241 277.557 57.3878 277.475 57.5368C277.393 57.6859 277.283 57.8173 277.15 57.9236C276.882 58.1382 276.539 58.2376 276.198 58.1999C275.857 58.1622 275.544 57.9904 275.329 57.7224C267.753 48.3183 262.879 35.3932 261.943 22.1953C261.426 14.9221 262.104 7.55803 264.182 0.641602H266.895ZM254.004 0.641602C252.965 1.55993 251.969 2.515 251.016 3.5068C245.506 9.22618 241.484 15.9952 239.445 22.9654C239.398 23.1303 239.319 23.2844 239.212 23.4185C239.106 23.5526 238.973 23.6642 238.823 23.7467C238.672 23.8292 238.507 23.8811 238.337 23.8992C238.166 23.9174 237.994 23.9015 237.829 23.8525C237.499 23.7565 237.221 23.5334 237.055 23.2322C236.89 22.931 236.851 22.5764 236.946 22.2463C239.106 14.8767 243.342 7.73297 249.143 1.72156C249.492 1.36249 249.845 1.00618 250.202 0.652622L254.004 0.641602Z" fill="white" fill-opacity="0.08"/>
<path d="M70.4722 23.2753C73.9738 30.6821 74.427 39.3438 71.9103 47.6157C69.5245 55.4675 64.4718 62.9638 56.8143 68.6915C56.4286 69.0097 56.0263 69.321 55.6117 69.6254C55.2885 69.8624 54.9542 70.0951 54.6089 70.3238C54.0358 71.0769 53.4228 71.7988 52.7727 72.4865C52.0486 73.2558 51.2815 73.9834 50.475 74.6657C47.6263 77.0777 44.4746 78.8519 41.1921 79.9002C37.9889 80.9494 34.591 81.2658 31.2492 80.8259C29.7152 80.6811 28.1972 80.3999 26.7131 79.9856C25.4324 79.6275 24.1801 79.1749 22.9663 78.6315C20.5654 79.1329 18.0073 78.6976 15.5705 77.743C12.5731 76.568 9.74094 74.5858 7.72704 72.6587C4.95908 71.836 2.34846 70.5555 0.00341797 68.8706V64.0218C0.345038 64.3432 0.698129 64.6549 1.06271 64.9571C3.44701 66.9175 6.21555 68.3567 9.18996 69.1819C9.50794 69.2672 9.79779 69.435 10.0302 69.6681C11.7549 71.3955 14.284 73.2193 16.9467 74.2648C18.9069 75.0335 20.9097 75.3668 22.6233 74.8627C23.0675 74.7312 23.5447 74.7695 23.9623 74.9701C25.1757 75.5469 26.4367 76.0179 27.7311 76.3779C28.9928 76.7316 30.2836 76.9718 31.5881 77.0956L31.6763 77.1066C34.4865 77.4837 37.3456 77.2195 40.0391 76.3338C42.845 75.4316 45.5615 73.8971 48.0382 71.8005C48.7412 71.2115 49.4103 70.5833 50.0425 69.9188C50.6676 69.253 51.2531 68.5511 51.796 67.8168C51.9291 67.637 52.0933 67.4826 52.2809 67.3608C52.6391 67.1312 53.0064 66.8773 53.3829 66.5991C53.7245 66.3493 54.0721 66.0784 54.4257 65.7863C54.4574 65.7588 54.4918 65.7312 54.5262 65.7051C61.5349 60.4706 66.1537 53.6423 68.3192 46.5206C70.5672 39.1303 70.1774 31.4246 67.0794 24.8677C66.6909 24.0412 66.2377 23.1747 65.7184 22.2918C65.3176 21.6005 64.8803 20.931 64.4084 20.2861C64.1445 19.9768 63.9884 19.59 63.9635 19.1841C63.9249 18.5959 63.8822 18.0821 63.834 17.6592C63.7789 17.1868 63.7045 16.695 63.6054 16.1812C62.7127 11.5059 60.3159 7.68614 57.3074 4.73278C55.6896 3.15579 53.8855 1.78192 51.9352 0.641602H58.3736C58.9062 1.09526 59.4255 1.57004 59.9315 2.06594C63.4428 5.50969 66.2433 9.98794 67.2943 15.4855C67.4004 16.0365 67.4858 16.6247 67.5574 17.2322C67.6084 17.662 67.6469 18.0491 67.6772 18.4031C68.1387 19.0491 68.5671 19.7186 68.9624 20.3908C69.4969 21.3027 70.0066 22.289 70.4722 23.2753Z" fill="white" fill-opacity="0.08"/>
<path d="M-0.000779907 41.9363C1.96348 45.1955 4.25017 48.2491 6.82477 51.0512C6.41152 45.7079 6.99693 39.9789 8.58795 34.1865C10.5908 26.8995 14.1792 19.5078 19.3448 12.6575C22.1873 8.87892 25.4188 5.40925 28.986 2.30562C29.6444 1.73442 30.3107 1.17974 30.9847 0.641602H35.288C33.7269 1.7537 32.1946 2.96039 30.6913 4.26167C27.2612 7.24437 24.1536 10.5787 21.4194 14.21C16.4466 20.8054 12.9987 27.8982 11.0881 34.8725C9.2326 41.6222 8.81114 48.2659 9.83187 54.2291C20.7444 54.7319 31.5495 51.1766 40.8256 45.2216C51.5288 38.352 60.1753 28.3101 64.6026 17.6303C64.7363 17.3146 64.9898 17.0647 65.3074 16.9356C65.625 16.8065 65.9809 16.8086 66.297 16.9416C66.4539 17.0071 66.5964 17.1029 66.7163 17.2236C66.8362 17.3442 66.9312 17.4873 66.9958 17.6446C67.0604 17.802 67.0933 17.9705 67.0928 18.1406C67.0922 18.3106 67.0582 18.479 66.9926 18.6359C62.3683 29.7936 53.3553 40.2626 42.2265 47.4119C33.4023 53.0748 23.2294 56.6632 12.8197 56.8656C18.2463 61.0599 24.4432 64.1488 31.0591 65.9571C38.7222 68.0551 46.5891 68.3388 53.6859 66.7905C53.852 66.7538 54.0237 66.7502 54.1912 66.7799C54.3586 66.8096 54.5186 66.8721 54.6619 66.9637C54.8052 67.0553 54.929 67.1743 55.0263 67.3138C55.1235 67.4533 55.1923 67.6107 55.2287 67.7768C55.2655 67.9429 55.2692 68.1146 55.2396 68.2821C55.2099 68.4495 55.1476 68.6095 55.0562 68.7529C54.9647 68.8963 54.8459 69.0203 54.7065 69.1178C54.5671 69.2152 54.4099 69.2843 54.2438 69.321C46.7392 70.9575 38.4412 70.6627 30.3773 68.4559C23.9721 66.7052 17.9359 63.8119 12.5593 59.9154C13.8246 62.4866 15.3178 64.9392 17.021 67.2437C19.4914 70.582 22.374 73.5947 25.6001 76.2099C25.7327 76.3165 25.843 76.4482 25.9246 76.5975C26.0062 76.7467 26.0575 76.9107 26.0757 77.0798C26.0939 77.249 26.0785 77.4201 26.0304 77.5833C25.9824 77.7465 25.9026 77.8986 25.7957 78.0309C25.5797 78.2982 25.2666 78.4689 24.9249 78.5055C24.5833 78.5422 24.241 78.4419 23.9733 78.2265C20.5768 75.4724 17.5424 72.2996 14.9423 68.7838C12.7706 65.8529 10.9232 62.6951 9.43234 59.3658C9.36355 60.9011 9.38335 62.4391 9.49159 63.9722C9.64683 66.2157 10.0064 68.4404 10.566 70.6186C10.6518 70.9507 10.6022 71.3033 10.4281 71.5988C10.254 71.8943 9.96968 72.1086 9.63762 72.1945C9.30572 72.2799 8.9535 72.23 8.6583 72.056C8.3631 71.8819 8.14902 71.5978 8.06311 71.266C7.46062 68.9352 7.07289 66.5541 6.90468 64.1526C6.75768 62.0514 6.7655 59.9423 6.92809 57.8423C4.97722 58.3981 2.99027 58.8183 0.981429 59.0999C0.652665 59.1459 0.323881 59.1872 -0.00488281 59.2239V56.6191C0.205875 56.5929 0.418023 56.5667 0.628781 56.5364C2.15185 56.3244 3.66172 56.0264 5.15112 55.6438C3.38792 55.0248 1.66924 54.3283 -0.00488281 53.5541V50.6876C1.58108 51.4608 3.2148 52.1629 4.89627 52.7938C3.13019 50.8696 1.49291 48.8311 -0.00488281 46.6914L-0.000779907 41.9363Z" fill="white" fill-opacity="0.08"/>
</g>
</g>
<defs>
<clipPath id="clip0_999_8">
<rect width="551" height="551" fill="white" transform="translate(0 0.641602)"/>
</clipPath>
</defs>
</svg>
