<svg width="58" height="79" viewBox="0 0 58 79" fill="none" xmlns="http://www.w3.org/2000/svg">
<path d="M28.1316 12.7012C27.5427 12.7366 27.0369 12.2857 27.0016 11.6968C26.9662 11.1079 27.4171 10.6021 28.006 10.5668C31.6773 10.351 35.2318 11.2653 38.2576 13.0691C41.2798 14.8693 43.7751 17.5591 45.3313 20.8926C47.4304 25.3862 47.51 30.3042 45.9432 34.6227C44.3746 38.9412 41.1578 42.6637 36.6642 44.7628C32.1707 46.862 27.2527 46.9415 22.9342 45.3747C18.6157 43.8061 14.8931 40.5894 12.794 36.0958C10.6949 31.6022 10.6153 26.6842 12.1821 22.3657C13.7507 18.0472 16.9675 14.3247 21.4611 12.2255C21.9951 11.9762 22.63 12.2061 22.8794 12.7401C23.1287 13.2742 22.8988 13.9091 22.3647 14.1584C18.407 16.0082 15.5722 19.2869 14.1911 23.0943C12.8082 26.9017 12.8789 31.2361 14.7269 35.1921C16.5767 39.1499 19.8553 41.9846 23.6628 43.3658C27.4702 44.7487 31.8046 44.678 35.7606 42.83C39.7183 40.9802 42.5531 37.7015 43.9342 33.8941C45.3172 30.0867 45.2464 25.7522 43.3984 21.7963C42.0261 18.8607 39.8262 16.4892 37.1612 14.9012C34.4979 13.3149 31.3678 12.5103 28.1316 12.6995V12.7012Z" fill="white"/>
<path d="M16.6825 27.2738L19.6428 24.3134C20.062 23.8943 20.7393 23.8943 21.1584 24.3134L26.2285 29.3835L36.3333 19.2787C36.7524 18.8596 37.4297 18.8596 37.8488 19.2787L40.8092 22.239C41.2283 22.6582 41.2283 23.3355 40.8092 23.7546L29.9475 34.6163L26.9871 37.5766C26.568 37.9957 25.8907 37.9957 25.4716 37.5766L22.5112 34.6163L16.6825 28.7875C16.2634 28.3684 16.2634 27.6911 16.6825 27.272V27.2738ZM25.5264 31.7107L24.7147 30.899L20.4015 26.5858L18.9549 28.0324L23.2681 32.3456L24.7837 33.8611L24.7872 33.8647L24.8261 33.9036L24.865 33.9425L24.9039 33.9814L24.9428 34.0203L24.9817 34.0592L25.0206 34.0981L25.0595 34.137L25.0984 34.1759L25.1374 34.2148L25.1763 34.2537L25.2152 34.2926L25.2541 34.3316L25.293 34.3705L25.3319 34.4094L25.3708 34.4483L26.2249 35.3024L26.5769 34.9505L26.6334 34.8939L26.69 34.8373L26.7024 34.8249L26.7183 34.809L26.7342 34.7931L26.7484 34.779L26.7643 34.763L26.7802 34.7471L26.7961 34.7312L26.8068 34.7206L26.8103 34.7171L26.8262 34.7012L26.8421 34.6852L26.858 34.6693L26.8651 34.6622L26.8722 34.6552L26.8881 34.6393L26.904 34.6233L26.9199 34.6074L26.9252 34.6021L26.9358 34.5915L26.9518 34.5756L26.9677 34.5597L26.9836 34.5438L26.9854 34.542L26.9995 34.5278L27.0154 34.5119L27.0313 34.496L27.0437 34.4836L27.0455 34.4819L27.0614 34.466L27.0773 34.45L27.0932 34.4341L27.1038 34.4235L27.1092 34.4182L27.1251 34.4023L27.141 34.3864L27.1569 34.3705L27.164 34.3634L27.1728 34.3545L27.1887 34.3386L27.2046 34.3227L27.2206 34.3068L27.2241 34.3033L27.2365 34.2909L27.2524 34.275L27.2683 34.259L27.2842 34.2431L27.2984 34.2272L27.3143 34.2113L27.3302 34.1954L27.3426 34.183L27.3461 34.1795L27.362 34.1636L27.378 34.1476L27.3939 34.1317L27.4027 34.1229L27.4098 34.1158L27.4257 34.0999L27.4416 34.084L27.4575 34.0681L27.4628 34.0628L27.4717 34.0539L27.4876 34.038L27.5035 34.0221L27.5194 34.0062L27.5212 34.0044L27.5336 33.992L27.5495 33.9761L27.5654 33.9602L27.5796 33.946L27.5813 33.9443L27.5972 33.9284L27.6132 33.9124L27.6291 33.8965L27.6397 33.8859L27.6432 33.8824L27.6591 33.8665L27.675 33.8505L27.691 33.8346L27.698 33.8276L27.7051 33.8205L38.5668 22.9588L37.1202 21.5122L26.8722 31.7603C26.5344 32.098 25.9827 32.098 25.6449 31.7603L25.5565 31.6718L25.5264 31.7107Z" fill="white"/>
<path d="M29.0131 56.8234C28.3252 56.7863 27.6037 56.613 26.8309 56.2911C26.104 55.9887 25.3224 55.5519 24.4665 54.9684C23.8652 54.5581 23.2463 54.093 22.6185 53.6208C21.5486 52.8144 20.4468 51.985 19.5343 51.5111C18.3123 50.8762 17.269 50.8249 16.0099 50.7613L15.596 50.74C14.7755 50.6958 13.8612 50.6269 12.9575 50.4783C12.0114 50.3227 11.0777 50.0822 10.2642 49.6984C9.3924 49.2846 8.66911 48.7152 8.10321 47.9831C7.555 47.2739 7.16418 46.4215 6.94313 45.4224C6.67079 44.1969 6.66371 42.7963 6.65841 41.5C6.65487 40.8952 6.6531 40.3134 6.61774 39.7669C6.57176 39.0843 6.46919 38.5414 6.27289 38.0392C6.07306 37.5299 5.76535 37.033 5.3144 36.4476C4.93242 35.9542 4.44787 35.3954 3.95095 34.8207C3.12509 33.8675 2.26387 32.8754 1.66967 31.9452C1.14976 31.1317 0.852661 30.3907 0.700576 29.7011C0.543186 28.9884 0.539649 28.3535 0.606849 27.7611C0.675818 27.1616 0.815524 26.5939 1.0967 25.9803C1.36197 25.4002 1.74925 24.7972 2.32046 24.1022C2.75195 23.5752 3.24534 23.0412 3.75288 22.4929C4.53453 21.6459 5.34977 20.7634 5.82371 20.056C6.48687 19.0675 6.52931 18.2611 6.59298 17.0179L6.60005 16.8676C6.64073 16.0895 6.69555 15.1681 6.79635 14.2574C6.90245 13.3024 7.05631 12.3404 7.29504 11.511C7.5497 10.625 7.90161 9.88052 8.34903 9.25803C8.81412 8.61079 9.37295 8.11032 10.0237 7.73541C10.6498 7.37466 11.3465 7.13592 12.1034 6.96615C12.8178 6.80522 13.5659 6.70619 14.3493 6.61954C14.5562 6.59655 14.993 6.55234 15.4351 6.50813C16.5899 6.39141 17.7571 6.27116 18.6643 6.07486C19.1877 5.96168 19.6051 5.82198 20.0118 5.608C20.4398 5.38341 20.8854 5.06155 21.4442 4.59469C21.8315 4.27107 22.1728 3.96866 22.5318 3.64858C23.6017 2.69893 24.8166 1.62196 25.9555 0.941116C26.8149 0.426504 27.6249 0.140019 28.4154 0.0409868C29.2306 -0.061582 29.9981 0.0321446 30.7568 0.279725C31.4694 0.511389 32.1733 0.879221 32.8506 1.32663C33.5031 1.75813 34.1292 2.25859 34.7163 2.78382C34.9798 3.01902 35.2822 3.30374 35.581 3.58668C36.322 4.28521 37.0418 4.96252 37.7827 5.37103C38.262 5.63629 38.7907 5.81137 39.3726 5.93692C40.0145 6.07663 40.7024 6.15975 41.4505 6.23402C41.8324 6.27293 42.0358 6.29061 42.2286 6.31006H42.2321C43.6628 6.44446 45.2013 6.58947 46.4604 6.92194C47.2863 7.13946 47.9936 7.43655 48.5984 7.86097C49.2333 8.30839 49.7373 8.88489 50.1175 9.64355C50.4641 10.3332 50.694 11.1609 50.8567 12.0504C51.0088 12.8851 51.1043 13.7817 51.1839 14.673C51.2847 15.803 51.2228 15.0815 51.2458 15.3503C51.3678 16.7738 51.4845 18.1426 51.8064 19.0958C52.1371 20.079 52.779 20.7899 53.6296 21.7343L53.7446 21.8634C54.2291 22.4028 54.7826 23.027 55.3485 23.7344C55.9003 24.4258 56.4096 25.1385 56.7615 25.8105C57.147 26.5462 57.3504 27.2306 57.4194 27.8937C57.4883 28.5657 57.4211 29.1971 57.2637 29.8231C57.1134 30.4173 56.8782 31.0168 56.5546 31.6233C56.2416 32.2105 55.8508 32.794 55.3821 33.3776C54.8622 34.0249 54.2539 34.6597 53.6862 35.2557C53.2812 35.6801 52.8975 36.0815 52.6004 36.4317C52.2998 36.7854 52.0911 37.0807 51.9478 37.4309C51.7887 37.8181 51.6755 38.3327 51.5659 39.1109C51.4739 39.7758 51.3908 40.584 51.3059 41.4293C51.1627 42.8511 51.0088 44.3737 50.7913 45.4807C50.5915 46.5011 50.328 47.2332 49.9336 47.8274C49.5145 48.4588 48.984 48.8867 48.2677 49.2793C47.6382 49.6242 46.8477 49.9442 46.0042 50.2024C45.1818 50.4553 44.2941 50.6552 43.4452 50.7683C42.607 50.8797 41.8289 50.9045 41.1162 50.9257C40.4778 50.9452 39.8978 50.9629 39.4415 51.046C39.0401 51.1185 38.7006 51.2547 38.3486 51.458C37.956 51.6844 37.5263 52.0115 36.994 52.4307C36.6863 52.6729 36.4741 52.8409 36.2566 53.0142C35.2415 53.8224 34.0584 54.765 33.0133 55.4617C32.3148 55.9268 31.687 56.277 31.0645 56.5069C30.3889 56.7545 29.7293 56.8641 29.0131 56.8252V56.8234ZM27.6514 54.3176C28.1979 54.5457 28.6842 54.666 29.1227 54.6907C29.5348 54.7119 29.9221 54.6465 30.3288 54.498C30.7868 54.3299 31.2714 54.0576 31.8249 53.688C32.7692 53.0584 33.9293 52.1336 34.925 51.3413C35.2291 51.099 35.5138 50.8727 35.6695 50.7489C36.2637 50.2802 36.7588 49.9089 37.2752 49.61C37.834 49.2864 38.3875 49.0689 39.0542 48.9469C39.6661 48.8354 40.3275 48.8142 41.0561 48.793C41.7122 48.7735 42.4284 48.7523 43.1676 48.6533C43.8891 48.5578 44.6566 48.3827 45.3746 48.1634C46.089 47.9442 46.7416 47.6824 47.2438 47.4083C47.6541 47.1837 47.9441 46.9574 48.1475 46.6514C48.3756 46.3066 48.5419 45.8132 48.6869 45.0758C48.8938 44.02 49.0406 42.5734 49.1767 41.2241C49.2669 40.3364 49.3518 39.4875 49.4455 38.8208C49.5781 37.8712 49.7338 37.2045 49.969 36.6298C50.2201 36.0161 50.5296 35.5634 50.9646 35.0523C51.2971 34.6597 51.7056 34.2335 52.1353 33.7844C52.6747 33.2185 53.2512 32.6154 53.7145 32.0407C54.1071 31.5544 54.4254 31.0804 54.6695 30.6206C54.9047 30.1803 55.0762 29.7435 55.1858 29.3067C55.2884 28.9035 55.3326 28.5109 55.2919 28.113C55.2495 27.708 55.1186 27.2765 54.8675 26.7991C54.5846 26.2579 54.1548 25.6584 53.6809 25.066C53.2211 24.4913 52.6587 23.8582 52.153 23.294L52.038 23.1649C51.0212 22.0367 50.2572 21.1861 49.7797 19.7731C49.3695 18.5582 49.2421 17.0727 49.1113 15.5253C49.0494 14.8109 49.1184 15.5359 49.0565 14.8569C48.9822 14.0257 48.8938 13.1892 48.7558 12.4271C48.6267 11.7215 48.4552 11.0866 48.2094 10.5967C47.9989 10.1758 47.7195 9.85576 47.3676 9.60818C46.9839 9.33761 46.5011 9.14132 45.9175 8.98746C44.814 8.69567 43.3727 8.56127 42.0323 8.43394L41.2418 8.3579C40.4018 8.27479 39.6307 8.18283 38.9216 8.02721C38.1523 7.85921 37.4344 7.6187 36.7553 7.24379C35.7773 6.70442 34.9603 5.93516 34.1168 5.14113C33.8621 4.90239 33.6057 4.66012 33.2927 4.38071C32.7675 3.91208 32.221 3.47174 31.6711 3.10744C31.1458 2.76083 30.6153 2.48142 30.0972 2.31165C29.6232 2.15779 29.1581 2.0959 28.6842 2.15603C28.1855 2.21969 27.6496 2.41422 27.0519 2.77144C26.0793 3.35325 24.9457 4.35772 23.9466 5.24547C23.5168 5.62568 23.1101 5.98821 22.8165 6.23225C22.1445 6.79461 21.5839 7.19428 21.0074 7.49668C20.4079 7.81146 19.8226 8.01129 19.1152 8.16514C18.1337 8.37912 16.8817 8.50645 15.6438 8.63201C15.3626 8.6603 15.0779 8.69037 14.5827 8.74342C13.8524 8.82477 13.1698 8.91319 12.572 9.04759C12.015 9.17315 11.5163 9.33938 11.0954 9.58342C10.701 9.81155 10.3615 10.114 10.0821 10.5048C9.78499 10.9186 9.54272 11.4438 9.35526 12.0964C9.15189 12.8055 9.01749 13.6473 8.92377 14.4908C8.8265 15.3768 8.77345 16.2451 8.73454 16.9772L8.72747 17.1275C8.64435 18.728 8.5913 19.766 7.59744 21.2462C7.02094 22.1057 6.15441 23.0429 5.32501 23.9431C4.81748 24.493 4.32232 25.0289 3.96863 25.4604C3.52122 26.005 3.22766 26.4578 3.03844 26.8698C2.86513 27.2482 2.77671 27.609 2.7325 27.9981C2.68829 28.3942 2.68652 28.8062 2.78378 29.2448C2.88635 29.7064 3.09503 30.2174 3.46817 30.8028C3.96863 31.5862 4.78388 32.527 5.56552 33.4271C6.08367 34.0249 6.58944 34.6067 7.00502 35.146C7.5833 35.8959 7.9865 36.5537 8.26414 37.2646C8.54532 37.9826 8.69033 38.7271 8.75046 39.6361C8.78583 40.1737 8.78936 40.8192 8.79113 41.4947C8.79644 42.6795 8.80174 43.9617 9.02633 44.9661C9.17842 45.647 9.43484 46.2182 9.79383 46.6815C10.1475 47.1395 10.6108 47.5021 11.1767 47.7691C11.7922 48.0609 12.5331 48.2483 13.3006 48.3739C14.1106 48.5065 14.947 48.5702 15.7057 48.6109L16.1124 48.6321C17.6297 48.7081 18.8871 48.77 20.5158 49.6153C21.6034 50.1794 22.7723 51.0601 23.9094 51.9178C24.5248 52.3811 25.1314 52.8392 25.6725 53.207C26.4047 53.7057 27.059 54.0735 27.6532 54.3193L27.6514 54.3176Z" fill="white"/>
<path d="M33.328 53.2565L23.1065 78.0021C22.8819 78.5468 22.2576 78.8085 21.713 78.5839C21.5025 78.4972 21.3345 78.3505 21.2196 78.1736H21.2178L16.3635 70.5994L7.58145 72.5394C7.00671 72.6667 6.43728 72.3024 6.30995 71.7277C6.26044 71.5067 6.2852 71.2856 6.36478 71.0911L15.1309 49.8682C15.7463 49.9354 16.4501 50.0079 17.1646 50.0981L17.3361 50.1193L9.11822 70.0141L16.5633 68.3695C17.0072 68.2404 17.4988 68.4101 17.7605 68.8186L21.911 75.2946L30.2686 55.0638C30.6824 54.9046 31.0803 54.7101 31.4411 54.5014C32.1078 54.1159 32.6471 53.688 33.3262 53.2547L33.328 53.2565Z" fill="white"/>
<path d="M32.4617 69.3474L34.9198 75.2964L39.0703 68.8204C39.332 68.4119 39.8254 68.2421 40.2675 68.3712L47.7126 70.0158L39.6256 50.4393C39.8572 50.3544 40.0783 50.2749 40.2852 50.2041C40.821 50.0184 41.2508 49.8858 41.6575 49.7603L50.4696 71.0928C50.5492 71.2873 50.5722 71.5084 50.5244 71.7294C50.3971 72.3042 49.8276 72.6685 49.2529 72.5411L40.4709 70.6012L35.6166 78.1754H35.6148C35.4998 78.354 35.3318 78.499 35.1214 78.5856C34.5767 78.8102 33.9525 78.5485 33.7279 78.0038L30.7109 70.7002C31.3405 70.297 31.9524 69.8337 32.4617 69.3474Z" fill="white"/>
<path d="M35.2238 76.0356C35.4483 76.5802 35.1866 77.2045 34.6419 77.4291C34.0973 77.6537 33.473 77.3919 33.2484 76.8473L29.8141 68.5321C29.5895 67.9874 29.8513 67.3632 30.396 67.1386C30.9406 66.914 31.5649 67.1757 31.7895 67.7204L35.2238 76.0356Z" fill="white"/>
</svg>
