<svg width="146" height="58" viewBox="0 0 146 58" fill="none" xmlns="http://www.w3.org/2000/svg">
<path d="M30.5136 2.53065C37.7682 2.53065 44.3335 5.47232 49.0851 10.2247C53.8368 14.9803 56.778 21.5467 56.778 28.8024C56.778 36.0581 53.8368 42.6244 49.0851 47.38C44.3335 52.1324 37.765 55.0741 30.5136 55.0741C23.2591 55.0741 16.6937 52.1324 11.9421 47.38C7.18724 42.6276 4.24921 36.0581 4.24921 28.8024C4.24921 21.5467 7.19041 14.9803 11.9421 10.2247C16.6937 5.47232 23.2622 2.53065 30.5136 2.53065ZM48.3228 10.9903C43.7649 6.4317 37.4696 3.61392 30.5136 3.61392C23.5608 3.61392 17.2623 6.43487 12.7044 10.9903C8.14646 15.549 5.32913 21.8453 5.32913 28.7992C5.32913 35.7531 8.14646 42.0526 12.7044 46.6112C17.2623 51.1699 23.5576 53.9876 30.5136 53.9876C37.4664 53.9876 43.7649 51.1667 48.3228 46.6112C52.8807 42.0526 55.6981 35.7563 55.6981 28.7992C55.6981 21.8453 52.8807 15.5458 48.3228 10.9903Z" fill="white"/>
<path d="M32.6138 2.88939C39.8208 2.88939 46.3448 5.78976 51.0647 10.4786C55.7878 15.1675 58.7099 21.6449 58.7099 28.799C58.7099 35.953 55.7878 42.4304 51.0647 47.1193C46.3416 51.8082 39.8176 54.7085 32.6138 54.7085C25.4069 54.7085 18.8829 51.8082 14.163 47.1193C9.43994 42.4304 6.51779 35.953 6.51779 28.799C6.51779 21.6449 9.43994 15.1675 14.163 10.4786C18.8861 5.78976 25.4101 2.88939 32.6138 2.88939ZM50.8137 10.7328C46.1574 6.11061 39.7223 3.25154 32.6138 3.25154C25.5054 3.25154 19.0735 6.11061 14.4139 10.7328C9.75757 15.355 6.87671 21.7434 6.87671 28.799C6.87671 35.8545 9.75757 42.243 14.4139 46.8651C19.0703 51.4873 25.5054 54.3496 32.6138 54.3496C39.7223 54.3496 46.1542 51.4905 50.8137 46.8651C55.4701 42.243 58.351 35.8545 58.351 28.799C58.351 21.7434 55.4701 15.3581 50.8137 10.7328Z" fill="white"/>
<path d="M28.8514 0.974711C21.7842 0.974711 15.3873 4.08793 10.7563 9.12308C6.12534 14.1582 3.25719 21.1153 3.25719 28.803C3.25719 36.4876 6.12216 43.4447 10.7563 48.483C15.3873 53.5182 21.7842 56.6314 28.8514 56.6314C35.9185 56.6314 42.3155 53.5182 46.9465 48.483C51.5774 43.4479 54.4456 36.4908 54.4456 28.803C54.4456 21.1185 51.5806 14.1614 46.9465 9.12308C42.3155 4.08793 35.9185 0.974711 28.8514 0.974711ZM10.6515 9.0246C15.3079 3.96086 21.7429 0.828581 28.8514 0.828581C35.9598 0.828581 42.3949 3.96086 47.0513 9.0246C51.7077 14.0852 54.5885 21.0772 54.5885 28.7999C54.5885 36.5226 51.7077 43.5146 47.0513 48.5751C42.3949 53.6389 35.9598 56.7712 28.8514 56.7712C21.7429 56.7712 15.3079 53.6389 10.6515 48.5751C5.99511 43.5146 3.11426 36.5226 3.11426 28.7999C3.11426 21.0772 5.99511 14.0852 10.6515 9.0246Z" fill="white"/>
<path d="M26.7567 1.80439C19.877 1.80439 13.6483 4.81595 9.13489 9.68591C4.60556 14.5718 1.80411 21.3287 1.80411 28.8004C1.80411 36.269 4.60556 43.0291 9.13489 47.9149C13.6483 52.7849 19.8801 55.7964 26.7567 55.7964C33.6365 55.7964 39.8651 52.7849 44.3785 47.9149C48.9079 43.0291 51.7093 36.2721 51.7093 28.8004C51.7093 21.3319 48.9079 14.5749 44.3785 9.68591C39.8651 4.81595 33.6333 1.80439 26.7567 1.80439ZM7.81675 8.45969C12.6605 3.23393 19.3592 0 26.7567 0C34.1574 0 40.8529 3.23393 45.6999 8.45969C50.5278 13.6696 53.5166 20.8617 53.5166 28.8004C53.5166 36.7391 50.5309 43.9313 45.6999 49.1412C40.8561 54.3669 34.1574 57.6008 26.7567 57.6008C19.3561 57.6008 12.6605 54.3669 7.81675 49.1412C2.98885 43.9313 0 36.7391 0 28.8004C0 20.8617 2.98567 13.6696 7.81675 8.45969Z" fill="white"/>
<path d="M24.1926 19.9402H25.965V37.6601H24.1926V29.3815H14.575V37.6601H12.8026V19.9402H14.575V27.7105H24.1926V19.9402ZM46.9473 29.2322V30.1439C46.9473 32.3454 46.1627 34.1943 44.5937 35.6873C43.0246 37.2058 40.9219 37.9651 38.292 37.9651C35.6081 37.9651 33.3815 37.0787 31.6346 35.3061C29.8877 33.5335 29.0015 31.3574 29.0015 28.8001C29.0015 26.2428 29.8877 24.0668 31.6346 22.2941C33.3815 20.5215 35.6081 19.6352 38.292 19.6352C39.9373 19.6352 41.4301 20.0387 42.7991 20.8233C44.1649 21.608 45.2289 22.6722 45.9626 23.9874L44.3936 24.8991C43.8377 23.8095 43.0024 22.9486 41.9129 22.3164C40.8235 21.6842 39.6101 21.3538 38.292 21.3538C36.0909 21.3538 34.2677 22.0622 32.8765 23.5045C31.4853 24.9467 30.777 26.6939 30.777 28.797C30.777 30.8968 31.4853 32.644 32.8765 34.0894C34.2677 35.5317 36.0909 36.2401 38.292 36.2401C40.293 36.2401 41.8875 35.735 43.0754 34.7216C44.2665 33.7336 44.9494 32.4439 45.1273 30.9H38.0919V29.229H46.9505L46.9473 29.2322Z" fill="white"/>
<path d="M77.1293 18.3005H78.9112V36.1316H77.1293V27.8021H67.4512V36.1316H65.6694V18.3005H67.4512V26.1216H77.1293V18.3005ZM94.8559 36.1316L93.2011 31.7508H84.7459L83.0911 36.1316H81.2076L88.0587 18.3005H89.8914L96.7426 36.1316H94.8591H94.8559ZM85.3812 30.0703H92.5627L88.9703 20.5179L85.378 30.0703H85.3812Z" fill="white"/>
<path d="M102.801 36.1316L96.2296 18.3005H98.1639L103.716 33.7617L109.268 18.3005H111.206L104.634 36.1316H102.801ZM118.289 36.1316L111.717 18.3005H113.651L119.203 33.7617L124.755 18.3005H126.69L120.118 36.1316H118.285H118.289Z" fill="white"/>
<path d="M142.969 33.7407C141.187 35.5483 138.996 36.4409 136.423 36.4409C133.85 36.4409 131.658 35.5483 129.877 33.7407C128.095 31.9585 127.202 29.792 127.202 27.2188C127.202 24.6457 128.095 22.4791 129.877 20.6716C131.658 18.8894 133.85 17.9967 136.423 17.9967C138.996 17.9967 141.187 18.8894 142.969 20.6716C144.751 22.4791 145.643 24.6457 145.643 27.2188C145.643 29.792 144.751 31.9554 142.969 33.7407ZM131.125 32.5177C132.551 33.9694 134.307 34.7096 136.423 34.7096C138.538 34.7096 140.295 33.9726 141.721 32.5177C143.147 31.0659 143.858 29.3091 143.858 27.2188C143.858 25.1285 143.147 23.3464 141.721 21.8946C140.295 20.4428 138.538 19.7281 136.423 19.7281C134.307 19.7281 132.551 20.4428 131.125 21.8946C129.699 23.3464 128.984 25.1285 128.984 27.2188C128.984 29.306 129.695 31.0659 131.125 32.5177Z" fill="white"/>
<path d="M110.937 44.2322V44.3593C110.937 45.4807 110.543 46.4242 109.765 47.1866C108.987 47.9649 107.971 48.3461 106.735 48.3461C105.36 48.3461 104.226 47.9014 103.349 47.0214C102.469 46.1415 102.025 45.0486 102.025 43.7621C102.025 42.4755 102.457 41.3922 103.336 40.5027C104.204 39.6228 105.296 39.178 106.608 39.178C107.412 39.178 108.148 39.3686 108.825 39.7498C109.498 40.131 110.01 40.6425 110.378 41.2778L110.162 41.4049C109.819 40.7918 109.333 40.3089 108.698 39.9404C108.063 39.5846 107.361 39.4067 106.611 39.4067C105.363 39.4067 104.331 39.8261 103.517 40.6679C102.688 41.5066 102.282 42.539 102.282 43.7621C102.282 44.9851 102.701 46.0176 103.543 46.8562C104.372 47.6981 105.439 48.1174 106.738 48.1174C107.898 48.1174 108.841 47.7616 109.565 47.0595C110.292 46.3575 110.674 45.4934 110.699 44.461H106.471V44.2322H110.94H110.937ZM119.215 48.219H118.935L116.667 44.3847C116.616 44.3974 116.527 44.3974 116.413 44.3974H113.23V48.219H112.976V39.3019H116.416C117.118 39.3019 117.715 39.556 118.211 40.0548C118.706 40.5504 118.964 41.1508 118.964 41.8497C118.964 42.4501 118.773 42.9838 118.389 43.4539C117.995 43.9241 117.509 44.2322 116.924 44.3466L119.218 48.219H119.215ZM113.23 44.1687H116.413C117.036 44.1687 117.585 43.94 118.03 43.4825C118.474 43.0378 118.703 42.4882 118.703 41.8528C118.703 41.2175 118.474 40.6679 118.03 40.2105C117.585 39.7657 117.036 39.5338 116.413 39.5338H113.23V44.1687ZM128.194 46.996C127.289 47.9014 126.209 48.3461 124.948 48.3461C123.687 48.3461 122.604 47.9014 121.714 46.996C120.809 46.1033 120.364 45.0232 120.364 43.7621C120.364 42.5009 120.809 41.4176 121.714 40.5154C122.607 39.6228 123.69 39.178 124.948 39.178C126.209 39.178 127.292 39.6228 128.194 40.5154C129.086 41.4208 129.531 42.5009 129.531 43.7621C129.531 45.0232 129.086 46.1065 128.194 46.996ZM121.889 46.8435C122.731 47.6981 123.747 48.1174 124.944 48.1174C126.142 48.1174 127.161 47.6981 128.013 46.8435C128.854 45.989 129.274 44.9724 129.274 43.7621C129.274 42.5517 128.854 41.532 128.013 40.6806C127.161 39.8261 126.142 39.4067 124.944 39.4067C123.747 39.4067 122.727 39.8261 121.889 40.6806C121.038 41.5352 120.615 42.5517 120.615 43.7621C120.615 44.9724 121.035 45.989 121.889 46.8435Z" fill="white"/>
<path d="M111.296 44.2327V44.3597C111.296 44.9633 111.188 45.5256 110.976 46.0402C110.763 46.558 110.442 47.0218 110.02 47.4412C109.597 47.8637 109.108 48.1814 108.559 48.391C108.009 48.6007 107.402 48.7055 106.739 48.7055C106.008 48.7055 105.338 48.5848 104.731 48.3497C104.118 48.1115 103.572 47.7525 103.099 47.2792C102.625 46.8058 102.266 46.2721 102.028 45.6813C101.79 45.0936 101.669 44.455 101.669 43.7657C101.669 43.0795 101.787 42.441 102.022 41.8564C102.257 41.2688 102.613 40.7382 103.083 40.2585C103.55 39.782 104.083 39.4231 104.674 39.1848C105.262 38.9465 105.91 38.8258 106.608 38.8258C107.037 38.8258 107.453 38.8767 107.853 38.9815C108.25 39.0831 108.632 39.2388 108.997 39.4453C109.362 39.6518 109.683 39.8932 109.962 40.1696C110.242 40.446 110.483 40.7605 110.683 41.1036L110.858 41.4085L110.026 41.8977L109.848 41.5832C109.692 41.3069 109.505 41.0591 109.283 40.8367C109.06 40.6143 108.806 40.4206 108.517 40.2522C108.225 40.087 107.92 39.9663 107.602 39.8837C107.285 39.8043 106.951 39.763 106.602 39.763C106.024 39.763 105.497 39.8583 105.027 40.0521C104.556 40.2427 104.134 40.5317 103.762 40.9161C103.381 41.3037 103.095 41.7326 102.908 42.2027C102.721 42.6729 102.628 43.1939 102.628 43.7625C102.628 44.328 102.724 44.8458 102.918 45.3191C103.108 45.7893 103.4 46.2213 103.785 46.6057L103.788 46.6089C104.166 46.9933 104.598 47.2792 105.084 47.4729C105.576 47.6667 106.126 47.7652 106.732 47.7652C107.269 47.7652 107.752 47.6858 108.181 47.5238C108.606 47.3649 108.984 47.1235 109.311 46.809C109.642 46.4913 109.893 46.1355 110.064 45.7448C110.188 45.4589 110.274 45.1507 110.312 44.8235H106.11V43.8832H111.29V44.239L111.296 44.2327ZM119.218 48.5753H118.735L116.477 44.7536H113.59V48.5753H112.624V38.9465H116.42C116.814 38.9465 117.185 39.0196 117.531 39.1657C117.874 39.3087 118.186 39.5215 118.468 39.8043C118.748 40.0838 118.964 40.3983 119.107 40.7446C119.25 41.0877 119.323 41.4562 119.323 41.8533C119.323 42.1932 119.269 42.5172 119.158 42.8222C119.05 43.1272 118.884 43.4131 118.669 43.6799L118.665 43.6831C118.443 43.9468 118.195 44.1691 117.919 44.3375C117.776 44.4264 117.624 44.4995 117.468 44.5599L119.844 48.5753H119.221H119.218ZM113.59 43.8133H116.417C116.683 43.8133 116.931 43.7657 117.157 43.6704C117.382 43.5751 117.592 43.4289 117.779 43.2352L117.782 43.232C117.973 43.0414 118.116 42.8317 118.211 42.603C118.303 42.3774 118.354 42.1265 118.354 41.8533C118.354 41.5801 118.306 41.3323 118.214 41.1036C118.119 40.8717 117.973 40.6556 117.782 40.4587C117.595 40.2713 117.385 40.1283 117.157 40.033C116.931 39.9377 116.683 39.89 116.417 39.89H113.59V43.8133ZM128.448 47.2474C127.962 47.7334 127.425 48.0956 126.844 48.3402C126.26 48.5816 125.628 48.7023 124.951 48.7023C124.271 48.7023 123.639 48.5816 123.055 48.337C122.474 48.0956 121.943 47.7334 121.467 47.2474C120.984 46.7677 120.619 46.2372 120.377 45.659C120.133 45.0745 120.012 44.4391 120.012 43.7625C120.012 43.0859 120.133 42.4537 120.374 41.8692C120.616 41.2846 120.981 40.7509 121.464 40.2649C121.94 39.7852 122.474 39.4262 123.058 39.1848C123.643 38.9434 124.275 38.8227 124.951 38.8227C126.307 38.8227 127.473 39.3023 128.448 40.2617L128.451 40.2649C128.928 40.7478 129.29 41.2846 129.528 41.8692C129.769 42.4569 129.89 43.0859 129.89 43.7625C129.89 44.4391 129.769 45.0713 129.528 45.6558C129.287 46.2404 128.928 46.7709 128.448 47.2506V47.2474ZM122.147 46.593C122.534 46.9869 122.96 47.2792 123.427 47.4698C123.89 47.6635 124.398 47.7589 124.951 47.7589C125.504 47.7589 126.015 47.6635 126.479 47.4698C126.946 47.276 127.375 46.9837 127.765 46.593C128.153 46.1991 128.445 45.7702 128.636 45.3C128.826 44.8331 128.921 44.3216 128.921 43.7593C128.921 43.2002 128.826 42.6856 128.636 42.2186C128.445 41.7484 128.153 41.3196 127.765 40.9257C127.375 40.5349 126.943 40.2427 126.476 40.0489C126.012 39.8551 125.501 39.7598 124.948 39.7598C124.395 39.7598 123.887 39.8551 123.423 40.0489C122.956 40.2427 122.531 40.5349 122.147 40.9257C121.753 41.3228 121.457 41.7516 121.264 42.2186C121.07 42.6856 120.974 43.197 120.974 43.7593C120.974 44.3184 121.07 44.8331 121.264 45.3C121.457 45.767 121.749 46.1991 122.143 46.593H122.147Z" fill="white"/>
<path d="M136.896 47.5063C136.321 48.0654 135.546 48.3449 134.564 48.3449C133.583 48.3449 132.821 48.0654 132.246 47.5063C131.674 46.9599 131.379 46.2324 131.379 45.3524V39.3007H131.633V45.3524C131.633 46.153 131.887 46.8042 132.395 47.3252C132.891 47.8462 133.618 48.1162 134.561 48.1162C135.505 48.1162 136.229 47.8494 136.74 47.3252C137.236 46.8042 137.49 46.153 137.49 45.3524V39.3007H137.744V45.3524C137.744 46.2292 137.464 46.9567 136.893 47.5063H136.896ZM142.905 39.3039C143.696 39.3039 144.344 39.5581 144.865 40.0695C145.386 40.5778 145.643 41.2163 145.643 41.9787C145.643 42.7443 145.389 43.3797 144.865 43.888C144.344 44.3962 143.693 44.6504 142.905 44.6504H140.421V48.2179H140.167V39.3007H142.905V39.3039ZM142.905 44.4248C143.633 44.4248 144.217 44.1961 144.687 43.7259C145.157 43.2685 145.389 42.6808 145.389 41.9819C145.389 41.2798 145.16 40.6953 144.687 40.2252C144.217 39.7677 143.63 39.539 142.905 39.539H140.421V44.4312H142.905V44.4248Z" fill="white"/>
<path d="M137.142 47.7601C136.821 48.0746 136.44 48.3128 136.002 48.4685C135.573 48.6242 135.094 48.7004 134.563 48.7004C134.033 48.7004 133.556 48.6242 133.131 48.4685C132.699 48.3097 132.321 48.0746 131.997 47.7601C131.673 47.4519 131.431 47.0898 131.266 46.6832C131.104 46.2797 131.022 45.835 131.022 45.3521V38.9446H131.987V45.3521C131.987 46.0573 132.21 46.626 132.651 47.0771L132.654 47.0803C132.864 47.3026 133.128 47.471 133.436 47.5822C133.756 47.6997 134.131 47.7569 134.563 47.7569C134.992 47.7569 135.37 47.6965 135.691 47.5822C136.005 47.4678 136.269 47.2995 136.488 47.0771C136.704 46.8515 136.866 46.5974 136.974 46.3178C137.082 46.0319 137.139 45.7079 137.139 45.3521V38.9446H138.105V45.3521C138.105 45.8381 138.025 46.2861 137.866 46.6895C137.704 47.093 137.466 47.4519 137.145 47.7601H137.142ZM142.904 38.9478C143.342 38.9478 143.746 39.0208 144.114 39.1638C144.486 39.3099 144.816 39.5259 145.112 39.8118C145.41 40.1009 145.632 40.4281 145.779 40.7935C145.925 41.1556 145.998 41.5495 145.998 41.9784C145.998 42.4041 145.925 42.8012 145.779 43.1633C145.632 43.5255 145.41 43.8527 145.112 44.1449C144.816 44.434 144.483 44.65 144.114 44.793C143.746 44.9359 143.342 45.009 142.904 45.009H140.776V48.5765H139.81V38.9478H142.904ZM142.904 44.0687C143.222 44.0687 143.507 44.021 143.762 43.9194C144.013 43.8209 144.235 43.6716 144.435 43.4746L144.438 43.4715C144.635 43.2777 144.784 43.0585 144.88 42.8171C144.978 42.5693 145.029 42.2897 145.029 41.9816C145.029 41.6734 144.981 41.397 144.883 41.1461C144.784 40.9015 144.635 40.6759 144.435 40.4726C144.235 40.2788 144.013 40.1327 143.762 40.0374C143.507 39.9389 143.222 39.8913 142.904 39.8913H140.776V44.0687H142.904Z" fill="white"/>
</svg>
