<svg width="30" height="42" viewBox="0 0 30 42" fill="none" xmlns="http://www.w3.org/2000/svg">
<ellipse cx="14.761" cy="12.7612" rx="8.83444" ry="8.83444" fill="white"/>
<path d="M15.0262 6.70508C16.7044 6.70508 18.2225 7.38409 19.3198 8.48393C20.4196 9.58378 21.0986 11.1019 21.0986 12.7775C21.0986 14.4556 20.4196 15.9737 19.3198 17.071C18.2199 18.1708 16.7018 18.8498 15.0262 18.8498C13.3481 18.8498 11.83 18.1708 10.7327 17.071C9.63287 15.9711 8.95386 14.453 8.95386 12.7775C8.95386 11.0993 9.63287 9.5812 10.7327 8.48393C11.8326 7.38409 13.3507 6.70508 15.0262 6.70508ZM19.1442 8.66208C18.0908 7.60871 16.6347 6.95551 15.0262 6.95551C13.4178 6.95551 11.9616 7.60612 10.9083 8.66208C9.8549 9.71545 9.20171 11.1716 9.20171 12.78C9.20171 14.3885 9.85232 15.8446 10.9083 16.898C11.9616 17.9514 13.4178 18.6046 15.0262 18.6046C16.6347 18.6046 18.0908 17.9514 19.1442 16.898C20.1976 15.8446 20.8508 14.3885 20.8508 12.78C20.8508 11.1716 20.2002 9.71545 19.1442 8.66208Z" fill="#00CCFF"/>
<path d="M15.5116 6.79004C17.1768 6.79004 18.6872 7.46131 19.7793 8.54566C20.8714 9.63001 21.5478 11.1275 21.5478 12.7824C21.5478 14.4373 20.8714 15.9348 19.7793 17.0191C18.6872 18.1035 17.1794 18.7721 15.5116 18.7721C13.8463 18.7721 12.336 18.1009 11.2439 17.0191C10.1518 15.9348 9.47534 14.4373 9.47534 12.7824C9.47534 11.1275 10.1518 9.63001 11.2439 8.54566C12.336 7.46131 13.8437 6.79004 15.5116 6.79004ZM19.7199 8.60246C18.6433 7.5336 17.1562 6.87266 15.5116 6.87266C13.867 6.87266 12.3799 7.5336 11.3033 8.60246C10.2266 9.67132 9.56054 11.1481 9.56054 12.7798C9.56054 14.4115 10.2266 15.8883 11.3033 16.9571C12.3799 18.026 13.867 18.6869 15.5116 18.6869C17.1562 18.6869 18.6433 18.026 19.7199 16.9571C20.7965 15.8883 21.4626 14.4115 21.4626 12.7798C21.4626 11.1481 20.7965 9.67132 19.7199 8.60246Z" fill="#00CCFF"/>
<path d="M14.6415 6.34606C13.0072 6.34606 11.5278 7.06638 10.4564 8.23077C9.38493 9.39516 8.72399 11.0036 8.72399 12.7799C8.72399 14.5562 9.38751 16.1646 10.4564 17.329C11.5278 18.4934 13.0072 19.2137 14.6415 19.2137C16.2757 19.2137 17.7551 18.4934 18.824 17.329C19.8954 16.1646 20.5564 14.5562 20.5564 12.7799C20.5564 11.0036 19.8928 9.39516 18.824 8.23077C17.7525 7.06638 16.2732 6.34606 14.6415 6.34606ZM10.4331 8.20754C11.5097 7.03798 12.9969 6.3125 14.6415 6.3125C16.2861 6.3125 17.7732 7.0354 18.8498 8.20754C19.9264 9.37709 20.5925 10.9933 20.5925 12.7799C20.5925 14.5639 19.9264 16.1827 18.8498 17.3523C17.7732 18.5218 16.2861 19.2473 14.6415 19.2473C12.9969 19.2473 11.5097 18.5244 10.4331 17.3523C9.35653 16.1827 8.69043 14.5665 8.69043 12.7799C8.69043 10.9959 9.35653 9.37709 10.4331 8.20754Z" fill="#00CCFF"/>
<path d="M14.1564 6.53739C12.5661 6.53739 11.1254 7.23448 10.0824 8.36014C9.03416 9.49096 8.38871 11.0529 8.38871 12.7802C8.38871 14.5074 9.03674 16.0694 10.0824 17.2002C11.1254 18.3259 12.5661 19.0229 14.1564 19.0229C15.7468 19.0229 17.1875 18.3259 18.2305 17.2002C19.2787 16.0694 19.9242 14.5074 19.9242 12.7802C19.9242 11.0529 19.2761 9.49096 18.2305 8.36014C17.1875 7.23448 15.7468 6.53739 14.1564 6.53739ZM9.77771 8.07614C10.8982 6.86786 12.4473 6.11914 14.1564 6.11914C15.8682 6.11914 17.4172 6.86786 18.5352 8.07614C19.6505 9.28184 20.3424 10.9445 20.3424 12.7776C20.3424 14.6132 19.6505 16.2759 18.5352 17.479C17.4147 18.6873 15.8656 19.436 14.1564 19.436C12.4447 19.436 10.8982 18.6873 9.77771 17.479C8.66238 16.2733 7.97046 14.6107 7.97046 12.7776C7.97046 10.9419 8.66238 9.27926 9.77771 8.07614Z" fill="#00CCFF"/>
<path d="M13.5651 10.7305H13.9756V14.8278H13.5651V12.9147H11.3421V14.8278H10.9316V10.7305H11.3421V12.5274H13.5651V10.7305ZM18.8268 12.8785V13.0903C18.8268 13.5989 18.646 14.0274 18.282 14.3708C17.918 14.7219 17.4326 14.8975 16.8259 14.8975C16.2062 14.8975 15.6899 14.6935 15.2871 14.283C14.8844 13.8725 14.6778 13.3691 14.6778 12.7779C14.6778 12.1866 14.8818 11.6832 15.2871 11.2727C15.6899 10.8622 16.2062 10.6582 16.8259 10.6582C17.2054 10.6582 17.5514 10.7511 17.8689 10.9345C18.1839 11.1152 18.4318 11.3605 18.5996 11.6651L18.2355 11.8768C18.1064 11.6238 17.9128 11.425 17.6624 11.2804C17.4119 11.1333 17.1305 11.0584 16.8259 11.0584C16.3173 11.0584 15.8964 11.221 15.5737 11.5567C15.251 11.8897 15.0883 12.2951 15.0883 12.7804C15.0883 13.2658 15.251 13.6712 15.5737 14.0042C15.8964 14.3373 16.3173 14.5025 16.8259 14.5025C17.288 14.5025 17.6572 14.3863 17.9309 14.1514C18.2071 13.9242 18.3646 13.6247 18.4059 13.2684H16.7794V12.8811H18.8268V12.8785Z" fill="#00CCFF"/>
<g filter="url(#filter0_d_780:3616)">
<path fill-rule="evenodd" clip-rule="evenodd" d="M14.7578 0C20.8018 0 25.875 4.16185 27.264 9.77725C27.3673 10.322 27.4602 10.8797 27.5041 11.5458C27.5532 12.3255 27.5325 13.2498 27.4783 13.9907C27.4396 14.4916 27.388 14.9073 27.3363 15.2455C27.3028 15.4417 27.2666 15.6431 27.2253 15.8471C27.011 16.9133 26.6883 18.0958 26.1978 19.3944C25.7072 20.6931 25.054 22.1053 24.2278 23.5718C23.4017 25.0408 22.4051 26.5641 21.2794 28.108C20.1538 29.6519 18.899 31.2139 17.7914 32.528C16.6838 33.8422 15.7208 34.9084 14.7578 35.9747C13.7948 34.9084 12.8344 33.8422 11.7242 32.528C10.6166 31.2139 9.36187 29.6519 8.23621 28.108C7.11055 26.5641 6.11398 25.0408 5.2878 23.5718C4.46163 22.1027 3.80585 20.6905 3.31789 19.3944C2.92804 18.3643 2.64405 17.4065 2.4375 16.5235C2.38845 16.2989 2.33939 16.0742 2.26969 15.6818C2.19998 15.2894 2.10961 14.7317 2.0554 13.9907C1.9986 13.2498 1.97794 12.3255 2.02958 11.5458C2.07863 10.7712 2.19998 10.1387 2.32132 9.50875C3.80585 4.03018 8.80937 0 14.7578 0V0ZM14.7578 4.26771C19.5161 4.26771 23.3759 8.12491 23.3759 12.8857C23.3759 17.644 19.5187 21.5038 14.7578 21.5038C9.99958 21.5038 6.1398 17.6466 6.1398 12.8857C6.1398 8.12749 9.997 4.26771 14.7578 4.26771Z" fill="#00CCFF"/>
<path fill-rule="evenodd" clip-rule="evenodd" d="M14.758 0C20.802 0 25.8752 4.16185 27.2643 9.77725C27.3675 10.322 27.4605 10.8797 27.5044 11.5458C27.5328 11.9666 27.5379 12.4313 27.5302 12.8832H23.3761C23.3761 8.12491 19.5189 4.26512 14.758 4.26512C9.9998 4.26512 6.14001 8.12232 6.14001 12.8832H2.00398C1.99623 12.4288 2.0014 11.9666 2.0298 11.5458C2.07885 10.7712 2.2002 10.1387 2.32154 9.50875C3.80607 4.03018 8.80959 0 14.758 0Z" fill="#00AFDB"/>
</g>
<defs>
<filter id="filter0_d_780:3616" x="0" y="0" width="29.5334" height="41.9746" filterUnits="userSpaceOnUse" color-interpolation-filters="sRGB">
<feFlood flood-opacity="0" result="BackgroundImageFix"/>
<feColorMatrix in="SourceAlpha" type="matrix" values="0 0 0 0 0 0 0 0 0 0 0 0 0 0 0 0 0 0 127 0" result="hardAlpha"/>
<feOffset dy="4"/>
<feGaussianBlur stdDeviation="1"/>
<feComposite in2="hardAlpha" operator="out"/>
<feColorMatrix type="matrix" values="0 0 0 0 0 0 0 0 0 0 0 0 0 0 0 0 0 0 0.15 0"/>
<feBlend mode="normal" in2="BackgroundImageFix" result="effect1_dropShadow_780:3616"/>
<feBlend mode="normal" in="SourceGraphic" in2="effect1_dropShadow_780:3616" result="shape"/>
</filter>
</defs>
</svg>
