<svg width="249" height="99" viewBox="0 0 249 99" fill="none" xmlns="http://www.w3.org/2000/svg">
<g clip-path="url(#clip0_859_8)">
<path d="M51.9913 4.31201C64.3521 4.31201 75.5386 9.32423 83.6348 17.4217C91.731 25.5246 96.7424 36.7128 96.7424 49.0756C96.7424 61.4384 91.731 72.6265 83.6348 80.7295C75.5386 88.827 64.3467 93.8392 51.9913 93.8392C39.6305 93.8392 28.4441 88.827 20.3479 80.7295C12.2463 72.632 7.24023 61.4384 7.24023 49.0756C7.24023 36.7128 12.2517 25.5246 20.3479 17.4217C28.4441 9.32423 39.6359 4.31201 51.9913 4.31201ZM82.3359 18.7262C74.5698 10.9589 63.8434 6.15777 51.9913 6.15777C40.1447 6.15777 29.4128 10.9643 21.6467 18.7262C13.8807 26.4935 9.08028 37.2216 9.08028 49.0702C9.08028 60.9187 13.8807 71.6523 21.6467 79.4196C29.4128 87.1869 40.1392 91.988 51.9913 91.988C63.838 91.988 74.5698 87.1815 82.3359 79.4196C90.102 71.6523 94.9024 60.9241 94.9024 49.0702C94.9024 37.2216 90.102 26.4881 82.3359 18.7262Z" fill="#00CCFF"/>
<path d="M55.5697 4.92285C67.8494 4.92285 78.9654 9.86471 87.0075 17.854C95.0551 25.8432 100.034 36.8798 100.034 49.0694C100.034 61.2589 95.0551 72.2956 87.0075 80.2848C78.96 88.274 67.844 93.2159 55.5697 93.2159C43.2901 93.2159 32.174 88.274 24.1319 80.2848C16.0844 72.2956 11.1055 61.2589 11.1055 49.0694C11.1055 36.8798 16.0844 25.8432 24.1319 17.854C32.1795 9.86471 43.2955 4.92285 55.5697 4.92285ZM86.58 18.287C78.6461 10.4114 67.6816 5.53991 55.5697 5.53991C43.4579 5.53991 32.4988 10.4114 24.5595 18.287C16.6256 26.1625 11.717 37.0476 11.717 49.0694C11.717 61.0911 16.6256 71.9762 24.5595 79.8518C32.4933 87.7273 43.4579 92.6042 55.5697 92.6042C67.6816 92.6042 78.6407 87.7328 86.58 79.8518C94.5139 71.9762 99.4225 61.0911 99.4225 49.0694C99.4225 37.0476 94.5139 26.168 86.58 18.287Z" fill="#00CCFF"/>
<path d="M49.1589 1.66061C37.1174 1.66061 26.2178 6.96512 18.3272 15.5444C10.4366 24.1236 5.54969 35.9776 5.54969 49.0765C5.54969 62.1699 10.4312 74.0239 18.3272 82.6086C26.2178 91.1878 37.1174 96.4923 49.1589 96.4923C61.2004 96.4923 72.0999 91.1878 79.9905 82.6086C87.8811 74.0293 92.768 62.1754 92.768 49.0765C92.768 35.983 87.8865 24.129 79.9905 15.5444C72.0999 6.96512 61.2004 1.66061 49.1589 1.66061ZM18.1486 15.3766C26.0825 6.74861 37.047 1.41162 49.1589 1.41162C61.2707 1.41162 72.2352 6.74861 80.1691 15.3766C88.103 23.9991 93.0116 35.9126 93.0116 49.071C93.0116 62.2295 88.103 74.143 80.1691 82.7655C72.2352 91.3935 61.2707 96.7305 49.1589 96.7305C37.047 96.7305 26.0825 91.3935 18.1486 82.7655C10.2148 74.143 5.30615 62.2295 5.30615 49.071C5.30615 35.9126 10.2148 23.9991 18.1486 15.3766Z" fill="#00CCFF"/>
<path d="M45.5899 3.07445C33.8677 3.07445 23.255 8.20576 15.5647 16.5035C7.84727 24.8284 3.07397 36.3413 3.07397 49.0722C3.07397 61.7976 7.84727 73.3159 15.5647 81.6408C23.255 89.9385 33.8731 95.0698 45.5899 95.0698C57.3121 95.0698 67.9249 89.9385 75.6152 81.6408C83.3326 73.3159 88.1059 61.803 88.1059 49.0722C88.1059 36.3467 83.3326 24.8338 75.6152 16.5035C67.9249 8.20576 57.3067 3.07445 45.5899 3.07445ZM13.3187 14.4142C21.5719 5.5102 32.9856 0 45.5899 0C58.1997 0 69.608 5.5102 77.8666 14.4142C86.0927 23.2911 91.1853 35.5456 91.1853 49.0722C91.1853 62.5987 86.0981 74.8532 77.8666 83.7301C69.6134 92.6341 58.1997 98.1443 45.5899 98.1443C32.9802 98.1443 21.5719 92.6341 13.3187 83.7301C5.09261 74.8532 0 62.5987 0 49.0722C0 35.5456 5.0872 23.2911 13.3187 14.4142Z" fill="#00CCFF"/>
<path d="M41.2211 33.9757H44.2409V64.1681H41.2211V50.0624H24.8338V64.1681H21.814V33.9757H24.8338V47.2153H41.2211V33.9757ZM79.992 49.808V51.3615C79.992 55.1126 78.6553 58.2628 75.9818 60.8068C73.3083 63.3941 69.7256 64.6877 65.2446 64.6877C60.6715 64.6877 56.8777 63.1776 53.9012 60.1573C50.9246 57.1369 49.4147 53.4292 49.4147 49.0719C49.4147 44.7146 50.9246 41.0069 53.9012 37.9865C56.8777 34.9662 60.6715 33.4561 65.2446 33.4561C68.0479 33.4561 70.5915 34.1435 72.9241 35.4804C75.2512 36.8174 77.0642 38.6307 78.3143 40.8716L75.6408 42.425C74.6938 40.5684 73.2704 39.1016 71.4141 38.0244C69.5579 36.9473 67.4905 36.3844 65.2446 36.3844C61.4941 36.3844 58.3877 37.5914 56.0172 40.0488C53.6468 42.5062 52.44 45.4832 52.44 49.0665C52.44 52.6443 53.6468 55.6213 56.0172 58.0842C58.3877 60.5416 61.4941 61.7486 65.2446 61.7486C68.6541 61.7486 71.3708 60.888 73.3949 59.1613C75.4244 57.4779 76.5879 55.2803 76.891 52.6497H64.9036V49.8026H79.9974L79.992 49.808Z" fill="#00CCFF"/>
<path d="M131.418 31.1816H134.454V61.5635H131.418V47.3712H114.928V61.5635H111.892V31.1816H114.928V44.5079H131.418V31.1816ZM161.622 61.5635L158.802 54.0993H144.396L141.576 61.5635H138.367L150.04 31.1816H153.163L164.836 61.5635H161.627H161.622ZM145.478 51.2359H157.714L151.593 34.9598L145.472 51.2359H145.478Z" fill="#00CCFF"/>
<path d="M175.16 61.5635L163.963 31.1816H167.259L176.719 57.5256L186.179 31.1816H189.48L178.283 61.5635H175.16ZM201.549 61.5635L190.351 31.1816H193.647L203.107 57.5256L212.567 31.1816H215.863L204.666 61.5635H201.543H201.549Z" fill="#00CCFF"/>
<path d="M243.601 57.4897C240.564 60.5696 236.83 62.0906 232.447 62.0906C228.063 62.0906 224.329 60.5696 221.293 57.4897C218.257 54.4532 216.736 50.7617 216.736 46.3773C216.736 41.993 218.257 38.3015 221.293 35.2216C224.329 32.185 228.063 30.6641 232.447 30.6641C236.83 30.6641 240.564 32.185 243.601 35.2216C246.637 38.3015 248.157 41.993 248.157 46.3773C248.157 50.7617 246.637 54.4478 243.601 57.4897ZM223.42 55.4058C225.849 57.8795 228.842 59.1406 232.447 59.1406C236.051 59.1406 239.044 57.8849 241.474 55.4058C243.904 52.9322 245.116 49.9389 245.116 46.3773C245.116 42.8157 243.904 39.7792 241.474 37.3055C239.044 34.8319 236.051 33.614 232.447 33.614C228.842 33.614 225.849 34.8319 223.42 37.3055C220.99 39.7792 219.772 42.8157 219.772 46.3773C219.772 49.9335 220.984 52.9322 223.42 55.4058Z" fill="#00CCFF"/>
<path d="M189.022 75.3661V75.5826C189.022 77.4933 188.351 79.1009 187.025 80.4C185.699 81.7261 183.968 82.3756 181.862 82.3756C179.519 82.3756 177.587 81.6179 176.093 80.1185C174.594 78.6192 173.836 76.7572 173.836 74.565C173.836 72.3728 174.572 70.5271 176.072 69.0115C177.549 67.5122 179.411 66.7544 181.646 66.7544C183.015 66.7544 184.271 67.0792 185.423 67.7287C186.571 68.3782 187.442 69.2497 188.07 70.3322L187.702 70.5487C187.117 69.5041 186.289 68.6813 185.207 68.0535C184.124 67.4472 182.928 67.1441 181.651 67.1441C179.524 67.1441 177.765 67.8586 176.38 69.293C174.968 70.722 174.275 72.4811 174.275 74.565C174.275 76.6489 174.989 78.4081 176.423 79.8371C177.836 81.2714 179.654 81.9859 181.868 81.9859C183.843 81.9859 185.45 81.3797 186.684 80.1835C187.924 78.9872 188.573 77.515 188.616 75.7558H181.413V75.3661H189.028H189.022ZM203.126 82.1591H202.649L198.785 75.6259C198.699 75.6476 198.547 75.6476 198.352 75.6476H192.93V82.1591H192.497V66.9655H198.358C199.554 66.9655 200.571 67.3985 201.416 68.2483C202.26 69.0927 202.698 70.1157 202.698 71.3065C202.698 72.3295 202.373 73.2389 201.719 74.04C201.048 74.8411 200.219 75.3661 199.224 75.561L203.131 82.1591H203.126ZM192.93 75.2578H198.352C199.413 75.2578 200.349 74.8681 201.107 74.0887C201.865 73.3309 202.254 72.3945 202.254 71.3119C202.254 70.2294 201.865 69.293 201.107 68.5135C200.349 67.7558 199.413 67.3606 198.352 67.3606H192.93V75.2578ZM218.425 80.0752C216.883 81.6179 215.043 82.3756 212.894 82.3756C210.746 82.3756 208.9 81.6179 207.385 80.0752C205.842 78.5542 205.085 76.7139 205.085 74.565C205.085 72.4161 205.842 70.5704 207.385 69.0332C208.906 67.5122 210.751 66.7544 212.894 66.7544C215.043 66.7544 216.888 67.5122 218.425 69.0332C219.946 70.5758 220.704 72.4161 220.704 74.565C220.704 76.7139 219.946 78.5596 218.425 80.0752ZM207.683 79.8154C209.117 81.2714 210.848 81.9859 212.889 81.9859C214.929 81.9859 216.666 81.2714 218.117 79.8154C219.551 78.3594 220.265 76.6273 220.265 74.565C220.265 72.5027 219.551 70.7653 218.117 69.3146C216.666 67.8586 214.929 67.1441 212.889 67.1441C210.848 67.1441 209.111 67.8586 207.683 69.3146C206.232 70.7707 205.512 72.5027 205.512 74.565C205.512 76.6273 206.227 78.3594 207.683 79.8154Z" fill="#00CCFF"/>
<path d="M189.635 75.3664V75.5829C189.635 76.6113 189.451 77.5694 189.088 78.4462C188.726 79.3285 188.179 80.1188 187.459 80.8333C186.74 81.5532 185.906 82.0944 184.97 82.4517C184.034 82.8089 183 82.9876 181.869 82.9876C180.624 82.9876 179.482 82.7819 178.449 82.3813C177.404 81.9754 176.473 81.3637 175.667 80.5572C174.86 79.7507 174.249 78.8414 173.843 77.8346C173.437 76.8332 173.231 75.7453 173.231 74.5707C173.231 73.4015 173.432 72.3136 173.832 71.3176C174.233 70.3163 174.839 69.4123 175.64 68.595C176.435 67.7831 177.344 67.1714 178.351 66.7655C179.352 66.3595 180.456 66.1539 181.647 66.1539C182.378 66.1539 183.087 66.2405 183.768 66.4191C184.445 66.5923 185.094 66.8575 185.717 67.2093C186.339 67.5612 186.886 67.9725 187.362 68.4434C187.838 68.9144 188.249 69.4502 188.59 70.0348L188.888 70.5544L187.47 71.388L187.167 70.8521C186.902 70.3812 186.583 69.959 186.204 69.5801C185.825 69.2012 185.392 68.8711 184.9 68.5842C184.402 68.3027 183.882 68.097 183.341 67.9563C182.8 67.821 182.231 67.7506 181.636 67.7506C180.651 67.7506 179.753 67.913 178.952 68.2432C178.151 68.5679 177.431 69.0605 176.798 69.7155C176.148 70.3758 175.661 71.1065 175.342 71.9076C175.023 72.7087 174.866 73.5964 174.866 74.5653C174.866 75.5288 175.028 76.411 175.358 77.2175C175.683 78.0186 176.181 78.7548 176.836 79.4097L176.841 79.4151C177.485 80.0701 178.221 80.5572 179.049 80.8874C179.888 81.2176 180.824 81.3854 181.858 81.3854C182.773 81.3854 183.595 81.2501 184.326 80.974C185.051 80.7034 185.695 80.292 186.252 79.7561C186.815 79.2149 187.243 78.6086 187.535 77.9429C187.746 77.4557 187.892 76.9307 187.957 76.3732H180.797V74.771H189.624V75.3772L189.635 75.3664ZM203.132 82.7656H202.31L198.462 76.2541H193.542V82.7656H191.897V66.3595H198.364C199.035 66.3595 199.669 66.484 200.259 66.733C200.843 66.9766 201.373 67.3392 201.855 67.821C202.331 68.2973 202.699 68.8332 202.943 69.4232C203.186 70.0077 203.311 70.6356 203.311 71.3122C203.311 71.8914 203.219 72.4435 203.029 72.9631C202.845 73.4827 202.564 73.9699 202.196 74.4246L202.191 74.43C201.812 74.8792 201.39 75.2581 200.919 75.545C200.675 75.6966 200.415 75.8211 200.15 75.9239L204.198 82.7656H203.138H203.132ZM193.542 74.6519H198.359C198.814 74.6519 199.236 74.5707 199.62 74.4083C200.004 74.2459 200.361 73.997 200.681 73.6668L200.686 73.6614C201.011 73.3366 201.254 72.9793 201.417 72.5896C201.574 72.2053 201.66 71.7777 201.66 71.3122C201.66 70.8467 201.579 70.4245 201.422 70.0348C201.26 69.6397 201.011 69.2716 200.686 68.936C200.367 68.6167 200.01 68.3731 199.62 68.2107C199.236 68.0483 198.814 67.9671 198.359 67.9671H193.542V74.6519ZM218.859 80.5031C218.031 81.3312 217.117 81.9483 216.126 82.3651C215.13 82.7765 214.053 82.9821 212.901 82.9821C211.743 82.9821 210.666 82.7765 209.67 82.3597C208.679 81.9483 207.776 81.3312 206.964 80.5031C206.141 79.6858 205.519 78.7818 205.108 77.7967C204.691 76.8008 204.485 75.7182 204.485 74.5653C204.485 73.4124 204.691 72.3352 205.102 71.3393C205.513 70.3433 206.136 69.434 206.958 68.6058C207.77 67.7885 208.679 67.1769 209.675 66.7655C210.671 66.3541 211.748 66.1484 212.901 66.1484C215.212 66.1484 217.198 66.9658 218.859 68.6004L218.865 68.6058C219.676 69.4286 220.293 70.3433 220.699 71.3393C221.111 72.3406 221.316 73.4124 221.316 74.5653C221.316 75.7182 221.111 76.7953 220.699 77.7913C220.288 78.7872 219.676 79.6912 218.859 80.5085V80.5031ZM208.122 79.3881C208.782 80.0592 209.507 80.5572 210.303 80.882C211.093 81.2122 211.959 81.3745 212.901 81.3745C213.842 81.3745 214.714 81.2122 215.504 80.882C216.299 80.5518 217.03 80.0538 217.696 79.3881C218.356 78.7169 218.854 77.9862 219.179 77.1851C219.503 76.3894 219.666 75.5179 219.666 74.5599C219.666 73.6072 219.503 72.7304 219.179 71.9347C218.854 71.1336 218.356 70.4029 217.696 69.7317C217.03 69.0659 216.294 68.5679 215.498 68.2378C214.708 67.9076 213.837 67.7452 212.895 67.7452C211.954 67.7452 211.088 67.9076 210.298 68.2378C209.502 68.5679 208.777 69.0659 208.122 69.7317C207.451 70.4083 206.948 71.139 206.617 71.9347C206.287 72.7304 206.125 73.6018 206.125 74.5599C206.125 75.5125 206.287 76.3894 206.617 77.1851C206.948 77.9807 207.446 78.7169 208.117 79.3881H208.122Z" fill="#00CCFF"/>
<path d="M233.253 80.9445C232.273 81.8972 230.952 82.3735 229.28 82.3735C227.608 82.3735 226.309 81.8972 225.329 80.9445C224.355 80.0135 223.852 78.774 223.852 77.2747V66.9634H224.285V77.2747C224.285 78.6387 224.718 79.7483 225.584 80.636C226.428 81.5237 227.667 81.9838 229.275 81.9838C230.882 81.9838 232.116 81.5291 232.987 80.636C233.832 79.7483 234.265 78.6387 234.265 77.2747V66.9634H234.698V77.2747C234.698 78.7686 234.221 80.0081 233.247 80.9445H233.253ZM243.492 66.9688C244.839 66.9688 245.943 67.4018 246.831 68.2733C247.719 69.1393 248.157 70.2273 248.157 71.5263C248.157 72.8308 247.724 73.9134 246.831 74.7794C245.943 75.6454 244.834 76.0785 243.492 76.0785H239.26V82.157H238.827V66.9634H243.492V66.9688ZM243.492 75.6942C244.731 75.6942 245.727 75.3044 246.528 74.5034C247.329 73.7239 247.724 72.7226 247.724 71.5317C247.724 70.3355 247.334 69.3396 246.528 68.5385C245.727 67.7591 244.726 67.3693 243.492 67.3693H239.26V75.705H243.492V75.6942Z" fill="#00CCFF"/>
<path d="M233.672 81.3769C233.126 81.9127 232.476 82.3187 231.73 82.5839C230.999 82.8492 230.182 82.9791 229.278 82.9791C228.374 82.9791 227.562 82.8492 226.837 82.5839C226.101 82.3133 225.457 81.9127 224.905 81.3769C224.353 80.8518 223.942 80.2348 223.66 79.5419C223.384 78.8545 223.244 78.0967 223.244 77.274V66.3564H224.889V77.274C224.889 78.4756 225.268 79.4445 226.02 80.2131L226.025 80.2185C226.383 80.5974 226.832 80.8843 227.357 81.0738C227.903 81.274 228.542 81.3715 229.278 81.3715C230.009 81.3715 230.653 81.2686 231.199 81.0738C231.735 80.8789 232.184 80.592 232.558 80.2131C232.926 79.8288 233.202 79.3958 233.386 78.9195C233.57 78.4323 233.667 77.8802 233.667 77.274V66.3564H235.312V77.274C235.312 78.1021 235.177 78.8654 234.906 79.5528C234.63 80.2402 234.224 80.8518 233.678 81.3769H233.672ZM243.49 66.3619C244.236 66.3619 244.924 66.4864 245.552 66.7299C246.185 66.9789 246.748 67.347 247.251 67.8341C247.76 68.3267 248.138 68.8842 248.387 69.5067C248.636 70.1237 248.761 70.7949 248.761 71.5256C248.761 72.251 248.636 72.9275 248.387 73.5446C248.138 74.1617 247.76 74.7192 247.251 75.2172C246.748 75.7097 246.179 76.0778 245.552 76.3214C244.924 76.5649 244.236 76.6894 243.49 76.6894H239.864V82.768H238.218V66.3619H243.49ZM243.49 75.0872C244.031 75.0872 244.518 75.0061 244.951 74.8328C245.378 74.665 245.757 74.4106 246.098 74.0751L246.104 74.0696C246.439 73.7395 246.693 73.366 246.856 72.9546C247.024 72.5324 247.11 72.0561 247.11 71.531C247.11 71.006 247.029 70.5351 246.861 70.1075C246.693 69.6907 246.439 69.3064 246.098 68.96C245.757 68.6298 245.378 68.3808 244.951 68.2184C244.518 68.0506 244.031 67.9695 243.49 67.9695H239.864V75.0872H243.49Z" fill="#00CCFF"/>
</g>
<defs>
<clipPath id="clip0_859_8">
<rect width="248.765" height="98.1497" fill="white"/>
</clipPath>
</defs>
</svg>
