<svg width="80" height="61" viewBox="0 0 80 61" fill="none" xmlns="http://www.w3.org/2000/svg">
<path d="M1.93556 49.0122H78.0644C78.5952 49.0122 79.0779 49.2296 79.4281 49.5792L79.4321 49.5832C79.7823 49.9328 80 50.4147 80 50.9446V54.0933C80 54.6232 79.7823 55.1051 79.4321 55.4547V55.4587C79.0819 55.8083 78.5972 56.0257 78.0644 56.0257H1.93556C1.40175 56.0257 0.91811 55.8083 0.567924 55.4587C0.217738 55.1091 0 54.6252 0 54.0933V50.9446C0 50.4117 0.217738 49.9288 0.567924 49.5792H0.571937C0.922124 49.2296 1.40476 49.0122 1.93556 49.0122ZM77.8116 51.1971H2.18741V53.8418H77.8116V51.1971Z" fill="white"/>
<path fill-rule="evenodd" clip-rule="evenodd" d="M32.8765 2.18487C32.2724 2.18487 31.7828 1.69599 31.7828 1.09292C31.7828 0.489847 32.2724 0.000976562 32.8765 0.000976562H57.825C58.429 0.000976562 58.9187 0.489847 58.9187 1.09292V25.5986C58.9187 26.2016 58.429 26.6905 57.825 26.6905H21.9023C21.2983 26.6905 20.8086 26.2016 20.8086 25.5986V1.09292C20.8086 0.489847 21.2983 0.000976562 21.9023 0.000976562H26.9534C27.5575 0.000976562 28.0471 0.489847 28.0471 1.09292C28.0471 1.69599 27.5575 2.18487 26.9534 2.18487H22.996V24.5066H56.7313V2.18487H32.8765Z" fill="white"/>
<path fill-rule="evenodd" clip-rule="evenodd" d="M2.78638 42.3015C2.78638 41.6985 3.27604 41.2096 3.88008 41.2096C4.48413 41.2096 4.97379 41.6985 4.97379 42.3015V49.0125H38.8455V26.6907H4.97379V36.388C4.97379 36.9911 4.48413 37.4799 3.88008 37.4799C3.27604 37.4799 2.78638 36.9911 2.78638 36.388V25.5988C2.78638 24.9957 3.27604 24.5068 3.88008 24.5068H39.9402C40.5443 24.5068 41.0339 24.9957 41.0339 25.5988V50.1044C41.0339 50.7075 40.5443 51.1964 39.9402 51.1964H3.88008C3.27604 51.1964 2.78638 50.7075 2.78638 50.1044V42.3015Z" fill="white"/>
<path d="M37.6988 0H42.0285C42.5954 0 43.1091 0.23041 43.4814 0.602072C43.8536 0.973734 44.0844 1.48665 44.0844 2.05266V10.08C44.0844 10.646 43.8536 11.1589 43.4814 11.5305C43.1091 11.9022 42.5954 12.1326 42.0285 12.1326H37.6988C37.1319 12.1326 36.6181 11.9022 36.2459 11.5305C35.8736 11.1589 35.6428 10.646 35.6428 10.08V2.05266C35.6428 1.48665 35.8736 0.973734 36.2459 0.602072C36.6181 0.23041 37.1329 0 37.6988 0V0ZM41.896 2.18489H37.8302V9.94872H41.896V2.18489Z" fill="white"/>
<path d="M19.7459 24.5059H24.0756C24.6425 24.5059 25.1562 24.7363 25.5285 25.1079C25.9008 25.4796 26.1315 25.9925 26.1315 26.5585V34.5858C26.1315 35.1518 25.9008 35.6647 25.5285 36.0364C25.1562 36.4081 24.6425 36.6385 24.0756 36.6385H19.7459C19.179 36.6385 18.6652 36.4081 18.293 36.0364C17.9207 35.6647 17.6899 35.1508 17.6899 34.5858V26.5585C17.6899 25.9925 17.9207 25.4796 18.293 25.1079C18.6652 24.7363 19.18 24.5059 19.7459 24.5059ZM23.9431 26.6907H19.8774V34.4546H23.9431V26.6907Z" fill="white"/>
<path d="M55.8353 24.5059H60.1649C60.7319 24.5059 61.2456 24.7363 61.6179 25.1079C61.9901 25.4796 62.2209 25.9925 62.2209 26.5585V33.3937C62.2209 33.9597 61.9901 34.4726 61.6179 34.8443C61.2456 35.2159 60.7319 35.4463 60.1649 35.4463H55.8353C55.2683 35.4463 54.7546 35.2159 54.3823 34.8443C54.0101 34.4726 53.7793 33.9587 53.7793 33.3937V26.5585C53.7793 25.9925 54.0101 25.4796 54.3823 25.1079C54.7546 24.7363 55.2693 24.5059 55.8353 24.5059ZM60.0325 26.6908H55.9667V33.2625H60.0325V26.6908Z" fill="white"/>
<path d="M35.5605 53.8408H44.4396C44.9483 53.8408 45.4129 54.0502 45.752 54.3878L45.754 54.3858C46.0902 54.7214 46.2999 55.1862 46.2999 55.6981V59.1423C46.2999 59.6542 46.0912 60.119 45.754 60.4546L45.752 60.4526C45.4129 60.7902 44.9483 60.9996 44.4396 60.9996H35.5605C35.0518 60.9996 34.5872 60.7902 34.2481 60.4526L34.246 60.4546C33.9099 60.119 33.7002 59.6542 33.7002 59.1423V55.6981C33.7002 55.1862 33.9089 54.7214 34.246 54.3858L34.2481 54.3878C34.5872 54.0502 35.0518 53.8408 35.5605 53.8408ZM44.1125 56.0257H35.8886V58.8157H44.1125V56.0257Z" fill="white"/>
<path d="M66.165 53.8408H75.0441C75.5528 53.8408 76.0174 54.0502 76.3565 54.3878L76.3585 54.3858C76.6947 54.7214 76.9044 55.1862 76.9044 55.6981V59.1423C76.9044 59.6542 76.6957 60.119 76.3585 60.4546L76.3565 60.4526C76.0174 60.7902 75.5528 60.9996 75.0441 60.9996H66.165C65.6563 60.9996 65.1917 60.7902 64.8525 60.4526L64.8505 60.4546C64.5144 60.119 64.3047 59.6542 64.3047 59.1423V55.6981C64.3047 55.1862 64.5134 54.7214 64.8505 54.3858L64.8525 54.3878C65.1917 54.0502 65.6563 53.8408 66.165 53.8408ZM74.717 56.0257H66.4931V58.8157H74.717V56.0257Z" fill="white"/>
<path d="M4.95576 53.8408H13.8348C14.3436 53.8408 14.8081 54.0502 15.1473 54.3878L15.1493 54.3858C15.4854 54.7214 15.6951 55.1862 15.6951 55.6981V59.1423C15.6951 59.6542 15.4864 60.119 15.1493 60.4546L15.1473 60.4526C14.8081 60.7902 14.3436 60.9996 13.8348 60.9996H4.95576C4.44704 60.9996 3.98246 60.7902 3.64331 60.4526L3.64131 60.4546C3.30517 60.119 3.09546 59.6542 3.09546 59.1423V55.6981C3.09546 55.1862 3.30417 54.7214 3.64131 54.3858L3.64331 54.3878C3.98246 54.0502 4.44704 53.8408 4.95576 53.8408ZM13.5077 56.0257H5.28387V58.8157H13.5077V56.0257Z" fill="white"/>
<path d="M41.2757 24.5059H74.724C75.3932 24.5059 76.0013 24.7783 76.4408 25.2171V25.2211C76.8803 25.6599 77.1532 26.265 77.1532 26.9312V48.7701C77.1532 49.4353 76.8803 50.0403 76.4408 50.4801V50.4841C76.0013 50.9229 75.3932 51.1954 74.724 51.1954H41.2757C40.6064 51.1954 39.9983 50.9229 39.5588 50.4841C39.1194 50.0453 38.8464 49.4383 38.8464 48.7701V26.9312C38.8464 26.263 39.1194 25.6559 39.5588 25.2171C39.9983 24.7783 40.6064 24.5059 41.2757 24.5059ZM74.724 26.6908H41.2757C41.2104 26.6908 41.1502 26.7178 41.1061 26.7629C41.0619 26.807 41.0338 26.8671 41.0338 26.9322V48.7711C41.0338 48.8362 41.0609 48.8963 41.1061 48.9404C41.1502 48.9845 41.2104 49.0125 41.2757 49.0125H74.724C74.7892 49.0125 74.8494 48.9855 74.8935 48.9404L74.8955 48.9424C74.9387 48.8983 74.9648 48.8372 74.9648 48.7711V26.9322C74.9648 26.8651 74.9377 26.805 74.8955 26.7609L74.8935 26.7629C74.8494 26.7188 74.7892 26.6908 74.724 26.6908Z" fill="white"/>
</svg>
